<?xml version="1.0" encoding="utf-8"?>
<!-- Generator: Adobe Illustrator 23.0.3, SVG Export Plug-In . SVG Version: 6.00 Build 0)  -->
<svg version="1.1" id="Layer_1" xmlns="http://www.w3.org/2000/svg" xmlns:xlink="http://www.w3.org/1999/xlink" x="0px" y="0px"
	 viewBox="0 0 352 632.9" style="enable-background:new 0 0 352 632.9;" xml:space="preserve">
<style type="text/css">
	.st0{fill:#214A9A;}
	.st1{fill:#707070;}
	.st2{fill:#2A62BC;}
</style>
<path class="st0" d="M273.87,202.92c12.77,0.93,25.54,1.86,38.31,2.79c0.93,151.4,1.86,302.8,2.79,454.2
	c-13.93,0.46-27.87,0.93-41.8,1.39C273.4,508.51,273.64,355.71,273.87,202.92z"/>
<path class="st1" d="M144.29,156.24c3.48-3.95,6.97-7.9,10.45-11.84c41.1,3.02,82.2,6.04,123.3,9.06
	c0.93,143.97,1.86,287.94,2.79,431.91c-47.14,5.11-94.28,10.22-141.42,15.33c0-147.22,0-294.44,0-441.67
	C141.04,158.1,142.67,157.17,144.29,156.24z"/>
<path class="st2" d="M19.6,134.65c17.42-40.4,34.83-80.81,52.25-121.21c23.22,44.58,46.44,89.17,69.66,133.75c0,2.56,0,5.13,0,7.69
	c2.79,0,5.57,0,8.36,0c0,226.86,0,453.72,0,680.58c-43.66,0-87.31,0-130.97,0C19.13,601.86,19.36,368.25,19.6,134.65z"/>
<path class="st0" d="M18.9,236.36c17.18-30.42,34.37-60.84,51.55-91.26c4.64,226.17,9.29,452.35,13.93,678.52
	c-21.83,0-43.66,0-65.48,0C18.9,627.86,18.9,432.11,18.9,236.36z"/>
<path class="st1" d="M18.9,250.99c16.95-31.58,33.9-63.16,50.85-94.74c0.46,147.92,0.93,295.84,1.39,443.76
	c4.64-0.23,9.29-0.46,13.93-0.7c0.23-147.45,0.46-294.91,0.7-442.36c-0.23-33.44-0.46-66.88-0.7-100.32
	c1.63-2.55,3.25-5.11,4.88-7.66c-6.04-11.84-12.07-23.69-18.11-35.53C54.43,53.84,37.01,94.24,19.6,134.65
	C19.36,173.43,19.13,212.21,18.9,250.99z"/>
<path class="st0" d="M85.08,56.63c1.63-2.55,3.25-5.11,4.88-7.66"/>
<g>
	
		<ellipse transform="matrix(0.9762 -0.2169 0.2169 0.9762 -36.9212 40.9319)" class="st2" cx="167.98" cy="188.64" rx="8.81" ry="9.91"/>
	
		<ellipse transform="matrix(0.9762 -0.2169 0.2169 0.9762 -36.7424 45.3476)" class="st2" cx="188.18" cy="190.03" rx="8.81" ry="9.91"/>
	
		<ellipse transform="matrix(0.9762 -0.2169 0.2169 0.9762 -36.5801 49.6122)" class="st2" cx="207.69" cy="191.42" rx="8.81" ry="9.91"/>
	
		<ellipse transform="matrix(0.9762 -0.2169 0.2169 0.9762 -36.4179 53.8767)" class="st2" cx="227.19" cy="192.82" rx="8.81" ry="9.91"/>
	
		<ellipse transform="matrix(0.9762 -0.2169 0.2169 0.9762 -36.4068 58.1579)" class="st2" cx="246.7" cy="194.91" rx="8.81" ry="9.91"/>
	
		<ellipse transform="matrix(0.9762 -0.2169 0.2169 0.9762 -36.2611 62.2713)" class="st2" cx="265.51" cy="196.3" rx="8.81" ry="9.91"/>
	
		<ellipse transform="matrix(0.9762 -0.2169 0.2169 0.9762 -43.1172 41.6121)" class="st2" cx="167.98" cy="217.2" rx="8.81" ry="9.91"/>
	
		<ellipse transform="matrix(0.9762 -0.2169 0.2169 0.9762 -42.9383 46.0278)" class="st2" cx="188.18" cy="218.59" rx="8.81" ry="9.91"/>
	
		<ellipse transform="matrix(0.9762 -0.2169 0.2169 0.9762 -42.7761 50.2923)" class="st2" cx="207.69" cy="219.99" rx="8.81" ry="9.91"/>
	
		<ellipse transform="matrix(0.9762 -0.2169 0.2169 0.9762 -42.6138 54.5569)" class="st2" cx="227.19" cy="221.38" rx="8.81" ry="9.91"/>
	
		<ellipse transform="matrix(0.9762 -0.2169 0.2169 0.9762 -42.6027 58.838)" class="st2" cx="246.7" cy="223.47" rx="8.81" ry="9.91"/>
	
		<ellipse transform="matrix(0.9762 -0.2169 0.2169 0.9762 -42.4571 62.9515)" class="st2" cx="265.51" cy="224.86" rx="8.81" ry="9.91"/>
</g>
<ellipse transform="matrix(0.9762 -0.2169 0.2169 0.9762 -48.6921 42.377)" class="st2" cx="168.68" cy="242.98" rx="8.81" ry="9.91"/>
<ellipse transform="matrix(0.9762 -0.2169 0.2169 0.9762 -48.5298 46.6416)" class="st2" cx="188.18" cy="244.37" rx="8.81" ry="9.91"/>
<ellipse transform="matrix(0.9762 -0.2169 0.2169 0.9762 -48.3676 50.9061)" class="st2" cx="207.69" cy="245.76" rx="8.81" ry="9.91"/>
<ellipse transform="matrix(0.9762 -0.2169 0.2169 0.9762 -48.2053 55.1707)" class="st2" cx="227.19" cy="247.16" rx="8.81" ry="9.91"/>
<ellipse transform="matrix(0.9762 -0.2169 0.2169 0.9762 -48.1942 59.4518)" class="st2" cx="246.7" cy="249.24" rx="8.81" ry="9.91"/>
<ellipse transform="matrix(0.9762 -0.2169 0.2169 0.9762 -48.0319 63.7164)" class="st2" cx="266.2" cy="250.64" rx="8.81" ry="9.91"/>
<ellipse transform="matrix(0.9762 -0.2169 0.2169 0.9762 -54.7369 43.0406)" class="st2" cx="168.68" cy="270.84" rx="8.81" ry="9.91"/>
<ellipse transform="matrix(0.9762 -0.2169 0.2169 0.9762 -54.5581 47.4562)" class="st2" cx="188.88" cy="272.23" rx="8.81" ry="9.91"/>
<ellipse transform="matrix(0.9762 -0.2169 0.2169 0.9762 -54.3958 51.7208)" class="st2" cx="208.38" cy="273.63" rx="8.81" ry="9.91"/>
<ellipse transform="matrix(0.9762 -0.2169 0.2169 0.9762 -54.2336 55.9854)" class="st2" cx="227.89" cy="275.02" rx="8.81" ry="9.91"/>
<ellipse transform="matrix(0.9762 -0.2169 0.2169 0.9762 -54.0879 60.0988)" class="st2" cx="246.7" cy="276.41" rx="8.81" ry="9.91"/>
<ellipse transform="matrix(0.9762 -0.2169 0.2169 0.9762 -53.9257 64.3634)" class="st2" cx="266.2" cy="277.81" rx="8.81" ry="9.91"/>
<ellipse transform="matrix(0.9762 -0.2169 0.2169 0.9762 -60.4795 43.6709)" class="st2" cx="168.68" cy="297.31" rx="8.81" ry="9.91"/>
<ellipse transform="matrix(0.9762 -0.2169 0.2169 0.9762 -60.3006 48.0866)" class="st2" cx="188.88" cy="298.71" rx="8.81" ry="9.91"/>
<ellipse transform="matrix(0.9762 -0.2169 0.2169 0.9762 -60.1384 52.3512)" class="st2" cx="208.38" cy="300.1" rx="8.81" ry="9.91"/>
<ellipse transform="matrix(0.9762 -0.2169 0.2169 0.9762 -59.9762 56.6157)" class="st2" cx="227.89" cy="301.49" rx="8.81" ry="9.91"/>
<ellipse transform="matrix(0.9762 -0.2169 0.2169 0.9762 -59.8305 60.7292)" class="st2" cx="246.7" cy="302.89" rx="8.81" ry="9.91"/>
<ellipse transform="matrix(0.9762 -0.2169 0.2169 0.9762 -59.6517 65.1449)" class="st2" cx="266.9" cy="304.28" rx="8.81" ry="9.91"/>
<ellipse transform="matrix(0.9762 -0.2169 0.2169 0.9762 -66.3732 44.3179)" class="st2" cx="168.68" cy="324.48" rx="8.81" ry="9.91"/>
<ellipse transform="matrix(0.9762 -0.2169 0.2169 0.9762 -66.1944 48.7336)" class="st2" cx="188.88" cy="325.87" rx="8.81" ry="9.91"/>
<ellipse transform="matrix(0.9762 -0.2169 0.2169 0.9762 -66.0321 52.9981)" class="st2" cx="208.38" cy="327.27" rx="8.81" ry="9.91"/>
<ellipse transform="matrix(0.9762 -0.2169 0.2169 0.9762 -65.7187 57.2461)" class="st2" cx="227.89" cy="327.96" rx="8.81" ry="9.91"/>
<ellipse transform="matrix(0.9762 -0.2169 0.2169 0.9762 -65.5565 61.5107)" class="st2" cx="247.4" cy="329.36" rx="8.81" ry="9.91"/>
<ellipse transform="matrix(0.9762 -0.2169 0.2169 0.9762 -65.3942 65.7752)" class="st2" cx="266.9" cy="330.75" rx="8.81" ry="9.91"/>
<ellipse transform="matrix(0.9762 -0.2169 0.2169 0.9762 -72.2503 45.116)" class="st2" cx="169.37" cy="351.65" rx="8.81" ry="9.91"/>
<ellipse transform="matrix(0.9762 -0.2169 0.2169 0.9762 -71.937 49.364)" class="st2" cx="188.88" cy="352.35" rx="8.81" ry="9.91"/>
<ellipse transform="matrix(0.9762 -0.2169 0.2169 0.9762 -71.7747 53.6285)" class="st2" cx="208.38" cy="353.74" rx="8.81" ry="9.91"/>
<ellipse transform="matrix(0.9762 -0.2169 0.2169 0.9762 -71.6125 57.8931)" class="st2" cx="227.89" cy="355.13" rx="8.81" ry="9.91"/>
<ellipse transform="matrix(0.9762 -0.2169 0.2169 0.9762 -71.2991 62.141)" class="st2" cx="247.4" cy="355.83" rx="8.81" ry="9.91"/>
<ellipse transform="matrix(0.9762 -0.2169 0.2169 0.9762 -71.1368 66.4056)" class="st2" cx="266.9" cy="357.22" rx="8.81" ry="9.91"/>
<ellipse transform="matrix(0.9762 -0.2169 0.2169 0.9762 -78.144 45.7629)" class="st2" cx="169.37" cy="378.82" rx="8.81" ry="9.91"/>
<ellipse transform="matrix(0.9762 -0.2169 0.2169 0.9762 -77.8307 50.0109)" class="st2" cx="188.88" cy="379.52" rx="8.81" ry="9.91"/>
<ellipse transform="matrix(0.9762 -0.2169 0.2169 0.9762 -77.6684 54.2755)" class="st2" cx="208.38" cy="380.91" rx="8.81" ry="9.91"/>
<ellipse transform="matrix(0.9762 -0.2169 0.2169 0.9762 -77.5062 58.54)" class="st2" cx="227.89" cy="382.3" rx="8.81" ry="9.91"/>
<ellipse transform="matrix(0.9762 -0.2169 0.2169 0.9762 -77.1928 62.788)" class="st2" cx="247.4" cy="383" rx="8.81" ry="9.91"/>
<ellipse transform="matrix(0.9762 -0.2169 0.2169 0.9762 -76.8794 67.036)" class="st2" cx="266.9" cy="383.7" rx="8.81" ry="9.91"/>
<ellipse transform="matrix(0.9762 -0.2169 0.2169 0.9762 -83.7355 46.3767)" class="st2" cx="169.37" cy="404.59" rx="8.81" ry="9.91"/>
<ellipse transform="matrix(0.9762 -0.2169 0.2169 0.9762 -83.5567 50.7924)" class="st2" cx="189.58" cy="405.99" rx="8.81" ry="9.91"/>
<ellipse transform="matrix(0.9762 -0.2169 0.2169 0.9762 -83.3944 55.057)" class="st2" cx="209.08" cy="407.38" rx="8.81" ry="9.91"/>
<ellipse transform="matrix(0.9762 -0.2169 0.2169 0.9762 -83.0976 59.1538)" class="st2" cx="227.89" cy="408.08" rx="8.81" ry="9.91"/>
<ellipse transform="matrix(0.9762 -0.2169 0.2169 0.9762 -82.952 63.2673)" class="st2" cx="246.7" cy="409.47" rx="8.81" ry="9.91"/>
<ellipse transform="matrix(0.9762 -0.2169 0.2169 0.9762 -82.7731 67.683)" class="st2" cx="266.9" cy="410.86" rx="8.81" ry="9.91"/>
<ellipse transform="matrix(0.9762 -0.2169 0.2169 0.9762 -89.4947 46.856)" class="st2" cx="168.68" cy="431.07" rx="8.81" ry="9.91"/>
<ellipse transform="matrix(0.9762 -0.2169 0.2169 0.9762 -89.3158 51.2717)" class="st2" cx="188.88" cy="432.46" rx="8.81" ry="9.91"/>
<ellipse transform="matrix(0.9762 -0.2169 0.2169 0.9762 -89.1536 55.5362)" class="st2" cx="208.38" cy="433.85" rx="8.81" ry="9.91"/>
<ellipse transform="matrix(0.9762 -0.2169 0.2169 0.9762 -88.8402 59.7842)" class="st2" cx="227.89" cy="434.55" rx="8.81" ry="9.91"/>
<ellipse transform="matrix(0.9762 -0.2169 0.2169 0.9762 -88.678 64.0488)" class="st2" cx="247.4" cy="435.94" rx="8.81" ry="9.91"/>
<ellipse transform="matrix(0.9762 -0.2169 0.2169 0.9762 -88.5157 68.3133)" class="st2" cx="266.9" cy="437.34" rx="8.81" ry="9.91"/>
<ellipse transform="matrix(0.9762 -0.2169 0.2169 0.9762 -95.5395 47.5195)" class="st2" cx="168.68" cy="458.93" rx="8.81" ry="9.91"/>
<ellipse transform="matrix(0.9762 -0.2169 0.2169 0.9762 -95.2096 51.9186)" class="st2" cx="188.88" cy="459.63" rx="8.81" ry="9.91"/>
<ellipse transform="matrix(0.9762 -0.2169 0.2169 0.9762 -94.8962 56.1666)" class="st2" cx="208.38" cy="460.32" rx="8.81" ry="9.91"/>
<ellipse transform="matrix(0.9762 -0.2169 0.2169 0.9762 -94.7339 60.4312)" class="st2" cx="227.89" cy="461.72" rx="8.81" ry="9.91"/>
<ellipse transform="matrix(0.9762 -0.2169 0.2169 0.9762 -94.4206 64.6791)" class="st2" cx="247.4" cy="462.41" rx="8.81" ry="9.91"/>
<ellipse transform="matrix(0.9762 -0.2169 0.2169 0.9762 -94.2583 68.9437)" class="st2" cx="266.9" cy="463.81" rx="8.81" ry="9.91"/>
<ellipse transform="matrix(0.9762 -0.2169 0.2169 0.9762 -101.4166 48.3176)" class="st2" cx="169.37" cy="486.1" rx="8.81" ry="9.91"/>
<ellipse transform="matrix(0.9762 -0.2169 0.2169 0.9762 -101.1033 52.5656)" class="st2" cx="188.88" cy="486.8" rx="8.81" ry="9.91"/>
<ellipse transform="matrix(0.9762 -0.2169 0.2169 0.9762 -100.941 56.8302)" class="st2" cx="208.38" cy="488.19" rx="8.81" ry="9.91"/>
<ellipse transform="matrix(0.9762 -0.2169 0.2169 0.9762 -100.6111 61.2293)" class="st2" cx="228.59" cy="488.89" rx="8.81" ry="9.91"/>
<ellipse transform="matrix(0.9762 -0.2169 0.2169 0.9762 -100.2977 65.4772)" class="st2" cx="248.09" cy="489.58" rx="8.81" ry="9.91"/>
<ellipse transform="matrix(0.9762 -0.2169 0.2169 0.9762 -99.9843 69.7252)" class="st2" cx="267.6" cy="490.28" rx="8.81" ry="9.91"/>
</svg>
