<?xml version="1.0" encoding="utf-8"?>
<!-- Generator: Adobe Illustrator 23.0.3, SVG Export Plug-In . SVG Version: 6.00 Build 0)  -->
<svg version="1.1" id="Layer_1" xmlns="http://www.w3.org/2000/svg" xmlns:xlink="http://www.w3.org/1999/xlink" x="0px" y="0px"
	 viewBox="0 0 1904.7 1221.42" style="enable-background:new 0 0 1904.7 1221.42;" xml:space="preserve">
<style type="text/css">
	.st0{fill:#62CDFF;}
	.st1{fill:#FFFFFF;}
</style>
<rect x="-0.96" y="0.42" class="st0" width="1904.87" height="1220.87"/>
<path class="st1" d="M1401.82,232.08c36.55,0,73.1,0,109.65,0c12.28-3.69,19.11-16.6,15.73-28.03
	c-3.59-12.17-17.76-19.29-30.48-14.26c-0.32-2.2-2.64-16.66-16.23-25.57c-13.13-8.61-26.77-5.47-29.01-4.92
	c-8.21-16.27-25.74-25.55-43.27-23.11c-19.02,2.65-34.11,18.57-35.89,38.35c-16.86,1.68-28.95,16.04-28.03,30.98
	c0.76,12.36,10.32,23.41,23.6,26.55C1379.2,232.08,1390.51,232.08,1401.82,232.08z"/>
<path class="st1" d="M549.56,257.91c36.55,0,73.1,0,109.65,0c12.28-3.69,19.11-16.6,15.73-28.03
	c-3.59-12.17-17.76-19.29-30.48-14.26c-0.32-2.2-2.64-16.66-16.23-25.57c-13.13-8.61-26.77-5.47-29.01-4.92
	c-8.21-16.27-25.74-25.55-43.27-23.11c-19.02,2.65-34.11,18.57-35.89,38.35c-16.86,1.68-28.95,16.04-28.03,30.98
	c0.76,12.36,10.32,23.41,23.6,26.55C526.94,257.91,538.25,257.91,549.56,257.91z"/>
<path class="st1" d="M1768.08,166.34c36.55,0,73.1,0,109.65,0c12.28-3.69,19.11-16.6,15.73-28.03
	c-3.59-12.17-17.76-19.29-30.48-14.26c-0.32-2.2-2.64-16.66-16.23-25.57c-13.13-8.61-26.77-5.47-29.01-4.92
	c-8.21-16.27-25.74-25.55-43.27-23.11c-19.02,2.65-34.11,18.57-35.89,38.35c-16.86,1.68-28.95,16.04-28.03,30.98
	c0.76,12.36,10.32,23.41,23.6,26.55C1745.46,166.34,1756.77,166.34,1768.08,166.34z"/>
<path class="st1" d="M1294.4,685.21c-36.55,0-73.1,0-109.65,0c-12.28-3.69-19.11-16.6-15.73-28.03
	c3.59-12.17,17.76-19.29,30.48-14.26c0.32-2.2,2.64-16.66,16.23-25.57c13.13-8.61,26.77-5.47,29.01-4.92
	c8.21-16.27,25.74-25.55,43.27-23.11c19.02,2.65,34.11,18.57,35.89,38.35c16.86,1.68,28.95,16.04,28.03,30.98
	c-0.76,12.36-10.32,23.41-23.6,26.55C1317.02,685.21,1305.71,685.21,1294.4,685.21z"/>
<path class="st1" d="M112.57,961.48c51.14,0,102.27,0,153.41,0c14.32-3.56,23.69-17.11,22.12-30.98
	c-1.71-15.08-15.93-26.69-31.96-25.08c-4.87-13.09-16.46-22.43-29.99-24.09c-15.13-1.86-30.14,6.18-37.37,20.16
	c-2.49-0.69-12.97-3.28-23.6,2.46c-6.59,3.55-10.2,8.66-11.8,11.31c-1.34-0.62-9.44-4.22-18.68-0.49
	c-9.5,3.83-12.78,12.41-13.28,13.77c-10.33-3.93-21.21,1.48-24.09,9.83C94.2,947.43,100.67,959.39,112.57,961.48z"/>
<path class="st1" d="M1544.74,891.04c51.14,0,102.27,0,153.41,0c14.32-3.56,23.69-17.11,22.12-30.98
	c-1.71-15.08-15.93-26.69-31.96-25.08c-4.87-13.09-16.46-22.43-29.99-24.09c-15.13-1.86-30.14,6.18-37.37,20.16
	c-2.49-0.69-12.97-3.28-23.6,2.46c-6.59,3.55-10.2,8.66-11.8,11.31c-1.34-0.62-9.44-4.22-18.68-0.49
	c-9.5,3.83-12.78,12.41-13.28,13.77c-10.33-3.93-21.21,1.48-24.09,9.83C1526.37,877,1532.84,888.95,1544.74,891.04z"/>
<path class="st1" d="M1573.59,1116.24c0.34,0.88,4.6,11.53,16.23,14.26c11.05,2.59,19.3-4.19,20.16-4.92
	c2.57,2.59,13.08,12.56,29.99,13.77c16.38,1.17,27.94-6.65,30.98-8.85c1.29,0.85,9.06,5.82,19.18,3.44
	c10.23-2.41,14.98-10.47,15.73-11.8c13.37,4.87,27.31-0.31,32.45-9.83c6.31-11.7-0.32-30.55-17.7-36.39
	c-0.26-2.45-1.67-13.07-10.82-20.65c-13.22-10.96-30.1-5.23-30.98-4.92c-5.55-13.92-18.18-23.51-32.45-24.58
	c-17.42-1.32-28.97,10.66-30.48,12.29c-1.15-0.45-19.34-7.18-34.91,4.43c-12.85,9.58-14.11,24.34-14.26,26.55
	c-17.43,2.17-27.41,18.82-23.6,31.47C1546.33,1111.21,1559.46,1119.15,1573.59,1116.24z"/>
<path class="st1" d="M99.16,148.93c0.34,0.88,4.6,11.53,16.23,14.26c11.05,2.59,19.3-4.19,20.16-4.92
	c2.58,2.59,13.08,12.56,29.99,13.77c16.38,1.17,27.94-6.65,30.98-8.85c1.29,0.85,9.06,5.82,19.18,3.44
	c10.23-2.41,14.98-10.47,15.73-11.8c13.37,4.87,27.31-0.31,32.45-9.83c6.31-11.7-0.32-30.55-17.7-36.39
	c-0.26-2.45-1.67-13.07-10.82-20.65c-13.22-10.96-30.1-5.23-30.98-4.92c-5.55-13.92-18.18-23.51-32.45-24.58
	c-17.42-1.32-28.97,10.66-30.48,12.29c-1.15-0.45-19.34-7.18-34.91,4.43c-12.85,9.58-14.11,24.34-14.26,26.55
	c-17.43,2.17-27.41,18.82-23.6,31.47C71.9,143.91,85.02,151.84,99.16,148.93z"/>
<path class="st1" d="M1442.12,484.67c0.34,0.88,4.6,11.53,16.23,14.26c11.05,2.59,19.3-4.19,20.16-4.92
	c2.57,2.59,13.08,12.56,29.99,13.77c16.38,1.17,27.94-6.65,30.98-8.85c1.29,0.85,9.06,5.82,19.18,3.44
	c10.23-2.41,14.98-10.47,15.73-11.8c13.37,4.87,27.31-0.31,32.45-9.83c6.31-11.7-0.32-30.55-17.7-36.39
	c-0.26-2.45-1.67-13.07-10.82-20.65c-13.22-10.96-30.1-5.23-30.98-4.92c-5.55-13.92-18.18-23.51-32.45-24.58
	c-17.42-1.32-28.97,10.66-30.48,12.29c-1.15-0.45-19.34-7.18-34.91,4.43c-12.85,9.58-14.11,24.34-14.26,26.55
	c-17.43,2.17-27.41,18.82-23.6,31.47C1414.85,479.65,1427.98,487.58,1442.12,484.67z"/>
<path class="st1" d="M1007.37,296.85c-42.45,0-84.9,0-127.35,0c-10.48-3.05-18.32-11.21-19.66-20.65
	c-1.84-12.95,8.69-27.15,25.08-29.5c0.66-1.61,8.95-20.74,29.99-25.08c14.87-3.06,30.38,2.44,40.32,14.26
	c1.64-0.67,14.31-5.6,27.04,1.48c10.87,6.04,14.14,16.57,14.75,18.68c12.08-1.22,22.68,7.29,24.09,18.19
	C1022.85,283.63,1017.03,293.22,1007.37,296.85z"/>
<path class="st1" d="M725.64,860.33c-42.45,0-84.9,0-127.35,0c-10.48-3.05-18.32-11.21-19.66-20.65
	c-1.84-12.95,8.69-27.15,25.08-29.5c0.66-1.61,8.95-20.74,29.99-25.08c14.87-3.06,30.38,2.44,40.32,14.26
	c1.64-0.67,14.31-5.6,27.04,1.48c10.87,6.04,14.14,16.57,14.75,18.68c12.08-1.22,22.68,7.29,24.09,18.19
	C741.11,847.11,735.29,856.69,725.64,860.33z"/>
<path class="st1" d="M387.55,677.2c-42.45,0-84.9,0-127.35,0c-10.48-3.05-18.32-11.21-19.66-20.65
	c-1.84-12.95,8.69-27.15,25.08-29.5c0.66-1.61,8.95-20.74,29.99-25.08c14.87-3.06,30.38,2.44,40.32,14.26
	c1.64-0.67,14.31-5.6,27.04,1.48c10.87,6.04,14.14,16.57,14.75,18.68c12.08-1.22,22.68,7.29,24.09,18.19
	C403.03,663.98,397.2,673.56,387.55,677.2z"/>
<path class="st1" d="M357.03,447.11c-42.45,0-84.9,0-127.35,0c-10.48-3.05-18.32-11.21-19.66-20.65
	c-1.84-12.95,8.69-27.15,25.08-29.5c0.66-1.61,8.95-20.74,29.99-25.08c14.87-3.06,30.38,2.44,40.32,14.26
	c1.64-0.67,14.31-5.6,27.04,1.48c10.87,6.04,14.14,16.57,14.75,18.68c12.08-1.22,22.68,7.29,24.09,18.19
	C372.5,433.89,366.68,443.48,357.03,447.11z"/>
<path class="st1" d="M918.69,1074.87c3.69,7.89,11.42,13.05,19.91,13.28c9.45,0.25,18.22-5.66,21.76-14.75
	c16.98,0.84,31.88-11.15,34.66-27.29c2.95-17.11-8.53-34.2-26.18-37.98c-0.32-0.94-3.87-10.92-14.38-14.01
	c-7.66-2.25-16.06,0.04-21.76,5.9c-7.74-10.85-20.81-16.46-33.56-14.38c-14.52,2.37-26.14,14.31-28.4,29.5
	c-10.06,0.51-18.42,7.66-20.28,16.96c-2.1,10.48,4.5,21.46,15.49,24.71c3.3,12.48,12.99,22.06,25.08,24.71
	C905.76,1084.74,917.1,1076.12,918.69,1074.87z"/>
<path class="st1" d="M446.77,1145.31c3.69,7.89,11.42,13.05,19.91,13.28c9.45,0.25,18.22-5.66,21.76-14.75
	c16.98,0.84,31.88-11.15,34.66-27.29c2.95-17.11-8.53-34.2-26.18-37.98c-0.32-0.94-3.87-10.92-14.38-14.01
	c-7.66-2.25-16.06,0.04-21.76,5.9c-7.74-10.85-20.81-16.46-33.56-14.38c-14.52,2.37-26.14,14.31-28.4,29.5
	c-10.06,0.51-18.42,7.66-20.28,16.96c-2.1,10.48,4.5,21.46,15.49,24.71c3.3,12.48,12.99,22.06,25.08,24.71
	C433.84,1155.17,445.19,1146.56,446.77,1145.31z"/>
<path class="st1" d="M1075.99,504.35c3.69,7.89,11.42,13.05,19.91,13.28c9.45,0.25,18.22-5.66,21.76-14.75
	c16.98,0.84,31.88-11.15,34.66-27.29c2.95-17.11-8.53-34.2-26.18-37.98c-0.32-0.94-3.87-10.92-14.38-14.01
	c-7.66-2.25-16.06,0.04-21.76,5.9c-7.74-10.85-20.81-16.46-33.56-14.38c-14.52,2.37-26.14,14.31-28.4,29.5
	c-10.06,0.51-18.42,7.66-20.28,16.96c-2.1,10.48,4.5,21.46,15.49,24.71c3.3,12.48,12.99,22.06,25.08,24.71
	C1063.06,514.21,1074.4,505.6,1075.99,504.35z"/>
<path class="st1" d="M1323.43,1149.28c0.82-0.07,11.19-1.09,15.49-9.22c4.26-8.05,0.9-19.9-9.22-26.18
	c2.76-9.22,0.04-19.26-7.01-25.81c-7.03-6.54-17.19-8.54-26.18-5.16c-0.48-0.66-6.42-8.49-16.59-8.11
	c-9.28,0.35-14.49,7.25-15.12,8.11c-1.29-0.85-9.14-5.82-19.18-3.32c-11.12,2.77-15.68,12.43-16.23,13.64
	c-8.66-4.26-18.74-1.76-23.6,5.16c-3.72,5.31-3.96,12.61-0.74,18.81c-11.77,2.94-19.43,14.1-18.07,25.45
	c1.48,12.39,13.34,21.85,26.55,20.28c-0.91,8.5,2.75,16.58,9.22,20.28c8.81,5.05,22.05,1.52,28.4-9.59c0.56,0.83,6.65,9.4,17.7,9.59
	c10.38,0.17,16.59-7.19,17.33-8.11c9.27,7.38,22.25,7.18,30.61,0C1323.93,1168.97,1326.6,1158.69,1323.43,1149.28z"/>
<path class="st1" d="M1201.34,144.41c0.82-0.07,11.19-1.09,15.49-9.22c4.26-8.05,0.9-19.9-9.22-26.18
	c2.76-9.22,0.04-19.26-7.01-25.81c-7.03-6.54-17.19-8.54-26.18-5.16c-0.48-0.66-6.42-8.49-16.59-8.11
	c-9.28,0.35-14.49,7.25-15.12,8.11c-1.29-0.85-9.14-5.82-19.18-3.32c-11.12,2.77-15.68,12.43-16.23,13.64
	c-8.66-4.26-18.74-1.76-23.6,5.16c-3.72,5.31-3.96,12.61-0.74,18.81c-11.77,2.94-19.43,14.1-18.07,25.44
	c1.48,12.39,13.34,21.85,26.55,20.28c-0.91,8.5,2.75,16.58,9.22,20.28c8.81,5.05,22.05,1.52,28.4-9.59c0.56,0.83,6.65,9.4,17.7,9.59
	c10.38,0.17,16.59-7.19,17.33-8.11c9.27,7.38,22.25,7.18,30.61,0C1201.84,164.1,1204.51,153.82,1201.34,144.41z"/>
<path class="st1" d="M1750.73,327.54c0.82-0.07,11.19-1.09,15.49-9.22c4.26-8.05,0.9-19.9-9.22-26.18
	c2.76-9.22,0.04-19.26-7.01-25.81c-7.03-6.54-17.19-8.54-26.18-5.16c-0.48-0.66-6.42-8.49-16.59-8.11
	c-9.28,0.35-14.49,7.25-15.12,8.11c-1.29-0.85-9.14-5.82-19.18-3.32c-11.12,2.77-15.68,12.43-16.23,13.64
	c-8.66-4.26-18.74-1.76-23.6,5.16c-3.72,5.31-3.96,12.61-0.74,18.81c-11.77,2.94-19.43,14.1-18.07,25.45
	c1.48,12.39,13.34,21.85,26.55,20.28c-0.91,8.5,2.75,16.58,9.22,20.28c8.81,5.05,22.05,1.52,28.4-9.59c0.56,0.83,6.65,9.4,17.7,9.59
	c10.38,0.17,16.59-7.19,17.33-8.11c9.27,7.38,22.25,7.18,30.61,0C1751.23,347.23,1753.91,336.95,1750.73,327.54z"/>
<path class="st1" d="M1101.13,964.72c42.45,0,84.9,0,127.35,0c10.48-3.05,18.32-11.21,19.66-20.65c1.84-12.95-8.69-27.15-25.08-29.5
	c-0.66-1.61-8.95-20.74-29.99-25.08c-14.87-3.06-30.38,2.44-40.32,14.26c-1.64-0.67-14.31-5.6-27.04,1.48
	c-10.87,6.04-14.14,16.57-14.75,18.68c-12.08-1.22-22.68,7.29-24.09,18.19C1085.66,951.5,1091.48,961.08,1101.13,964.72z"/>
<path class="st1" d="M1580.09,666.54c42.45,0,84.9,0,127.35,0c10.48-3.05,18.32-11.21,19.66-20.65c1.84-12.95-8.69-27.15-25.08-29.5
	c-0.66-1.61-8.95-20.74-29.99-25.08c-14.87-3.06-30.38,2.44-40.32,14.26c-1.64-0.67-14.31-5.6-27.04,1.48
	c-10.87,6.04-14.14,16.57-14.75,18.68c-12.08-1.22-22.68,7.29-24.09,18.19C1564.61,653.33,1570.43,662.91,1580.09,666.54z"/>
</svg>
