<?xml version="1.0" encoding="utf-8"?>
<!-- Generator: Adobe Illustrator 23.0.3, SVG Export Plug-In . SVG Version: 6.00 Build 0)  -->
<svg version="1.1" id="Layer_1" xmlns="http://www.w3.org/2000/svg" xmlns:xlink="http://www.w3.org/1999/xlink" x="0px" y="0px"
	 viewBox="0 0 1888 468" style="enable-background:new 0 0 1888 468;" xml:space="preserve">
<style type="text/css">
	.st0{display:none;}
	.st1{display:inline;fill:#62CDFF;}
	.st2{display:inline;fill:#769410;}
	.st3{display:inline;fill:#FFFFFF;}
	.st4{display:inline;}
	.st5{fill:#214A9A;}
	.st6{fill:#2A62BC;}
	.st7{fill:#707070;}
	.st8{fill:#E4C143;}
	.st9{fill:none;stroke:#E4C143;stroke-width:10.2936;stroke-miterlimit:10;}
	.st10{fill:none;stroke:#E4C143;stroke-width:9.1622;stroke-miterlimit:10;}
	.st11{fill:none;stroke:#E4C143;stroke-width:7.3526;stroke-miterlimit:10;}
	.st12{fill:none;stroke:#E4C143;stroke-width:7.3526;stroke-linejoin:round;stroke-miterlimit:10;}
	.st13{fill:none;stroke:#E4C143;stroke-width:5.8821;stroke-linejoin:round;stroke-miterlimit:10;}
	.st14{fill:none;stroke:#E4C143;stroke-width:4.4116;stroke-linejoin:round;stroke-miterlimit:10;}
	.st15{fill:none;stroke:#E4C143;stroke-width:7.0064;stroke-miterlimit:10;}
	.st16{fill:none;stroke:#E4C143;stroke-width:5.3895;stroke-miterlimit:10;}
	.st17{fill:#43617B;}
	.st18{fill:#D5C2B4;}
	.st19{fill:#E8D7B9;}
	.st20{fill:#C1B29A;}
	.st21{fill:none;stroke:#AA2E24;stroke-width:1.6182;stroke-linecap:round;stroke-miterlimit:10;}
	.st22{fill:none;stroke:#AA2E24;stroke-width:1.6182;stroke-linecap:round;stroke-linejoin:round;stroke-miterlimit:10;}
	.st23{fill:#7F9193;}
	.st24{fill:#A3A3A3;}
	.st25{fill:#D1D1D1;}
	.st26{fill:none;stroke:#D1D1D1;stroke-width:17.1799;stroke-miterlimit:10;}
	.st27{fill:none;stroke:#D1D1D1;stroke-width:13.4985;stroke-miterlimit:10;}
	.st28{fill:none;stroke:#D1D1D1;stroke-width:9.8171;stroke-miterlimit:10;}
	.st29{fill:none;stroke:#000000;stroke-width:1.6954;stroke-linecap:round;stroke-miterlimit:10;}
	.st30{fill:none;stroke:#265531;stroke-width:2.3735;stroke-miterlimit:10;}
	.st31{display:inline;fill:#5B4327;}
	.st32{display:inline;fill:#00983D;}
	.st33{fill:#5C4827;}
	.st34{fill:#819B12;}
	.st35{fill:#8FB017;}
	.st36{fill:#8BAE12;}
	.st37{fill:#5B4327;}
</style>
<g class="st0">
	<rect y="-474" class="st1" width="1887" height="731"/>
	<path class="st2" d="M1366-60c-87.31,13.23-112.21,29.27-227,49C911.42,28.12,733.45,12.5,647,6C506.64-4.56,301.49-14.12,0-13.2
		V467h1887V-7.4C1660.91-81.29,1486.61-78.28,1366-60z"/>
</g>
<g id="Buildings" class="st0">
	<g class="st4">
		<path class="st5" d="M1117.09-273.6c12.77,0.93,25.54,1.86,38.31,2.79c0.93,151.4,1.86,302.8,2.79,454.2
			c-13.93,0.46-27.87,0.93-41.8,1.39C1116.62,31.99,1116.85-120.81,1117.09-273.6z"/>
		<path class="st6" d="M993.08,134.73c0-152.12,0-304.24,0-456.36c-2.79,0-5.57,0-8.36,0c0-2.56,0-5.13,0-7.69
			c-23.22-44.58-46.44-89.17-69.66-133.75c-17.42,40.4-34.83,80.81-52.25,121.21c-0.16,158.87-0.32,317.73-0.47,476.6H993.08z"/>
		<path class="st7" d="M987.51-320.28c3.48-3.95,6.97-7.9,10.45-11.84c41.1,3.02,82.2,6.04,123.3,9.06
			c0.93,143.97,1.86,287.94,2.79,431.91c-47.14,5.11-94.28,10.22-141.42,15.33c0-147.22,0-294.44,0-441.67
			C984.26-318.42,985.89-319.35,987.51-320.28z"/>
		<path class="st5" d="M923.39,141.77c-3.24-157.73-6.48-315.46-9.72-473.19c-17.18,30.42-34.37,60.84-51.55,91.26
			c0,127.31,0,254.62,0,381.93H923.39z"/>
		<path class="st7" d="M862.12-225.54c16.95-31.58,33.9-63.16,50.85-94.74c0.46,147.92,0.93,295.84,1.39,443.76
			c4.64-0.23,9.29-0.46,13.93-0.7c0.23-147.45,0.46-294.91,0.7-442.36c-0.23-33.44-0.46-66.88-0.7-100.32
			c1.63-2.55,3.25-5.11,4.88-7.66c-6.04-11.84-12.07-23.69-18.11-35.53c-17.42,40.4-34.83,80.81-52.25,121.21
			C862.58-303.09,862.35-264.31,862.12-225.54z"/>
		
			<ellipse transform="matrix(0.9762 -0.2169 0.2169 0.9762 22.0349 219.8898)" class="st6" cx="1012.59" cy="9.58" rx="8.81" ry="9.91"/>
		
			<ellipse transform="matrix(0.9762 -0.2169 0.2169 0.9762 22.3483 224.1378)" class="st6" cx="1032.1" cy="10.27" rx="8.81" ry="9.91"/>
		
			<ellipse transform="matrix(0.9762 -0.2169 0.2169 0.9762 22.5105 228.4023)" class="st6" cx="1051.6" cy="11.67" rx="8.81" ry="9.91"/>
		
			<ellipse transform="matrix(0.9762 -0.2169 0.2169 0.9762 22.8405 232.8014)" class="st6" cx="1071.8" cy="12.36" rx="8.81" ry="9.91"/>
		
			<ellipse transform="matrix(0.9762 -0.2169 0.2169 0.9762 23.1539 237.0494)" class="st6" cx="1091.31" cy="13.06" rx="8.81" ry="9.91"/>
		
			<ellipse transform="matrix(0.9762 -0.2169 0.2169 0.9762 23.4672 241.2974)" class="st6" cx="1110.82" cy="13.76" rx="8.81" ry="9.91"/>
	</g>
	<g class="st4">
		<path class="st8" d="M518.04-80.59c-3.21-95.28-6.43-190.56-9.64-285.84c-5.45-4.81-10.9-9.62-16.35-14.43
			c-7.86,2.11-15.73,4.22-23.59,6.33c-1.66,2.11-3.32,4.22-4.99,6.33c0,1.92,0,3.84,0,5.75c-10.36-5.69-20.72-11.38-31.07-17.07
			c-1.21-4.09-2.43-8.18-3.64-12.28c-0.32-7.67-0.64-15.34-0.96-23.02c-3.26-4.09-6.52-8.18-9.78-12.28
			c-2.88-1.15-5.75-2.3-8.63-3.45c-9.78,4.73-19.56,9.46-29.35,14.19c-3.52,4.35-7.03,8.7-10.55,13.04
			c-1.21,137.78-2.43,275.56-3.64,413.34c0,3.07,0,6.14,0,9.21c18.7-0.19,37.4-0.38,56.1-0.58c-0.12-19.62-0.25-39.24-0.37-58.85
			c3.15-3.55,6.22-4.97,8.42-5.59c10.83-3.08,25.3,5.94,35.1,23.02c0.38,14.67,0.77,29.35,1.15,44.02
			c17.45,0.58,34.91,1.15,52.36,1.73C518.42-11.54,518.23-46.06,518.04-80.59z M494.49-184.75c0.03,1.18-1.52,1.63-2.13,0.62
			c-6.42-10.71-12.85-21.41-19.27-32.12c-1.86-3.1-1.57-7.03,0.72-9.82c5.15-6.28,10.31-12.57,15.46-18.85
			c1.28-1.56,3.82-0.69,3.87,1.33C493.59-223.98,494.04-204.37,494.49-184.75z M447.65-172.55c12.93,3.82,25.87,7.64,38.8,11.46
			c2.28,0.67,3.19,3.4,1.79,5.31c-5.42,7.38-10.85,14.76-16.27,22.14c-1.68,2.29-5.17,2.11-6.6-0.35
			c-6.81-11.7-13.63-23.4-20.44-35.1C443.86-170.94,445.6-173.15,447.65-172.55z M445.08-191.44c4.96-6.31,9.92-12.61,14.87-18.92
			c2.04-2.59,6.06-2.28,7.68,0.59c6.36,11.3,12.72,22.6,19.09,33.9c0.71,1.26-0.49,2.75-1.87,2.32
			c-12.6-3.88-25.21-7.76-37.81-11.64C444.37-186.01,443.36-189.25,445.08-191.44z M483.32-320.06c3.26,1.55,6.52,3.1,9.78,4.65
			c0,13.44,0,26.89,0,40.33c-3.26-1.48-6.52-2.96-9.78-4.44C483.32-293.03,483.32-306.54,483.32-320.06z M467.78-328.11
			c3.29,1.69,6.59,3.38,9.88,5.08c0,13.78,0,27.56,0,41.34c-3.29-1.5-6.59-3-9.88-4.5C467.78-300.17,467.78-314.14,467.78-328.11z
			 M451-336.36c3.61,1.85,7.22,3.71,10.84,5.56c0,14.13,0,28.26,0,42.39c-3.61-1.66-7.22-3.32-10.84-4.98
			C451-307.71,451-322.04,451-336.36z M445.55-276.5c12.91,5.61,25.82,11.22,38.73,16.82c2.59,1.13,3.32,4.46,1.42,6.56
			c-4.85,5.37-9.7,10.74-14.55,16.11c-2.17,2.4-6.03,2.06-7.74-0.69l-21.52-34.56C440.36-274.7,442.91-277.65,445.55-276.5z
			 M433.74-300.68c0-14.71,0-29.41,0-44.12c3.52,1.73,7.03,3.45,10.55,5.18c0,14.51,0,29.03,0,43.54
			C440.77-297.62,437.25-299.15,433.74-300.68z M434.46-202.48v-59.97c0-2.27,2.97-3.12,4.18-1.2c6.8,10.88,13.6,21.76,20.4,32.64
			c2.05,3.29,1.67,7.54-0.94,10.4c-6.12,6.72-12.24,13.44-18.36,20.16C437.87-198.39,434.46-199.71,434.46-202.48z M436.21-90.69
			c-0.13-21.63-0.27-43.26-0.4-64.89c-0.01-2.34,3.03-3.24,4.29-1.27c6.67,10.42,13.34,20.84,20.02,31.26
			c1.67,2.6,1.52,5.97-0.37,8.42c-7.03,9.1-14.06,18.2-21.09,27.31C437.86-88.83,436.21-89.39,436.21-90.69z M483.44-75.97
			c-11.94,0.44-23.88,0.88-35.82,1.31c-2.83,0.1-4.58-3.06-2.98-5.4l18.96-27.85c1.24-1.83,3.96-1.75,5.11,0.14
			c5.62,9.29,11.24,18.58,16.86,27.88C486.57-78.2,485.41-76.04,483.44-75.97z M493.47-84.47c-5.93-9.35-11.86-18.69-17.79-28.04
			c-2.48-3.92-2.33-8.95,0.39-12.71c5.48-7.56,10.97-15.13,16.45-22.69c0.93-1.28,2.95-0.63,2.96,0.95
			c0.17,20.58,0.33,41.17,0.5,61.75C496-83.84,494.21-83.31,493.47-84.47z"/>
		<path class="st9" d="M833.08,19.83c-37.89-2.06-92.95-4.86-159.39-7.48C554.85,7.66,442.78,5.22,274.92,3.71
			C195.59,3,81.46,2.29-58.25,2.56"/>
		<path class="st11" d="M734.68-86.63c0.9,34.27,1.79,68.54,2.69,102.81"/>
		<path class="st11" d="M767.67,16.56c23.78-34.91,47.57-69.82,71.35-104.73"/>
		<path class="st12" d="M640.7,11.96c-0.64-31.07-1.28-62.15-1.92-93.22c-21.99,30.69-43.99,61.38-65.98,92.07"/>
		<path class="st12" d="M552.85-78.96c0.26,29.67,0.51,59.33,0.77,89c-14.58-26.34-29.15-52.68-43.73-79.02"/>
		<path class="st12" d="M352.89,5.44c-13.14-22.54-26.28-45.07-39.42-67.61c0.1,21.87,0.19,43.73,0.29,65.6"/>
		<path class="st13" d="M315.2-61.02c-12.85,22.83-25.7,45.65-38.55,68.48"/>
		<path class="st14" d="M268.02,3.43c0-20.81,0-41.62,0-62.43c4.04,4.73,8.09,9.46,12.13,14.2c0,15.61,0,31.21,0,46.82"/>
		<path class="st14" d="M82.73,1.99c6.33-15.63,12.66-31.26,18.99-46.9c-0.19,15.73-0.38,31.46-0.58,47.18"/>
		<path class="st14" d="M117.26,2.56c-5.37-15.34-10.74-30.69-16.11-46.03"/>
		<path class="st14" d="M247.01,3.71c-8.25-18.61-16.5-37.21-24.74-55.82c-0.19,19.37-0.38,38.74-0.58,58.12"/>
		<path class="st14" d="M195.8,3.43c0.29-18.13,0.58-36.25,0.86-54.38"/>
		<path class="st14" d="M168.47,2.27c0.1-16.69,0.19-33.37,0.29-50.06"/>
		<path class="st14" d="M127.04,2.27c0.38-16.59,0.77-33.18,1.15-49.77c6.23,17.07,12.47,34.14,18.7,51.21"/>
		<path class="st8" d="M172.78-250.91c-2.69-0.77-5.37-1.53-8.06-2.3c-3.74,0.96-7.48,1.92-11.22,2.88
			c-2.11,2.88-4.22,5.75-6.33,8.63c0,3.84,0,7.67,0,11.51c-12.95-3.36-25.89-6.71-38.84-10.07c-1.73-4.03-3.45-8.06-5.18-12.08
			c-0.1-3.26-0.19-6.52-0.29-9.78c-1.92-4.41-3.84-8.82-5.75-13.23c-2.11,0.1-4.22,0.19-6.33,0.29c-3.26,0.67-6.52,1.34-9.78,2.01
			c-2.88,3.84-5.75,7.67-8.63,11.51c-0.74,8.89-1.86,22.39-3.16,38.84c-3.51,44.12-5.78,76.17-6.62,87.75
			c-2.14,29.6-5.63,74.19-11.51,137.53c9.88-0.1,19.76-0.19,29.63-0.29C81-3.77,81.29-9.81,81.58-15.85
			c5.98-2.58,19.32-7.31,35.68-4.32c7.49,1.37,13.51,3.97,17.84,6.33c0,4.99,0,9.98,0,14.96c11.6,0.19,23.21,0.38,34.81,0.57
			c2.78-81.13,5.56-162.27,8.34-243.4C176.43-244.77,174.61-247.84,172.78-250.91z M134.13-210.15c2.88,0.67,5.75,1.34,8.63,2.01
			c-0.06,9.62-0.13,19.24-0.19,28.87c-2.81-0.61-5.63-1.21-8.44-1.82C134.13-190.78,134.13-200.46,134.13-210.15z M118.5-213.6
			c3.2,0.74,6.39,1.47,9.59,2.21c-0.1,9.65-0.19,19.31-0.29,28.96c-3.1-0.6-6.2-1.21-9.3-1.81
			C118.5-194.03,118.5-203.82,118.5-213.6z M145.88-167.02c2.71,0.26,3.76,3.72,1.67,5.5c-4.78,4.07-9.57,8.14-14.35,12.21
			c-3.16,2.69-7.87,2.13-10.33-1.22c-3.73-5.06-7.46-10.13-11.19-15.19c-1.38-1.87,0.08-4.52,2.36-4.3
			C124.65-169.03,135.27-168.02,145.88-167.02z M144.19-108.7c-12.17-1.79-24.35-3.58-36.52-5.38c-1.9-0.28-2.62-2.65-1.19-3.93
			c5.64-5.08,11.27-10.17,16.91-15.25c1.64-1.48,4.2-1.28,5.59,0.44c5.67,6.99,11.33,13.99,17,20.98
			C147.09-110.47,145.94-108.44,144.19-108.7z M145.9-97.94c-5.93,5.62-11.87,11.25-17.8,16.87c-1.52,1.44-3.93,1.32-5.3-0.27
			c-5.69-6.61-11.38-13.22-17.07-19.83c-1.62-1.88-0.13-4.77,2.34-4.55c12.09,1.11,24.18,2.21,36.28,3.32
			C146.57-102.19,147.52-99.47,145.9-97.94z M102.1-216.96c3.39,0.7,6.78,1.41,10.17,2.11c-0.19,9.75-0.38,19.5-0.58,29.25
			c-3.45-0.67-6.91-1.34-10.36-2.01C101.59-197.4,101.85-207.18,102.1-216.96z M99.72-166.27c0.07-1.83,2.39-2.56,3.5-1.11
			c5.73,7.47,11.46,14.93,17.2,22.4c1.63,2.12,1.33,5.15-0.7,6.91c-5.46,4.74-10.91,9.47-16.37,14.21
			c-2.11,1.83-5.39,0.25-5.27-2.54C98.63-139.7,99.18-152.98,99.72-166.27z M95.08-55.19l1.04-42.8c0.04-1.84,2.35-2.63,3.51-1.21
			c5.92,7.21,11.85,14.43,17.77,21.64c1.85,2.25,1.6,5.56-0.56,7.51c-6.07,5.5-12.15,10.99-18.22,16.49
			C97.25-52.3,95.03-53.32,95.08-55.19z M101.72-45.77c6.68-6.9,13.37-13.8,20.05-20.7c1.12-1.15,2.99-1.07,3.99,0.19
			c5.03,6.26,10.06,12.53,15.08,18.79C127.8-46.92,114.76-46.35,101.72-45.77z M152.04-54.35c-0.04,2.03-2.47,3.04-3.94,1.64
			c-5.76-5.46-11.53-10.93-17.29-16.39c-2.03-1.92-1.96-5.16,0.13-7.01c6.26-5.5,12.53-11,18.79-16.5c1.22-1.07,3.14-0.18,3.1,1.44
			L152.04-54.35z M154.32-115.77c-0.05,2.01-2.62,2.83-3.82,1.21c-4.95-6.66-9.9-13.31-14.84-19.97c-2.27-3.06-1.84-7.34,1-9.88
			c4.86-4.36,9.73-8.72,14.59-13.08c1.59-1.43,4.12-0.26,4.07,1.88C154.98-142.32,154.65-129.04,154.32-115.77z M157.25-176.68
			c-2.81-0.8-5.63-1.6-8.44-2.4c0.19-9.33,0.38-18.67,0.58-28c2.69,0.61,5.37,1.21,8.06,1.82
			C157.38-195.73,157.31-186.21,157.25-176.68z"/>
		<path class="st15" d="M679.37,13.61c0-20.39,0-40.78,0-61.17"/>
		<path class="st15" d="M735.89-84.25c18.7,12.23,37.4,24.46,56.1,36.7c0,21.51,0,43.02,0,64.53"/>
		<path class="st15" d="M551.99-75.81c12.23,9,24.46,18,36.7,26.99c-0.42,19.54-0.84,39.09-1.27,58.63"/>
		<path class="st14" d="M231.64-41.86c0,14.62,0,29.24,0,43.87"/>
		<path class="st16" d="M680.64-47.55c12.37,19.68,24.74,39.37,37.12,59.05"/>
		<path class="st16" d="M587-46.29c16.03,18.84,32.06,37.68,48.08,56.52c14.76-19.27,29.53-38.53,44.29-57.8"/>
		<path class="st16" d="M469.32,5.45c-22.5-21.93-44.99-43.87-67.49-65.8"/>
		<path class="st16" d="M434.74,6.44c0-22.22,0-44.44,0-66.66"/>
	</g>
	<g class="st4">
		<path class="st17" d="M908.58-102.46c-0.1,7.55-0.21,15.09-0.31,22.64c8.6,0.12,17.19,0.24,25.79,0.36
			c-0.14,10.06-0.28,20.13-0.42,30.19c8.6,0.12,17.2,0.24,25.79,0.36c-0.1,7.55-0.21,15.09-0.31,22.64
			c8.8,0.12,17.6,0.24,26.41,0.37c-0.1,6.92-0.19,13.84-0.29,20.75c8.6,0.12,17.19,0.24,25.79,0.36
			c-0.12,9.01-0.25,18.03-0.37,27.04c9.22,0.13,18.45,0.26,27.67,0.38c-0.13,9.02-0.25,18.03-0.38,27.05
			c9.01,0.12,18.03,0.25,27.04,0.37c-0.12,9.01-0.25,18.03-0.37,27.04c9.86,0.14,19.71,0.27,29.57,0.41
			c-0.11,8.18-0.23,16.35-0.34,24.53c8.8,0.12,17.61,0.24,26.41,0.37c-0.12,8.6-0.24,17.2-0.36,25.79
			c9.22,0.13,18.45,0.26,27.67,0.38c-0.15,10.69-0.3,21.38-0.44,32.07c8.82,0.12,17.63,0.24,26.45,0.37
			c-0.1,7.55-0.21,15.1-0.31,22.64c-189.08-4.72-378.16-9.44-567.24-14.16c-50.79,3.07-101.57,6.14-152.36,9.21
			c0.1-6.92,0.19-13.84,0.29-20.76c6.92-0.11,13.84-0.22,20.76-0.33c0.11-8.18,0.23-16.35,0.34-24.53
			c6.94-1.79,13.89-3.58,20.83-5.37c0.1-6.92,0.19-13.84,0.29-20.75c7.4-4.09,14.79-8.18,22.19-12.27c0.05-3.77,0.1-7.55,0.16-11.32
			c7.4-4.3,14.8-8.6,22.2-12.9c0.06-3.98,0.11-7.97,0.17-11.95c7.61-4.72,15.23-9.43,22.84-14.15c0.03-2.31,0.06-4.61,0.1-6.92
			c7.42-5.77,14.84-11.54,22.26-17.3c0.06-4.42,0.12-8.84,0.18-13.27c7.82-4.48,15.64-8.97,23.46-13.45
			c0.04-2.73,0.08-5.47,0.11-8.2c7.85-6.59,15.7-13.19,23.55-19.78c-0.54-2.87-0.32-5.2,0.1-6.95c2.06-8.69,11.68-15.25,24.14-17.25
			c0.07-5.04,0.14-10.07,0.21-15.11c7.61-4.08,15.21-8.17,22.82-12.25c0.03-2.52,0.07-5.03,0.1-7.55
			c19.21-9.38,38.42-18.76,57.63-28.14C795.11-115.36,851.85-108.91,908.58-102.46z"/>
		<path class="st18" d="M1012.95-7.92c-0.07,4.83-0.13,9.65-0.2,14.48c-29.11-2.3-58.23-4.59-87.34-6.89
			c-3.79,0.79-7.57,1.57-11.36,2.36C872.37-1.06,830.68-4.15,789-7.25c0.01-1.05,0.03-2.1,0.04-3.14
			c-33.51-2.77-67.02-5.54-100.53-8.31C653.97-7.86,619.43,2.98,584.9,13.83c0.07-4.82,0.13-9.64,0.2-14.47
			c34.34-11.69,68.68-23.37,103.02-35.06c34.35,2.78,68.7,5.57,103.05,8.35c-0.02,1.47-0.04,2.93-0.06,4.4
			c42.1,3.1,84.21,6.2,126.31,9.3c2.52-0.59,5.05-1.19,7.57-1.78C954.31-12.92,983.63-10.42,1012.95-7.92z"/>
		<path class="st18" d="M1039.64,18.24c-0.07,4.82-0.13,9.64-0.2,14.47c-29.33-2.08-58.65-4.17-87.98-6.25
			c-3.36,0.58-6.73,1.16-10.09,1.75c-54.25-3.9-108.51-7.79-162.76-11.69c0.01-0.84,0.02-1.68,0.03-2.52
			c-34.15-2.36-68.29-4.72-102.44-7.08C638.1,17.71,600,28.51,561.9,39.3c0.07-4.82,0.13-9.64,0.2-14.47
			C600,13.2,637.91,1.56,675.81-10.07C711-7.7,746.2-5.32,781.39-2.95c-0.02,1.47-0.04,2.94-0.06,4.4
			c53.42,3.89,106.83,7.77,160.25,11.66c3.58-0.79,7.15-1.58,10.73-2.37C981.42,13.24,1010.53,15.74,1039.64,18.24z"/>
		<path class="st18" d="M1066.95,44.41c-0.07,4.82-0.13,9.64-0.2,14.47c-29.54-1.67-59.08-3.34-88.63-5
			c-2.94,0.59-5.89,1.18-8.83,1.76c-66.62-4.28-133.24-8.56-199.86-12.83c0.01-1.05,0.03-2.1,0.04-3.14
			c-35.41-1.96-70.82-3.92-106.23-5.88c-41.24,10.12-82.48,20.24-123.71,30.37c0.07-4.82,0.13-9.64,0.2-14.47
			c41.25-11.17,82.51-22.34,123.76-33.51c35.83,2.17,71.65,4.35,107.48,6.52c-0.02,1.26-0.03,2.52-0.05,3.77
			c66.62,4.49,133.23,8.98,199.85,13.46c2.74-0.8,5.47-1.6,8.21-2.4C1008.31,39.83,1037.63,42.12,1066.95,44.41z"/>
		<path class="st18" d="M1096.78,71.25c-0.07,4.83-0.13,9.65-0.2,14.48c-35.62-1.76-71.24-3.51-106.87-5.27
			c-3.99,0.36-7.98,0.73-11.97,1.09c-66.84-3.86-133.67-7.72-200.51-11.59c0.01-0.63,0.02-1.26,0.03-1.89
			c-42.53-2.27-85.07-4.53-127.6-6.8C605.29,70.52,560.92,79.76,516.55,89c0.07-4.82,0.13-9.64,0.2-14.47
			c44.39-10.29,88.77-20.58,133.16-30.87c43.16,2.28,86.33,4.55,129.49,6.83c-0.01,1.05-0.03,2.1-0.04,3.14
			c66.21,3.85,132.41,7.71,198.62,11.56c3.78-0.37,7.56-0.73,11.34-1.1C1025.13,66.48,1060.95,68.86,1096.78,71.25z"/>
		<path class="st18" d="M1017.24,91.53c35.62,1.96,71.24,3.92,106.86,5.88c-0.07,4.82-0.13,9.64-0.2,14.47
			c-35.63-1.33-71.26-2.67-106.88-4c-3.99,0.57-7.98,1.15-11.98,1.72c-79.62-4.04-159.25-8.08-238.87-12.12
			c0.01-0.63,0.02-1.26,0.03-1.89c-43.38-2.07-86.75-4.14-130.13-6.21c-47.08,8.15-94.16,16.31-141.25,24.46
			c0.07-4.82,0.13-9.64,0.2-14.47c47.1-9.2,94.19-18.4,141.29-27.61c44,2.08,88.01,4.16,132.01,6.23c-0.01,1.05-0.03,2.1-0.04,3.14
			c79.2,4.03,158.41,8.07,237.61,12.1C1009.67,92.68,1013.45,92.11,1017.24,91.53z"/>
		<path class="st18" d="M1045.15,119.6c35.42,1.33,70.84,2.66,106.25,3.99c-0.08,5.45-0.15,10.9-0.23,16.35
			c-35.21-1.33-70.42-2.65-105.63-3.98c-4.2,0.15-8.39,0.3-12.59,0.45c-92.63-3.38-185.27-6.76-277.9-10.14
			c0.01-0.63,0.02-1.26,0.03-1.89c-44.43-1.66-88.86-3.33-133.29-4.99c-49.78,6.23-99.56,12.46-149.34,18.69
			c0.06-4.61,0.13-9.22,0.19-13.84c49.8-7.7,99.6-15.39,149.41-23.09c45.27,1.89,90.53,3.77,135.8,5.66
			c-0.01,0.84-0.02,1.68-0.03,2.52c92.21,4,184.41,8.01,276.62,12.01C1038.01,120.76,1041.58,120.18,1045.15,119.6z"/>
		<path class="st18" d="M1074.06,167.18c35.31,0.53,70.31,1.45,105.01,2.71c0.08-5.87,0.16-11.74,0.24-17.61
			c-35.21-1.12-70.42-2.23-105.63-3.35c-3.99,0.36-7.98,0.73-11.97,1.09c-5.66-0.29-11.31-0.58-16.97-0.86
			c-4.62,0.57-9.24,1.13-13.86,1.7c-14.67-0.83-29.33-1.66-44-2.5c-0.08,6.08-0.17,12.16-0.25,18.24
			c14.47-0.22,28.94-0.44,43.41-0.66c4.41-0.15,8.81-0.3,13.22-0.45c6.07,0.5,12.15,1.01,18.22,1.51
			C1065.67,167.05,1069.86,167.11,1074.06,167.18z"/>
		<path class="st18" d="M450.11,162.3c0.06-4.63,0.13-9.26,0.19-13.89c52.08-5.55,104.16-11.1,156.24-16.65
			c46.32,1.48,92.64,2.96,138.96,4.44c-0.01,0.84-0.02,1.68-0.03,2.52c6.5,0.3,12.99,0.6,19.49,0.9c-0.01,0.66-0.02,1.33-0.03,1.99
			c6.5,0.09,13,0.18,19.5,0.27c-0.07,5.21-0.14,10.41-0.22,15.62c-6.71-0.09-13.42-0.19-20.13-0.28c0.01-0.66,0.02-1.33,0.03-1.99
			c-6.5-0.09-13-0.18-19.5-0.27c-0.01,0.66-0.02,1.33-0.03,1.99c-45.9-1.47-91.8-2.95-137.69-4.42
			C554.62,155.78,502.36,159.04,450.11,162.3z"/>
	</g>
	<g class="st4">
		<path class="st19" d="M354.62-2.1c-0.06-0.79-0.22-1.71-0.54-2.7c-1.03-3.14-3.17-5.06-4.32-5.93c-0.02-1-0.16-2.09-0.54-3.24
			c-1.79-5.44-7.42-7.65-8.63-8.09c-0.18-7.01-0.36-14.02-0.54-21.04c-1.08-0.72-2.16-1.44-3.24-2.16
			c-0.36-13.13-0.72-26.25-1.08-39.38c-0.14-0.55-0.43-1.38-1.08-2.16c-0.4-0.47-0.8-0.77-2.16-1.62c-0.7-0.43-1.61-0.99-2.7-1.62
			c-0.54-17.08-1.08-34.16-1.62-51.24c-2.7-1.62-5.39-3.24-8.09-4.85c-0.86,0.09-2.08,0.09-3.24-0.54c-1.07-0.58-1.5-1.37-2.16-2.16
			c-1.27-1.52-2.4-1.87-4.85-3.24c-1.58-0.89-3.83-2.26-6.47-4.32c-0.18-5.57-0.36-11.15-0.54-16.72c-0.36,0.18-0.72,0.36-1.08,0.54
			c-0.36,5.39-0.72,10.79-1.08,16.18c-1.35,1.03-2.5,1.74-3.24,2.16c-4.07,2.34-6.95,2.65-8.63,5.39c-0.28,0.46-0.45,0.86-0.54,1.08
			c-3.24,1.62-6.47,3.24-9.71,4.85c0,17.44,0,34.88,0,52.32c-0.52,0.02-1.32,0.12-2.16,0.54c-1.89,0.95-2.55,2.78-2.7,3.24
			c0,6.29,0,12.59,0,18.88c-0.18,7.19-0.36,14.38-0.54,21.58c-0.72,0.54-1.44,1.08-2.16,1.62c-0.18,5.21-0.36,10.43-0.54,15.64
			c-0.58,0.49-2.12,1.91-2.7,4.32c-0.4,1.65-0.18,3.03,0,3.78c-1.07,0.4-4.39,1.8-6.47,5.39c-1.25,2.16-1.53,4.22-1.6,5.41
			c-0.01,0.18-0.01,0.35-0.02,0.53c-0.82,0.54-2.59,1.88-3.78,4.32c-1.12,2.31-1.13,4.41-1.08,5.39"/>
		<path class="st19" d="M431.22,255.74c19.37,1.77,38.43,3.75,57.18,5.93c1.44,35.6,2.88,71.2,4.32,106.8
			c-76.06,5.21-152.11,10.43-228.17,15.64c-1.08-45.85-2.16-91.7-3.24-137.55C315.5,247.49,372.23,250.36,431.22,255.74z"/>
		<path class="st20" d="M354.62,1.68c0.15-1.12,0.23-2.93-0.54-4.85c-0.98-2.45-2.82-3.83-4.32-4.85c-7.26-5-11.87-6.47-11.87-6.47
			c-12.63-4.05-27.45-4.29-29.67-4.32c-11.96-0.13-19.54,1.27-30.21,3.24c0,0-8.34,1.54-16.18,6.47c-2.26,1.43-4.74,3.29-5.93,6.47
			c-0.25,0.67-1.02,2.78-0.54,5.39c0.89,4.84,5.27,7.21,5.93,7.55C292.41,7.43,323.51,4.55,354.62,1.68z"/>
		<path class="st19" d="M272.09-9.11c-2.29,0.69-6.19,1.91-10.25,4.85c-2.56,1.85-3.66,3.29-4.32,4.32
			c-1.74,2.74-2.09,5.48-2.16,7.01c33.62,0.36,67.25,0.72,100.87,1.08c-0.06-2.01-0.49-5.26-2.7-8.09
			c-1.37-1.76-2.88-2.65-4.85-3.78c-6.7-3.82-10.05-5.74-11.87-6.47c-6.58-2.66-12.26-3.11-21.58-3.78
			c-7.97-0.57-15.98-1.1-26.43,0.54C283.76-12.64,279.87-11.46,272.09-9.11z"/>
		<path class="st20" d="M255.37,6.53c1.49-1.46,3.65-3.4,6.47-5.39c1.82-1.28,8.82-6.04,19.96-8.63c5.41-1.26,10.26-1.38,19.96-1.62
			c7.71-0.19,13.35-0.33,21.04,0.54c9.83,1.11,16.72,1.98,23.19,7.01c3.17,2.47,5.24,5.15,6.47,7.01
			C320.1,5.81,287.73,6.17,255.37,6.53z"/>
		<path class="st20" d="M407.48,128.44c-0.12-0.87-0.38-2.25-1.08-3.78c-2.77-6.07-9.96-9.14-25.89-12.41
			c-13.49-2.77-23.75-3.73-24.27-3.78c-18.78-1.7-33.15-1.63-35.06-1.62c-8.72,0.06-49.89,0.55-89.54,9.71
			c-8.59,1.98-23.37,5.82-24.81,14.02c-0.19,1.1-0.11,2.05,0,2.7"/>
		<path class="st19" d="M406.94,127.36c1.26,28.05,2.52,56.1,3.78,84.15c-53.4,14.02-106.8,28.05-160.21,42.07
			c-39.92,3.96-79.83,7.91-119.75,11.87c-0.9,40.46-1.8,80.91-2.7,121.37c-26.43-1.98-52.86-3.96-79.29-5.93
			c-84.15,2.34-168.3,4.67-252.44,7.01c0.36-57.54,0.72-115.07,1.08-172.61c81.81-24.99,163.62-49.99,245.43-74.98
			c29.49,4.67,58.98,9.35,88.46,14.02c25.35-6.65,50.7-13.31,76.06-19.96c0-1.26,0-2.52,0-3.78c0.3-0.45,0.85-1.24,1.62-2.16
			c1.66-1.98,5.14-5.49,11.87-8.09c16.71-6.45,46.93-9.71,46.93-9.71c17.22-1.86,26.04-2.8,36.68-3.24
			c6.08-0.25,12.78-0.52,20.92-0.35c3.71,0.07,6.38,0.21,9.29,0.35c9.2,0.46,16.78,0.83,26.43,2.16c1.67,0.23,9.84,1.37,19.96,3.78
			c4.13,0.98,6.89,1.91,12.41,3.78c4.01,1.35,5.99,2.16,8.09,3.78C404.35,123.05,406.01,125.59,406.94,127.36z"/>
		<path class="st19" d="M388.06,117.11c-0.25-0.95-0.71-2.32-1.62-3.78c-2.17-3.47-5.47-5.17-10.25-7.55
			c-1.21-0.6-2.85-1.37-4.85-2.16c-0.72-22.3-1.44-44.59-2.16-66.89c0.15-0.11,0.35-0.29,0.54-0.54c0.25-0.33,0.87-1.27,0.54-3.78
			c-0.15-1.1-0.52-2.85-1.62-4.85c-0.18-3.78-0.36-7.55-0.54-11.33c-0.68-1.19-1.56-2.48-2.7-3.78c-3.7-4.21-8.11-6.13-10.79-7.01
			C350.49,3,344.28-0.2,336.28-2.64c-9.3-2.83-16.79-3.33-24.27-3.78c-7.8-0.47-14.4-0.87-23.19,0.54
			c-7.15,1.14-13.58,3.64-26.43,8.63c0,0-7.95,3.09-12.95,7.01c-1.89,1.49-3.78,3.24-3.78,3.24c-1.34,1.24-2.43,2.36-3.24,3.24
			c-0.18,4.5-0.36,8.99-0.54,13.49c-0.34,0.45-0.8,1.18-1.08,2.16c-0.42,1.47-0.2,2.69,0,3.78c0.14,0.8,0.44,1.94,1.08,3.24
			c0,22.66,0,45.31,0,67.97c-1.07,0.35-2.57,0.87-4.32,1.62c-2.95,1.26-5.06,2.16-7.01,3.78c-1.27,1.05-3.4,3.17-4.85,7.01"/>
		<path class="st22" d="M460.61,285.14c2.27,0.27,4.12,0.44,5.39,0.54c4.03,0.32,6.31,0.32,9.17,1.62c0.46,0.21,0.83,0.41,1.08,0.54
			"/>
		<path class="st22" d="M461.15,288.91c2.27,0.27,4.12,0.44,5.39,0.54c4.03,0.32,6.31,0.32,9.17,1.62c0.46,0.21,0.83,0.41,1.08,0.54
			"/>
		<path class="st22" d="M461.15,292.69c2.27,0.27,4.12,0.44,5.39,0.54c4.03,0.32,6.31,0.32,9.17,1.62c0.46,0.21,0.83,0.41,1.08,0.54
			"/>
		<path class="st22" d="M461.69,296.47c2.27,0.27,4.12,0.44,5.39,0.54c4.03,0.32,6.31,0.32,9.17,1.62c0.46,0.21,0.83,0.41,1.08,0.54
			"/>
		<path class="st20" d="M369.72,37.28c-0.19,0.01-0.32-2.09-0.54-3.24c-1.14-5.96-9.15-9.59-11.87-10.79
			c-19.96-8.78-51.78-8.63-51.78-8.63c-8.4,0.04-25.41,0.46-43.69,5.93c-8.35,2.5-17.15,6.11-19.42,13.49
			c-0.53,1.72-0.58,3.26-0.54,4.32c-0.36,0-0.72,0-1.08,0c-0.24-1.15-0.43-2.88,0-4.85c0.86-3.91,3.63-6.23,5.93-8.09
			c4.14-3.36,8.57-4.75,14.02-6.47c1.84-0.58,3.78-1.08,3.78-1.08c1.62-0.36,3.24-0.72,4.85-1.08c1.4-0.31,4.83-1.07,4.85-1.08
			c2.97-0.66,10.46-2.04,17.26-2.7c7.69-0.74,13.44-0.44,22.12,0c2.32,0.12,17.2,0.93,32.9,4.32c0,0,4.68,1.01,13.49,4.85
			c2.27,0.99,4.85,2.22,7.01,4.85c2.03,2.48,2.58,4.86,2.7,5.39C370.25,34.88,369.92,37.27,369.72,37.28z"/>
		<path class="st20" d="M207.36,133.28c0-0.89,0-1.79,0-2.68c0.3-0.45,0.85-1.24,1.62-2.16c1.66-1.98,5.14-5.49,11.87-8.09
			c16.71-6.45,46.93-9.71,46.93-9.71c17.22-1.86,26.04-2.8,36.68-3.24c6.08-0.25,12.78-0.52,20.92-0.35
			c3.71,0.07,6.38,0.21,9.29,0.35c9.2,0.46,16.78,0.83,26.43,2.16c1.67,0.23,9.84,1.37,19.96,3.78c4.13,0.98,6.89,1.91,12.41,3.78
			c4.01,1.35,5.99,2.16,8.09,3.78c2.81,2.16,4.46,4.71,5.39,6.47c0.02,0.36,0.03,0.73,0.05,1.09l0.49-0.01
			c-0.12-0.87-0.38-2.25-1.08-3.78c-2.77-6.07-9.96-9.14-25.89-12.41c-13.49-2.77-23.75-3.73-24.27-3.78
			c-18.78-1.7-33.15-1.63-35.06-1.62c-8.72,0.06-49.89,0.55-89.54,9.71c-8.59,1.98-23.37,5.82-24.81,14.02
			c-0.19,1.1-0.11,2.05,0,2.7L207.36,133.28z"/>
		<path class="st23" d="M268.31,265.45c0-8.81,0-17.62,0-26.43c-0.54-0.18-1.08-0.36-1.62-0.54c0-5.75,0-11.51,0-17.26
			c-0.07,0.03-0.6,0.26-1.08,0c-0.5-0.27-0.76-0.95-0.54-1.62c0-2.52,0-5.03,0-7.55c2.34-0.72,4.67-1.44,7.01-2.16
			c27.06-0.45,54.12-0.9,81.18-1.35c0.15-0.56,0.44-1.38,1.08-2.16c1.25-1.52,3.14-2.07,9.17-2.7c1.72-0.18,3.91-0.38,6.47-0.54
			c-0.18-0.72-0.36-1.44-0.54-2.16c0.33-0.15,0.89-0.38,1.62-0.54c1.86-0.41,3.38-0.08,3.78,0c2.16,0.43,24.57,3.87,55.56,8.63
			c0.44,0.23,0.66,0.69,0.54,1.08c-0.11,0.37-0.49,0.52-0.54,0.54c-0.18,0-0.36,0-0.54,0c0,2.34,0,4.67,0,7.01c0,2.88,0,5.75,0,8.63
			c0.78,10.71,1.5,21.5,2.16,32.36c0.19,3.06,0.37,6.12,0.54,9.17c-19.06-1.62-38.12-3.24-57.18-4.85
			C339.7,263.83,304.01,264.64,268.31,265.45z"/>
		<path class="st22" d="M381.86,205.84c2.52,0.54,5.03,1.08,7.55,1.62"/>
		<path class="st22" d="M385.64,206.92c0.18,3.6,0.36,7.19,0.54,10.79"/>
		<path class="st20" d="M304.99,301.05c46.21-0.36,92.42-0.72,138.63-1.08c0.18,1.98,0.36,3.96,0.54,5.93
			c5.93-0.18,11.87-0.36,17.8-0.54c-0.54-8.81-1.08-17.62-1.62-26.43c0.06-0.31,0.66-3.45-1.62-5.93c-2.12-2.31-5.02-2.18-5.39-2.16
			c-16.18,1.98-32.36,3.96-48.55,5.93c-4.06,0.18-9.09,0.85-14.56,2.7c-1.96,0.66-3.76,1.4-5.39,2.16
			c-26.97,0.54-53.94,1.08-80.91,1.62C304.28,289.18,304.63,295.12,304.99,301.05z"/>
		<path class="st22" d="M394.27,208c1.88,0.05,3.55,3.25,3.24,5.93c-0.25,2.09-1.77,4.43-3.24,4.33c-0.99-0.07-1.64-1.24-2.16-2.17
			c-0.36-0.65-1.9-3.42-0.54-5.93C391.73,209.87,392.8,207.96,394.27,208z"/>
		<path class="st22" d="M399.66,209.08c0.9,3.24,1.8,6.47,2.7,9.71c0.36-3.06,0.72-6.11,1.08-9.17c0.9,3.24,1.8,6.47,2.7,9.71
			c0.36-3.06,0.72-6.11,1.08-9.17"/>
		<path class="st22" d="M414.76,211.24c-1.44-0.18-2.88-0.36-4.32-0.54c0.18,3.24,0.36,6.47,0.54,9.71
			c1.62,0.18,3.24,0.36,4.85,0.54"/>
		<path class="st22" d="M410.99,215.55c1.44,0.18,2.88,0.36,4.32,0.54"/>
		<path class="st22" d="M419.62,222.57c-0.18-3.42-0.36-6.83-0.54-10.25c1.65-0.65,3.54,0.07,4.32,1.62
			c0.75,1.47,0.3,3.32-1.08,4.32c-0.9,0-1.8,0-2.7,0"/>
		<path class="st22" d="M421.78,218.25c0.9,1.62,1.8,3.24,2.7,4.85"/>
		<path class="st19" d="M430.14,227.15c-18.34-2.34-36.68-4.67-55.02-7.01c-32.72,0.36-65.45,0.72-98.17,1.08
			c-0.18,11.51-0.36,23.01-0.54,34.52c33.08-0.54,66.17-1.08,99.25-1.62c18.52,1.8,37.04,3.6,55.56,5.39
			C430.86,248.73,430.5,237.94,430.14,227.15z"/>
		<path class="st20" d="M267.77,240.1c-20.32-1.98-40.64-3.96-60.95-5.93c-25.17,3.6-50.35,7.19-75.52,10.79
			c-1.08,47.29-2.16,94.58-3.24,141.87c24.99,2.7,49.99,5.39,74.98,8.09c21.04-3.42,42.07-6.83,63.11-10.25
			C266.7,336.47,267.24,288.28,267.77,240.1z"/>
		<path class="st22" d="M304.72,285.14c22.97-0.94,46.72-1.51,71.2-1.62c25.43-0.11,50.08,0.28,73.9,1.08"/>
		<path class="st22" d="M305.26,289.45c23.98-0.98,48.81-1.55,74.44-1.62c23.9-0.06,47.11,0.33,69.58,1.08"/>
		<path class="st22" d="M304.72,294.31c23.15-1.54,47.64-2.52,73.36-2.7c25.31-0.18,49.44,0.44,72.28,1.62"/>
		<path class="st22" d="M305.26,298.62c24.17-1.06,48.99-1.8,74.44-2.16c24.12-0.34,47.68-0.32,70.66,0"/>
		<path class="st22" d="M445.51,303.48c3.24-0.18,6.47-0.36,9.71-0.54c-0.54-8.09-1.08-16.18-1.62-24.27
			c-0.62-0.71-1.85-1.91-3.78-2.7c-2.64-1.08-4.99-0.73-5.93-0.54c-16.9,1.44-33.8,2.88-50.7,4.32"/>
	</g>
	<g class="st4">
		<path class="st26" d="M1567.44-245.71c-2.25,122.3-4.5,244.61-6.75,366.91"/>
		<path class="st26" d="M1467.43-273.32c-2.25,122.3-4.5,244.61-6.75,366.91"/>
		<path class="st26" d="M1387.67-261.05c-2.25,122.3-4.5,244.61-6.75,366.91"/>
		<path class="st26" d="M1332.45-230.37c-2.25,122.3-4.5,244.61-6.75,366.91"/>
		<path class="st27" d="M1307.29-223.01c-2.25,122.3-4.5,244.61-6.75,366.91"/>
		<path class="st26" d="M1656.41-237.12c-2.25,122.3-4.5,244.61-6.75,366.91"/>
		<path class="st26" d="M1721.45-222.4c-2.25,122.3-4.5,244.61-6.75,366.91"/>
		<path class="st26" d="M1765.62-218.71c-2.25,122.3-4.5,244.61-6.75,366.91"/>
		<path class="st28" d="M1465.9-53.36c32.52,62.79,65.04,125.58,97.56,188.37"/>
		<path class="st28" d="M1564.07-47.22c-35.59,59.72-71.17,119.44-106.76,179.16"/>
		<path class="st28" d="M1564.07-42.93c28.43,56.04,56.86,112.08,85.29,168.12"/>
		<path class="st28" d="M1652.42-31.88c-29.66,51.34-59.31,102.67-88.97,154.01"/>
		<path class="st28" d="M1654.26-23.91c21.27,53.58,42.54,107.17,63.81,160.75"/>
		<path class="st28" d="M1714.39-19c-21.47,49.09-42.95,98.17-64.42,147.26"/>
		<path class="st28" d="M1757.96,6.16c-13.29,43.56-26.59,87.13-39.88,130.69"/>
		<path class="st28" d="M1721.75-12.86c13.09,42.95,26.18,85.9,39.27,128.85"/>
		<path class="st28" d="M1464.67-41.7c-28.63,54.2-57.27,108.4-85.9,162.6"/>
		<path class="st28" d="M1388.59-37.4c22.91,49.9,45.81,99.81,68.72,149.71"/>
		<path class="st28" d="M1330.91-30.66c16.57,47.24,33.13,94.49,49.7,141.73"/>
		<path class="st28" d="M1384.29-29.43c-17.59,47.24-35.18,94.49-52.77,141.73"/>
		<path class="st28" d="M1326,102.49c-7.36-39.68-14.73-79.35-22.09-119.03"/>
		<path class="st28" d="M1330.3-21.45c-9.2,33.75-18.41,67.49-27.61,101.24"/>
	</g>
</g>
<g class="st0">
	<path class="st31" d="M1102.85,165.22c-3.88,0.48-7.77,0.95-11.65,1.43c-2.98-19.74-4.98-39.53-5.98-59.38
		c-1.72-34-0.52-68.16,3.58-102.45c1.53,0,3.07,0,4.6,0c-3.47,49.33-1.24,97.7,6.69,145.12
		C1100.94,155.05,1101.86,160.14,1102.85,165.22z"/>
	<path class="st32" d="M1092.88,1.09c-0.96-3.1-2.4-9.27-0.97-16.81c0.14-0.76,1.43-7.24,5.67-13.44
		c9.65-14.11,27.58-16.45,30.71-16.81c-1.73,6.11-4.87,14.5-10.78,23.3C1109.15-10.23,1099.16-2.83,1092.88,1.09z"/>
	<path class="st32" d="M1094.07,0.83c1.67-2.79,5.3-7.98,11.86-11.96c0.66-0.4,6.35-3.77,13.79-4.76
		c16.95-2.25,30.67,9.53,33.03,11.61c-5.7,2.79-14.04,6.07-24.54,7.55C1113.36,5.37,1101.18,2.88,1094.07,0.83z"/>
	<path class="st32" d="M1091.89,1.37c3.16-0.74,9.42-1.75,16.84,0.19c0.75,0.2,7.13,1.93,13.02,6.58
		c13.41,10.6,14.51,28.65,14.66,31.79c-5.97-2.15-14.13-5.85-22.5-12.36C1102.06,18.37,1095.37,7.9,1091.89,1.37z"/>
	<path class="st32" d="M1086.91,2.31c3.11,0.92,9.05,3.14,14.54,8.5c0.55,0.54,5.24,5.21,8.05,12.16
		c6.41,15.85-1.57,32.07-3.01,34.88c-4.13-4.82-9.38-12.08-13.43-21.88C1087.32,22.12,1086.7,9.7,1086.91,2.31z"/>
	<path class="st32" d="M1075.91,55.87c-1.66-2.79-4.52-8.45-4.91-16.11c-0.04-0.77-0.31-7.38,2.35-14.4
		c6.06-15.99,22.93-22.49,25.88-23.57c-0.24,6.34-1.31,15.24-4.99,25.19C1089.05,41.04,1081.08,50.58,1075.91,55.87z"/>
	<path class="st32" d="M1047.18,36.65c-0.08-3.25,0.21-9.58,3.62-16.44c0.34-0.69,3.35-6.58,9.1-11.4
		c13.12-10.97,31.01-8.36,34.12-7.85c-3.32,5.41-8.62,12.64-16.7,19.5C1065.9,30.17,1054.28,34.58,1047.18,36.65z"/>
	<path class="st32" d="M1033.55,1.8c1.98-2.58,6.18-7.32,13.15-10.52c0.7-0.32,6.74-3.02,14.24-3.15
		c17.1-0.29,29.38,12.97,31.48,15.32c-5.98,2.12-14.64,4.42-25.24,4.69C1052.2,8.52,1040.38,4.65,1033.55,1.8z"/>
	<path class="st32" d="M1093.96,3.3c-3.14-0.82-9.15-2.83-14.82-8c-0.57-0.52-5.41-5.03-8.46-11.89
		c-6.94-15.63,0.49-32.11,1.83-34.96c4.29,4.68,9.78,11.76,14.16,21.41C1092.87-16.49,1093.92-4.1,1093.96,3.3z"/>
	<ellipse class="st32" cx="1091.53" cy="3.67" rx="6.31" ry="5.44"/>
</g>
<g class="st0">
	<path class="st31" d="M462.74,351.72c-6.91,0.85-13.81,1.7-20.72,2.54c-5.31-35.1-8.85-70.3-10.63-105.58
		c-3.05-60.46-0.93-121.19,6.36-182.17c2.73,0,5.45,0,8.18,0c-6.17,87.71-2.2,173.72,11.9,258.04
		C459.35,333.63,460.98,342.68,462.74,351.72z"/>
	<path class="st32" d="M445.02,59.88c-1.7-5.52-4.26-16.49-1.73-29.89c0.26-1.35,2.55-12.88,10.09-23.9
		C470.54-19,502.42-23.16,507.98-23.8c-3.08,10.86-8.65,25.79-19.17,41.43C473.94,39.76,456.17,52.91,445.02,59.88z"/>
	<path class="st32" d="M447.13,59.41c2.97-4.95,9.42-14.19,21.09-21.26c1.18-0.71,11.29-6.71,24.52-8.46
		c30.14-4,54.53,16.94,58.73,20.65c-10.13,4.97-24.97,10.79-43.63,13.42C481.43,67.48,459.77,63.06,447.13,59.41z"/>
	<path class="st32" d="M443.25,60.38c5.62-1.32,16.75-3.12,29.94,0.33c1.33,0.35,12.68,3.43,23.15,11.71
		c23.85,18.85,25.81,50.93,26.07,56.53c-10.62-3.82-25.13-10.41-40.02-21.98C461.33,90.61,449.43,71.99,443.25,60.38z"/>
	<path class="st32" d="M434.39,62.04c5.54,1.64,16.09,5.58,25.85,15.12c0.98,0.96,9.31,9.26,14.31,21.63
		c11.39,28.19-2.8,57.03-5.35,62.02c-7.34-8.57-16.68-21.49-23.88-38.91C435.14,97.26,434.02,75.19,434.39,62.04z"/>
	<path class="st32" d="M414.84,157.29c-2.95-4.96-8.03-15.02-8.72-28.64c-0.07-1.37-0.56-13.12,4.17-25.6
		c10.77-28.43,40.77-39.98,46.03-41.92c-0.43,11.28-2.33,27.1-8.87,44.78C438.2,130.91,424.04,147.88,414.84,157.29z"/>
	<path class="st32" d="M363.75,123.11c-0.14-5.77,0.37-17.03,6.44-29.24c0.61-1.23,5.95-11.71,16.19-20.27
		c23.33-19.5,55.13-14.86,60.67-13.97c-5.9,9.62-15.32,22.48-29.69,34.68C397.04,111.59,376.37,119.43,363.75,123.11z"/>
	<path class="st32" d="M339.53,61.14c3.52-4.58,10.98-13.02,23.38-18.71c1.25-0.57,11.98-5.37,25.33-5.6
		c30.4-0.52,52.23,23.07,55.98,27.24c-10.64,3.78-26.04,7.86-44.88,8.34C372.67,73.08,351.67,66.21,339.53,61.14z"/>
	<path class="st32" d="M446.93,63.8c-5.59-1.45-16.27-5.03-26.34-14.23c-1.02-0.93-9.62-8.94-15.04-21.13
		c-12.34-27.79,0.87-57.09,3.25-62.17c7.62,8.32,17.4,20.91,25.19,38.08C445,28.62,446.86,50.65,446.93,63.8z"/>
	<ellipse class="st32" cx="442.61" cy="64.47" rx="11.22" ry="9.68"/>
</g>
<g class="st0">
	<path class="st31" d="M1820.98,68.67c5.12,0.63,10.24,1.26,15.35,1.89c3.93-26.02,6.56-52.1,7.88-78.25
		c2.26-44.81,0.69-89.81-4.71-135.01c-2.02,0-4.04,0-6.06,0c4.57,65,1.63,128.75-8.82,191.24
		C1823.49,55.26,1822.28,61.97,1820.98,68.67z"/>
</g>
<g class="st0">
	<path class="st31" d="M184.51,289.01c6.91,0.85,13.81,1.7,20.72,2.54c5.31-35.1,8.85-70.3,10.63-105.58
		c3.05-60.46,0.93-121.19-6.36-182.17c-2.73,0-5.45,0-8.18,0c6.17,87.71,2.2,173.72-11.9,258.04
		C187.9,270.92,186.27,279.97,184.51,289.01z"/>
	<path class="st32" d="M200.12-3.3c-2.97-4.95-9.42-14.19-21.09-21.26c-1.18-0.71-11.29-6.71-24.52-8.46
		c-30.14-4-54.53,16.94-58.73,20.65c10.13,4.97,24.97,10.79,43.63,13.42C165.82,4.77,187.48,0.34,200.12-3.3z"/>
	<path class="st32" d="M204.01-2.33c-5.62-1.32-16.75-3.12-29.94,0.33c-1.33,0.35-12.68,3.43-23.15,11.71
		c-23.85,18.85-25.81,50.93-26.07,56.53c10.62-3.82,25.13-10.41,40.02-21.98C185.92,27.9,197.82,9.27,204.01-2.33z"/>
	<path class="st32" d="M212.86-0.67c-5.54,1.64-16.09,5.58-25.85,15.12c-0.98,0.96-9.31,9.26-14.31,21.63
		c-11.39,28.19,2.8,57.03,5.35,62.02c7.34-8.57,16.68-21.49,23.88-38.91C212.12,34.55,213.23,12.48,212.86-0.67z"/>
	<path class="st32" d="M232.41,94.57c2.95-4.96,8.03-15.02,8.72-28.64c0.07-1.37,0.56-13.12-4.17-25.6
		C226.19,11.9,196.2,0.35,190.94-1.59c0.43,11.28,2.33,27.1,8.87,44.78C209.05,68.2,223.22,85.17,232.41,94.57z"/>
	<path class="st32" d="M283.5,60.4c0.14-5.77-0.37-17.03-6.44-29.24c-0.61-1.23-5.95-11.71-16.19-20.27
		C237.54-8.6,205.74-3.96,200.21-3.07c5.9,9.62,15.32,22.48,29.69,34.68C250.21,48.87,270.88,56.72,283.5,60.4z"/>
	<path class="st32" d="M307.73-1.57c-3.52-4.58-10.98-13.02-23.38-18.71c-1.25-0.57-11.98-5.37-25.32-5.6
		c-30.4-0.52-52.23,23.07-55.98,27.24c10.64,3.78,26.04,7.86,44.88,8.34C274.58,10.37,295.59,3.5,307.73-1.57z"/>
	<path class="st32" d="M200.32,1.09c5.59-1.45,16.27-5.03,26.34-14.23c1.02-0.93,9.62-8.94,15.04-21.13
		c12.34-27.79-0.87-57.09-3.25-62.17c-7.62,8.32-17.4,20.91-25.19,38.08C202.25-34.09,200.39-12.06,200.32,1.09z"/>
	<ellipse class="st32" cx="204.64" cy="1.76" rx="11.22" ry="9.68"/>
</g>
<g class="st0">
	<path class="st31" d="M57.51,343.01c6.91,0.85,13.81,1.7,20.72,2.54c5.31-35.1,8.85-70.3,10.63-105.58
		c3.05-60.46,0.93-121.19-6.36-182.17c-2.73,0-5.45,0-8.18,0c6.17,87.71,2.2,173.72-11.9,258.04
		C60.9,324.92,59.27,333.97,57.51,343.01z"/>
	<path class="st32" d="M75.23,51.17c1.7-5.52,4.26-16.49,1.73-29.89c-0.26-1.35-2.55-12.88-10.09-23.9
		C49.71-27.71,17.83-31.87,12.27-32.51c3.08,10.86,8.65,25.79,19.17,41.43C46.31,31.04,64.08,44.2,75.23,51.17z"/>
	<path class="st32" d="M73.12,50.7c-2.97-4.95-9.42-14.19-21.09-21.26c-1.18-0.71-11.29-6.71-24.52-8.46
		c-30.14-4-54.53,16.94-58.73,20.65c10.13,4.97,24.97,10.79,43.63,13.42C38.82,58.77,60.48,54.34,73.12,50.7z"/>
	<path class="st32" d="M77.01,51.67c-5.62-1.32-16.75-3.12-29.94,0.33c-1.33,0.35-12.68,3.43-23.15,11.71
		C0.07,82.56-1.89,114.64-2.15,120.24c10.62-3.82,25.13-10.41,40.02-21.98C58.92,81.9,70.82,63.27,77.01,51.67z"/>
	<path class="st32" d="M85.86,53.33c-5.54,1.64-16.09,5.58-25.85,15.12c-0.98,0.96-9.31,9.26-14.31,21.63
		c-11.39,28.19,2.8,57.03,5.35,62.02c7.34-8.57,16.68-21.49,23.88-38.91C85.12,88.55,86.23,66.48,85.86,53.33z"/>
	<path class="st32" d="M105.41,148.57c2.95-4.96,8.03-15.02,8.72-28.64c0.07-1.37,0.56-13.12-4.17-25.6
		C99.19,65.9,69.2,54.35,63.94,52.41c0.43,11.28,2.33,27.1,8.87,44.78C82.05,122.2,96.22,139.17,105.41,148.57z"/>
	<path class="st32" d="M156.5,114.4c0.14-5.77-0.37-17.03-6.44-29.24c-0.61-1.23-5.95-11.71-16.19-20.27
		c-23.33-19.5-55.13-14.86-60.67-13.97c5.9,9.62,15.32,22.48,29.69,34.68C123.21,102.87,143.88,110.72,156.5,114.4z"/>
	<path class="st32" d="M180.73,52.43c-3.52-4.58-10.98-13.02-23.38-18.71c-1.25-0.57-11.98-5.37-25.33-5.6
		c-30.4-0.52-52.23,23.07-55.98,27.24c10.64,3.78,26.04,7.86,44.88,8.34C147.58,64.37,168.59,57.5,180.73,52.43z"/>
	<path class="st32" d="M73.32,55.09c5.59-1.45,16.27-5.03,26.34-14.23c1.02-0.93,9.62-8.94,15.04-21.13
		c12.34-27.79-0.87-57.09-3.25-62.17c-7.62,8.32-17.4,20.91-25.19,38.08C75.25,19.91,73.39,41.94,73.32,55.09z"/>
	<ellipse class="st32" cx="77.64" cy="55.76" rx="11.22" ry="9.68"/>
</g>
<g id="Front_Row_Trees">
	<g>
		<path class="st33" d="M983.26,437.07c3.94,1.35,10.02,2.93,17.57,2.93c4.16,0,10.43-0.48,17.57-2.93
			c-4.37-19.66-9.4-54.75,0-96.61c7.03-31.31,19.59-55.06,29.28-70.26c-4.62,3.84-10.99,9.65-17.57,17.57
			c-14.41,17.35-17.17,29.62-20.49,29.28c-4.31-0.45-7.9-21.93-5.86-108.32c-7.15,27.46-10.22,49.86-11.71,64.41
			c-3.89,38.02-0.57,57.15-2.93,102.46C987.71,402.63,985.05,424.24,983.26,437.07z"/>
		<circle class="st34" cx="977.4" cy="141.39" r="105.39"/>
		
			<ellipse transform="matrix(0.5 -0.866 0.866 0.5 327.2285 1042.7784)" class="st34" cx="1066.69" cy="238" rx="58.55" ry="80.51"/>
		
			<ellipse transform="matrix(0.5 -0.866 0.866 0.5 327.2285 1042.7784)" class="st35" cx="1066.69" cy="238" rx="45.01" ry="61.89"/>
		<circle class="st35" cx="977.4" cy="141.39" r="87.83"/>
	</g>
	<g>
		<path class="st33" d="M781.26,410.07c3.94,1.35,10.02,2.93,17.57,2.93c4.16,0,10.43-0.48,17.57-2.93
			c-4.37-19.66-9.4-54.75,0-96.61c7.03-31.31,19.59-55.06,29.28-70.26c-4.62,3.84-10.99,9.65-17.57,17.57
			c-14.41,17.35-17.17,29.62-20.49,29.28c-4.31-0.45-7.9-21.93-5.86-108.32c-7.15,27.46-10.22,49.86-11.71,64.41
			c-3.89,38.02-0.57,57.15-2.93,102.46C785.71,375.63,783.05,397.24,781.26,410.07z"/>
		<circle class="st34" cx="775.4" cy="114.39" r="105.39"/>
		<ellipse transform="matrix(0.5 -0.866 0.866 0.5 249.6117 854.3417)" class="st34" cx="864.69" cy="211" rx="58.55" ry="80.51"/>
		<ellipse transform="matrix(0.5 -0.866 0.866 0.5 249.6117 854.3417)" class="st35" cx="864.69" cy="211" rx="45.01" ry="61.89"/>
		<circle class="st35" cx="775.4" cy="114.39" r="87.83"/>
	</g>
	<g>
		<path class="st34" d="M36.36,284.97c1.68-42.93,50.53-73.43,93.24-72.26c44.7,1.22,88.71,37.28,88.58,74.59
			c-0.16,46.27-68.18,88.18-121.21,72.26C66.71,350.48,34.96,320.65,36.36,284.97z"/>
		<path class="st36" d="M46.16,285.28c1.5-38.3,45.08-65.51,83.19-64.47c39.88,1.09,79.14,33.26,79.03,66.55
			c-0.14,41.28-60.83,78.68-108.14,64.47C73.24,343.72,44.91,317.11,46.16,285.28z"/>
		<path class="st37" d="M92.31,466.79c4.85,7.51,13.36,11.2,20.98,9.32c7.33-1.8,10.95-8.04,11.65-9.32
			c-3.67-38.47-6.82-78.11-9.32-118.88c-2.05-33.35-3.58-65.99-4.66-97.9c-3.11,0.78-6.22,1.55-9.32,2.33
			c-1.55,29.53-3.11,59.05-4.66,88.58c-3.08-2.88-6.2-5.99-9.32-9.32c-9.68-10.35-17.3-20.73-23.31-30.3
			c2.58,11.19,7.73,26.53,18.65,41.96c3.84,5.43,7.83,10.06,11.65,13.99C93.86,393.75,93.08,430.27,92.31,466.79z"/>
		<path class="st34" d="M82.98,287.3c9.05-32.14-18.42-66.87-48.95-67.6c-33.04-0.79-60.68,38.47-51.28,69.93
			c5.5,18.41,23.21,32.54,43.12,34.96C51.5,327.71,76.33,310.9,82.98,287.3z"/>
		<path class="st36" d="M75.96,285.21c7.79-27.64-15.85-57.51-42.1-58.14c-28.42-0.68-52.19,33.08-44.11,60.15
			c4.73,15.84,19.96,27.99,37.09,30.07C48.89,319.96,70.24,305.5,75.96,285.21z"/>
		
			<ellipse transform="matrix(0.3005 -0.9538 0.9538 0.3005 -112.1971 257.1899)" class="st34" cx="119.25" cy="205.09" rx="67.44" ry="94.06"/>
		
			<ellipse transform="matrix(0.3005 -0.9538 0.9538 0.3005 -112.1971 257.1899)" class="st36" cx="119.25" cy="205.09" rx="59.25" ry="82.64"/>
	</g>
	<g>
		<path class="st34" d="M456.36,333.97c1.68-42.93,50.53-73.43,93.24-72.26c44.7,1.22,88.71,37.28,88.58,74.59
			c-0.16,46.27-68.18,88.18-121.21,72.26C486.71,399.48,454.96,369.65,456.36,333.97z"/>
		<path class="st36" d="M466.16,334.28c1.5-38.3,45.08-65.51,83.19-64.47c39.88,1.09,79.14,33.26,79.03,66.55
			c-0.14,41.28-60.83,78.68-108.14,64.47C493.24,392.72,464.91,366.11,466.16,334.28z"/>
		<path class="st37" d="M512.31,515.79c4.85,7.51,13.36,11.2,20.98,9.32c7.33-1.8,10.95-8.04,11.65-9.32
			c-3.67-38.47-6.82-78.11-9.32-118.88c-2.05-33.35-3.58-65.99-4.66-97.9c-3.11,0.78-6.22,1.55-9.32,2.33
			c-1.55,29.53-3.11,59.05-4.66,88.58c-3.08-2.88-6.2-5.99-9.32-9.32c-9.68-10.35-17.3-20.73-23.31-30.3
			c2.58,11.19,7.73,26.53,18.65,41.96c3.84,5.43,7.83,10.06,11.65,13.99C513.86,442.75,513.08,479.27,512.31,515.79z"/>
		<path class="st34" d="M502.98,336.3c9.05-32.14-18.42-66.87-48.95-67.6c-33.04-0.79-60.68,38.47-51.28,69.93
			c5.5,18.41,23.21,32.54,43.12,34.96C471.5,376.71,496.33,359.9,502.98,336.3z"/>
		<path class="st36" d="M495.96,334.21c7.79-27.64-15.85-57.51-42.1-58.14c-28.42-0.68-52.19,33.08-44.11,60.15
			c4.73,15.84,19.96,27.99,37.09,30.07C468.89,368.96,490.24,354.5,495.96,334.21z"/>
		
			<ellipse transform="matrix(0.3005 -0.9538 0.9538 0.3005 134.8515 692.0511)" class="st34" cx="539.25" cy="254.09" rx="67.44" ry="94.06"/>
		
			<ellipse transform="matrix(0.3005 -0.9538 0.9538 0.3005 134.8515 692.0511)" class="st36" cx="539.25" cy="254.09" rx="59.25" ry="82.64"/>
	</g>
	<g>
		<path class="st34" d="M1261.36,266.97c1.68-42.93,50.53-73.43,93.24-72.26c44.7,1.22,88.71,37.28,88.58,74.59
			c-0.16,46.27-68.18,88.18-121.21,72.26C1291.71,332.48,1259.96,302.65,1261.36,266.97z"/>
		<path class="st36" d="M1271.16,267.28c1.5-38.3,45.08-65.51,83.19-64.47c39.88,1.09,79.14,33.26,79.03,66.55
			c-0.14,41.28-60.83,78.68-108.14,64.47C1298.24,325.72,1269.91,299.11,1271.16,267.28z"/>
		<path class="st37" d="M1317.31,448.79c4.85,7.51,13.36,11.2,20.98,9.32c7.33-1.8,10.95-8.04,11.66-9.32
			c-3.67-38.47-6.82-78.11-9.32-118.88c-2.05-33.35-3.58-65.99-4.66-97.9c-3.11,0.78-6.22,1.55-9.32,2.33
			c-1.55,29.53-3.11,59.05-4.66,88.58c-3.08-2.88-6.2-5.99-9.32-9.32c-9.68-10.35-17.3-20.73-23.31-30.3
			c2.58,11.19,7.73,26.53,18.65,41.96c3.84,5.43,7.83,10.06,11.66,13.99C1318.86,375.75,1318.08,412.27,1317.31,448.79z"/>
		<path class="st34" d="M1307.98,269.3c9.05-32.14-18.42-66.87-48.95-67.6c-33.04-0.79-60.68,38.47-51.28,69.93
			c5.5,18.41,23.21,32.54,43.12,34.96C1276.5,309.71,1301.33,292.9,1307.98,269.3z"/>
		<path class="st36" d="M1300.96,267.21c7.79-27.64-15.85-57.51-42.1-58.14c-28.42-0.68-52.19,33.08-44.11,60.15
			c4.73,15.84,19.96,27.99,37.09,30.07C1273.89,301.96,1295.24,287.5,1300.96,267.21z"/>
		
			<ellipse transform="matrix(0.3005 -0.9538 0.9538 0.3005 761.8401 1412.9761)" class="st34" cx="1344.25" cy="187.09" rx="67.44" ry="94.06"/>
		
			<ellipse transform="matrix(0.3005 -0.9538 0.9538 0.3005 761.8401 1412.9761)" class="st36" cx="1344.25" cy="187.09" rx="59.25" ry="82.64"/>
	</g>
	<g>
		<path class="st34" d="M749.4,258.7c-1.84-46.8-55.08-80.04-101.64-78.77c-48.73,1.33-96.7,40.64-96.56,81.32
			c0.18,50.44,74.33,96.13,132.14,78.77C716.32,330.11,750.93,297.6,749.4,258.7z"/>
		<path class="st36" d="M738.72,259.04c-1.64-41.75-49.14-71.41-90.68-70.28c-43.48,1.19-86.28,36.26-86.15,72.55
			c0.16,45,66.31,85.77,117.89,70.28C709.2,322.75,740.08,293.74,738.72,259.04z"/>
		<path class="st37" d="M688.42,456.9c-5.29,8.19-14.57,12.21-22.87,10.16c-7.99-1.97-11.93-8.77-12.71-10.16
			c4-41.94,7.43-85.16,10.16-129.6c2.24-36.35,3.91-71.94,5.08-106.73c3.39,0.85,6.78,1.69,10.16,2.54
			c1.69,32.19,3.39,64.37,5.08,96.56c3.36-3.14,6.76-6.53,10.16-10.16c10.55-11.28,18.86-22.6,25.41-33.03
			c-2.82,12.19-8.43,28.92-20.33,45.74c-4.19,5.92-8.53,10.97-12.71,15.25C686.72,377.28,687.57,417.09,688.42,456.9z"/>
		<path class="st34" d="M698.58,261.24c-9.87-35.03,20.08-72.89,53.36-73.69c36.02-0.86,66.15,41.93,55.9,76.23
			c-6,20.07-25.3,35.48-47.01,38.12C732.89,305.29,705.83,286.96,698.58,261.24z"/>
		<path class="st36" d="M706.23,258.96c-8.49-30.13,17.27-62.7,45.9-63.38c30.98-0.74,56.89,36.07,48.08,65.57
			c-5.16,17.27-21.76,30.51-40.43,32.78C735.75,296.85,712.47,281.08,706.23,258.96z"/>
		
			<ellipse transform="matrix(0.9538 -0.3005 0.3005 0.9538 -21.1101 205.9858)" class="st34" cx="659.05" cy="171.62" rx="102.54" ry="73.52"/>
		
			<ellipse transform="matrix(0.9538 -0.3005 0.3005 0.9538 -21.1101 205.9858)" class="st36" cx="659.05" cy="171.62" rx="90.08" ry="64.59"/>
	</g>
	<g>
		<path class="st37" d="M276.23,468c8.97,0,17.94,0,26.91,0c-4.03-9.41-16.91-41.7-9.61-69.19c2.48-9.33,5.9-17.3,7.69-21.14
			c9.44-20.27,22.01-34.09,30.75-42.28c-20.32,13.02-29.75,26.46-34.6,36.52c-2.39,4.95-4.01,9.77-5.77,9.61
			c-2.26-0.21-4.37-11.13-3.84-57.66c-1.92,16.02-3.84,32.03-5.77,48.05c-8.33-13.45-16.66-26.91-24.99-40.36
			c6.41,16.02,12.81,32.03,19.22,48.05c4.87,22.83,6.99,49.69,1.92,78.8C277.59,461.67,276.94,464.87,276.23,468z"/>
		<circle class="st34" cx="207.04" cy="312.32" r="65.35"/>
		<path class="st34" d="M205.12,262.35c0.49-33.28,38.28-65.34,77.84-65.35c39.28-0.01,76.9,31.59,77.84,65.35
			c0.72,26.15-20.8,44.81-42.28,63.43c-14.22,12.32-23.8,15.71-32.67,15.38c-10.21-0.38-17.78-5.63-23.06-9.61
			C226.31,304.05,204.75,287.79,205.12,262.35z"/>
		<ellipse class="st34" cx="360.8" cy="296.94" rx="61.5" ry="65.35"/>
		<path class="st36" d="M213.45,263.07c0.44-29.72,34.19-58.35,69.52-58.36c35.08-0.01,68.68,28.21,69.52,58.36
			c0.65,23.35-18.58,40.01-37.76,56.64c-12.7,11-21.26,14.03-29.18,13.73c-9.12-0.34-15.88-5.03-20.6-8.58
			C232.37,300.31,213.11,285.79,213.45,263.07z"/>
		<ellipse class="st36" cx="360.8" cy="296.94" rx="52.46" ry="55.74"/>
		<circle class="st36" cx="207.04" cy="312.32" r="57.66"/>
	</g>
	<g>
		<path class="st37" d="M911.98,470c12.48,0,24.96,0,37.43,0c-5.61-13.75-23.53-60.9-13.37-101.06c3.45-13.62,8.2-25.26,10.7-30.88
			c13.13-29.61,30.62-49.79,42.78-61.76c-28.26,19.01-41.38,38.64-48.13,53.33c-3.32,7.23-5.57,14.27-8.02,14.04
			c-3.14-0.3-6.08-16.26-5.35-84.21c-2.67,23.39-5.35,46.78-8.02,70.18c-11.59-19.65-23.17-39.3-34.76-58.95
			c8.91,23.39,17.82,46.78,26.74,70.18c6.77,33.35,9.72,72.58,2.67,115.09C913.86,460.75,912.96,465.43,911.98,470z"/>
		<circle class="st34" cx="815.72" cy="243.43" r="90.91"/>
		<path class="st34" d="M813.05,173.91c0.68-46.3,53.25-90.9,108.29-90.91c54.65-0.01,106.99,43.94,108.29,90.91
			c1.01,36.38-28.94,62.33-58.82,88.23c-19.78,17.14-33.11,21.85-45.45,21.39c-14.21-0.53-24.74-7.83-32.09-13.37
			C842.53,231.92,812.53,209.3,813.05,173.91z"/>
		<ellipse class="st34" cx="1029.62" cy="222.04" rx="85.56" ry="90.91"/>
		<path class="st36" d="M824.63,174.91c0.61-41.35,47.56-81.17,96.71-81.19c48.8-0.01,95.54,39.24,96.71,81.19
			c0.9,32.49-25.84,55.67-52.53,78.8c-17.66,15.31-29.57,19.51-40.59,19.1c-12.69-0.47-22.09-6.99-28.65-11.94
			C850.96,226.71,824.17,206.51,824.63,174.91z"/>
		<ellipse class="st36" cx="1029.62" cy="222.04" rx="72.98" ry="77.54"/>
		<circle class="st36" cx="815.72" cy="243.43" r="80.21"/>
	</g>
	<g>
		<path class="st33" d="M1201.08,427.07c-3.94,1.35-10.02,2.93-17.57,2.93c-4.16,0-10.43-0.48-17.57-2.93
			c4.37-19.66,9.4-54.75,0-96.61c-7.03-31.31-19.59-55.06-29.28-70.26c4.62,3.84,10.99,9.65,17.57,17.57
			c14.41,17.35,17.17,29.62,20.49,29.28c4.31-0.45,7.9-21.93,5.86-108.32c7.15,27.46,10.22,49.86,11.71,64.41
			c3.89,38.02,0.57,57.15,2.93,102.46C1196.63,392.63,1199.29,414.24,1201.08,427.07z"/>
		<circle class="st34" cx="1206.94" cy="131.39" r="105.39"/>
		<ellipse transform="matrix(0.866 -0.5 0.5 0.866 35.7373 589.3728)" class="st34" cx="1117.65" cy="228" rx="80.51" ry="58.55"/>
		<ellipse transform="matrix(0.866 -0.5 0.5 0.866 35.7373 589.3728)" class="st35" cx="1117.65" cy="228" rx="61.89" ry="45.01"/>
		<circle class="st35" cx="1206.94" cy="131.39" r="87.83"/>
	</g>
	<g>
		<path class="st33" d="M1732.56,431.85c3.94,1.35,10.02,2.93,17.57,2.93c4.16,0,10.43-0.48,17.57-2.93
			c-4.37-19.66-9.4-54.75,0-96.61c7.03-31.31,19.59-55.06,29.28-70.26c-4.62,3.84-10.99,9.65-17.57,17.57
			c-14.41,17.35-17.17,29.62-20.49,29.28c-4.31-0.45-7.9-21.93-5.86-108.32c-7.15,27.46-10.22,49.86-11.71,64.41
			c-3.89,38.02-0.57,57.15-2.93,102.46C1737.01,397.41,1734.36,419.02,1732.56,431.85z"/>
		<circle class="st34" cx="1726.71" cy="136.17" r="105.39"/>
		
			<ellipse transform="matrix(0.5 -0.866 0.866 0.5 706.4019 1689.0862)" class="st34" cx="1816" cy="232.78" rx="58.55" ry="80.51"/>
		
			<ellipse transform="matrix(0.5 -0.866 0.866 0.5 706.4019 1689.0862)" class="st35" cx="1816" cy="232.78" rx="45.01" ry="61.89"/>
		<circle class="st35" cx="1726.71" cy="136.17" r="87.83"/>
	</g>
	<g>
		<path class="st37" d="M1472.45,315c10.19,0,20.39,0,30.58,0c-4.58-10.7-19.22-47.39-10.92-78.64c2.82-10.6,6.7-19.66,8.74-24.03
			c10.72-23.04,25.02-38.75,34.95-48.06c-23.09,14.79-33.81,30.07-39.32,41.5c-2.71,5.63-4.55,11.11-6.55,10.92
			c-2.56-0.24-4.97-12.65-4.37-65.53c-2.18,18.2-4.37,36.41-6.55,54.61c-9.47-15.29-18.93-30.58-28.4-45.87
			c7.28,18.2,14.56,36.41,21.84,54.61c5.53,25.95,7.94,56.48,2.18,89.56C1473.98,307.8,1473.25,311.44,1472.45,315z"/>
		<circle class="st34" cx="1393.81" cy="138.06" r="74.27"/>
		<path class="st34" d="M1391.62,81.27c0.55-37.83,43.51-74.26,88.47-74.27c44.65-0.01,87.41,35.9,88.47,74.27
			c0.82,29.72-23.64,50.92-48.06,72.09c-16.16,14.01-27.05,17.85-37.13,17.48c-11.61-0.43-20.21-6.4-26.21-10.92
			C1415.71,128.66,1391.2,110.18,1391.62,81.27z"/>
		<ellipse class="st34" cx="1568.56" cy="120.59" rx="69.9" ry="74.27"/>
		<path class="st36" d="M1401.09,82.09c0.49-33.78,38.85-66.32,79.01-66.33c39.87-0.01,78.06,32.06,79.01,66.33
			c0.74,26.54-21.11,45.48-42.92,64.38c-14.43,12.51-24.16,15.94-33.16,15.61c-10.37-0.39-18.05-5.71-23.41-9.75
			C1422.6,124.41,1400.71,107.91,1401.09,82.09z"/>
		<ellipse class="st36" cx="1568.56" cy="120.59" rx="59.62" ry="63.35"/>
		<circle class="st36" cx="1393.81" cy="138.06" r="65.53"/>
	</g>
	<g>
		<path class="st34" d="M1668.4,274.7c-1.84-46.8-55.08-80.04-101.64-78.77c-48.73,1.33-96.7,40.64-96.56,81.32
			c0.18,50.44,74.33,96.13,132.14,78.77C1635.32,346.11,1669.93,313.6,1668.4,274.7z"/>
		<path class="st36" d="M1657.72,275.04c-1.64-41.75-49.14-71.41-90.68-70.28c-43.47,1.19-86.28,36.26-86.15,72.55
			c0.16,45,66.31,85.77,117.89,70.28C1628.2,338.75,1659.08,309.74,1657.72,275.04z"/>
		<path class="st37" d="M1607.42,472.9c-5.29,8.19-14.57,12.21-22.87,10.16c-7.99-1.97-11.93-8.77-12.71-10.16
			c4-41.94,7.43-85.16,10.16-129.6c2.24-36.35,3.91-71.94,5.08-106.73c3.39,0.85,6.78,1.69,10.16,2.54
			c1.69,32.19,3.39,64.37,5.08,96.56c3.36-3.14,6.76-6.53,10.16-10.16c10.55-11.28,18.86-22.6,25.41-33.03
			c-2.82,12.19-8.43,28.92-20.33,45.74c-4.19,5.92-8.53,10.97-12.71,15.25C1605.72,393.28,1606.57,433.09,1607.42,472.9z"/>
		<path class="st34" d="M1617.58,277.24c-9.87-35.03,20.08-72.89,53.36-73.69c36.02-0.86,66.15,41.93,55.9,76.23
			c-6,20.07-25.3,35.48-47.01,38.12C1651.89,321.29,1624.83,302.96,1617.58,277.24z"/>
		<path class="st36" d="M1625.23,274.96c-8.49-30.13,17.27-62.7,45.9-63.38c30.98-0.74,56.89,36.07,48.08,65.57
			c-5.16,17.27-21.76,30.51-40.43,32.78C1654.75,312.85,1631.47,297.08,1625.23,274.96z"/>
		
			<ellipse transform="matrix(0.9538 -0.3005 0.3005 0.9538 16.5605 482.8986)" class="st34" cx="1578.05" cy="187.62" rx="102.54" ry="73.52"/>
		
			<ellipse transform="matrix(0.9538 -0.3005 0.3005 0.9538 16.5605 482.8986)" class="st36" cx="1578.05" cy="187.62" rx="90.08" ry="64.59"/>
	</g>
</g>
</svg>
