<?xml version="1.0" encoding="utf-8"?>
<!-- Generator: Adobe Illustrator 23.0.3, SVG Export Plug-In . SVG Version: 6.00 Build 0)  -->
<svg version="1.1" id="Layer_1" xmlns="http://www.w3.org/2000/svg" xmlns:xlink="http://www.w3.org/1999/xlink" x="0px" y="0px"
	 viewBox="0 0 576 576" style="enable-background:new 0 0 576 576;" xml:space="preserve">
<style type="text/css">
	.st0{fill:#57C8DF;}
	.st1{fill:#4CC0C9;}
	.st2{fill:#FFFFFF;}
	.st3{fill:#CF2027;}
</style>
<rect x="17.87" y="224.65" class="st0" width="150.53" height="299.56"/>
<rect x="408.29" y="224.65" class="st0" width="150.53" height="299.56"/>
<rect x="168.7" y="84.03" class="st1" width="239.45" height="440.17"/>
<rect x="41.38" y="270.21" class="st2" width="33.78" height="33.78"/>
<rect x="111.47" y="270.21" class="st2" width="33.78" height="33.78"/>
<rect x="41.38" y="333.06" class="st2" width="33.78" height="33.78"/>
<rect x="111.47" y="333.06" class="st2" width="33.78" height="33.78"/>
<rect x="41.38" y="390.66" class="st2" width="33.78" height="33.78"/>
<rect x="111.47" y="390.66" class="st2" width="33.78" height="33.78"/>
<rect x="41.38" y="449.84" class="st2" width="33.78" height="33.78"/>
<rect x="111.47" y="449.84" class="st2" width="33.78" height="33.78"/>
<rect x="428.92" y="270.21" class="st2" width="33.78" height="33.78"/>
<rect x="499.01" y="270.21" class="st2" width="33.78" height="33.78"/>
<rect x="428.92" y="333.06" class="st2" width="33.78" height="33.78"/>
<rect x="499.01" y="333.06" class="st2" width="33.78" height="33.78"/>
<rect x="428.92" y="390.66" class="st2" width="33.78" height="33.78"/>
<rect x="499.01" y="390.66" class="st2" width="33.78" height="33.78"/>
<rect x="274.22" y="270.21" class="st2" width="33.78" height="33.78"/>
<rect x="344.31" y="270.21" class="st2" width="33.78" height="33.78"/>
<rect x="274.22" y="333.06" class="st2" width="33.78" height="33.78"/>
<rect x="344.31" y="333.06" class="st2" width="33.78" height="33.78"/>
<rect x="274.22" y="390.66" class="st2" width="33.78" height="33.78"/>
<rect x="344.31" y="390.66" class="st2" width="33.78" height="33.78"/>
<rect x="202.74" y="270.21" class="st2" width="33.78" height="33.78"/>
<rect x="274.22" y="211.29" class="st2" width="33.78" height="33.78"/>
<rect x="344.31" y="211.29" class="st2" width="33.78" height="33.78"/>
<rect x="202.74" y="211.29" class="st2" width="33.78" height="33.78"/>
<rect x="274.22" y="159.45" class="st2" width="33.78" height="33.78"/>
<rect x="344.31" y="159.45" class="st2" width="33.78" height="33.78"/>
<rect x="202.74" y="159.45" class="st2" width="33.78" height="33.78"/>
<rect x="202.74" y="333.06" class="st2" width="33.78" height="33.78"/>
<rect x="202.74" y="390.66" class="st2" width="33.78" height="33.78"/>
<rect x="428.92" y="449.84" class="st2" width="33.78" height="33.78"/>
<rect x="499.01" y="449.84" class="st2" width="33.78" height="33.78"/>
<g>
	<rect x="256.97" y="51.83" class="st3" width="62.84" height="62.84"/>
	<rect x="281.23" y="57.21" class="st2" width="14.93" height="52.37"/>
	
		<rect x="281.23" y="57.21" transform="matrix(6.123234e-17 -1 1 6.123234e-17 205.3017 372.0894)" class="st2" width="14.93" height="52.37"/>
</g>
<rect x="235.58" y="470.79" class="st2" width="103.17" height="53.42"/>
</svg>
