<?xml version="1.0" encoding="utf-8"?>
<!-- Generator: Adobe Illustrator 23.0.3, SVG Export Plug-In . SVG Version: 6.00 Build 0)  -->
<svg version="1.1" id="Layer_1" xmlns="http://www.w3.org/2000/svg" xmlns:xlink="http://www.w3.org/1999/xlink" x="0px" y="0px"
	 viewBox="0 0 137 53" style="enable-background:new 0 0 137 53;" xml:space="preserve">
<style type="text/css">
	.st0{opacity:0.25;fill:#C7FFFD;}
	.st1{fill:#100F0D;}
	.st2{fill:#3A4050;}
	.st3{fill:#FFFFFF;}
	.st4{fill:#DC6742;}
	.st5{fill:#761617;}
	.st6{fill:#323744;}
	.st7{fill:none;stroke:#2E333F;stroke-width:0.4253;stroke-miterlimit:10;}
	.st8{fill:#2E333F;}
	.st9{fill:#949C9F;}
</style>
<g>
	<path class="st0" d="M112.22,15.93c-1.17-1.2-3.1-3-5.74-4.79C86.63-2.23,59.68,8.29,55.55,9.98c-4.16,1.7-10.23,4.66-16.8,9.89
		c5.35,1.59,11.4,2.93,18.08,3.72C80.44,26.37,100.11,20.73,112.22,15.93z"/>
	<path class="st1" d="M14.23,43.63c0.64,1.29,1.6,1.7,1.6,1.7c0.5,0.22,0.98,0.23,1.28,0.21c6.06,0,12.12,0,18.18,0
		c0.29-0.02,0.94-0.1,1.59-0.53c0.61-0.4,0.93-0.91,1.06-1.17c0.78-6.52,1.56-13.04,2.34-19.57c-8.15,1.84-16.3,3.69-24.46,5.53
		C14.03,36.82,13.5,42.16,14.23,43.63z"/>
	<path class="st1" d="M95.95,43.9c0.58,0.95,1.38,1.38,1.38,1.38c0.39,0.21,0.74,0.29,0.9,0.32c6.17,1.24,18.18,0,18.18,0
		c0.29-0.02,0.94-0.1,1.59-0.53c0.61-0.4,0.93-0.91,1.06-1.17c0.78-6.52,1.56-13.04,2.34-19.57c-8.15,1.84-16.3,3.69-24.46,5.53
		C95.58,37.3,95.32,42.85,95.95,43.9z"/>
	<path d="M99.68,5.72c0.6-0.28,1.21-0.57,1.81-0.85c1.35-1.28,2.69-2.55,4.04-3.83c0.06-0.06,0.15-0.06,0.21,0
		c0.06,0.06,0.06,0.15,0,0.21c-1.31,1.28-2.62,2.55-3.93,3.83c0.04,0.6,0.07,1.21,0.11,1.81C101.16,6.5,100.42,6.11,99.68,5.72z"/>
	<path d="M104.67,9.02C101.15,7.91,97.25,6.87,93,6c-2.79-0.57-5.46-1.01-8-1.34c-6.13,0.28-12.26,0.57-18.4,0.85
		c-4.86,1.88-9.71,3.76-14.57,5.64c-4.15,2.84-8.29,5.67-12.44,8.51c0.07,0.57,0.14,1.13,0.21,1.7c23.82-0.6,47.64-1.21,71.46-1.81
		C109.07,16.04,106.87,12.53,104.67,9.02z M72.24,18.7c-7.3,0.28-14.6,0.57-21.91,0.85c-0.67-1.42-1.35-2.84-2.02-4.25
		c0.59-0.35,1.45-0.85,2.5-1.44c3.45-1.93,7.38-3.91,9.46-4.79c2.38-0.99,7.24-2.58,15.15-2.29C74.37,10.76,73.3,14.73,72.24,18.7z
		 M97.28,17.58c-6.49,0.18-12.97,0.35-19.46,0.53c0.35-3.76,0.71-7.51,1.06-11.27c2.95-0.25,6.6-0.31,10.74,0.21
		c3.26,0.41,6.12,1.09,8.51,1.81C97.85,11.77,97.57,14.67,97.28,17.58z M98.24,17.37c0.25-2.69,0.5-5.39,0.74-8.08
		c0.93,0.31,2.02,0.75,3.19,1.38c1.1,0.6,2.02,1.23,2.76,1.81c-0.04,1.63-0.07,3.26-0.11,4.89
		C102.64,17.37,100.44,17.37,98.24,17.37z"/>
	<path class="st2" d="M136.89,35.39c0.04-1.41,0.22-1.88-0.11-2.55c-0.28-0.58-0.73-0.92-1.49-1.49c-0.87-0.65-1.44-0.82-1.7-1.49
		c-0.14-0.36-0.12-0.68-0.11-0.85c0.16-2.28,0.43-6.11,0-8.29c-0.18-0.93-0.64-2.29-1.91-3.83c-0.6,0.03-1.48,0.08-2.55,0.11
		c-1.19,0.03-2.5,0.05-4.04,0c-2.2-0.07-3.06-0.23-3.93-0.74c-0.44-0.26-0.73-0.53-0.85-0.64c-1.15-1.04-2.84-2.08-6.27-3.93
		c-5.2-2.81-7.8-4.22-9.46-4.89c-4.41-1.78-8.01-2.07-15.21-2.66c-6.34-0.52-10.57-0.29-17.97,0.11c-4.63,0.25-8.12,0.6-12.23,2.23
		c-0.65,0.26-1.82,0.85-4.15,2.02c-8.51,4.29-13.76,7.45-14.99,8.19c-1.23,0.74-2.55,1.56-3.93,2.45c-1.6,0.18-3.19,0.35-4.79,0.53
		c-1.6,0.32-3.31,0.61-5.1,0.85c-1.83,0.24-2.87,0.32-3.93,0.43c0,0-6.74,0.67-14.94,4.2c-0.5,0.22-1.42,0.63-2.34,1.49
		c-0.52,0.48-0.92,1-1.7,2.34c-0.95,1.63-1.86,3.23-2.55,5.53C0.47,35,0.14,36.17,0.3,37.57c0.03,0.24,0.17,1.45,0.53,1.49
		c0.12,0.01,0.24-0.11,0.32-0.21c0.14,0.92,0.28,1.84,0.43,2.76c-0.19,0.15-0.89,0.76-0.74,1.28c0.12,0.41,0.71,0.57,0.96,0.64
		c1.94,0.52,10.5,0.18,12.34,0.11c-0.46-7.28,4.88-13.24,10.85-13.72c6.66-0.54,13.47,5.81,12.87,14.04
		c19.39-0.04,38.78-0.07,58.17-0.11c-0.7-7.22,5.1-13.3,11.7-13.19c6.33,0.11,11.79,5.88,11.32,12.81c4.11-0.55,7.29-0.81,9.46-0.96
		c2.05-0.14,3.82-0.21,5.64-1.38c1.5-0.97,2.38-2.28,2.87-3.19C136.88,36.88,136.88,36,136.89,35.39z M107.12,17.74
		c-10.99,0.27-21.98,0.66-32.96,1.17C63.52,19.4,52.88,20,42.25,20.72c0.18-0.53,0.5-1.34,1.06-2.23c0.7-1.1,1.55-1.96,2.87-2.98
		c1.62-1.24,2.82-1.85,5.74-3.4c0.99-0.52,2.58-1.37,4.57-2.45c4.43-1.96,8.28-2.83,11.06-3.3c2.12-0.36,4.22-0.44,8.4-0.64
		c5.98-0.28,9.52-0.1,11.17,0c3.86,0.24,5.62,0.62,6.17,0.74c2.78,0.62,4.99,1.52,6.49,2.23c0,0,1.68,0.59,4.04,1.7
		c1.42,0.67,2.15,1.1,2.76,1.91c0.18,0.23,0.75,1.03,0.96,2.23C107.81,16.07,107.33,17.28,107.12,17.74z"/>
	<path class="st3" d="M131.36,21.35c0.88,0.14,1.56-0.06,1.7-0.11c0.22-0.07,0.41-0.15,0.53-0.21c0.22,1.81,0.3,3.89,0.11,6.17
		c-0.05,0.63-0.13,1.23-0.21,1.81H132c0,0-1.91-8.08-1.91-8.08C130.4,21.09,130.83,21.27,131.36,21.35z"/>
	<path class="st4" d="M12.8,28.8c0.92-0.89,1.84-1.77,2.76-2.66c0.11-0.2,0.22-0.5,0.11-0.74c-0.23-0.49-1.2-0.45-1.7-0.43
		c-0.58,0.03-1.58,0.16-2.76,0.85"/>
	<path class="st5" d="M131.52,21.09c-0.1,0.21-0.31,0.22-0.43,0.53c-0.1,0.28-0.03,0.54,0,0.64c0.36,1.35-0.36,3.32,0.74,4.36
		c0.48,0.45,0.88,0.33,1.17,0.85c0.29,0.52,0.15,1.15,0,1.6c-1.88-0.04-3.76-0.07-5.64-0.11c-0.74-2.37-1.49-4.75-2.23-7.12
		c0.11-0.5,0.41-1.51,1.28-2.45c0.57-0.62,1.18-0.97,1.6-1.17c0.24-0.07,0.69-0.16,1.17,0c0.29,0.1,0.49,0.25,0.96,0.74
		C131.07,19.95,131.73,20.64,131.52,21.09z"/>
	<path class="st3" d="M10.57,25.29c0.49-0.21,1.11-0.47,1.7-0.21c0.44,0.19,0.65,0.58,0.74,0.74c0.68,1.22-0.1,2.75-0.21,2.98
		c-0.62,0.58-1.6,1.38-2.98,2.02c-0.68,0.31-1.22,0.48-1.38,0.53c-0.85,0.26-2.48,0.6-4.68,0.21c-0.18-0.48-0.41-1.34,0-2.02
		c0.09-0.14,0.19-0.26,0.64-0.64c0.94-0.8,1.49-1.17,1.49-1.17C7.6,26.58,8.9,26.01,10.57,25.29z"/>
	<path d="M1.1,38.9c0.25-0.26,0.75-0.7,1.49-0.96c0.43-0.15,1.68-0.58,2.45,0.11c0.58,0.52,0.54,1.37,0.53,1.6
		c-0.01,0.15-0.05,1.15-0.74,1.6c-0.37,0.24-0.68,0.16-1.6,0.21c-0.73,0.04-1.33,0.14-1.7,0.21"/>
	<path class="st2" d="M43.96,19.12c0.01-0.33,0.06-0.88,0.32-1.49c0.41-0.95,1.08-1.46,1.28-1.6c0.38-0.27,1.47-1.05,2.66-0.64
		c0.89,0.31,1.3,1.1,1.38,1.28c0.06,0.13,0.63,1.31,0,2.45c-0.11,0.2-0.47,0.8-1.17,1.06c-0.25,0.1-0.39,0.09-1.17,0.11
		c-1.84,0.03-2.03,0.06-2.34-0.11C44.68,20.06,44.27,19.79,43.96,19.12z"/>
	<path class="st6" d="M40.34,26.78c0.11,0.18,0.42,0.7,0.32,1.38c-0.04,0.27-0.13,0.49-0.21,0.64c-1.38-0.04-2.76-0.07-4.15-0.11
		c-1.1-0.05-1.85-0.41-1.91-0.85c-0.03-0.24,0.15-0.46,0.21-0.53c0.48-0.57,1.37-0.54,1.91-0.53C37.53,26.8,38.74,26.8,40.34,26.78z
		"/>
	<path class="st6" d="M41.19,28.69c3.86-0.06,7.73-0.13,11.59-0.21c6.84-0.14,13.68-0.32,20.52-0.53c0.07-0.34,0.13-0.77,0.11-1.28
		c-0.01-0.32-0.06-0.61-0.11-0.85c-6.74,0.14-13.47,0.32-20.2,0.53c-4.01,0.13-8.01,0.27-12.02,0.43c-0.1,0.22-0.33,0.83-0.11,1.49
		C41.04,28.43,41.11,28.58,41.19,28.69z"/>
	<path class="st6" d="M74.05,25.93c-0.1,0.26-0.21,0.67-0.21,1.17c0,0.34,0.05,0.63,0.11,0.85c9.07-0.32,18.15-0.64,27.22-0.96
		c0.78-0.35,1.56-0.71,2.34-1.06c0.13-0.17,0.11-0.28,0.11-0.32c-0.05-0.22-0.43-0.39-0.96-0.32C93.12,25.5,83.58,25.71,74.05,25.93
		z"/>
	<path class="st7" d="M41.94,20.82c-0.88,3.2-1.71,7.8-1.28,13.29c0.22,2.76,0.71,5.19,1.28,7.23c17.28,0.02,34.56,0.04,51.84,0.05
		c0.37-0.2,0.88-0.56,1.17-1.17c0.23-0.48,0.21-0.92,0.21-1.06c0-1.42,1.04-3.15,1.7-4.25c1.09-1.81,2.02-3.37,3.72-3.93
		c0.47-0.16,0.84-0.19,1.38-0.53c1.04-0.67,1.45-1.72,1.7-2.34c2.2-5.54,1.99-4.66,2.45-6.17c0.33-1.08,0.75-2.56,1.17-4.36"/>
	<path class="st7" d="M74.47,20.18c-0.55,3.29-0.98,7.12-1.06,11.38c-0.07,3.64,0.11,6.96,0.43,9.89"/>
	<path class="st8" d="M71.18,22.42c-2.27,0.04-4.54,0.07-6.81,0.11c-0.05,0.13-0.12,0.36-0.11,0.64c0.01,0.23,0.06,0.41,0.11,0.53
		c2.23-0.11,4.47-0.21,6.7-0.32c0.4,0.09,0.73-0.18,0.74-0.43C71.83,22.71,71.57,22.41,71.18,22.42z"/>
	<path class="st8" d="M98.72,21.35c-1.13,0.05-2.23,0.13-3.3,0.21c-0.22,0.06-0.39,0.22-0.43,0.43c-0.05,0.26,0.13,0.55,0.43,0.64
		c2.37-0.11,4.75-0.22,7.12-0.32c0.3-0.09,0.47-0.37,0.43-0.64c-0.04-0.2-0.21-0.37-0.43-0.43
		C101.31,21.26,100.04,21.29,98.72,21.35z"/>
	<circle cx="25.77" cy="42.09" r="9.78"/>
	<path id="front_x5F_hub" class="st9" d="M25.77,35.39c-3.7,0-6.7,3-6.7,6.7c0,3.7,3,6.7,6.7,6.7s6.7-3,6.7-6.7
		C32.47,38.39,29.47,35.39,25.77,35.39z M20.49,43.91c-0.14,0.07-0.3-0.03-0.3-0.19v-3.23c0-0.17,0.18-0.28,0.33-0.2l2.22,1.11
		c0.04,0.02,0.35,0.18,0.43,0.53c0.07,0.32-0.1,0.67-0.43,0.85L20.49,43.91z M24.36,47.57c-0.02,0.15-0.19,0.24-0.32,0.15
		l-2.72-1.75c-0.14-0.09-0.14-0.3,0.01-0.39l2.14-1.27c0.04-0.02,0.35-0.2,0.68-0.07c0.31,0.12,0.51,0.45,0.49,0.82L24.36,47.57z
		 M24.54,40c-0.25,0.22-0.63,0.25-0.95,0.06l-2.1-1.39c-0.13-0.09-0.12-0.28,0.01-0.35l2.8-1.62c0.15-0.08,0.33,0.01,0.34,0.18
		l0.15,2.48C24.79,39.41,24.8,39.76,24.54,40z M27.03,36.81c0.02-0.15,0.19-0.24,0.32-0.15l2.72,1.75c0.14,0.09,0.14,0.3-0.01,0.39
		l-2.14,1.27c-0.04,0.02-0.35,0.2-0.68,0.07c-0.31-0.12-0.51-0.45-0.49-0.82L27.03,36.81z M29.89,46.07l-2.8,1.62
		c-0.15,0.08-0.33-0.01-0.34-0.18l-0.15-2.48c0-0.05-0.02-0.4,0.25-0.63c0.25-0.22,0.63-0.25,0.95-0.06l2.1,1.39
		C30.03,45.8,30.02,45.99,29.89,46.07z M30.86,44.1l-2.22-1.11c-0.04-0.02-0.35-0.18-0.43-0.53c-0.07-0.32,0.1-0.67,0.43-0.85
		l2.25-1.12c0.14-0.07,0.3,0.03,0.3,0.19v3.23C31.2,44.07,31.02,44.18,30.86,44.1z"/>
	<circle cx="107.54" cy="42.09" r="9.78"/>
	<path id="back_x5F_hub" class="st9" d="M107.44,35.39c-3.7,0-6.7,3-6.7,6.7c0,3.7,3,6.7,6.7,6.7s6.7-3,6.7-6.7
		C114.14,38.39,111.14,35.39,107.44,35.39z M109.23,39.81l1.29-2.16c0.08-0.13,0.27-0.14,0.35-0.01l1.75,2.72
		c0.09,0.14,0,0.33-0.17,0.35l-2.47,0.27c-0.05,0.01-0.4,0.04-0.65-0.22C109.11,40.52,109.06,40.13,109.23,39.81z M105.41,36.65
		l3.23,0c0.17,0,0.28,0.18,0.2,0.33l-1.11,2.22c-0.02,0.04-0.18,0.35-0.53,0.43c-0.32,0.07-0.67-0.1-0.85-0.43l-1.12-2.25
		C105.15,36.81,105.26,36.65,105.41,36.65z M101.62,41.18l1.48-2.87c0.08-0.15,0.29-0.17,0.39-0.03l1.47,2.01
		c0.03,0.04,0.23,0.33,0.13,0.67c-0.09,0.32-0.4,0.55-0.77,0.57l-2.52-0.03C101.65,41.48,101.55,41.31,101.62,41.18z M105.54,44.47
		l-1.29,2.16c-0.08,0.13-0.27,0.14-0.35,0.01l-1.75-2.72c-0.09-0.14,0-0.33,0.17-0.35l2.47-0.27c0.05-0.01,0.4-0.04,0.65,0.22
		C105.66,43.76,105.71,44.15,105.54,44.47z M109.41,47.61l-3.23,0c-0.17,0-0.28-0.18-0.2-0.33l1.11-2.22
		c0.02-0.04,0.18-0.35,0.53-0.43c0.32-0.07,0.67,0.1,0.85,0.43l1.12,2.25C109.66,47.44,109.56,47.61,109.41,47.61z M111.63,46
		c-0.08,0.15-0.29,0.17-0.39,0.03l-1.47-2.01c-0.03-0.04-0.23-0.33-0.13-0.67c0.09-0.32,0.4-0.55,0.77-0.57l2.52,0.03
		c0.15,0,0.25,0.17,0.18,0.3L111.63,46z"/>
</g>
</svg>
