<?xml version="1.0" encoding="utf-8"?>
<!-- Generator: Adobe Illustrator 23.0.3, SVG Export Plug-In . SVG Version: 6.00 Build 0)  -->
<svg version="1.1" id="Layer_1" xmlns="http://www.w3.org/2000/svg" xmlns:xlink="http://www.w3.org/1999/xlink" x="0px" y="0px"
	 viewBox="0 0 1892.17 938.12" style="enable-background:new 0 0 1892.17 938.12;" xml:space="preserve">
<style type="text/css">
	.st0{fill:none;stroke:#FFFFFF;stroke-width:3.389;stroke-linecap:round;stroke-linejoin:round;stroke-miterlimit:10;}
	.st1{fill:#FFFFFF;}
</style>
<g>
	<path d="M1016.04,357.81h274.2c8.69,0,15.8-7.11,15.8-15.8V187.6c0-8.69-7.11-15.8-15.8-15.8h-274.2c-8.69,0-15.8,7.11-15.8,15.8
		v154.42C1000.25,350.7,1007.36,357.81,1016.04,357.81z"/>
	<g>
		<path class="st0" d="M1056.01,186.28c-3.51,0-7.01,0-10.52,0c-0.14,7.5-0.29,15-0.43,22.5c3.55,0.02,7.1,0.03,10.66,0.05"/>
		<path class="st0" d="M1053.1,197.03c-2.6,0-5.19,0-7.79,0"/>
	</g>
	<path class="st0" d="M1061.51,186.23c-0.02,7.53-0.03,15.06-0.05,22.59c3.69,0.06,7.38,0.12,11.07,0.18"/>
	<path class="st0" d="M1078.59,186.56c0,7.41,0,14.82,0,22.22c0.75,0.21,5.31,1.45,7.96-1.01c1.1-1.02,1.56-2.38,2.22-4.37
		c0.72-2.16,0.98-4.05,1.08-5.38c-0.01-0.96-0.1-2.34-0.43-3.94c-0.43-2.09-0.88-4.26-2.22-5.73
		C1084.5,185.39,1079.27,186.42,1078.59,186.56z"/>
	<g>
		<path class="st0" d="M1106.08,186.68c-3.51,0-7.01,0-10.52,0c-0.14,7.5-0.29,15-0.43,22.5c3.55,0.02,7.1,0.03,10.66,0.05"/>
		<path class="st0" d="M1103.17,197.43c-2.6,0-5.19,0-7.79,0"/>
	</g>
	<path class="st0" d="M1111.59,210.03c0.1-7.81,0.19-15.61,0.29-23.42c2.8,0.06,5.61,0.13,8.41,0.19c0.18,0.12,2.99,1.98,2.96,5.45
		c-0.02,3.52-2.94,5.35-3.11,5.45c-2.8,0-5.61,0-8.41,0"/>
	<path class="st0" d="M1123.16,210.12c-1.32-4.13-2.64-8.25-3.97-12.38"/>
	<path class="st0" d="M1151.85,192.87c-0.12-0.85-0.46-2.36-1.58-3.8c-0.51-0.66-1.12-1.45-2.22-1.86
		c-2.05-0.77-4.01,0.43-4.23,0.57c-1.49,0.95-2.01,2.41-2.58,4.01c-0.54,1.52-0.64,2.7-0.79,4.44c-0.1,1.17-0.21,3.36,0.14,6.09
		c0.3,2.33,0.74,3.49,0.86,3.8c0.49,1.25,0.93,2.35,2.08,3.15c1.01,0.7,2.05,0.83,2.51,0.86c0.29,0.02,1.35,0.06,2.51-0.5
		c1.89-0.91,2.57-2.72,2.72-3.15c0.05-2.27,0.1-4.54,0.14-6.81c-1.53,0.02-3.07,0.05-4.6,0.07"/>
	<path class="st0" d="M1164.69,186.78c0.44,0.08,1.5,0.37,2.87,2.15c2.57,3.35,2.64,7.32,2.65,9.03c0.01,2.28-0.35,6.85-3.3,10.39
		c-1.14,1.37-2.02,1.8-2.8,1.94c-2.28,0.39-4.2-1.67-4.52-2.01c-1.27-1.36-1.6-2.85-2.01-4.8c-0.21-1-0.77-4.08,0-8.32
		c0.51-2.8,0.83-4.6,2.37-6.24C1160.36,188.49,1162.37,186.34,1164.69,186.78z"/>
	<path class="st0" d="M1187.34,192.73c0.07-0.53,0.15-1.79-0.5-3.15c-0.21-0.45-0.76-1.56-2.01-2.29c-1.62-0.95-3.28-0.61-3.8-0.5
		c-0.75,0.15-2.65,0.7-3.8,2.58c-1.21,1.98-0.7,3.99-0.57,4.52c0.14,0.57,0.51,2.05,1.79,3.01c0.49,0.37,1.36,0.61,3.08,1.08
		c2.02,0.55,2.13,0.45,2.87,0.79c0.64,0.29,1.82,0.83,2.65,2.08c0.75,1.13,0.81,2.25,0.86,3.01c0.06,1.04,0.18,2.94-1.15,4.52
		c-1.3,1.54-3.14,1.78-3.8,1.86c-1.7,0.22-3.05-0.29-3.66-0.57c-0.53-0.24-1.6-0.76-2.44-1.94c-1.15-1.62-1.06-3.39-1-3.94"/>
	<path class="st0" d="M1205.4,192.73c0.07-0.53,0.15-1.79-0.5-3.15c-0.21-0.45-0.76-1.56-2.01-2.29c-1.62-0.95-3.28-0.61-3.8-0.5
		c-0.75,0.15-2.65,0.7-3.8,2.58c-1.21,1.98-0.7,3.99-0.57,4.52c0.14,0.57,0.51,2.05,1.79,3.01c0.49,0.37,1.36,0.61,3.08,1.08
		c2.02,0.55,2.13,0.45,2.87,0.79c0.64,0.29,1.82,0.83,2.65,2.08c0.75,1.13,0.81,2.25,0.86,3.01c0.06,1.04,0.18,2.94-1.15,4.52
		c-1.3,1.54-3.14,1.78-3.8,1.86c-1.7,0.22-3.05-0.29-3.66-0.57c-0.53-0.24-1.6-0.76-2.44-1.94c-1.15-1.62-1.06-3.39-1-3.94"/>
	<path class="st0" d="M1211.66,210.41c2.34-7.69,4.68-15.39,7.02-23.08c2.1,7.63,4.21,15.26,6.31,22.89"/>
	<path class="st0" d="M1214.67,202.62c2.69,0.03,5.38,0.06,8.08,0.1"/>
	<path class="st0" d="M1242.93,193.4c-0.12-0.85-0.46-2.36-1.58-3.8c-0.51-0.66-1.12-1.45-2.22-1.86c-2.05-0.77-4.01,0.43-4.23,0.57
		c-1.49,0.95-2.01,2.41-2.58,4.01c-0.54,1.52-0.64,2.7-0.79,4.44c-0.1,1.17-0.21,3.36,0.14,6.09c0.3,2.33,0.74,3.49,0.86,3.8
		c0.49,1.25,0.93,2.35,2.08,3.15c1.01,0.7,2.05,0.83,2.51,0.86c0.29,0.02,1.35,0.06,2.51-0.5c1.89-0.91,2.57-2.72,2.72-3.15
		c0.05-2.27,0.1-4.54,0.14-6.81c-1.53,0.02-3.07,0.05-4.6,0.07"/>
	<g>
		<path class="st0" d="M1259.14,188.24c-3.51,0-7.01,0-10.52,0c-0.14,7.5-0.29,15-0.43,22.5c3.55,0.02,7.1,0.03,10.66,0.05"/>
		<path class="st0" d="M1256.22,198.99c-2.6,0-5.19,0-7.79,0"/>
	</g>
	<g>
		<path class="st1" d="M1094.56,247.25c0,0.02-0.36,0.02-0.36-0.03c0-0.38-0.08-0.77-0.27-0.99c-0.3-0.27-0.71-0.49-2.36-0.49
			c-0.33,0-0.52,0.03-0.66,0.03c-0.06,0.16-0.08,0.74-0.08,1.67v3.51c0,2.69,0.14,3.02,0.33,3.1c0.19,0.11,0.58,0.19,1.18,0.25
			c0.06,0.03,0.06,0.36,0,0.36c-0.71,0-3.62,0-4.34,0c-0.06,0-0.06-0.33,0-0.36c0.61-0.06,0.99-0.14,1.18-0.25
			c0.19-0.08,0.3-0.41,0.3-3.1v-3.51c0-0.93,0-1.51-0.05-1.67c-0.14,0-0.41-0.03-0.74-0.03c-1.57,0-2,0.17-2.36,0.49
			c-0.25,0.22-0.38,0.66-0.47,1.02c0,0.05-0.35,0-0.35-0.06c0.08-0.74,0.16-1.62,0.22-2.14c0-0.03,0.03-0.05,0.08-0.05
			c0.55,0.08,1.73,0.17,4.36,0.17c3.63,0,4.17-0.08,4.45-0.19c0.06,0,0.08,0.03,0.08,0.06
			C1094.69,245.6,1094.66,246.45,1094.56,247.25"/>
		<path class="st1" d="M1102.73,254.66c-0.05,0-0.05-0.33,0-0.36c0.61-0.06,0.85-0.14,1.04-0.25c0.19-0.08,0.33-0.41,0.33-3.1v-0.88
			h-5.52v0.88c0,2.69,0.14,3.02,0.33,3.1c0.2,0.11,0.44,0.19,1.05,0.25c0.05,0.03,0.05,0.36,0.03,0.36c-0.74,0-3.4,0-4.12,0
			c-0.03,0-0.05-0.33,0.03-0.36c0.6-0.06,0.85-0.14,1.04-0.25c0.19-0.08,0.3-0.41,0.3-3.1v-2.14c0-2.69-0.11-3.02-0.3-3.1
			c-0.19-0.11-0.44-0.19-1.04-0.27c-0.08,0-0.06-0.33-0.03-0.33c0.72,0,3.38,0,4.12,0c0.03,0,0.03,0.33-0.03,0.33
			c-0.61,0.08-0.85,0.17-1.05,0.27c-0.19,0.08-0.33,0.41-0.33,3.1v0.66h5.52v-0.66c0-2.69-0.14-3.02-0.33-3.1
			c-0.19-0.11-0.44-0.19-1.04-0.27c-0.05,0-0.05-0.33,0-0.33c0.71,0,3.38,0,4.09,0c0.05,0,0.05,0.33-0.03,0.33
			c-0.58,0.08-0.85,0.17-1.05,0.27c-0.16,0.08-0.3,0.41-0.3,3.1v2.14c0,2.69,0.14,3.02,0.3,3.1c0.19,0.11,0.47,0.19,1.05,0.25
			c0.08,0.03,0.08,0.36,0.03,0.36C1106.11,254.66,1103.44,254.66,1102.73,254.66"/>
		<path class="st1" d="M1114.87,254.41c-0.11,0.16-0.19,0.27-0.58,0.27c-0.93,0-2.03-0.06-3.29-0.06c-0.99,0-1.59,0-2.66,0.03
			c-0.05,0-0.05-0.33,0-0.36c0.6-0.06,0.88-0.14,1.04-0.25c0.19-0.08,0.33-0.41,0.33-3.1v-2.14c0-2.69-0.14-3.02-0.33-3.1
			c-0.16-0.11-0.44-0.19-1.04-0.27c-0.05,0-0.05-0.33,0-0.33c1.18,0.03,3.05,0.03,4.03,0.03c1.26,0,1.98-0.03,2.42-0.05
			c0.08-0.03,0.11,0.03,0.11,0.05c-0.06,0.49-0.08,1.21-0.17,1.98c-0.03,0.08-0.38,0.05-0.38-0.03c0-0.38-0.08-0.74-0.3-0.99
			c-0.25-0.25-0.68-0.38-1.75-0.38c-0.6,0-1.02,0.03-1.18,0.03c-0.05,0.17-0.05,0.66-0.05,1.59v2.06h1.13
			c1.45,0,1.65-0.33,1.73-0.85c0.03-0.06,0.38-0.06,0.38,0c-0.02,0.41-0.08,2.17-0.08,2.55c0,0.06-0.39,0.06-0.39,0
			c0-0.27-0.05-0.66-0.22-0.79c-0.14-0.11-0.36-0.27-1.46-0.27h-1.1v0.93c0,1.79,0.14,2.61,0.33,2.83c0.19,0.16,0.38,0.27,1.29,0.27
			c0.93,0,1.45-0.22,1.73-0.52c0.22-0.22,0.38-0.52,0.49-1.01c0.03-0.08,0.3,0,0.27,0.05
			C1115.11,253.34,1114.97,254.19,1114.87,254.41"/>
		<path class="st1" d="M1130.28,254.11c-0.19,0.28-1.2,0.69-3.02,0.69c-3.13,0-5.43-2.14-5.43-4.8c0-2.52,2.03-5.02,5.4-5.02
			c1.73,0,2.61,0.55,3.16,0.44c0.05-0.03,0.08,0.03,0.08,0.06c0.03,0.52,0.06,1.32,0.06,2.11c0,0.08-0.38,0.05-0.38-0.03
			c-0.03-0.38-0.27-0.88-0.58-1.18c-0.55-0.52-1.45-0.85-2.5-0.85c-2.74,0-3.73,1.95-3.73,4.06c0,2.39,1.54,4.61,3.96,4.61
			c1.12,0,1.87-0.19,2.39-0.8c0.3-0.39,0.49-0.85,0.63-1.29c0.03-0.08,0.36,0,0.36,0.05
			C1130.61,252.93,1130.42,253.91,1130.28,254.11"/>
		<path class="st1" d="M1139.47,254.66c-0.05,0-0.05-0.33,0-0.36c0.61-0.06,0.86-0.14,1.05-0.25c0.19-0.08,0.33-0.41,0.33-3.1v-0.88
			h-5.52v0.88c0,2.69,0.14,3.02,0.33,3.1c0.19,0.11,0.44,0.19,1.05,0.25c0.05,0.03,0.05,0.36,0.02,0.36c-0.74,0-3.4,0-4.12,0
			c-0.03,0-0.05-0.33,0.03-0.36c0.6-0.06,0.85-0.14,1.04-0.25c0.19-0.08,0.3-0.41,0.3-3.1v-2.14c0-2.69-0.11-3.02-0.3-3.1
			c-0.19-0.11-0.44-0.19-1.04-0.27c-0.08,0-0.06-0.33-0.03-0.33c0.71,0,3.38,0,4.12,0c0.03,0,0.03,0.33-0.02,0.33
			c-0.61,0.08-0.85,0.17-1.05,0.27c-0.19,0.08-0.33,0.41-0.33,3.1v0.66h5.52v-0.66c0-2.69-0.14-3.02-0.33-3.1
			c-0.19-0.11-0.44-0.19-1.05-0.27c-0.05,0-0.05-0.33,0-0.33c0.72,0,3.38,0,4.09,0c0.06,0,0.06,0.33-0.02,0.33
			c-0.58,0.08-0.85,0.17-1.05,0.27c-0.16,0.08-0.3,0.41-0.3,3.1v2.14c0,2.69,0.14,3.02,0.3,3.1c0.19,0.11,0.47,0.19,1.05,0.25
			c0.08,0.03,0.08,0.36,0.02,0.36C1142.85,254.66,1140.19,254.66,1139.47,254.66"/>
		<path class="st1" d="M1154.33,245.73c-0.14,0.11-0.27,0.39-0.27,3.07v2.47c0,1.76-1.48,3.51-3.88,3.51
			c-2.36,0-4.01-1.56-4.01-3.49v-2.5c0-2.69-0.14-3.02-0.33-3.1c-0.19-0.11-0.44-0.19-1.05-0.27c-0.06,0-0.06-0.33,0-0.33
			c0.71,0,3.46,0,4.18,0c0.02,0,0.05,0.33-0.03,0.33c-0.58,0.08-0.91,0.17-1.1,0.27c-0.19,0.08-0.33,0.41-0.33,3.1v2.11
			c0,1.84,1.12,3.02,3.02,3.02c1.87,0,2.75-1.21,2.75-2.85v-2.28c0-2.69-0.14-2.96-0.27-3.07c-0.16-0.14-0.52-0.22-1.13-0.3
			c-0.06,0-0.02-0.33,0-0.33c0.74,0,2.77,0,3.49,0c0.05,0,0.08,0.33,0,0.33C1154.77,245.51,1154.49,245.6,1154.33,245.73"/>
		<path class="st1" d="M1165.97,254.63c-0.93,0-1.7-0.11-2.28-0.52c-0.8-0.49-1.62-1.46-2.83-3.46c-0.74,0.03-0.99,0-1.56-0.03v0.33
			c0,2.69,0.13,3.02,0.33,3.1c0.19,0.11,0.66,0.19,1.32,0.25c0.06,0.03,0.06,0.36,0.02,0.36c-0.71,0-3.68,0-4.39,0
			c-0.05,0-0.05-0.33,0.03-0.36c0.58-0.06,0.85-0.14,1.04-0.25c0.16-0.08,0.3-0.41,0.3-3.1v-2.14c0-2.69-0.14-3.02-0.3-3.1
			c-0.2-0.11-0.47-0.19-1.04-0.27c-0.08,0-0.08-0.33-0.03-0.33c0.68,0,1.48,0.03,2.06,0.03c0.55,0,1.16-0.03,1.84-0.03
			c2.28,0,3.57,1.21,3.57,2.42c0,1.18-0.88,2.14-1.95,2.77c2.03,2.94,3.12,3.92,4.31,3.92c0.14,0,0.33,0,0.44,0
			c0.05-0.03,0.11,0.33,0.08,0.33C1166.6,254.6,1166.32,254.63,1165.97,254.63 M1160.45,245.65c-0.53,0-0.86,0.08-0.91,0.19
			c-0.11,0.11-0.24,1.01-0.24,2.96c0,0.88,0.05,0.99,0.13,1.07c0.17,0.14,0.47,0.25,1.19,0.25c1.12,0,1.89-0.99,1.89-2.11
			C1162.51,246.7,1161.91,245.65,1160.45,245.65z"/>
		<path class="st1" d="M1175.02,254.11c-0.19,0.28-1.21,0.69-3.02,0.69c-3.13,0-5.43-2.14-5.43-4.8c0-2.52,2.03-5.02,5.41-5.02
			c1.73,0,2.6,0.55,3.15,0.44c0.06-0.03,0.08,0.03,0.08,0.06c0.03,0.52,0.05,1.32,0.05,2.11c0,0.08-0.38,0.05-0.38-0.03
			c-0.03-0.38-0.27-0.88-0.58-1.18c-0.55-0.52-1.45-0.85-2.5-0.85c-2.74,0-3.74,1.95-3.74,4.06c0,2.39,1.54,4.61,3.96,4.61
			c1.12,0,1.86-0.19,2.39-0.8c0.3-0.39,0.5-0.85,0.63-1.29c0.03-0.08,0.36,0,0.36,0.05
			C1175.35,252.93,1175.16,253.91,1175.02,254.11"/>
		<path class="st1" d="M1184.11,254.66c-0.05,0-0.05-0.33,0-0.36c0.61-0.06,0.85-0.14,1.04-0.25c0.19-0.08,0.33-0.41,0.33-3.1v-0.88
			h-5.52v0.88c0,2.69,0.13,3.02,0.33,3.1c0.19,0.11,0.44,0.19,1.05,0.25c0.05,0.03,0.05,0.36,0.03,0.36c-0.74,0-3.41,0-4.12,0
			c-0.03,0-0.06-0.33,0.03-0.36c0.6-0.06,0.85-0.14,1.04-0.25c0.19-0.08,0.31-0.41,0.31-3.1v-2.14c0-2.69-0.11-3.02-0.31-3.1
			c-0.19-0.11-0.44-0.19-1.04-0.27c-0.09,0-0.06-0.33-0.03-0.33c0.71,0,3.38,0,4.12,0c0.02,0,0.02,0.33-0.03,0.33
			c-0.61,0.08-0.85,0.17-1.05,0.27c-0.19,0.08-0.33,0.41-0.33,3.1v0.66h5.52v-0.66c0-2.69-0.14-3.02-0.33-3.1
			c-0.19-0.11-0.43-0.19-1.04-0.27c-0.05,0-0.05-0.33,0-0.33c0.71,0,3.37,0,4.08,0c0.06,0,0.06,0.33-0.02,0.33
			c-0.58,0.08-0.85,0.17-1.05,0.27c-0.16,0.08-0.3,0.41-0.3,3.1v2.14c0,2.69,0.14,3.02,0.3,3.1c0.19,0.11,0.47,0.19,1.05,0.25
			c0.08,0.03,0.08,0.36,0.02,0.36C1187.48,254.66,1184.82,254.66,1184.11,254.66"/>
		<path class="st1" d="M1199.09,254.79c-2.91,0-5.08-2.14-5.08-4.8c0-2.52,2.17-5.02,5.28-5.02c2.9,0,5.08,2.14,5.08,4.81
			C1204.36,252.29,1202.19,254.79,1199.09,254.79 M1198.98,245.57c-2.69,0-3.46,2.19-3.46,4c0,2.39,1.43,4.61,3.87,4.61
			c2.69,0,3.46-2.2,3.46-4.01C1202.85,247.79,1201.42,245.57,1198.98,245.57z"/>
		<path class="st1" d="M1212.51,247.08c0,0.05-0.38,0.05-0.38-0.06c0-0.36-0.08-0.69-0.3-0.9c-0.25-0.27-0.79-0.49-1.86-0.49
			c-0.61,0-1.15,0.03-1.32,0.05c-0.03,0.14-0.05,0.71-0.05,1.65v2.17h1.07c1.45,0,1.65-0.17,1.73-0.69c0.03-0.05,0.38-0.02,0.38,0
			c-0.02,0.41-0.08,1.9-0.08,2.31c0,0.02-0.38,0.02-0.38-0.03c0-0.27-0.05-0.58-0.22-0.71c-0.13-0.14-0.36-0.22-1.45-0.22h-1.05v0.8
			c0,2.69,0.14,3.02,0.33,3.1c0.19,0.11,0.66,0.19,1.32,0.25c0.06,0.03,0.06,0.36,0.03,0.36c-0.75,0-3.68,0-4.39,0
			c-0.06,0-0.06-0.33,0.03-0.36c0.57-0.06,0.85-0.14,1.05-0.25c0.16-0.08,0.3-0.41,0.3-3.1v-2.14c0-2.69-0.14-3.1-0.3-3.18
			c-0.2-0.11-0.47-0.19-1.05-0.25c-0.09-0.03-0.09-0.27-0.03-0.27c1.18,0.03,3.13,0.03,4.09,0.03c1.29,0,2.17-0.03,2.64-0.05
			c0.05-0.03,0.08,0.03,0.08,0.05C1212.64,245.62,1212.59,246.28,1212.51,247.08"/>
		<path class="st1" d="M1060.3,265.52c-1.14,0.12-1.87,0.2-2.22,0.41c-0.38,0.2-0.7,0.99-0.61,6.29l0.09,7.89
			c0.06,5.1-1.14,7.34-6.2,9.7c-0.09,0.06-0.35-0.32-0.23-0.41c2.56-1.86,3.9-3.12,3.9-9.29v-7.89c0-5.3-0.26-6.09-0.61-6.29
			c-0.35-0.21-1.11-0.29-2.25-0.41c-0.12-0.03-0.12-0.61-0.03-0.61c1.37,0,6.81,0,8.19,0
			C1060.41,264.91,1060.44,265.49,1060.3,265.52"/>
		<path class="st1" d="M1076.05,283.47c-0.15,0.17-1.02,0.35-2.24,0.35c-1.75,0-2.65-0.09-5.07-0.09c-1.89,0-3.29,0.03-5.36,0.06
			c-0.09,0-0.09-0.58,0.03-0.61c1.14-0.12,1.81-0.21,2.16-0.41c0.35-0.21,0.61-0.99,0.61-6.29v-4.25c0-5.3-0.26-6.09-0.61-6.29
			c-0.35-0.21-1.02-0.29-2.16-0.41c-0.12-0.03-0.12-0.61-0.03-0.61c2.27,0.03,6.09,0.06,7.98,0.06c2.45,0,3.41-0.03,4.28-0.15
			c0.14,0,0.17,0.06,0.17,0.12c-0.06,1.02-0.15,2.48-0.32,4.05c-0.03,0.12-0.64,0.09-0.64-0.09c0-0.7-0.23-1.48-0.67-1.98
			c-0.61-0.61-1.31-0.88-2.97-0.88c-1.14,0-2.21,0-2.47,0.06c-0.09,0.29-0.12,1.37-0.12,3.2v4.13h2.39c2.76,0,2.82-0.78,3-1.83
			c0.03-0.11,0.64-0.09,0.64,0c-0.03,0.79-0.12,4.43-0.14,5.24c0,0.09-0.64,0.09-0.64-0.03c0-0.52-0.14-1.51-0.41-1.81
			c-0.26-0.26-0.41-0.44-2.48-0.44h-2.36v1.95c0,3.76,0.17,5.48,0.43,5.74c0.26,0.26,1.17,0.38,2.88,0.38c1.81,0,2.48-0.43,3-0.99
			c0.35-0.38,0.7-1.23,0.96-2.33c0.03-0.15,0.64-0.03,0.64,0.12C1076.4,281.28,1076.07,283.41,1076.05,283.47"/>
		<path class="st1" d="M1085.6,284.17c-2.42,0-4.4-1.08-4.66-1.46c-0.03-0.06-0.32-3.09-0.18-4.58c0-0.14,0.64-0.17,0.67,0
			c0.06,1.11,0.61,2.6,1.02,3.21c0.73,1.11,1.98,1.84,3.76,1.84c2.01,0,3.12-1.34,3.12-3.44c0-4.6-7.66-4.83-7.66-10.13
			c0-2.77,2.25-5.16,5.3-5.16c2.22,0,2.54,0.7,3.79,0.55c0.12-0.03,0.18,0.03,0.18,0.09c0,1.02,0.06,2.74,0,4.31
			c-0.03,0.09-0.64,0.09-0.67-0.06c-0.09-1.17-0.35-2.19-0.9-2.82c-0.64-0.7-1.45-1.14-2.71-1.14c-1.57,0-2.77,1.37-2.77,3.18
			c0,3.93,7.78,4.89,7.78,9.93C1091.66,282.13,1088.54,284.17,1085.6,284.17"/>
		<path class="st1" d="M1112.87,266.02c-0.23,0.2-0.49,0.9-0.49,6.2v4.89c0,3.49-2.68,6.84-7.66,6.84c-4.54,0-7.31-3-7.31-6.79
			v-4.95c0-5.3-0.26-6.09-0.61-6.29c-0.38-0.21-0.87-0.29-2.01-0.41c-0.12-0.03-0.12-0.61-0.03-0.61c1.37,0,6.5,0,7.86,0
			c0.09,0,0.09,0.58-0.03,0.61c-1.13,0.12-1.75,0.2-2.13,0.41c-0.35,0.2-0.61,0.99-0.61,6.29v4.43c0,3.21,2.01,5.85,5.85,5.85
			c3.58,0,5.36-2.71,5.36-5.53v-4.75c0-5.3-0.29-6-0.53-6.2c-0.32-0.29-0.99-0.38-2.15-0.5c-0.12-0.03-0.09-0.61,0-0.61
			c1.37,0,5.16,0,6.52,0c0.09,0,0.15,0.58,0,0.61C1113.77,265.64,1113.19,265.73,1112.87,266.02"/>
		<path class="st1" d="M1122.6,284.17c-2.42,0-4.4-1.08-4.66-1.46c-0.03-0.06-0.32-3.09-0.18-4.58c0-0.14,0.64-0.17,0.67,0
			c0.06,1.11,0.61,2.6,1.02,3.21c0.73,1.11,1.98,1.84,3.76,1.84c2.01,0,3.12-1.34,3.12-3.44c0-4.6-7.66-4.83-7.66-10.13
			c0-2.77,2.24-5.16,5.3-5.16c2.21,0,2.53,0.7,3.79,0.55c0.12-0.03,0.17,0.03,0.17,0.09c0,1.02,0.06,2.74,0,4.31
			c-0.03,0.09-0.64,0.09-0.67-0.06c-0.09-1.17-0.35-2.19-0.91-2.82c-0.64-0.7-1.46-1.14-2.71-1.14c-1.57,0-2.76,1.37-2.76,3.18
			c0,3.93,7.77,4.89,7.77,9.93C1128.66,282.13,1125.54,284.17,1122.6,284.17"/>
		<path class="st1" d="M1157.2,282.83c-0.09,0.14-2.04,1.37-5.8,1.37c-6.21,0-10.14-4.34-10.14-9.62c0-4.98,3.58-10.07,10.08-10.07
			c3.29,0,4.93,1.11,5.97,0.87c0.12-0.03,0.18,0.06,0.18,0.12c0.03,1.02,0.12,3.12,0.09,4.69c-0.03,0.12-0.64,0.12-0.67-0.06
			c-0.12-1.2-0.49-2.19-1.19-2.94c-0.88-0.9-2.71-1.66-4.66-1.66c-5.07,0-7.05,4.08-7.05,8.22c0,4.74,3,9.32,7.46,9.32
			c2.16,0,3.55-0.61,4.54-1.84c0.61-0.76,0.96-1.63,1.22-2.5c0.03-0.18,0.64-0.03,0.64,0.09
			C1157.78,280.03,1157.26,282.74,1157.2,282.83"/>
		<path class="st1" d="M1175.11,283.79c-0.09,0-0.09-0.61,0.03-0.61c1.13-0.12,1.63-0.24,2.01-0.41c0.34-0.21,0.6-0.99,0.6-6.32
			v-1.78h-10.72v1.78c0,5.33,0.27,6.11,0.64,6.32c0.35,0.17,0.84,0.29,1.98,0.41c0.12,0,0.12,0.61,0.03,0.61c-1.37,0-6.35,0-7.72,0
			c-0.09,0-0.09-0.61,0.03-0.61c1.13-0.12,1.66-0.24,2.01-0.41c0.35-0.21,0.61-0.99,0.61-6.32v-4.23c0-5.33-0.26-6.09-0.61-6.29
			c-0.35-0.21-0.87-0.29-2.01-0.41c-0.12-0.03-0.12-0.61-0.03-0.61c1.37,0,6.35,0,7.72,0c0.08,0,0.08,0.58-0.03,0.61
			c-1.14,0.12-1.63,0.2-1.98,0.41c-0.38,0.2-0.64,0.96-0.64,6.29v1.37h10.72v-1.37c0-5.33-0.26-6.09-0.6-6.29
			c-0.38-0.21-0.88-0.29-2.01-0.41c-0.12-0.03-0.12-0.61-0.03-0.61c1.37,0,6.35,0,7.72,0c0.09,0,0.09,0.58-0.03,0.61
			c-1.13,0.12-1.63,0.2-2.01,0.41c-0.35,0.2-0.61,0.96-0.61,6.29v4.23c0,5.33,0.27,6.11,0.61,6.32c0.38,0.17,0.88,0.29,2.01,0.41
			c0.12,0,0.12,0.61,0.03,0.61C1181.46,283.79,1176.48,283.79,1175.11,283.79"/>
		<path class="st1" d="M1204.85,283.79c-2.53,0-3.9-0.29-5.03-1.05c-1.49-1.02-3.06-3-5.42-6.99c-1.42,0.03-2.01,0.03-3.12-0.03
			v0.76c0,5.3,0.26,6.09,0.61,6.29c0.38,0.2,1.25,0.26,2.53,0.41c0.12,0.03,0.12,0.61,0.03,0.61c-1.37,0-6.88,0-8.25,0
			c-0.09,0-0.12-0.58,0.03-0.61c1.14-0.12,1.64-0.21,1.98-0.41c0.37-0.21,0.61-0.99,0.61-6.29v-4.25c0-5.3-0.24-6.09-0.61-6.29
			c-0.35-0.21-0.84-0.29-1.98-0.41c-0.14-0.03-0.12-0.61-0.03-0.61c1.29,0,2.77,0.06,3.84,0.06c1.08,0,2.24-0.06,3.56-0.06
			c4.33,0,6.52,2.42,6.52,4.63c0,2.33-1.45,4.19-3.49,5.44c4.14,6.18,6.47,8.16,8.42,8.16c1.14,0,1.83-0.17,2.18-0.38
			c0.36-0.21,0.61-0.99,0.61-6.29v-4.26c0-5.3-0.26-6.09-0.61-6.29c-0.35-0.21-1.11-0.29-2.24-0.41c-0.12-0.03-0.12-0.61-0.03-0.61
			c1.37,0,6.81,0,8.19,0c0.11,0,0.11,0.58-0.03,0.61c-1.14,0.12-1.87,0.2-2.22,0.41c-0.38,0.2-0.61,0.99-0.61,6.29v4.26
			c0,5.3,0.24,6.08,0.61,6.29c0.35,0.2,1.08,0.29,2.22,0.41c0.14,0.03,0.14,0.61,0.03,0.61
			C1211.78,283.79,1206.25,283.79,1204.85,283.79 M1193.55,265.9c-0.99,0-1.87,0.14-1.95,0.27c-0.14,0.17-0.32,1.84-0.32,6.06
			c0,1.75,0.05,2.07,0.18,2.19c0.2,0.2,1.01,0.32,2.41,0.32c2.39,0,3.5-1.81,3.5-4.08C1197.37,267.85,1196.35,265.9,1193.55,265.9z"
			/>
		<path class="st1" d="M1221.42,284.17c-2.42,0-4.39-1.08-4.66-1.46c-0.03-0.06-0.32-3.09-0.17-4.58c0-0.14,0.64-0.17,0.67,0
			c0.06,1.11,0.62,2.6,1.02,3.21c0.73,1.11,1.98,1.84,3.76,1.84c2.01,0,3.11-1.34,3.11-3.44c0-4.6-7.66-4.83-7.66-10.13
			c0-2.77,2.25-5.16,5.31-5.16c2.21,0,2.54,0.7,3.79,0.55c0.12-0.03,0.17,0.03,0.17,0.09c0,1.02,0.06,2.74,0,4.31
			c-0.03,0.09-0.64,0.09-0.67-0.06c-0.09-1.17-0.35-2.19-0.91-2.82c-0.64-0.7-1.46-1.14-2.71-1.14c-1.57,0-2.76,1.37-2.76,3.18
			c0,3.93,7.77,4.89,7.77,9.93C1227.48,282.13,1224.36,284.17,1221.42,284.17"/>
		<path class="st1" d="M1246.82,269.6c-0.03,0.14-0.64,0.14-0.64-0.06c0-0.73-0.09-2.13-0.58-2.65c-0.58-0.61-1.78-1.11-4.34-1.11
			c-0.67,0-1.02,0-1.31,0.06c-0.09,0.29-0.12,1.69-0.12,3.52v7.11c0,5.3,0.26,6.08,0.61,6.29c0.36,0.2,1.08,0.29,2.25,0.41
			c0.12,0.03,0.12,0.61,0.03,0.61c-1.4,0-6.81,0-8.22,0c-0.09,0-0.09-0.58,0.06-0.61c1.14-0.12,1.87-0.21,2.22-0.41
			c0.38-0.21,0.61-0.99,0.61-6.29v-7.11c0-1.83-0.03-3.23-0.12-3.52c-0.29-0.06-0.79-0.06-1.45-0.06c-2.74,0-3.67,0.29-4.35,1.11
			c-0.46,0.55-0.76,1.57-0.96,2.71c-0.03,0.2-0.64,0.12-0.64-0.06c0.17-1.52,0.35-3.73,0.44-4.72c0-0.09,0.15-0.14,0.35-0.12
			c1.02,0.17,2.89,0.32,7.95,0.32c6.96,0,7.6-0.21,8.13-0.38c0.17-0.06,0.32,0.03,0.32,0.12
			C1247.05,265.87,1247,268.06,1246.82,269.6"/>
		<path class="st1" d="M1068.04,303.68c-2.91,0-5.08-2.14-5.08-4.8c0-2.53,2.17-5.02,5.27-5.02c2.91,0,5.08,2.14,5.08,4.8
			C1073.31,301.18,1071.14,303.68,1068.04,303.68 M1067.93,294.46c-2.69,0-3.46,2.19-3.46,4.01c0,2.39,1.43,4.61,3.87,4.61
			c2.69,0,3.46-2.2,3.46-4.01C1071.81,296.68,1070.37,294.46,1067.93,294.46z"/>
		<path class="st1" d="M1081.55,295.97c0,0.06-0.39,0.06-0.39-0.05c0-0.36-0.08-0.69-0.3-0.9c-0.25-0.28-0.8-0.5-1.87-0.5
			c-0.61,0-1.15,0.02-1.32,0.05c-0.03,0.14-0.06,0.72-0.06,1.65v2.17h1.07c1.45,0,1.64-0.16,1.73-0.68c0.03-0.06,0.38-0.03,0.38,0
			c-0.03,0.41-0.08,1.89-0.08,2.3c0,0.02-0.38,0.02-0.38-0.03c0-0.27-0.05-0.58-0.22-0.71c-0.14-0.14-0.36-0.22-1.46-0.22h-1.04v0.8
			c0,2.69,0.14,3.02,0.33,3.1c0.2,0.11,0.66,0.19,1.32,0.25c0.05,0.03,0.05,0.36,0.03,0.36c-0.74,0-3.68,0-4.39,0
			c-0.05,0-0.05-0.33,0.02-0.36c0.58-0.05,0.85-0.14,1.05-0.25c0.17-0.08,0.3-0.41,0.3-3.1v-2.14c0-2.69-0.14-3.1-0.3-3.19
			c-0.19-0.11-0.46-0.19-1.05-0.25c-0.08-0.03-0.08-0.28-0.02-0.28c1.18,0.03,3.13,0.03,4.09,0.03c1.29,0,2.17-0.03,2.64-0.06
			c0.05-0.03,0.08,0.03,0.08,0.06C1081.68,294.51,1081.63,295.17,1081.55,295.97"/>
		<path class="st1" d="M1094.5,303.3c-0.11,0.17-0.28,0.27-0.66,0.27c-0.93,0-2.03-0.05-3.29-0.05c-0.99,0-1.7,0-2.8,0.02
			c-0.03,0-0.03-0.33,0.03-0.36c0.6-0.05,0.85-0.13,1.04-0.25c0.19-0.08,0.31-0.41,0.31-3.1v-2.14c0-2.69-0.11-3.02-0.31-3.11
			c-0.19-0.11-0.44-0.19-1.04-0.27c-0.05,0-0.05-0.33-0.03-0.33c0.71,0,3.4,0,4.12,0c0.03,0,0.03,0.33-0.03,0.33
			c-0.6,0.08-0.85,0.16-1.04,0.27c-0.19,0.08-0.31,0.42-0.31,3.11v2.14c0,1.78,0.14,2.61,0.33,2.83c0.16,0.16,0.38,0.27,1.26,0.27
			c0.85,0,1.43-0.22,1.79-0.63c0.33-0.39,0.58-1.02,0.68-1.48c0.03-0.08,0.39-0.03,0.39,0.05
			C1094.85,301.65,1094.63,303.08,1094.5,303.3"/>
		<path class="st1" d="M1101.74,303.54c-0.03,0-0.05-0.33,0-0.36c0.47-0.02,0.77-0.14,0.77-0.36c0-0.24-0.19-0.74-1.07-2.83
			c0.03,0-2.99,0-3.02,0c-0.71,1.87-0.88,2.42-0.88,2.75c0,0.25,0.22,0.38,0.85,0.44c0.08,0.03,0.05,0.36,0,0.36
			c-0.44,0-2.47,0-3.18,0c-0.06,0-0.06-0.33,0-0.36c0.46-0.02,0.74-0.11,0.96-0.27c0.3-0.22,0.66-0.77,1.51-3.07l0.82-2.14
			c0.47-1.24,0.96-2.53,1.34-3.68c0.03-0.11,0.63-0.11,0.69,0c0.44,1.29,0.85,2.33,1.37,3.68l0.85,2.14
			c1.16,2.77,1.32,2.94,1.59,3.1c0.28,0.16,0.49,0.22,0.93,0.25c0.05,0.03,0.03,0.36,0,0.36
			C1104.57,303.54,1102.45,303.54,1101.74,303.54 M1099.93,295.97l-1.23,3.35h2.5L1099.93,295.97z"/>
		<path class="st1" d="M1113.59,296.13c0,0.03-0.36,0.03-0.36-0.02c0-0.39-0.08-0.77-0.27-0.99c-0.3-0.27-0.71-0.49-2.36-0.49
			c-0.33,0-0.52,0.03-0.66,0.03c-0.05,0.17-0.08,0.74-0.08,1.67v3.51c0,2.69,0.14,3.02,0.33,3.1c0.19,0.11,0.57,0.19,1.18,0.25
			c0.06,0.03,0.06,0.36,0,0.36c-0.71,0-3.62,0-4.34,0c-0.05,0-0.05-0.33,0-0.36c0.61-0.05,0.99-0.14,1.18-0.25
			c0.19-0.08,0.3-0.41,0.3-3.1v-3.51c0-0.93,0-1.51-0.06-1.67c-0.14,0-0.41-0.03-0.74-0.03c-1.56,0-2,0.16-2.36,0.49
			c-0.25,0.22-0.38,0.66-0.46,1.02c0,0.06-0.36,0-0.36-0.06c0.09-0.74,0.16-1.62,0.22-2.14c0-0.03,0.03-0.06,0.08-0.06
			c0.55,0.08,1.73,0.16,4.36,0.16c3.62,0,4.17-0.08,4.45-0.19c0.05,0,0.08,0.03,0.08,0.06
			C1113.73,294.48,1113.7,295.34,1113.59,296.13"/>
		<path class="st1" d="M1123.78,296.13c0,0.03-0.36,0.03-0.36-0.02c0-0.39-0.08-0.77-0.28-0.99c-0.3-0.27-0.71-0.49-2.36-0.49
			c-0.33,0-0.52,0.03-0.66,0.03c-0.05,0.17-0.08,0.74-0.08,1.67v3.51c0,2.69,0.14,3.02,0.33,3.1c0.19,0.11,0.58,0.19,1.18,0.25
			c0.05,0.03,0.05,0.36,0,0.36c-0.72,0-3.62,0-4.34,0c-0.06,0-0.06-0.33,0-0.36c0.6-0.05,0.99-0.14,1.18-0.25
			c0.19-0.08,0.3-0.41,0.3-3.1v-3.51c0-0.93,0-1.51-0.05-1.67c-0.14,0-0.41-0.03-0.74-0.03c-1.56,0-2,0.16-2.36,0.49
			c-0.25,0.22-0.38,0.66-0.47,1.02c0,0.06-0.35,0-0.35-0.06c0.08-0.74,0.16-1.62,0.22-2.14c0-0.03,0.03-0.06,0.08-0.06
			c0.55,0.08,1.73,0.16,4.36,0.16c3.62,0,4.17-0.08,4.45-0.19c0.06,0,0.08,0.03,0.08,0.06
			C1123.92,294.48,1123.89,295.34,1123.78,296.13"/>
		<path class="st1" d="M1131.85,303.3c-0.11,0.17-0.19,0.27-0.58,0.27c-0.93,0-2.03-0.05-3.29-0.05c-0.99,0-1.59,0-2.66,0.02
			c-0.06,0-0.06-0.33,0-0.36c0.6-0.05,0.88-0.13,1.04-0.25c0.19-0.08,0.33-0.41,0.33-3.1v-2.14c0-2.69-0.14-3.02-0.33-3.11
			c-0.17-0.11-0.44-0.19-1.04-0.27c-0.06,0-0.06-0.33,0-0.33c1.18,0.03,3.04,0.03,4.03,0.03c1.26,0,1.98-0.03,2.42-0.06
			c0.08-0.03,0.11,0.03,0.11,0.06c-0.06,0.49-0.09,1.21-0.17,1.98c-0.02,0.08-0.38,0.05-0.38-0.03c0-0.39-0.08-0.74-0.3-0.99
			c-0.25-0.25-0.69-0.39-1.76-0.39c-0.6,0-1.02,0.03-1.18,0.03c-0.06,0.16-0.06,0.66-0.06,1.59v2.06h1.13
			c1.46,0,1.65-0.33,1.73-0.85c0.03-0.06,0.38-0.06,0.38,0c-0.02,0.41-0.08,2.17-0.08,2.55c0,0.05-0.38,0.05-0.38,0
			c0-0.27-0.05-0.66-0.22-0.8c-0.14-0.11-0.36-0.27-1.45-0.27h-1.1v0.93c0,1.78,0.14,2.61,0.33,2.83c0.2,0.16,0.39,0.27,1.29,0.27
			c0.93,0,1.45-0.22,1.73-0.52c0.22-0.22,0.39-0.52,0.5-1.02c0.02-0.08,0.3,0,0.27,0.06
			C1132.09,302.23,1131.96,303.08,1131.85,303.3"/>
		<path class="st1" d="M1143.62,303.52c-0.94,0-1.71-0.11-2.28-0.52c-0.79-0.49-1.62-1.46-2.83-3.46c-0.74,0.02-0.99,0-1.56-0.03
			v0.33c0,2.69,0.14,3.02,0.33,3.1c0.19,0.11,0.66,0.19,1.31,0.25c0.05,0.03,0.05,0.36,0.03,0.36c-0.72,0-3.68,0-4.39,0
			c-0.05,0-0.05-0.33,0.03-0.36c0.58-0.05,0.85-0.13,1.05-0.25c0.16-0.08,0.3-0.41,0.3-3.1v-2.14c0-2.69-0.14-3.02-0.3-3.11
			c-0.19-0.11-0.47-0.19-1.05-0.27c-0.08,0-0.08-0.33-0.03-0.33c0.69,0,1.48,0.03,2.06,0.03c0.55,0,1.15-0.03,1.84-0.03
			c2.28,0,3.57,1.21,3.57,2.41c0,1.18-0.88,2.14-1.95,2.77c2.03,2.94,3.12,3.93,4.31,3.93c0.14,0,0.33,0,0.44,0
			c0.06-0.02,0.11,0.33,0.09,0.33C1144.25,303.49,1143.98,303.52,1143.62,303.52 M1138.1,294.54c-0.52,0-0.85,0.09-0.91,0.19
			c-0.1,0.11-0.24,1.02-0.24,2.97c0,0.87,0.05,0.99,0.14,1.07c0.16,0.14,0.46,0.24,1.18,0.24c1.12,0,1.89-0.99,1.89-2.11
			C1140.16,295.58,1139.56,294.54,1138.1,294.54z"/>
		<path class="st1" d="M1149.14,298.99c-0.06,0.09-0.17,0.11-0.36,0.11l-1.84,0.02c-1.76,0-2.11,0.25-2.28,0.63
			c-0.03,0.06-0.36-0.02-0.36-0.08c0.02-0.33,0.08-1.02,0.13-1.32l2.25-0.02c1.76,0,2.03-0.27,2.25-0.63
			c0.02-0.06,0.33,0.02,0.33,0.05C1149.25,298.08,1149.19,298.91,1149.14,298.99"/>
		<path class="st1" d="M1159.57,302.09c-1.04,1.01-2.19,1.45-4.12,1.45c-0.69,0-1.76-0.02-2.33-0.02c-0.55,0-1.38,0.02-2.04,0.02
			c-0.06,0-0.06-0.33,0-0.36c0.6-0.05,0.85-0.14,1.05-0.25c0.19-0.08,0.33-0.41,0.33-3.1v-2.14c0-2.69-0.14-3.02-0.33-3.1
			c-0.19-0.11-0.44-0.19-1.05-0.27c-0.06,0-0.06-0.33,0-0.33c0.66,0,1.48,0.03,2.04,0.03c0.57,0,1.97-0.03,2.63-0.03
			c3.07,0,5.38,2.01,5.38,4.67C1161.13,299.92,1160.5,301.18,1159.57,302.09 M1155.31,294.54c-0.93,0-1.18,0.14-1.29,0.28
			c-0.08,0.11-0.22,0.79-0.22,2.82v2.2c0,1.78,0.13,2.55,0.33,2.77c0.27,0.27,0.49,0.36,1.29,0.36c2.96,0,4.23-1.29,4.23-4.06
			C1159.65,296.65,1158.2,294.54,1155.31,294.54z"/>
		<path class="st1" d="M1167.89,303.54c-0.03,0-0.06-0.33,0-0.36c0.46-0.02,0.77-0.14,0.77-0.36c0-0.24-0.19-0.74-1.07-2.83
			c0.03,0-2.99,0-3.02,0c-0.71,1.87-0.88,2.42-0.88,2.75c0,0.25,0.22,0.38,0.85,0.44c0.08,0.03,0.06,0.36,0,0.36
			c-0.44,0-2.47,0-3.19,0c-0.05,0-0.05-0.33,0-0.36c0.47-0.02,0.75-0.11,0.96-0.27c0.3-0.22,0.66-0.77,1.51-3.07l0.82-2.14
			c0.47-1.24,0.96-2.53,1.35-3.68c0.02-0.11,0.62-0.11,0.68,0c0.44,1.29,0.85,2.33,1.37,3.68l0.85,2.14
			c1.16,2.77,1.32,2.94,1.59,3.1c0.27,0.16,0.5,0.22,0.93,0.25c0.06,0.03,0.03,0.36,0,0.36
			C1170.71,303.54,1168.6,303.54,1167.89,303.54 M1166.07,295.97l-1.23,3.35h2.5L1166.07,295.97z"/>
		<path class="st1" d="M1179.08,294.48c-0.38,0.19-0.69,0.61-1.46,1.84l-0.83,1.32c-0.36,0.55-0.71,1.15-1.04,1.7v0.49
			c0,2.69,0.13,3.02,0.3,3.1c0.19,0.11,0.58,0.19,1.18,0.25c0.05,0.03,0.05,0.36,0,0.36c-0.72,0-3.63,0-4.34,0
			c-0.05,0-0.05-0.33,0-0.36c0.6-0.05,0.99-0.13,1.18-0.25c0.19-0.08,0.3-0.41,0.3-3.1v-0.44c-0.33-0.58-0.66-1.13-1.07-1.76
			l-0.84-1.32c-0.96-1.48-1.21-1.76-1.48-1.84c-0.25-0.11-0.55-0.14-0.99-0.16c-0.05,0-0.05-0.36,0-0.36c0.72,0,2.94,0,3.65,0
			c0.05,0,0.08,0.36,0,0.36c-0.33,0.02-0.49,0.05-0.63,0.14c-0.11,0.05-0.05,0.27,0.91,1.73l1.48,2.44l1.54-2.42
			c0.79-1.26,0.93-1.59,0.71-1.73c-0.13-0.08-0.33-0.14-0.74-0.16c-0.05,0-0.02-0.36,0-0.36c0.47,0,2.5,0,3.21,0
			c0.06,0,0.06,0.36,0,0.36C1179.69,294.35,1179.3,294.4,1179.08,294.48"/>
		<path class="st1" d="M1187.67,303.68c-1.43,0-2.41-0.71-2.44-0.88c-0.11-0.49-0.11-1.35-0.03-2.11c0-0.05,0.36-0.08,0.36,0
			c0.06,0.58,0.28,1.1,0.5,1.43c0.44,0.57,1.01,0.99,1.9,0.99c1.1,0,1.64-0.71,1.64-1.73c0-2.17-4.04-2.55-4.04-5
			c0-1.51,1.43-2.58,2.83-2.58c1.16,0,1.45,0.41,2,0.27c0.06-0.03,0.11,0.03,0.11,0.06c-0.03,0.52,0,1.26-0.03,2.06
			c0,0.05-0.36,0.05-0.38,0c-0.03-0.47-0.25-1.05-0.5-1.29c-0.33-0.33-0.88-0.52-1.35-0.52c-0.85,0-1.48,0.57-1.48,1.48
			c0,1.84,4.17,2.55,4.17,4.97C1190.93,302.67,1189.2,303.68,1187.67,303.68"/>
		<path class="st1" d="M1197.91,303.54c-0.03,0-0.06-0.33,0-0.36c0.47-0.02,0.77-0.14,0.77-0.36c0-0.24-0.19-0.74-1.07-2.83
			c0.02,0-2.99,0-3.02,0c-0.72,1.87-0.88,2.42-0.88,2.75c0,0.25,0.22,0.38,0.85,0.44c0.08,0.03,0.05,0.36,0,0.36
			c-0.44,0-2.47,0-3.18,0c-0.06,0-0.06-0.33,0-0.36c0.46-0.02,0.74-0.11,0.96-0.27c0.3-0.22,0.66-0.77,1.51-3.07l0.82-2.14
			c0.46-1.24,0.96-2.53,1.34-3.68c0.03-0.11,0.63-0.11,0.69,0c0.44,1.29,0.85,2.33,1.37,3.68l0.85,2.14c1.15,2.77,1.32,2.94,1.6,3.1
			c0.27,0.16,0.5,0.22,0.93,0.25c0.06,0.03,0.03,0.36,0,0.36C1200.73,303.54,1198.61,303.54,1197.91,303.54 M1196.09,295.97
			l-1.23,3.35h2.5L1196.09,295.97z"/>
		<path class="st1" d="M1201.66,303.54c-0.03,0-0.03-0.33,0.02-0.36c0.61-0.05,0.99-0.14,1.16-0.25c0.19-0.08,0.33-0.41,0.33-3.1
			v-2.14c0-2.69-0.13-3.02-0.33-3.1c-0.17-0.11-0.55-0.19-1.16-0.27c-0.06,0-0.06-0.33-0.02-0.33c0.71,0,3.65,0,4.36,0
			c0.03,0,0.03,0.33-0.03,0.33c-0.6,0.08-0.99,0.16-1.15,0.27c-0.19,0.08-0.33,0.42-0.33,3.1v2.14c0,2.69,0.14,3.02,0.33,3.1
			c0.17,0.11,0.55,0.19,1.15,0.25c0.06,0.03,0.06,0.36,0.03,0.36C1205.31,303.54,1202.37,303.54,1201.66,303.54"/>
		<path class="st1" d="M1217.5,294.62c-0.13,0.11-0.3,0.39-0.27,3.08v2.14c0,1.24,0,2.55,0.08,3.7c0,0.09-0.46,0.11-0.54,0.03
			l-7.28-7.36l0.05,3.63c0.03,2.47,0.22,2.94,0.44,3.1c0.14,0.11,0.66,0.25,1.07,0.25c0.08,0,0.06,0.36,0,0.36
			c-0.77,0-2.96,0-3.68,0c-0.05,0-0.05-0.33,0-0.36c0.6-0.05,0.96-0.13,1.13-0.27c0.14-0.11,0.3-0.38,0.25-3.07l-0.03-2.14
			c0-1.24,0-2.56-0.08-3.71c0-0.08,0.52-0.11,0.55-0.03l7.3,7.41l-0.05-3.68c-0.03-2.69-0.25-2.99-0.41-3.11
			c-0.2-0.13-0.55-0.22-1.18-0.27c-0.08,0-0.05-0.33,0-0.33c0.71,0,3,0,3.71,0c0.06,0,0.09,0.33,0,0.33
			C1217.94,294.4,1217.67,294.48,1217.5,294.62"/>
		<path class="st1" d="M1228.43,296.13c0,0.03-0.36,0.03-0.36-0.02c0-0.39-0.08-0.77-0.27-0.99c-0.3-0.27-0.72-0.49-2.36-0.49
			c-0.33,0-0.52,0.03-0.66,0.03c-0.05,0.17-0.08,0.74-0.08,1.67v3.51c0,2.69,0.14,3.02,0.33,3.1c0.19,0.11,0.58,0.19,1.18,0.25
			c0.06,0.03,0.06,0.36,0,0.36c-0.71,0-3.62,0-4.34,0c-0.06,0-0.06-0.33,0-0.36c0.6-0.05,0.99-0.14,1.18-0.25
			c0.19-0.08,0.3-0.41,0.3-3.1v-3.51c0-0.93,0-1.51-0.06-1.67c-0.14,0-0.41-0.03-0.74-0.03c-1.56,0-2,0.16-2.36,0.49
			c-0.24,0.22-0.38,0.66-0.47,1.02c0,0.06-0.36,0-0.36-0.06c0.08-0.74,0.16-1.62,0.22-2.14c0-0.03,0.02-0.06,0.08-0.06
			c0.55,0.08,1.73,0.16,4.37,0.16c3.62,0,4.17-0.08,4.44-0.19c0.06,0,0.08,0.03,0.08,0.06
			C1228.56,294.48,1228.54,295.34,1228.43,296.13"/>
		<path class="st1" d="M1231.99,303.68c-1.43,0-2.42-0.71-2.45-0.88c-0.11-0.49-0.11-1.35-0.03-2.11c0-0.05,0.36-0.08,0.36,0
			c0.05,0.58,0.27,1.1,0.5,1.43c0.44,0.57,1.01,0.99,1.89,0.99c1.1,0,1.65-0.71,1.65-1.73c0-2.17-4.03-2.55-4.03-5
			c0-1.51,1.43-2.58,2.83-2.58c1.15,0,1.45,0.41,2,0.27c0.05-0.03,0.11,0.03,0.11,0.06c-0.03,0.52,0,1.26-0.03,2.06
			c0,0.05-0.35,0.05-0.38,0c-0.03-0.47-0.24-1.05-0.49-1.29c-0.34-0.33-0.88-0.52-1.34-0.52c-0.85,0-1.48,0.57-1.48,1.48
			c0,1.84,4.17,2.55,4.17,4.97C1235.25,302.67,1233.53,303.68,1231.99,303.68"/>
	</g>
</g>
</svg>
