<?xml version="1.0" encoding="utf-8"?>
<!-- Generator: Adobe Illustrator 23.0.3, SVG Export Plug-In . SVG Version: 6.00 Build 0)  -->
<svg version="1.1" id="Layer_1" xmlns="http://www.w3.org/2000/svg" xmlns:xlink="http://www.w3.org/1999/xlink" x="0px" y="0px"
	 viewBox="0 0 89 48" style="enable-background:new 0 0 89 48;" xml:space="preserve">
<style type="text/css">
	.st0{fill:#005055;}
	.st1{fill:#FFFFFF;}
	.st2{fill:#F75D00;}
	.st3{fill:#E51800;}
	.st4{fill:#0D0C12;}
	.st5{fill:none;stroke:#FFFFFF;stroke-width:0.1305;stroke-miterlimit:10;}
</style>
<g>
	<g>
		<path class="st0" d="M11.63,6.41c21.92,0.62,43.83,1.24,65.75,1.86c0.48,11.08,0.95,22.17,1.43,33.25
			c-22.19,0.03-44.38,0.07-66.58,0.1C12.03,29.89,11.83,18.15,11.63,6.41z"/>
		<path class="st1" d="M17.76,17.24c-0.48,0-0.96,0-1.44,0c0-1.78,0-3.57,0-5.35c0.01-0.09,0.03-0.24,0.13-0.39
			c0.03-0.04,0.1-0.15,0.26-0.26c0.06-0.04,0.34-0.23,0.78-0.26c0.18-0.01,0.68-0.05,1.04,0.26c0.18,0.15,0.23,0.3,0.39,0.65
			c0.13,0.29,0.34,0.69,0.65,1.17c0.48,0.87,0.96,1.74,1.44,2.61c0-1.57,0-3.13,0-4.7c0.43,0,0.87,0,1.3,0c0,1.74,0,3.48,0,5.22
			c0.01,0.09,0.05,0.39-0.13,0.65c-0.18,0.26-0.45,0.34-0.65,0.39c-0.35,0.1-0.65,0.04-0.78,0c-0.1-0.03-0.31-0.09-0.52-0.26
			c-0.13-0.11-0.2-0.21-0.39-0.52c-0.22-0.36-0.33-0.54-0.39-0.65c-0.24-0.45-0.87-1.7-1.7-3.39
			C17.76,14.02,17.76,15.63,17.76,17.24z"/>
		<path class="st1" d="M29.05,11.18c0,0.43,0,0.87,0,1.3c-1.04,0-2.09,0-3.13,0c0,0.39,0,0.78,0,1.17c1.04,0,2.09,0,3.13,0
			c0,0.48,0,0.96,0,1.44c-1.04,0-2.09,0-3.13,0c0,0.35,0,0.7,0,1.04c1.04,0,2.09,0,3.13,0c0,0.48,0,0.96,0,1.44
			c-1.3,0-2.61,0-3.91,0c-0.03,0-0.23,0.02-0.39-0.13c-0.14-0.13-0.19-0.33-0.13-0.52c0-1.78,0-3.57,0-5.35
			c0.01-0.04,0.03-0.16,0.13-0.26c0.03-0.03,0.12-0.11,0.26-0.13C26.35,11.18,27.7,11.18,29.05,11.18z"/>
		<path class="st1" d="M56.09,39.15c0-0.13,0-0.25,0-0.38c0.33-0.14,0.7-0.31,1.11-0.54c0.19-0.11,0.57-0.33,0.99-0.65
			c0.4-0.3,0.71-0.58,1.45-1.33c1.47-1.49,1.44-1.59,2.21-2.28c0.2-0.18,0.45-0.4,0.78-0.75c0.45-0.48,0.75-0.89,0.92-1.12
			c0.38-0.53,0.57-0.79,0.75-1.19c0.14-0.31,0.13-0.39,0.27-0.63c0.22-0.37,0.34-0.38,0.68-0.82c0.28-0.37,0.45-0.69,0.53-0.85
			c0.14-0.27,0.23-0.5,0.29-0.68c0.39-1.1,0.61-2.3,0.61-2.3c0.21-1.15,0.39-2.2,0.54-3.17c0.09,0.01,0.21,0.04,0.32,0.12
			c0.15,0.1,0.26,0.28,0.34,0.82c0.08,0.49,0.03,0.63,0.09,1.04c0.06,0.44,0.13,0.41,0.22,0.88c0.14,0.74-0.02,0.92,0.15,1.7
			c0.09,0.4,0.18,0.58,0.22,0.66c0.17,0.31,0.28,0.33,0.43,0.61c0.17,0.34,0.07,0.46,0.2,0.78c0.15,0.36,0.36,0.42,0.6,0.7
			c0.41,0.48,0.25,0.84,0.51,1.57c0.1,0.28,0.41,0.7,1.04,1.53c0.98,1.3,0.97,1.15,1.31,1.7c0.53,0.86,0.51,1.16,0.97,1.67
			c0.09,0.1,0.36,0.39,0.66,0.83c0.11,0.17,0.2,0.31,0.26,0.41c0.03,0.56,0.06,1.12,0.09,1.68C68.45,39.17,62.27,39.16,56.09,39.15z
			"/>
		<ellipse class="st2" cx="68.75" cy="25.79" rx="5.02" ry="5.12"/>
		<path class="st1" d="M36.36,14.57c0.08-0.11,0.55-0.75,0.39-1.57c-0.16-0.78-0.83-1.41-1.7-1.57c-1.09,0-2.17,0-3.26,0
			c-0.08,0.01-0.23,0.03-0.39,0.13c-0.14,0.09-0.22,0.2-0.26,0.26c0,0.61,0,1.22,0,1.83c0,1.17,0,2.35,0,3.52
			c0.07,0.26,0.22,0.36,0.26,0.39c0.15,0.09,0.39,0.12,0.52,0.13l0,0c0,0,1.16,0,3.39,0c0.68-0.14,1.23-0.64,1.44-1.3
			C37.06,15.4,36.4,14.61,36.36,14.57z M32.51,12.68c0.87,0,1.74,0,2.61,0c0.26,0.12,0.42,0.38,0.39,0.65
			c-0.02,0.23-0.17,0.43-0.39,0.53c-0.87,0-1.74,0-2.61,0C32.51,13.46,32.51,13.07,32.51,12.68z M35.51,15.81
			c-0.02,0.23-0.17,0.43-0.39,0.52c-0.87,0-1.74,0-2.61,0c0-0.39,0-0.78,0-1.17c0.87,0,1.74,0,2.61-0.01
			C35.38,15.27,35.54,15.54,35.51,15.81z"/>
		<path class="st1" d="M44.12,12.28c-0.12-0.19-0.32-0.43-0.65-0.65c-0.94-0.02-1.87-0.04-2.81-0.07c-0.43,0-0.76,0-1.04,0
			c-0.17,0-0.37-0.01-0.52,0.13c-0.1,0.09-0.14,0.2-0.16,0.28c0.01,1.95,0.02,3.9,0.03,5.85c0.41-0.01,0.82-0.01,1.22-0.02
			c0-0.58,0.01-1.16,0.01-1.74c1.7,0,2.61,0,2.61,0s0.52,0.52,0.52,0.52c0,0,0,0.46,0,1.17c0.35,0,0.7,0,1.04,0
			c0-0.95,0-1.57,0-1.57c0,0-0.13-0.26-0.39-0.78C44.06,15.29,44.96,13.58,44.12,12.28z M42.88,14.69c-0.9,0-1.8,0-2.71,0
			c0-0.6,0-1.21,0-1.81c0.77,0.01,1.55,0.02,2.32,0.03c0.05,0.03,0.56,0.33,0.62,0.93C43.16,14.28,42.94,14.61,42.88,14.69z"/>
		<path class="st1" d="M51.86,12.54c-0.07-0.14-0.16-0.32-0.34-0.47c-0.08-0.06-0.22-0.16-0.44-0.21c-1.2,0-2.4,0-3.6,0
			c-0.11,0.02-0.45,0.1-0.69,0.41c-0.09,0.11-0.13,0.23-0.16,0.31c0,1.79,0,3.59,0,5.38c0.42,0.01,0.83,0.02,1.25,0.03
			c0-0.58,0-1.17,0-1.75c0.99,0,1.99,0,2.98,0c0,0.62,0,1.23,0,1.85c0.38,0,0.75,0,1.13,0c0-1.73,0-3.47,0-5.2
			C51.96,12.8,51.92,12.68,51.86,12.54z M50.83,14.99c-0.99-0.01-1.99-0.03-2.98-0.04c0-0.51,0-1.02,0-1.53
			c0-0.04,0.02-0.14,0.1-0.24c0.1-0.12,0.24-0.13,0.27-0.14c0.7,0,1.4,0,2.1,0c0.1,0.08,0.24,0.2,0.36,0.39
			c0.07,0.11,0.11,0.22,0.14,0.31C50.83,14.16,50.83,14.57,50.83,14.99z"/>
		<path class="st1" d="M54.08,16.08c0.43,0.03,0.86,0.05,1.29,0.08c0,0.06,0,0.15,0.04,0.26c0.08,0.22,0.24,0.33,0.29,0.37
			c0.19,0.13,0.38,0.14,0.46,0.14c0.49,0,0.99,0,1.48,0c0.04-0.01,0.22-0.03,0.36-0.19c0.12-0.14,0.14-0.3,0.14-0.37
			c0-0.06,0-0.25-0.15-0.41c-0.14-0.15-0.33-0.17-0.37-0.18c-0.65-0.01-1.29-0.03-1.94-0.04c-0.16-0.05-0.36-0.13-0.56-0.26
			c-0.47-0.29-0.69-0.68-0.75-0.78c-0.05-0.1-0.16-0.28-0.22-0.55c-0.04-0.18-0.1-0.58,0.06-1.03c0.06-0.16,0.31-0.8,0.98-1.06
			c0.24-0.09,0.45-0.1,0.59-0.1c0.48,0,0.96,0,1.44,0c0.2,0.02,0.53,0.06,0.89,0.24c0.2,0.1,0.66,0.33,0.96,0.87
			c0.22,0.39,0.25,0.77,0.26,0.98c-0.4,0-0.79,0-1.19,0c0.01-0.08,0-0.19-0.04-0.29c-0.15-0.38-0.63-0.46-0.66-0.46
			c-0.58,0-1.17,0-1.75,0c-0.03,0.02-0.23,0.11-0.31,0.33c-0.07,0.2,0,0.38,0.04,0.46c0.01,0.02,0.12,0.23,0.37,0.31
			c0.08,0.03,0.16,0.03,0.2,0.03c0.53,0.02,1.06,0.03,1.58,0.05c0.14,0,0.38,0.03,0.63,0.15c0.03,0.02,0.14,0.07,0.29,0.2
			c0.13,0.11,0.37,0.32,0.56,0.65c0.08,0.14,0.3,0.54,0.28,1.08c0,0.11-0.06,1.14-0.83,1.51c-0.29,0.14-0.58,0.13-0.74,0.11
			c-0.63,0-1.25,0-1.88,0c-0.22-0.03-0.63-0.11-1.01-0.42c-0.29-0.23-0.43-0.49-0.51-0.64C54.16,16.72,54.1,16.33,54.08,16.08z"/>
		<path class="st1" d="M61.44,18.33c0-2.07,0-4.15,0-6.22c0.37,0,0.74,0,1.11,0c0,0.68,0,1.36,0,2.04c0.67-0.65,1.34-1.29,2.02-1.94
			c0.65,0,1.29,0,1.94,0c-1.01,1.01-2.02,2.02-3.03,3.03c1.09,1.04,2.18,2.07,3.27,3.11c-0.62,0-1.25,0-1.87,0
			c-0.72-0.68-1.45-1.35-2.17-2.03c0,0.68,0,1.35,0,2.03C62.3,18.34,61.87,18.33,61.44,18.33z"/>
		<path class="st1" d="M73.72,13.1c-0.07-0.14-0.16-0.31-0.34-0.46c-0.08-0.06-0.22-0.16-0.44-0.2c-1.18,0.02-2.36,0.04-3.54,0.06
			c-0.11,0.02-0.45,0.11-0.67,0.41c-0.08,0.11-0.13,0.22-0.15,0.31c0.03,1.77,0.06,3.53,0.09,5.3c0.41,0,0.82,0.01,1.23,0.01
			c-0.01-0.58-0.02-1.15-0.03-1.73c0.98-0.02,1.96-0.03,2.93-0.05c0.01,0.61,0.02,1.21,0.03,1.82c0.37-0.01,0.74-0.01,1.11-0.02
			c-0.03-1.71-0.06-3.41-0.09-5.12C73.83,13.35,73.79,13.23,73.72,13.1z M72.75,15.53c-0.98,0-1.96,0.01-2.93,0.01
			c-0.01-0.5-0.02-1.01-0.03-1.51c0-0.04,0.01-0.14,0.1-0.24c0.1-0.12,0.24-0.14,0.27-0.14c0.69-0.01,1.38-0.02,2.07-0.04
			c0.1,0.07,0.24,0.2,0.36,0.38c0.07,0.11,0.12,0.21,0.15,0.3C72.74,14.71,72.74,15.12,72.75,15.53z"/>
		<circle class="st1" cx="17.17" cy="27.59" r="0.61"/>
		<circle class="st1" cx="21.66" cy="27.68" r="0.61"/>
		<path class="st1" d="M25.48,27.68c0-0.34,0.27-0.61,0.61-0.61c0.34,0,0.61,0.27,0.61,0.61c0,0.34-0.27,0.61-0.61,0.61
			C25.75,28.29,25.48,28.02,25.48,27.68z"/>
		<ellipse class="st3" cx="68.79" cy="25.78" rx="3.62" ry="4"/>
		<path class="st1" d="M32.03,23.55c0.24,0,0.48,0,0.71,0c0,0.6,0,1.21,0,1.81c0.2,0,0.41,0,0.61,0c0,0.28,0,0.56,0,0.84
			c-0.2,0-0.41,0-0.61,0c0,0.5,0,0.81,0,1.01c0,0,0,0,0,0c0,0.28,0.32,0.43,0.69,0.53c0,0.26,0,0.52,0,0.78
			c-0.13,0-0.44-0.02-0.75-0.22c-0.45-0.29-0.58-0.76-0.6-0.87C32.06,26.14,32.05,24.84,32.03,23.55z"/>
		<path class="st1" d="M46.53,37.17c0.24,0,0.48,0,0.71,0c0-0.6,0-1.21,0-1.81c0.2,0,0.41,0,0.61,0c0-0.28,0-0.56,0-0.84
			c-0.2,0-0.41,0-0.61,0c0-0.5,0-0.81,0-1.01c0,0,0,0,0,0c0-0.28,0.32-0.43,0.69-0.53c0-0.26,0-0.52,0-0.78
			c-0.13,0-0.44,0.02-0.75,0.22c-0.45,0.29-0.58,0.76-0.6,0.87C46.56,34.57,46.55,35.87,46.53,37.17z"/>
		<path class="st1" d="M34.8,28.54c0-1.62,0-3.24,0-4.86c0.21,0,0.43,0,0.64,0c0,0.61,0,1.21,0,1.82c0.11-0.03,0.27-0.05,0.48-0.06
			c0.23-0.01,0.45-0.01,0.7,0.1c0.18,0.08,0.29,0.19,0.4,0.3c0.12,0.12,0.26,0.26,0.34,0.49c0.05,0.15,0.06,0.28,0.06,0.36
			c0.01,0.62,0.02,1.24,0.03,1.85c-0.2,0-0.4,0.01-0.6,0.01c-0.02-0.66-0.03-1.32-0.05-1.97c-0.05-0.06-0.14-0.17-0.3-0.25
			c-0.08-0.04-0.24-0.12-0.44-0.09c-0.06,0.01-0.29,0.04-0.39,0.23c-0.05,0.09-0.05,0.19-0.05,0.24c0,0.61,0,1.23,0,1.84
			C35.34,28.53,35.07,28.53,34.8,28.54z"/>
		<path class="st1" d="M40.71,27.62c-0.07,0.05-0.2,0.13-0.38,0.15c-0.16,0.02-0.29-0.02-0.37-0.04c-0.1-0.03-0.22-0.07-0.32-0.18
			c-0.07-0.08-0.11-0.16-0.13-0.21c0.71,0,1.43,0.01,2.14,0.01c0-0.24,0-0.47,0-0.71c-0.05-0.16-0.18-0.48-0.49-0.76
			c-0.26-0.22-0.52-0.31-0.6-0.33c-0.28-0.08-0.51-0.06-0.6-0.05c-0.18,0.02-0.31,0.07-0.4,0.1c-0.32,0.13-0.51,0.34-0.61,0.46
			c-0.09,0.1-0.18,0.2-0.26,0.37c-0.13,0.28-0.12,0.54-0.11,0.71c0.01,0.14,0.01,0.26,0.06,0.4c0.1,0.28,0.29,0.43,0.5,0.6
			c0.12,0.1,0.27,0.21,0.49,0.3c0.07,0.03,0.28,0.1,0.55,0.11c0.05,0,0.23,0,0.45-0.05c0.16-0.04,0.35-0.08,0.54-0.23
			c0.12-0.09,0.19-0.19,0.31-0.34c0.09-0.12,0.16-0.23,0.21-0.31C41.37,27.62,41.04,27.62,40.71,27.62z M39.49,26.56
			c0.02-0.02,0.08-0.11,0.28-0.21c0.15-0.07,0.24-0.12,0.38-0.13c0.03,0,0.17-0.01,0.34,0.05c0.17,0.06,0.27,0.16,0.34,0.23
			c0.08,0.08,0.13,0.15,0.16,0.21c-0.53,0-1.06,0-1.58,0.01C39.43,26.67,39.45,26.61,39.49,26.56z"/>
		<path class="st1" d="M51.08,36.2c-0.07,0.05-0.2,0.13-0.38,0.15c-0.16,0.02-0.29-0.02-0.37-0.04c-0.1-0.03-0.22-0.07-0.32-0.18
			c-0.07-0.08-0.11-0.16-0.13-0.21c0.71,0,1.43,0.01,2.14,0.01c0-0.24,0-0.47,0-0.71c-0.05-0.16-0.18-0.48-0.49-0.76
			c-0.26-0.22-0.52-0.31-0.6-0.33c-0.28-0.08-0.51-0.06-0.6-0.05c-0.18,0.02-0.31,0.07-0.4,0.1c-0.32,0.13-0.51,0.34-0.61,0.46
			c-0.09,0.1-0.18,0.2-0.26,0.37c-0.13,0.28-0.12,0.54-0.11,0.71c0.01,0.14,0.01,0.26,0.06,0.4c0.1,0.28,0.29,0.43,0.5,0.6
			c0.12,0.1,0.27,0.21,0.49,0.3c0.07,0.03,0.28,0.1,0.55,0.11c0.05,0,0.23,0,0.45-0.05c0.16-0.04,0.35-0.08,0.54-0.23
			c0.12-0.09,0.19-0.19,0.31-0.34c0.09-0.12,0.16-0.23,0.21-0.31C51.74,36.2,51.41,36.2,51.08,36.2z M49.86,35.13
			c0.02-0.02,0.08-0.11,0.28-0.21c0.15-0.07,0.24-0.12,0.38-0.13c0.03,0,0.17-0.01,0.34,0.05c0.17,0.06,0.27,0.16,0.34,0.23
			c0.08,0.08,0.13,0.15,0.16,0.21c-0.53,0-1.06,0-1.58,0.01C49.8,35.25,49.82,35.19,49.86,35.13z"/>
		<path class="st1" d="M24.56,35.41c0-0.87-0.71-1.58-1.58-1.58c-0.87,0-1.58,0.71-1.58,1.58s0.71,1.58,1.58,1.58
			c0.35,0,0.67-0.11,0.93-0.3c0,0.16,0,0.33,0,0.49c0.01,0.05,0.01,0.14-0.02,0.23c-0.05,0.18-0.18,0.28-0.26,0.35
			c-0.08,0.06-0.25,0.17-0.49,0.2c-0.18,0.02-0.31-0.02-0.37-0.04c-0.22-0.07-0.35-0.21-0.41-0.28c-0.07-0.08-0.11-0.16-0.14-0.22
			c-0.24,0.01-0.49,0.02-0.73,0.03c0.05,0.21,0.16,0.51,0.41,0.78c0.08,0.1,0.21,0.24,0.43,0.35c0.24,0.13,0.46,0.14,0.63,0.15
			c0.14,0.01,0.36,0.03,0.61-0.05c0.09-0.03,0.44-0.14,0.71-0.49c0.15-0.18,0.21-0.36,0.23-0.42c0.05-0.15,0.06-0.28,0.07-0.36
			C24.6,37.1,24.6,36.37,24.56,35.41z M22.98,36.25c-0.47,0-0.85-0.38-0.85-0.85c0-0.47,0.38-0.85,0.85-0.85
			c0.47,0,0.85,0.38,0.85,0.85C23.83,35.88,23.45,36.25,22.98,36.25z"/>
		<path class="st1" d="M27.2,33.86c-0.9,0-1.63,0.73-1.63,1.63c0,0.9,0.73,1.63,1.63,1.63c0.9,0,1.63-0.73,1.63-1.63
			C28.83,34.59,28.1,33.86,27.2,33.86z M27.2,36.29c-0.44,0-0.8-0.36-0.8-0.8s0.36-0.8,0.8-0.8c0.44,0,0.8,0.36,0.8,0.8
			S27.64,36.29,27.2,36.29z"/>
		<path class="st1" d="M31.36,33.86c-0.9,0-1.63,0.73-1.63,1.63c0,0.9,0.73,1.63,1.63,1.63c0.9,0,1.63-0.73,1.63-1.63
			C33,34.59,32.27,33.86,31.36,33.86z M31.36,36.29c-0.44,0-0.8-0.36-0.8-0.8s0.36-0.8,0.8-0.8c0.44,0,0.8,0.36,0.8,0.8
			S31.81,36.29,31.36,36.29z"/>
		<path class="st1" d="M36.89,35.52c0-1.1,0-2.2,0-3.3c-0.27,0-0.54,0-0.8,0c0,0.65,0,1.29,0,1.94c-0.22-0.13-0.48-0.2-0.76-0.2
			c-0.86,0-1.56,0.7-1.56,1.56c0,0.86,0.7,1.56,1.56,1.56C36.19,37.09,36.89,36.39,36.89,35.52C36.89,35.52,36.89,35.52,36.89,35.52
			z M35.33,36.29c-0.42,0-0.77-0.34-0.77-0.77c0-0.42,0.34-0.77,0.77-0.77c0.42,0,0.77,0.34,0.77,0.77
			C36.09,35.95,35.75,36.29,35.33,36.29z"/>
		<path class="st1" d="M43.4,37.14c0-1.64,0-3.28,0-4.92c-0.26,0-0.53,0-0.79,0c0,1.64,0,3.28,0,4.92
			C42.87,37.14,43.13,37.14,43.4,37.14z"/>
		<path class="st1" d="M44.59,33.88c0.25,0,0.49,0,0.74,0c0,1.08,0,2.17,0,3.25c-0.24,0-0.48,0-0.71,0
			C44.61,36.05,44.6,34.97,44.59,33.88z"/>
		<path class="st4" d="M73.4,37.93c0.08-0.07,0.72,0.52,1.28,1.05c-0.22-0.06-0.84-0.24-1.17-0.79
			C73.45,38.11,73.37,37.96,73.4,37.93z"/>
		<path class="st4" d="M64.35,30.64c0.09-0.15,0.23-0.38,0.43-0.64c0.26-0.35,0.48-0.56,0.57-0.66c0.36-0.38,0.51-0.82,0.8-1.69
			c0.2-0.59,0.43-1.41,0.61-2.42c0.15-0.92,0.31-1.84,0.46-2.76c0.09,0.02,0.23,0.05,0.35,0.15c0.13,0.11,0.22,0.27,0.29,0.62
			c0.12,0.58,0.01,0.75,0.13,1.28c0.06,0.3,0.1,0.24,0.16,0.54c0.11,0.51,0.01,0.62,0.07,1.23c0.04,0.44,0.07,0.78,0.27,1.15
			c0.04,0.08,0.08,0.13,0.28,0.49c0.23,0.4,0.26,0.46,0.28,0.54c0.08,0.29,0,0.37,0.09,0.59c0.1,0.27,0.34,0.4,0.43,0.46
			c0.28,0.19,0.6,0.67,0.8,1.98"/>
		<path class="st1" d="M66.78,30.5c0.04-0.2,0.09-0.36,0.13-0.47c0.12-0.3,0.26-0.49,0.48-0.76c0.08-0.1,0.13-0.16,0.2-0.2
			c0.09-0.06,0.12-0.05,0.19-0.11c0.09-0.09,0.08-0.15,0.16-0.21c0.06-0.04,0.11-0.04,0.2-0.04c0.17-0.01,0.24,0.06,0.4,0.04
			c0.01,0,0.04,0,0.08,0c0.07,0.01,0.12,0.04,0.15,0.06c0.2,0.14,0.29,0.2,0.29,0.28c0,0.07-0.06,0.1-0.04,0.17
			c0.01,0.03,0.03,0.05,0.06,0.09c0.04,0.06,0.05,0.09,0.1,0.18c0.09,0.19,0.14,0.28,0.2,0.34c0.02,0.02,0.08,0.06,0.19,0.15
			c0.04,0.03,0.08,0.06,0.1,0.12c0.01,0.02,0.01,0.05,0.02,0.1c0.01,0.11,0,0.14,0.02,0.2c0.01,0.04,0.03,0.08,0.04,0.1
			c0.04,0.08,0.07,0.08,0.1,0.13c0.03,0.06,0.01,0.07,0.04,0.18c0.03,0.1,0.04,0.09,0.07,0.19c0.01,0.04,0.01,0.07,0.03,0.1
			c0.02,0.04,0.04,0.05,0.06,0.09c0.02,0.03,0.02,0.06,0.03,0.09c0.01,0.05,0.03,0.12,0.06,0.2c-0.43-0.02-0.93-0.08-1.47-0.2
			c-0.76-0.17-1.39-0.41-1.89-0.64C66.76,30.65,66.76,30.58,66.78,30.5z"/>
		<circle class="st1" cx="44.93" cy="32.97" r="0.38"/>
		<path class="st4" d="M56.23,39.16c0.1-0.08,0.26-0.2,0.47-0.3c0.29-0.14,0.53-0.19,0.63-0.21c0.51-0.12,0.92-0.45,1.35-0.79
			c0.74-0.59,0.54-0.77,1.23-1.25c0.22-0.15,0.41-0.26,1.01-0.67c0.36-0.25-0.05,0.02,0.6-0.49c0.19-0.16,0.36-0.29,0.37-0.47
			c0-0.08-0.03-0.12-0.01-0.21c0.04-0.15,0.19-0.27,0.26-0.24c0.08,0.04-0.01,0.27,0.09,0.31c0.07,0.03,0.18-0.06,0.26-0.12
			c0.17-0.14,0.26-0.3,0.26-0.3c0.32-0.56,2.72-1.33,3.06-2.25c0.03-0.07,0.11-0.32,0.32-0.41c0.01-0.01,0.21-0.08,0.32,0.03
			c0.1,0.1,0.08,0.31,0.01,0.33c-0.05,0.02-0.12-0.06-0.13-0.05c-0.01,0.01,0.09,0.1,0.14,0.24c0.01,0.03,0.04,0.12,0.04,0.24
			c-0.01,0.14-0.06,0.24-0.09,0.28c-0.15,0.25-0.49,0.45-0.69,0.57c-0.51,0.31-0.38,0.28-0.84,0.55c-0.38,0.22-0.48,0.25-0.73,0.43
			c-0.19,0.14-0.31,0.26-0.49,0.43c-0.41,0.41-0.61,0.61-0.97,0.98c-0.23,0.24-0.58,0.59-1.02,1.01c0.15,0.02,0.31,0.04,0.46,0.06
			c0.01-0.08,0.05-0.19,0.11-0.31c0.11-0.18,0.25-0.27,0.33-0.33c0.12-0.09,0.08-0.09,0.54-0.61c0.94-1.09,0.64-0.56,1.05-1.01
			c0.03-0.03,0.1-0.11,0.15-0.09c0.06,0.02,0.09,0.14,0.1,0.37c0.02,0.38,0.04,0.64-0.06,1c-0.05,0.18-0.1,0.36-0.23,0.55
			c-0.15,0.22-0.31,0.33-0.64,0.54c-0.43,0.27-0.75,0.48-1.23,0.57c-0.3,0.06-0.57,0.05-0.57,0.1c0,0.04,0.18,0.08,0.29,0.1
			c0.4,0.06,0.72-0.11,1.1-0.29c1.25-0.61,1.58-0.62,1.84-1.03c0.02-0.03,0.19-0.31,0.22-0.29c0.02,0.01-0.1,0.23-0.04,0.28
			c0.05,0.04,0.19-0.05,0.24-0.09c0.56-0.39,0.89-1,0.89-1c0.31-0.57,0.3-0.79,0.74-1.65c0.06-0.11,0.11-0.21,0.14-0.27
			c0.1,0.16,0.24,0.47,0.28,0.87c0.01,0.11,0.05,0.55-0.17,1.06c-0.14,0.34-0.37,0.57-0.83,1.02c-0.31,0.31-0.53,0.47-0.69,0.41
			c-0.03-0.01-0.17-0.08-0.31-0.14c-0.09-0.04-0.14-0.07-0.17-0.05c-0.03,0.03,0,0.12,0.04,0.18c0.04,0.06,0.09,0.09,0.13,0.11
			c0.02,0.01,0.09,0.05,0.22,0.08c0.09,0.02,0.27,0.05,0.45-0.04c0.03-0.02,0.04-0.03,0.11-0.08c0.33-0.23,0.38-0.23,0.5-0.34
			c0.11-0.1,0.06-0.1,0.23-0.31c0.2-0.24,0.24-0.23,0.34-0.37c0.2-0.29,0.17-0.59,0.23-0.59c0.06,0,0.09,0.35,0.09,0.37
			c0.02,0.25,0.03,0.37-0.03,0.5c-0.14,0.32-0.52,0.18-0.74,0.54c-0.08,0.13-0.12,0.3-0.31,0.41c-0.03,0.02-0.1,0.06-0.13,0.04
			c-0.06-0.05,0.07-0.32,0.2-0.57c-0.19,0.23-0.32,0.42-0.41,0.55c-0.08,0.12-0.14,0.22-0.27,0.31c-0.15,0.1-0.28,0.14-0.28,0.14
			c-0.11,0.03-0.19,0.03-0.2,0.08c-0.02,0.05,0.05,0.12,0.09,0.15c0.11,0.09,0.29,0.09,0.41,0.01c0.06-0.04,0.04-0.06,0.14-0.18
			c0.06-0.07,0.14-0.17,0.27-0.23c0.13-0.06,0.14-0.01,0.27-0.06c0.11-0.05,0.18-0.13,0.31-0.28c0.05-0.06,0.06-0.08,0.19-0.24
			c0.08-0.1,0.11-0.13,0.17-0.17c0.07-0.04,0.11-0.03,0.2-0.06c0.01,0,0.16-0.05,0.27-0.17c0.04-0.05,0.08-0.1,0.18-0.43
			c0.06-0.19,0.09-0.29,0.09-0.32c0.01-0.21-0.08-0.48-0.27-0.57c-0.11-0.05-0.17-0.01-0.22-0.08c-0.05-0.07,0.01-0.17,0.04-0.4
			c0.01-0.05,0.01-0.12,0.01-0.27c0.01-0.32,0.02-0.51,0-0.69c-0.02-0.25-0.07-0.21-0.2-0.77c-0.12-0.5-0.09-0.52-0.18-0.68
			c-0.1-0.16-0.2-0.23-0.29-0.47c-0.08-0.21-0.07-0.29-0.05-0.33c0.06-0.19,0.29-0.24,0.31-0.24c0.1-0.02,0.17,0,0.42,0.09
			c0.41,0.15,0.61,0.23,0.69,0.33c0.09,0.13,0.04,0.17,0.17,0.37c0.13,0.21,0.3,0.35,0.32,0.33c0.02-0.02-0.12-0.17-0.17-0.43
			c0-0.03-0.05-0.3,0.04-0.33c0.06-0.03,0.2,0.09,0.26,0.22c0.07,0.15-0.01,0.21,0.03,0.45c0.03,0.17,0.09,0.28,0.15,0.41
			c0.02,0.04,0.13,0.24,0.17,0.23c0.02-0.01,0.01-0.08-0.01-0.37c-0.01-0.15-0.01-0.24,0.04-0.32c0.02-0.04,0.06-0.09,0.1-0.09
			c0.13-0.01,0.28,0.39,0.34,0.66c0.08,0.32,0.03,0.4,0.14,0.61c0.03,0.05,0.05,0.09,0.26,0.33c0.19,0.23,0.29,0.34,0.4,0.46
			c0.26,0.28,0.39,0.36,0.66,0.63c0.48,0.45,0.72,0.68,0.88,0.94c0.17,0.28,0.26,0.58,0.59,0.74c0.09,0.04,0.17,0.07,0.22,0.08
			c-0.28-0.21-0.43-0.43-0.52-0.59c-0.12-0.22-0.1-0.29-0.24-0.5c-0.03-0.05-0.06-0.09-0.47-0.5c-0.05-0.05-0.15-0.15-0.37-0.37
			c-0.23-0.23-0.25-0.25-0.32-0.32c-0.21-0.21-0.31-0.32-0.41-0.43c-0.09-0.11-0.16-0.2-0.24-0.33c-0.09-0.16-0.14-0.29-0.19-0.42
			c-0.07-0.19-0.05-0.17-0.13-0.41c-0.13-0.37-0.21-0.48-0.26-0.52c-0.02-0.03-0.06-0.06-0.11-0.13c-0.07-0.09-0.13-0.17-0.17-0.22
			c0.31,0.01,0.61,0.02,0.92,0.03c0.05,0.09,0.13,0.23,0.22,0.4c0.2,0.37,0.22,0.46,0.33,0.6c0.14,0.18,0.18,0.13,0.43,0.38
			c0.24,0.23,0.39,0.45,0.5,0.6c0.15,0.22,0.11,0.2,0.31,0.5c0.25,0.38,0.31,0.4,0.49,0.7c0.08,0.15,0.06,0.11,0.24,0.46
			c0.21,0.39,0.21,0.35,0.28,0.51c0.04,0.08,0.11,0.26,0.26,0.61c0.06,0.14,0.08,0.19,0.13,0.27c0.07,0.11,0.15,0.18,0.31,0.32
			c0.11,0.1,0.2,0.16,0.27,0.22c0.14,0.11,0.19,0.13,0.22,0.14c0.11,0.05,0.21,0.06,0.28,0.06c-0.17-0.4-0.38-0.66-0.54-0.83
			c-0.2-0.21-0.37-0.31-0.55-0.6c-0.14-0.21-0.19-0.38-0.25-0.53c-0.15-0.4-0.35-0.7-0.75-1.28c-0.34-0.5-0.5-0.63-0.96-1.21
			c-0.28-0.35-0.67-0.86-1.11-1.51c-0.28,0.03-0.44-0.04-0.53-0.11c-0.09-0.08-0.21-0.24-0.25-0.29c-0.1-0.14-0.13-0.21-0.2-0.22
			c-0.02,0-0.05,0-0.22,0.16c-0.12,0.11-0.13,0.14-0.21,0.2c-0.09,0.07-0.16,0.12-0.23,0.09c-0.07-0.02-0.12-0.12-0.11-0.2
			c0.01-0.03,0.02-0.04,0.09-0.16c0.02-0.05,0.03-0.07,0.03-0.09c-0.01-0.04-0.08-0.05-0.12-0.05c-0.16-0.02-0.27,0.03-0.4,0.05
			c-0.14,0.02-0.24,0.01-0.39,0c-0.2-0.02-0.32-0.03-0.37-0.11c-0.06-0.11,0.06-0.25,0.02-0.29c-0.06-0.05-0.27,0.22-0.47,0.17
			c-0.1-0.03-0.09-0.11-0.19-0.18c-0.28-0.18-0.67,0.28-1.11,0.13c-0.11-0.04-0.14-0.08-0.31-0.13c-0.18-0.05-0.33-0.04-0.42-0.03
			c-0.14,0.01-0.37,0.04-0.55,0.2c-0.13,0.11-0.13,0.21-0.24,0.45c-0.07,0.15-0.17,0.3-0.38,0.61c-0.54,0.79-1.23,1.53-1.23,1.53
			c-0.65,0.7-0.69,0.64-1.52,1.49c-0.64,0.65-0.6,0.68-1.33,1.42c-0.64,0.66-0.98,1-1.5,1.42c-0.34,0.27-0.78,0.61-1.45,0.93
			c-0.28,0.13-0.52,0.22-0.7,0.28C56.14,38.9,56.18,39.03,56.23,39.16z"/>
		<path class="st5" d="M56.09,39.15c0-0.13,0-0.25,0-0.38c0.33-0.14,0.7-0.31,1.11-0.54c0.19-0.11,0.57-0.33,0.99-0.65
			c0.4-0.3,0.71-0.58,1.45-1.33c1.47-1.49,1.44-1.59,2.21-2.28c0.2-0.18,0.45-0.4,0.78-0.75c0.45-0.48,0.75-0.89,0.92-1.12
			c0.38-0.53,0.57-0.79,0.75-1.19c0.14-0.31,0.13-0.39,0.27-0.63c0.22-0.37,0.34-0.38,0.68-0.82c0.28-0.37,0.45-0.69,0.53-0.85
			c0.14-0.27,0.23-0.5,0.29-0.68c0.39-1.1,0.61-2.3,0.61-2.3c0.21-1.15,0.39-2.2,0.54-3.17c0.09,0.01,0.21,0.04,0.32,0.12
			c0.15,0.1,0.26,0.28,0.34,0.82c0.08,0.49,0.03,0.63,0.09,1.04c0.06,0.44,0.13,0.41,0.22,0.88c0.14,0.74-0.02,0.92,0.15,1.7
			c0.09,0.4,0.18,0.58,0.22,0.66c0.17,0.31,0.28,0.33,0.43,0.61c0.17,0.34,0.07,0.46,0.2,0.78c0.15,0.36,0.36,0.42,0.6,0.7
			c0.41,0.48,0.25,0.84,0.51,1.57c0.1,0.28,0.41,0.7,1.04,1.53c0.98,1.3,0.97,1.15,1.31,1.7c0.53,0.86,0.51,1.16,0.97,1.67
			c0.09,0.1,0.36,0.39,0.66,0.83c0.11,0.17,0.2,0.31,0.26,0.41c0.03,0.56,0.06,1.12,0.09,1.68C68.45,39.17,62.27,39.16,56.09,39.15z
			"/>
		<path class="st1" d="M66.82,28.92c-0.13-0.06-0.35,0.25-0.81,0.76c0,0,0.1-0.11-0.6,0.65c-0.26,0.28-0.39,0.42-0.37,0.45
			c0.05,0.06,0.58-0.24,0.93-0.49c0.21-0.14,0.4-0.34,0.78-0.73c0.03-0.03,0.13-0.14,0.17-0.3c0.01-0.05,0.03-0.15-0.01-0.24
			C66.91,29.01,66.87,28.94,66.82,28.92z"/>
		<path class="st4" d="M74.44,37.62c-0.14-0.17-0.33-0.21-0.47-0.26c-0.26-0.09-0.22-0.18-0.59-0.41c-0.43-0.27-0.48-0.15-0.83-0.38
			c-0.24-0.16-0.4-0.34-0.65-0.64c-0.08-0.09-0.2-0.23-0.34-0.43c-0.19-0.27-0.19-0.32-0.33-0.47c-0.12-0.13-0.23-0.21-0.42-0.36
			c-0.16-0.12-0.24-0.18-0.33-0.2c-0.24-0.06-0.49,0.03-0.5,0.1c0,0.05,0.09,0.05,0.2,0.17c0.1,0.1,0.06,0.15,0.17,0.29
			c0.09,0.13,0.13,0.12,0.24,0.27c0.1,0.14,0.06,0.14,0.14,0.24c0.12,0.15,0.22,0.14,0.34,0.31c0.04,0.04,0.02,0.04,0.1,0.17
			c0.19,0.31,0.25,0.32,0.29,0.46c0.03,0.11,0.03,0.2,0.03,0.34c-0.01,0.18-0.04,0.31-0.05,0.34c-0.02,0.07-0.05,0.2-0.13,0.32
			c-0.07,0.12-0.13,0.15-0.28,0.29c-0.13,0.13-0.26,0.29-0.5,0.61c-0.15,0.19-0.16,0.23-0.15,0.24c0.03,0.03,0.25-0.08,0.43-0.26
			c0.2-0.19,0.2-0.32,0.42-0.56c0.13-0.14,0.16-0.12,0.24-0.22c0.15-0.2,0.16-0.44,0.17-0.59c0.01-0.47-0.2-0.83-0.33-1.03
			c-0.07-0.12-0.18-0.27-0.19-0.26c-0.02,0.01,0.26,0.56,0.65,1.1c0.22,0.3,0.36,0.45,0.53,0.57c0.12,0.09,0.24,0.15,0.33,0.2
			c0.2,0.11,0.48,0.24,0.49,0.21c0.01-0.02-0.19-0.14-0.47-0.39c-0.16-0.14-0.27-0.26-0.49-0.49c-0.26-0.28-0.4-0.47-0.51-0.61
			c-0.13-0.17-0.25-0.34-0.22-0.37c0.03-0.03,0.27,0.16,0.57,0.41c0.29,0.24,0.44,0.38,0.53,0.45c0.46,0.39,0.81,0.22,1.21,0.56
			c0.03,0.03,0.11,0.1,0.23,0.18c0.2,0.14,0.48,0.28,0.52,0.23C74.53,37.73,74.46,37.64,74.44,37.62z"/>
		<path class="st4" d="M67.08,38.34c0-0.06,0.37-0.13,0.57-0.17c0.4-0.08,0.47-0.05,0.7-0.13c0.23-0.08,0.18-0.12,0.45-0.23
			c0.41-0.17,0.56-0.1,0.75-0.28c0.14-0.13,0.11-0.21,0.24-0.28c0.16-0.08,0.26,0,0.45-0.1c0.05-0.03,0.15-0.09,0.18-0.19
			c0.01-0.03,0.02-0.11-0.04-0.23c-0.09-0.19-0.21-0.2-0.38-0.38c-0.04-0.04-0.03-0.04-0.31-0.49c-0.12-0.19-0.18-0.29-0.22-0.34
			c-0.13-0.19-0.17-0.22-0.32-0.43c-0.09-0.14-0.16-0.24-0.22-0.33c-0.19-0.3-0.18-0.33-0.32-0.54c-0.07-0.1-0.05-0.06-0.27-0.37
			c0,0-0.08-0.11-0.26-0.38c-0.1-0.16-0.14-0.22-0.15-0.32c-0.02-0.11,0-0.25,0.05-0.27c0.05-0.01,0.1,0.12,0.29,0.37
			c0.14,0.19,0.16,0.18,0.26,0.32c0.15,0.21,0.13,0.27,0.27,0.51c0.13,0.23,0.16,0.21,0.45,0.63c0.12,0.17,0.19,0.28,0.28,0.43
			c0.22,0.38,0.19,0.45,0.34,0.63c0.11,0.13,0.11,0.08,0.46,0.36c0.3,0.24,0.44,0.39,0.52,0.5c0.06,0.07,0.29,0.35,0.23,0.42
			c-0.03,0.04-0.16-0.01-0.2-0.03c-0.12-0.05-0.19-0.12-0.2-0.14c-0.1-0.11-0.07-0.17-0.17-0.34c-0.07-0.12-0.15-0.21-0.17-0.2
			c-0.03,0.02,0.33,0.48,0.18,0.82c-0.05,0.12-0.16,0.2-0.19,0.22c-0.12,0.08-0.18,0.07-0.42,0.18c-0.12,0.05-0.2,0.1-0.22,0.11
			c-0.15,0.09-0.14,0.11-0.26,0.18c-0.08,0.05-0.21,0.12-0.38,0.14c-0.1,0.01-0.13-0.01-0.2,0.01c-0.11,0.03-0.16,0.11-0.23,0.17
			c-0.12,0.1-0.2,0.06-0.54,0.13c-0.32,0.06-0.3,0.11-0.51,0.13C67.34,38.43,67.08,38.39,67.08,38.34z"/>
		<path class="st1" d="M67.99,27.16c-0.08-0.02-0.15,0.06-0.33,0.19c-0.22,0.15-0.22,0.1-0.32,0.19c-0.24,0.22-0.28,0.58-0.22,0.79
			c0.01,0.06,0.03,0.09,0.06,0.12c0.05,0.06,0.12,0.1,0.33,0.13c0.13,0.01,0.14,0,0.4,0.01c0.23,0,0.34,0,0.4,0.03
			c0.09,0.03,0.15,0.08,0.23,0.05c0.07-0.02,0.11-0.08,0.12-0.09c0.01-0.02,0.04-0.06,0.05-0.12c0-0.03,0-0.1-0.15-0.31
			c-0.07-0.09-0.08-0.09-0.14-0.19c-0.05-0.07-0.09-0.12-0.13-0.2c-0.03-0.06-0.03-0.07-0.1-0.24c-0.07-0.18-0.1-0.25-0.1-0.26
			c0.01,0,0.05,0.07,0.04,0.08C68.13,27.33,68.09,27.19,67.99,27.16z"/>
		<path class="st1" d="M68.03,26.97c0.01-0.01-0.03-0.05-0.05-0.08c-0.09-0.11-0.11-0.23-0.13-0.36c-0.02-0.14-0.01-0.26,0.01-0.38
			c0.01-0.1,0.03-0.13,0.04-0.27c0.01-0.08,0.02-0.15,0.01-0.25c-0.01-0.09-0.01-0.19-0.05-0.2c-0.06-0.01-0.14,0.2-0.2,0.19
			c-0.04-0.01-0.06-0.11-0.06-0.11c0,0,0.07,0.13,0.03,0.2c-0.02,0.03-0.07,0.06-0.09,0.05c-0.04-0.02-0.04-0.11-0.03-0.28
			c0.01-0.15,0.02-0.25,0.05-0.26c0.03-0.01,0.06,0.05,0.07,0.06c0.1,0.17-0.11,0.34-0.1,0.68c0,0.19,0.07,0.37,0,0.42
			c0,0-0.04,0.03-0.06,0.02c-0.01-0.01-0.01-0.03,0-0.07c0.01-0.09,0-0.13,0.01-0.14c0.03-0.01,0.13,0.16,0.15,0.32
			c0,0.02,0.01,0.06,0.03,0.13c0.02,0.06,0.02,0.09,0.04,0.12c0.03,0.06,0.08,0.08,0.16,0.13C67.87,26.91,68.02,26.99,68.03,26.97z"
			/>
		<path class="st1" d="M67.73,24.67c0.03-0.03-0.15-0.19-0.14-0.42c0-0.11,0.04-0.17,0.03-0.18c-0.03-0.02-0.18,0.12-0.19,0.28
			c-0.01,0.14,0.11,0.26,0.1,0.27c0,0-0.06-0.08-0.05-0.09C67.5,24.51,67.7,24.7,67.73,24.67z"/>
	</g>
</g>
</svg>
