<?xml version="1.0" encoding="utf-8"?>
<!-- Generator: Adobe Illustrator 23.0.3, SVG Export Plug-In . SVG Version: 6.00 Build 0)  -->
<svg version="1.1" id="Layer_1" xmlns="http://www.w3.org/2000/svg" xmlns:xlink="http://www.w3.org/1999/xlink" x="0px" y="0px"
	 viewBox="0 0 1888 941" style="enable-background:new 0 0 1888 941;" xml:space="preserve">
<style type="text/css">
	.st0{display:none;}
	.st1{display:inline;fill:#62CDFF;}
	.st2{display:inline;fill:#769410;}
	.st3{display:inline;fill:#FFFFFF;}
	.st4{display:inline;}
	.st5{fill:#214A9A;}
	.st6{fill:#2A62BC;}
	.st7{fill:#707070;}
	.st8{fill:#E4C143;}
	.st9{fill:none;stroke:#E4C143;stroke-width:10.2936;stroke-miterlimit:10;}
	.st10{fill:none;stroke:#E4C143;stroke-width:9.1622;stroke-miterlimit:10;}
	.st11{fill:none;stroke:#E4C143;stroke-width:7.3526;stroke-miterlimit:10;}
	.st12{fill:none;stroke:#E4C143;stroke-width:7.3526;stroke-linejoin:round;stroke-miterlimit:10;}
	.st13{fill:none;stroke:#E4C143;stroke-width:5.8821;stroke-linejoin:round;stroke-miterlimit:10;}
	.st14{fill:none;stroke:#E4C143;stroke-width:4.4116;stroke-linejoin:round;stroke-miterlimit:10;}
	.st15{fill:none;stroke:#E4C143;stroke-width:7.0064;stroke-miterlimit:10;}
	.st16{fill:none;stroke:#E4C143;stroke-width:5.3895;stroke-miterlimit:10;}
	.st17{fill:#43617B;}
	.st18{fill:#D5C2B4;}
	.st19{fill:#E8D7B9;}
	.st20{fill:#C1B29A;}
	.st21{fill:none;stroke:#AA2E24;stroke-width:1.6182;stroke-linecap:round;stroke-miterlimit:10;}
	.st22{fill:none;stroke:#AA2E24;stroke-width:1.6182;stroke-linecap:round;stroke-linejoin:round;stroke-miterlimit:10;}
	.st23{fill:#7F9193;}
	.st24{fill:#A3A3A3;}
	.st25{fill:#D1D1D1;}
	.st26{fill:none;stroke:#D1D1D1;stroke-width:17.1799;stroke-miterlimit:10;}
	.st27{fill:none;stroke:#D1D1D1;stroke-width:13.4985;stroke-miterlimit:10;}
	.st28{fill:none;stroke:#D1D1D1;stroke-width:9.8171;stroke-miterlimit:10;}
	.st29{fill:none;stroke:#000000;stroke-width:1.6954;stroke-linecap:round;stroke-miterlimit:10;}
	.st30{fill:none;stroke:#265531;stroke-width:2.3735;stroke-miterlimit:10;}
	.st31{fill:#5B4327;}
	.st32{fill:#00983D;}
	.st33{fill:none;}
	.st34{font-family:'CooperBlack';}
	.st35{font-size:50px;}
	.st36{fill:#5C4827;}
	.st37{fill:#819B12;}
	.st38{fill:#8FB017;}
	.st39{fill:#8BAE12;}
</style>
<g class="st0">
	<rect y="-1" class="st1" width="1887" height="731"/>
	<path class="st2" d="M1366,413c-87.31,13.23-112.21,29.27-227,49c-227.58,39.12-405.55,23.5-492,17
		c-140.36-10.56-345.51-20.12-647-19.2V940h1887V465.6C1660.91,391.71,1486.61,394.72,1366,413z"/>
	<path class="st3" d="M802.56,145c36.55,0,73.1,0,109.65,0c12.28-3.69,19.11-16.6,15.73-28.03c-3.59-12.17-17.76-19.29-30.48-14.26
		c-0.32-2.2-2.64-16.66-16.23-25.57c-13.13-8.61-26.77-5.47-29.01-4.92c-8.21-16.27-25.74-25.55-43.27-23.11
		c-19.02,2.65-34.11,18.57-35.89,38.35c-16.86,1.68-28.95,16.04-28.03,30.98c0.76,12.36,10.32,23.41,23.6,26.55
		C779.94,145,791.25,145,802.56,145z"/>
	<path class="st3" d="M1001.25,359c-51.14,0-102.27,0-153.41,0c-14.32-3.56-23.69-17.11-22.12-30.98
		c1.71-15.08,15.93-26.69,31.96-25.08c4.87-13.09,16.46-22.43,29.99-24.09c15.13-1.86,30.14,6.18,37.37,20.16
		c2.49-0.69,12.97-3.28,23.6,2.46c6.59,3.55,10.2,8.66,11.8,11.31c1.34-0.62,9.44-4.22,18.68-0.49c9.5,3.83,12.78,12.41,13.28,13.77
		c10.33-3.93,21.21,1.48,24.09,9.83C1019.62,344.95,1013.15,356.91,1001.25,359z"/>
	<path class="st3" d="M144.16,143.93c0.34,0.88,4.6,11.53,16.23,14.26c11.05,2.59,19.3-4.19,20.16-4.92
		c2.58,2.59,13.08,12.56,29.99,13.77c16.38,1.17,27.94-6.65,30.98-8.85c1.29,0.85,9.06,5.82,19.18,3.44
		c10.23-2.41,14.98-10.47,15.73-11.8c13.37,4.87,27.31-0.31,32.45-9.83c6.31-11.7-0.32-30.55-17.7-36.39
		c-0.26-2.45-1.67-13.07-10.82-20.65c-13.22-10.96-30.1-5.23-30.98-4.92c-5.55-13.92-18.18-23.51-32.45-24.58
		c-17.42-1.32-28.97,10.66-30.48,12.29c-1.15-0.45-19.34-7.18-34.91,4.43c-12.85,9.58-14.11,24.34-14.26,26.55
		c-17.43,2.17-27.41,18.82-23.6,31.47C116.9,138.91,130.02,146.84,144.16,143.93z"/>
	<path class="st3" d="M625.21,287c-42.45,0-84.9,0-127.35,0c-10.48-3.05-18.32-11.21-19.66-20.65c-1.84-12.95,8.69-27.15,25.08-29.5
		c0.66-1.61,8.95-20.74,29.99-25.08c14.87-3.06,30.38,2.44,40.32,14.26c1.64-0.67,14.31-5.6,27.04,1.48
		c10.87,6.04,14.14,16.57,14.75,18.68c12.08-1.22,22.68,7.29,24.09,18.19C640.69,273.78,634.86,283.37,625.21,287z"/>
	<path class="st3" d="M1592.03,313c-42.45,0-84.9,0-127.35,0c-10.48-3.05-18.32-11.21-19.66-20.65
		c-1.84-12.95,8.69-27.15,25.08-29.5c0.66-1.61,8.95-20.74,29.99-25.08c14.87-3.06,30.38,2.44,40.32,14.26
		c1.64-0.67,14.31-5.6,27.04,1.48c10.87,6.04,14.14,16.57,14.75,18.68c12.08-1.22,22.68,7.29,24.09,18.19
		C1607.5,299.78,1601.68,309.37,1592.03,313z"/>
	<path class="st3" d="M1238.69,190.87c3.69,7.89,11.42,13.05,19.91,13.28c9.45,0.25,18.22-5.66,21.76-14.75
		c16.98,0.84,31.88-11.15,34.66-27.29c2.95-17.11-8.53-34.2-26.18-37.98c-0.32-0.94-3.87-10.92-14.38-14.01
		c-7.66-2.25-16.06,0.04-21.76,5.9c-7.74-10.85-20.81-16.46-33.56-14.38c-14.52,2.37-26.14,14.31-28.4,29.5
		c-10.06,0.51-18.42,7.66-20.28,16.96c-2.1,10.48,4.5,21.46,15.49,24.71c3.3,12.48,12.99,22.06,25.08,24.71
		C1225.76,200.74,1237.1,192.12,1238.69,190.87z"/>
	<path class="st3" d="M300.69,380.87c3.69,7.89,11.42,13.05,19.91,13.28c9.45,0.25,18.22-5.66,21.76-14.75
		c16.98,0.84,31.88-11.15,34.66-27.29c2.95-17.11-8.53-34.2-26.18-37.98c-0.32-0.94-3.87-10.92-14.38-14.01
		c-7.66-2.25-16.06,0.04-21.76,5.9c-7.74-10.85-20.81-16.46-33.56-14.38c-14.52,2.37-26.14,14.31-28.4,29.5
		c-10.06,0.51-18.42,7.66-20.28,16.96c-2.1,10.48,4.5,21.46,15.49,24.71c3.3,12.48,12.99,22.06,25.08,24.71
		C287.76,390.74,299.1,382.12,300.69,380.87z"/>
</g>
<g id="Buildings" class="st0">
	<g class="st4">
		<path class="st5" d="M1117.09,199.4c12.77,0.93,25.54,1.86,38.31,2.79c0.93,151.4,1.86,302.8,2.79,454.2
			c-13.93,0.46-27.87,0.93-41.8,1.39C1116.62,504.99,1116.85,352.19,1117.09,199.4z"/>
		<path class="st6" d="M993.08,607.73c0-152.12,0-304.24,0-456.36c-2.79,0-5.57,0-8.36,0c0-2.56,0-5.13,0-7.69
			C961.5,99.08,938.28,54.5,915.06,9.91c-17.42,40.4-34.83,80.81-52.25,121.21c-0.16,158.87-0.32,317.73-0.47,476.6H993.08z"/>
		<path class="st7" d="M987.51,152.72c3.48-3.95,6.97-7.9,10.45-11.84c41.1,3.02,82.2,6.04,123.3,9.06
			c0.93,143.97,1.86,287.94,2.79,431.91c-47.14,5.11-94.28,10.22-141.42,15.33c0-147.22,0-294.44,0-441.67
			C984.26,154.58,985.89,153.65,987.51,152.72z"/>
		<path class="st5" d="M923.39,614.77c-3.24-157.73-6.48-315.46-9.72-473.19c-17.18,30.42-34.37,60.84-51.55,91.26
			c0,127.31,0,254.62,0,381.93H923.39z"/>
		<path class="st7" d="M862.12,247.46c16.95-31.58,33.9-63.16,50.85-94.74c0.46,147.92,0.93,295.84,1.39,443.76
			c4.64-0.23,9.29-0.46,13.93-0.7c0.23-147.45,0.46-294.91,0.7-442.36c-0.23-33.44-0.46-66.88-0.7-100.32
			c1.63-2.55,3.25-5.11,4.88-7.66c-6.04-11.84-12.07-23.69-18.11-35.53c-17.42,40.4-34.83,80.81-52.25,121.21
			C862.58,169.91,862.35,208.69,862.12,247.46z"/>
		<path class="st5" d="M928.3,53.1c1.63-2.55,3.25-5.11,4.88-7.66"/>
		<g>
			
				<ellipse transform="matrix(0.9762 -0.2169 0.2169 0.9762 -16.0778 223.7676)" class="st6" cx="1011.2" cy="185.12" rx="8.81" ry="9.91"/>
			
				<ellipse transform="matrix(0.9762 -0.2169 0.2169 0.9762 -15.8989 228.1833)" class="st6" cx="1031.4" cy="186.51" rx="8.81" ry="9.91"/>
			
				<ellipse transform="matrix(0.9762 -0.2169 0.2169 0.9762 -15.7367 232.4479)" class="st6" cx="1050.91" cy="187.9" rx="8.81" ry="9.91"/>
			
				<ellipse transform="matrix(0.9762 -0.2169 0.2169 0.9762 -15.5744 236.7124)" class="st6" cx="1070.41" cy="189.3" rx="8.81" ry="9.91"/>
			
				<ellipse transform="matrix(0.9762 -0.2169 0.2169 0.9762 -15.5633 240.9936)" class="st6" cx="1089.92" cy="191.39" rx="8.81" ry="9.91"/>
			
				<ellipse transform="matrix(0.9762 -0.2169 0.2169 0.9762 -15.4176 245.107)" class="st6" cx="1108.73" cy="192.78" rx="8.81" ry="9.91"/>
			
				<ellipse transform="matrix(0.9762 -0.2169 0.2169 0.9762 -22.2737 224.4478)" class="st6" cx="1011.2" cy="213.68" rx="8.81" ry="9.91"/>
			
				<ellipse transform="matrix(0.9762 -0.2169 0.2169 0.9762 -22.0949 228.8634)" class="st6" cx="1031.4" cy="215.07" rx="8.81" ry="9.91"/>
			
				<ellipse transform="matrix(0.9762 -0.2169 0.2169 0.9762 -21.9326 233.128)" class="st6" cx="1050.91" cy="216.46" rx="8.81" ry="9.91"/>
			
				<ellipse transform="matrix(0.9762 -0.2169 0.2169 0.9762 -21.7704 237.3926)" class="st6" cx="1070.41" cy="217.86" rx="8.81" ry="9.91"/>
			
				<ellipse transform="matrix(0.9762 -0.2169 0.2169 0.9762 -21.7593 241.6737)" class="st6" cx="1089.92" cy="219.95" rx="8.81" ry="9.91"/>
			
				<ellipse transform="matrix(0.9762 -0.2169 0.2169 0.9762 -21.6136 245.7872)" class="st6" cx="1108.73" cy="221.34" rx="8.81" ry="9.91"/>
		</g>
		
			<ellipse transform="matrix(0.9762 -0.2169 0.2169 0.9762 -27.8486 225.2127)" class="st6" cx="1011.89" cy="239.45" rx="8.81" ry="9.91"/>
		
			<ellipse transform="matrix(0.9762 -0.2169 0.2169 0.9762 -27.6863 229.4772)" class="st6" cx="1031.4" cy="240.85" rx="8.81" ry="9.91"/>
		
			<ellipse transform="matrix(0.9762 -0.2169 0.2169 0.9762 -27.5241 233.7418)" class="st6" cx="1050.91" cy="242.24" rx="8.81" ry="9.91"/>
		
			<ellipse transform="matrix(0.9762 -0.2169 0.2169 0.9762 -27.3619 238.0063)" class="st6" cx="1070.41" cy="243.63" rx="8.81" ry="9.91"/>
		
			<ellipse transform="matrix(0.9762 -0.2169 0.2169 0.9762 -27.3507 242.2875)" class="st6" cx="1089.92" cy="245.72" rx="8.81" ry="9.91"/>
		
			<ellipse transform="matrix(0.9762 -0.2169 0.2169 0.9762 -27.1885 246.5521)" class="st6" cx="1109.42" cy="247.12" rx="8.81" ry="9.91"/>
		
			<ellipse transform="matrix(0.9762 -0.2169 0.2169 0.9762 -33.8934 225.8762)" class="st6" cx="1011.89" cy="267.32" rx="8.81" ry="9.91"/>
		
			<ellipse transform="matrix(0.9762 -0.2169 0.2169 0.9762 -33.7146 230.2919)" class="st6" cx="1032.1" cy="268.71" rx="8.81" ry="9.91"/>
		
			<ellipse transform="matrix(0.9762 -0.2169 0.2169 0.9762 -33.5523 234.5565)" class="st6" cx="1051.6" cy="270.11" rx="8.81" ry="9.91"/>
		
			<ellipse transform="matrix(0.9762 -0.2169 0.2169 0.9762 -33.3901 238.821)" class="st6" cx="1071.11" cy="271.5" rx="8.81" ry="9.91"/>
		
			<ellipse transform="matrix(0.9762 -0.2169 0.2169 0.9762 -33.2444 242.9345)" class="st6" cx="1089.92" cy="272.89" rx="8.81" ry="9.91"/>
		
			<ellipse transform="matrix(0.9762 -0.2169 0.2169 0.9762 -33.0822 247.199)" class="st6" cx="1109.42" cy="274.29" rx="8.81" ry="9.91"/>
		
			<ellipse transform="matrix(0.9762 -0.2169 0.2169 0.9762 -39.636 226.5066)" class="st6" cx="1011.89" cy="293.79" rx="8.81" ry="9.91"/>
		
			<ellipse transform="matrix(0.9762 -0.2169 0.2169 0.9762 -39.4572 230.9223)" class="st6" cx="1032.1" cy="295.18" rx="8.81" ry="9.91"/>
		
			<ellipse transform="matrix(0.9762 -0.2169 0.2169 0.9762 -39.2949 235.1868)" class="st6" cx="1051.6" cy="296.58" rx="8.81" ry="9.91"/>
		
			<ellipse transform="matrix(0.9762 -0.2169 0.2169 0.9762 -39.1327 239.4514)" class="st6" cx="1071.11" cy="297.97" rx="8.81" ry="9.91"/>
		
			<ellipse transform="matrix(0.9762 -0.2169 0.2169 0.9762 -38.987 243.5648)" class="st6" cx="1089.92" cy="299.36" rx="8.81" ry="9.91"/>
		
			<ellipse transform="matrix(0.9762 -0.2169 0.2169 0.9762 -38.8082 247.9805)" class="st6" cx="1110.12" cy="300.76" rx="8.81" ry="9.91"/>
		
			<ellipse transform="matrix(0.9762 -0.2169 0.2169 0.9762 -45.5297 227.1536)" class="st6" cx="1011.89" cy="320.96" rx="8.81" ry="9.91"/>
		
			<ellipse transform="matrix(0.9762 -0.2169 0.2169 0.9762 -45.3509 231.5692)" class="st6" cx="1032.1" cy="322.35" rx="8.81" ry="9.91"/>
		
			<ellipse transform="matrix(0.9762 -0.2169 0.2169 0.9762 -45.1887 235.8338)" class="st6" cx="1051.6" cy="323.75" rx="8.81" ry="9.91"/>
		
			<ellipse transform="matrix(0.9762 -0.2169 0.2169 0.9762 -44.8753 240.0818)" class="st6" cx="1071.11" cy="324.44" rx="8.81" ry="9.91"/>
		
			<ellipse transform="matrix(0.9762 -0.2169 0.2169 0.9762 -44.713 244.3463)" class="st6" cx="1090.61" cy="325.84" rx="8.81" ry="9.91"/>
		
			<ellipse transform="matrix(0.9762 -0.2169 0.2169 0.9762 -44.5508 248.6109)" class="st6" cx="1110.12" cy="327.23" rx="8.81" ry="9.91"/>
		
			<ellipse transform="matrix(0.9762 -0.2169 0.2169 0.9762 -51.4069 227.9517)" class="st6" cx="1012.59" cy="348.13" rx="8.81" ry="9.91"/>
		
			<ellipse transform="matrix(0.9762 -0.2169 0.2169 0.9762 -51.0935 232.1996)" class="st6" cx="1032.1" cy="348.82" rx="8.81" ry="9.91"/>
		
			<ellipse transform="matrix(0.9762 -0.2169 0.2169 0.9762 -50.9312 236.4642)" class="st6" cx="1051.6" cy="350.22" rx="8.81" ry="9.91"/>
		
			<ellipse transform="matrix(0.9762 -0.2169 0.2169 0.9762 -50.769 240.7287)" class="st6" cx="1071.11" cy="351.61" rx="8.81" ry="9.91"/>
		
			<ellipse transform="matrix(0.9762 -0.2169 0.2169 0.9762 -50.4556 244.9767)" class="st6" cx="1090.61" cy="352.31" rx="8.81" ry="9.91"/>
		
			<ellipse transform="matrix(0.9762 -0.2169 0.2169 0.9762 -50.2934 249.2413)" class="st6" cx="1110.12" cy="353.7" rx="8.81" ry="9.91"/>
		
			<ellipse transform="matrix(0.9762 -0.2169 0.2169 0.9762 -57.3006 228.5986)" class="st6" cx="1012.59" cy="375.3" rx="8.81" ry="9.91"/>
		
			<ellipse transform="matrix(0.9762 -0.2169 0.2169 0.9762 -56.9872 232.8466)" class="st6" cx="1032.1" cy="375.99" rx="8.81" ry="9.91"/>
		
			<ellipse transform="matrix(0.9762 -0.2169 0.2169 0.9762 -56.825 237.1111)" class="st6" cx="1051.6" cy="377.39" rx="8.81" ry="9.91"/>
		
			<ellipse transform="matrix(0.9762 -0.2169 0.2169 0.9762 -56.6627 241.3757)" class="st6" cx="1071.11" cy="378.78" rx="8.81" ry="9.91"/>
		
			<ellipse transform="matrix(0.9762 -0.2169 0.2169 0.9762 -56.3493 245.6237)" class="st6" cx="1090.61" cy="379.48" rx="8.81" ry="9.91"/>
		
			<ellipse transform="matrix(0.9762 -0.2169 0.2169 0.9762 -56.036 249.8717)" class="st6" cx="1110.12" cy="380.17" rx="8.81" ry="9.91"/>
		
			<ellipse transform="matrix(0.9762 -0.2169 0.2169 0.9762 -62.892 229.2124)" class="st6" cx="1012.59" cy="401.07" rx="8.81" ry="9.91"/>
		
			<ellipse transform="matrix(0.9762 -0.2169 0.2169 0.9762 -62.7132 233.6281)" class="st6" cx="1032.79" cy="402.47" rx="8.81" ry="9.91"/>
		
			<ellipse transform="matrix(0.9762 -0.2169 0.2169 0.9762 -62.551 237.8927)" class="st6" cx="1052.3" cy="403.86" rx="8.81" ry="9.91"/>
		
			<ellipse transform="matrix(0.9762 -0.2169 0.2169 0.9762 -62.2542 241.9895)" class="st6" cx="1071.11" cy="404.56" rx="8.81" ry="9.91"/>
		
			<ellipse transform="matrix(0.9762 -0.2169 0.2169 0.9762 -62.1085 246.1029)" class="st6" cx="1089.92" cy="405.95" rx="8.81" ry="9.91"/>
		
			<ellipse transform="matrix(0.9762 -0.2169 0.2169 0.9762 -61.9297 250.5186)" class="st6" cx="1110.12" cy="407.34" rx="8.81" ry="9.91"/>
		
			<ellipse transform="matrix(0.9762 -0.2169 0.2169 0.9762 -68.6512 229.6917)" class="st6" cx="1011.89" cy="427.54" rx="8.81" ry="9.91"/>
		
			<ellipse transform="matrix(0.9762 -0.2169 0.2169 0.9762 -68.4724 234.1073)" class="st6" cx="1032.1" cy="428.94" rx="8.81" ry="9.91"/>
		
			<ellipse transform="matrix(0.9762 -0.2169 0.2169 0.9762 -68.3101 238.3719)" class="st6" cx="1051.6" cy="430.33" rx="8.81" ry="9.91"/>
		
			<ellipse transform="matrix(0.9762 -0.2169 0.2169 0.9762 -67.9968 242.6199)" class="st6" cx="1071.11" cy="431.03" rx="8.81" ry="9.91"/>
		
			<ellipse transform="matrix(0.9762 -0.2169 0.2169 0.9762 -67.8345 246.8844)" class="st6" cx="1090.61" cy="432.42" rx="8.81" ry="9.91"/>
		
			<ellipse transform="matrix(0.9762 -0.2169 0.2169 0.9762 -67.6723 251.149)" class="st6" cx="1110.12" cy="433.81" rx="8.81" ry="9.91"/>
		
			<ellipse transform="matrix(0.9762 -0.2169 0.2169 0.9762 -74.6961 230.3552)" class="st6" cx="1011.89" cy="455.41" rx="8.81" ry="9.91"/>
		
			<ellipse transform="matrix(0.9762 -0.2169 0.2169 0.9762 -74.3661 234.7543)" class="st6" cx="1032.1" cy="456.11" rx="8.81" ry="9.91"/>
		
			<ellipse transform="matrix(0.9762 -0.2169 0.2169 0.9762 -74.0527 239.0023)" class="st6" cx="1051.6" cy="456.8" rx="8.81" ry="9.91"/>
		
			<ellipse transform="matrix(0.9762 -0.2169 0.2169 0.9762 -73.8905 243.2668)" class="st6" cx="1071.11" cy="458.2" rx="8.81" ry="9.91"/>
		
			<ellipse transform="matrix(0.9762 -0.2169 0.2169 0.9762 -73.5771 247.5148)" class="st6" cx="1090.61" cy="458.89" rx="8.81" ry="9.91"/>
		
			<ellipse transform="matrix(0.9762 -0.2169 0.2169 0.9762 -73.4149 251.7794)" class="st6" cx="1110.12" cy="460.29" rx="8.81" ry="9.91"/>
		
			<ellipse transform="matrix(0.9762 -0.2169 0.2169 0.9762 -80.5732 231.1533)" class="st6" cx="1012.59" cy="482.58" rx="8.81" ry="9.91"/>
		
			<ellipse transform="matrix(0.9762 -0.2169 0.2169 0.9762 -80.2598 235.4013)" class="st6" cx="1032.1" cy="483.27" rx="8.81" ry="9.91"/>
		
			<ellipse transform="matrix(0.9762 -0.2169 0.2169 0.9762 -80.0976 239.6658)" class="st6" cx="1051.6" cy="484.67" rx="8.81" ry="9.91"/>
		
			<ellipse transform="matrix(0.9762 -0.2169 0.2169 0.9762 -79.7676 244.0649)" class="st6" cx="1071.8" cy="485.36" rx="8.81" ry="9.91"/>
		
			<ellipse transform="matrix(0.9762 -0.2169 0.2169 0.9762 -79.4542 248.3129)" class="st6" cx="1091.31" cy="486.06" rx="8.81" ry="9.91"/>
		
			<ellipse transform="matrix(0.9762 -0.2169 0.2169 0.9762 -79.1409 252.5609)" class="st6" cx="1110.82" cy="486.76" rx="8.81" ry="9.91"/>
	</g>
	<g class="st4">
		<path class="st8" d="M518.04,392.41c-3.21-95.28-6.43-190.56-9.64-285.84c-5.45-4.81-10.9-9.62-16.35-14.43
			c-7.86,2.11-15.73,4.22-23.59,6.33c-1.66,2.11-3.32,4.22-4.99,6.33c0,1.92,0,3.84,0,5.75c-10.36-5.69-20.72-11.38-31.07-17.07
			c-1.21-4.09-2.43-8.18-3.64-12.28c-0.32-7.67-0.64-15.34-0.96-23.02c-3.26-4.09-6.52-8.18-9.78-12.28
			c-2.88-1.15-5.75-2.3-8.63-3.45c-9.78,4.73-19.56,9.46-29.35,14.19c-3.52,4.35-7.03,8.7-10.55,13.04
			c-1.21,137.78-2.43,275.56-3.64,413.34c0,3.07,0,6.14,0,9.21c18.7-0.19,37.4-0.38,56.1-0.58c-0.12-19.62-0.25-39.24-0.37-58.85
			c3.15-3.55,6.22-4.97,8.42-5.59c10.83-3.08,25.3,5.94,35.1,23.02c0.38,14.67,0.77,29.35,1.15,44.02
			c17.45,0.58,34.91,1.15,52.36,1.73C518.42,461.46,518.23,426.94,518.04,392.41z M494.49,288.25c0.03,1.18-1.52,1.63-2.13,0.62
			c-6.42-10.71-12.85-21.41-19.27-32.12c-1.86-3.1-1.57-7.03,0.72-9.82c5.15-6.28,10.31-12.57,15.46-18.85
			c1.28-1.56,3.82-0.69,3.87,1.33C493.59,249.02,494.04,268.63,494.49,288.25z M447.65,300.45c12.93,3.82,25.87,7.64,38.8,11.46
			c2.28,0.67,3.19,3.4,1.79,5.31c-5.42,7.38-10.85,14.76-16.27,22.14c-1.68,2.29-5.17,2.11-6.6-0.35
			c-6.81-11.7-13.63-23.4-20.44-35.1C443.86,302.06,445.6,299.85,447.65,300.45z M445.08,281.56c4.96-6.31,9.92-12.61,14.87-18.92
			c2.04-2.59,6.06-2.28,7.68,0.59c6.36,11.3,12.72,22.6,19.09,33.9c0.71,1.26-0.49,2.75-1.87,2.32
			c-12.6-3.88-25.21-7.76-37.81-11.64C444.37,286.99,443.36,283.75,445.08,281.56z M483.32,152.94c3.26,1.55,6.52,3.1,9.78,4.65
			c0,13.44,0,26.89,0,40.33c-3.26-1.48-6.52-2.96-9.78-4.44C483.32,179.97,483.32,166.46,483.32,152.94z M467.78,144.89
			c3.29,1.69,6.59,3.38,9.88,5.08c0,13.78,0,27.56,0,41.34c-3.29-1.5-6.59-3-9.88-4.5C467.78,172.83,467.78,158.86,467.78,144.89z
			 M451,136.64c3.61,1.85,7.22,3.71,10.84,5.56c0,14.13,0,28.26,0,42.39c-3.61-1.66-7.22-3.32-10.84-4.98
			C451,165.29,451,150.96,451,136.64z M445.55,196.5c12.91,5.61,25.82,11.22,38.73,16.82c2.59,1.13,3.32,4.46,1.42,6.56
			c-4.85,5.37-9.7,10.74-14.55,16.11c-2.17,2.4-6.03,2.06-7.74-0.69l-21.52-34.56C440.36,198.3,442.91,195.35,445.55,196.5z
			 M433.74,172.32c0-14.71,0-29.41,0-44.12c3.52,1.73,7.03,3.45,10.55,5.18c0,14.51,0,29.03,0,43.54
			C440.77,175.38,437.25,173.85,433.74,172.32z M434.46,270.52v-59.97c0-2.27,2.97-3.12,4.18-1.2c6.8,10.88,13.6,21.76,20.4,32.64
			c2.05,3.29,1.67,7.54-0.94,10.4c-6.12,6.72-12.24,13.44-18.36,20.16C437.87,274.61,434.46,273.29,434.46,270.52z M436.21,382.31
			c-0.13-21.63-0.27-43.26-0.4-64.89c-0.01-2.34,3.03-3.24,4.29-1.27c6.67,10.42,13.34,20.84,20.02,31.26
			c1.67,2.6,1.52,5.97-0.37,8.42c-7.03,9.1-14.06,18.2-21.09,27.31C437.86,384.17,436.21,383.61,436.21,382.31z M483.44,397.03
			c-11.94,0.44-23.88,0.88-35.82,1.31c-2.83,0.1-4.58-3.06-2.98-5.4l18.96-27.85c1.24-1.83,3.96-1.75,5.11,0.14
			c5.62,9.29,11.24,18.58,16.86,27.88C486.57,394.8,485.41,396.96,483.44,397.03z M493.47,388.53
			c-5.93-9.35-11.86-18.69-17.79-28.04c-2.48-3.92-2.33-8.95,0.39-12.71c5.48-7.56,10.97-15.13,16.45-22.69
			c0.93-1.28,2.95-0.63,2.96,0.95c0.17,20.58,0.33,41.17,0.5,61.75C496,389.16,494.21,389.69,493.47,388.53z"/>
		<path class="st9" d="M833.65,381.77c-45.74,1.68-108.23,4.23-182.41,8.06c-115.22,5.95-204.88,12.22-264.12,16.5
			c-99.21,7.17-241.99,18.08-426.39,34.14"/>
		<path class="st10" d="M835.86,425.92c-45.76-0.76-108.3-1.54-182.58-1.67c-115.38-0.19-205.24,1.29-264.62,2.41
			c-99.45,1.88-242.61,5.18-427.6,11.4"/>
		<path class="st9" d="M833.08,492.83c-37.89-2.06-92.95-4.86-159.39-7.48c-118.84-4.69-230.91-7.12-398.77-8.63
			c-79.33-0.71-193.46-1.42-333.17-1.15"/>
		<path class="st11" d="M734.68,386.37c0.9,34.27,1.79,68.54,2.69,102.81"/>
		<path class="st11" d="M767.67,489.56c23.78-34.91,47.57-69.82,71.35-104.73"/>
		<path class="st12" d="M640.7,484.96c-0.64-31.07-1.28-62.15-1.92-93.22c-21.99,30.69-43.99,61.38-65.98,92.07"/>
		<path class="st12" d="M552.85,394.04c0.26,29.67,0.51,59.33,0.77,89c-14.58-26.34-29.15-52.68-43.73-79.02"/>
		<path class="st12" d="M352.89,478.44c-13.14-22.54-26.28-45.07-39.42-67.61c0.1,21.87,0.19,43.73,0.29,65.6"/>
		<path class="st13" d="M315.2,411.98c-12.85,22.83-25.7,45.65-38.55,68.48"/>
		<path class="st14" d="M268.02,476.43c0-20.81,0-41.62,0-62.43c4.04,4.73,8.09,9.46,12.13,14.2c0,15.61,0,31.21,0,46.82"/>
		<path class="st14" d="M82.73,474.99c6.33-15.63,12.66-31.26,18.99-46.9c-0.19,15.73-0.38,31.46-0.58,47.18"/>
		<path class="st14" d="M117.26,475.56c-5.37-15.34-10.74-30.69-16.11-46.03"/>
		<path class="st14" d="M247.01,476.71c-8.25-18.61-16.5-37.21-24.74-55.82c-0.19,19.37-0.38,38.74-0.58,58.12"/>
		<path class="st14" d="M195.8,476.43c0.29-18.13,0.58-36.25,0.86-54.38"/>
		<path class="st14" d="M168.47,475.27c0.1-16.69,0.19-33.37,0.29-50.06"/>
		<path class="st14" d="M127.04,475.27c0.38-16.59,0.77-33.18,1.15-49.77c6.23,17.07,12.47,34.14,18.7,51.21"/>
		<path class="st8" d="M172.78,222.09c-2.69-0.77-5.37-1.53-8.06-2.3c-3.74,0.96-7.48,1.92-11.22,2.88
			c-2.11,2.88-4.22,5.75-6.33,8.63c0,3.84,0,7.67,0,11.51c-12.95-3.36-25.89-6.71-38.84-10.07c-1.73-4.03-3.45-8.06-5.18-12.08
			c-0.1-3.26-0.19-6.52-0.29-9.78c-1.92-4.41-3.84-8.82-5.75-13.23c-2.11,0.1-4.22,0.19-6.33,0.29c-3.26,0.67-6.52,1.34-9.78,2.01
			c-2.88,3.84-5.75,7.67-8.63,11.51c-0.74,8.89-1.86,22.39-3.16,38.84c-3.51,44.12-5.78,76.17-6.62,87.75
			c-2.14,29.6-5.63,74.19-11.51,137.53c9.88-0.1,19.76-0.19,29.63-0.29c0.29-6.04,0.58-12.08,0.86-18.13
			c5.98-2.58,19.32-7.31,35.68-4.32c7.49,1.37,13.51,3.97,17.84,6.33c0,4.99,0,9.98,0,14.96c11.6,0.19,23.21,0.38,34.81,0.57
			c2.78-81.13,5.56-162.27,8.34-243.4C176.43,228.23,174.61,225.16,172.78,222.09z M134.13,262.85c2.88,0.67,5.75,1.34,8.63,2.01
			c-0.06,9.62-0.13,19.24-0.19,28.87c-2.81-0.61-5.63-1.21-8.44-1.82C134.13,282.22,134.13,272.54,134.13,262.85z M118.5,259.4
			c3.2,0.74,6.39,1.47,9.59,2.21c-0.1,9.65-0.19,19.31-0.29,28.96c-3.1-0.6-6.2-1.21-9.3-1.81
			C118.5,278.97,118.5,269.18,118.5,259.4z M145.88,305.98c2.71,0.26,3.76,3.72,1.67,5.5c-4.78,4.07-9.57,8.14-14.35,12.21
			c-3.16,2.69-7.87,2.13-10.33-1.22c-3.73-5.06-7.46-10.13-11.19-15.19c-1.38-1.87,0.08-4.52,2.36-4.3
			C124.65,303.97,135.27,304.98,145.88,305.98z M144.19,364.3c-12.17-1.79-24.35-3.58-36.52-5.38c-1.9-0.28-2.62-2.65-1.19-3.93
			c5.64-5.08,11.27-10.17,16.91-15.25c1.64-1.48,4.2-1.28,5.59,0.44c5.67,6.99,11.33,13.99,17,20.98
			C147.09,362.53,145.94,364.56,144.19,364.3z M145.9,375.06c-5.93,5.62-11.87,11.25-17.8,16.87c-1.52,1.44-3.93,1.32-5.3-0.27
			c-5.69-6.61-11.38-13.22-17.07-19.83c-1.62-1.88-0.13-4.77,2.34-4.55c12.09,1.11,24.18,2.21,36.28,3.32
			C146.57,370.81,147.52,373.53,145.9,375.06z M102.1,256.04c3.39,0.7,6.78,1.41,10.17,2.11c-0.19,9.75-0.38,19.5-0.58,29.25
			c-3.45-0.67-6.91-1.34-10.36-2.01C101.59,275.6,101.85,265.82,102.1,256.04z M99.72,306.73c0.07-1.83,2.39-2.56,3.5-1.11
			c5.73,7.47,11.46,14.93,17.2,22.4c1.63,2.12,1.33,5.15-0.7,6.91c-5.46,4.74-10.91,9.47-16.37,14.21
			c-2.11,1.83-5.39,0.25-5.27-2.54C98.63,333.3,99.18,320.02,99.72,306.73z M95.08,417.81l1.04-42.8c0.04-1.84,2.35-2.63,3.51-1.21
			c5.92,7.21,11.85,14.43,17.77,21.64c1.85,2.25,1.6,5.56-0.56,7.51c-6.07,5.5-12.15,10.99-18.22,16.49
			C97.25,420.7,95.03,419.68,95.08,417.81z M101.72,427.23c6.68-6.9,13.37-13.8,20.05-20.7c1.12-1.15,2.99-1.07,3.99,0.19
			c5.03,6.26,10.06,12.53,15.08,18.79C127.8,426.08,114.76,426.65,101.72,427.23z M152.04,418.65c-0.04,2.03-2.47,3.04-3.94,1.64
			c-5.76-5.46-11.53-10.93-17.29-16.39c-2.03-1.92-1.96-5.16,0.13-7.01c6.26-5.5,12.53-11,18.79-16.5c1.22-1.07,3.14-0.18,3.1,1.44
			L152.04,418.65z M154.32,357.23c-0.05,2.01-2.62,2.83-3.82,1.21c-4.95-6.66-9.9-13.31-14.84-19.97c-2.27-3.06-1.84-7.34,1-9.88
			c4.86-4.36,9.73-8.72,14.59-13.08c1.59-1.43,4.12-0.26,4.07,1.88C154.98,330.68,154.65,343.96,154.32,357.23z M157.25,296.32
			c-2.81-0.8-5.63-1.6-8.44-2.4c0.19-9.33,0.38-18.67,0.58-28c2.69,0.61,5.37,1.21,8.06,1.82
			C157.38,277.27,157.31,286.79,157.25,296.32z"/>
		<path class="st15" d="M679.37,486.61c0-20.39,0-40.78,0-61.17"/>
		<path class="st15" d="M638.78,391.74c13.53,11.23,27.06,22.46,40.59,33.69"/>
		<path class="st15" d="M735.89,388.75c18.7,12.23,37.4,24.46,56.1,36.7c0,21.51,0,43.02,0,64.53"/>
		<path class="st15" d="M551.99,397.19c12.23,9,24.46,18,36.7,26.99c-0.42,19.54-0.84,39.09-1.27,58.63"/>
		<path class="st14" d="M231.64,431.14c0,14.62,0,29.24,0,43.87"/>
		<path class="st16" d="M680.64,425.45c12.37,19.68,24.74,39.37,37.12,59.05"/>
		<path class="st16" d="M587,426.71c16.03,18.84,32.06,37.68,48.08,56.52c14.76-19.27,29.53-38.53,44.29-57.8"/>
		<path class="st16" d="M469.32,478.45c-22.5-21.93-44.99-43.87-67.49-65.8"/>
		<path class="st16" d="M434.74,479.44c0-22.22,0-44.44,0-66.66"/>
	</g>
	<g class="st4">
		<path class="st17" d="M908.58,370.54c-0.1,7.55-0.21,15.09-0.31,22.64c8.6,0.12,17.19,0.24,25.79,0.36
			c-0.14,10.06-0.28,20.13-0.42,30.19c8.6,0.12,17.2,0.24,25.79,0.36c-0.1,7.55-0.21,15.09-0.31,22.64
			c8.8,0.12,17.6,0.24,26.41,0.37c-0.1,6.92-0.19,13.84-0.29,20.75c8.6,0.12,17.19,0.24,25.79,0.36
			c-0.12,9.01-0.25,18.03-0.37,27.04c9.22,0.13,18.45,0.26,27.67,0.38c-0.13,9.02-0.25,18.03-0.38,27.05
			c9.01,0.12,18.03,0.24,27.04,0.37c-0.12,9.01-0.25,18.03-0.37,27.04c9.86,0.14,19.71,0.27,29.57,0.41
			c-0.11,8.18-0.23,16.35-0.34,24.53c8.8,0.12,17.61,0.24,26.41,0.37c-0.12,8.6-0.24,17.2-0.36,25.79
			c9.22,0.13,18.45,0.26,27.67,0.38c-0.15,10.69-0.3,21.38-0.44,32.07c8.82,0.12,17.63,0.24,26.45,0.37
			c-0.1,7.55-0.21,15.1-0.31,22.64c-189.08-4.72-378.16-9.44-567.24-14.16c-50.79,3.07-101.57,6.14-152.36,9.21
			c0.1-6.92,0.19-13.84,0.29-20.76c6.92-0.11,13.84-0.22,20.76-0.33c0.11-8.18,0.23-16.35,0.34-24.53
			c6.94-1.79,13.89-3.58,20.83-5.37c0.1-6.92,0.19-13.84,0.29-20.75c7.4-4.09,14.79-8.18,22.19-12.27c0.05-3.77,0.1-7.55,0.16-11.32
			c7.4-4.3,14.8-8.6,22.2-12.9c0.06-3.98,0.11-7.97,0.17-11.95c7.61-4.72,15.23-9.43,22.84-14.15c0.03-2.31,0.06-4.61,0.1-6.92
			c7.42-5.77,14.84-11.54,22.26-17.3c0.06-4.42,0.12-8.84,0.18-13.27c7.82-4.48,15.64-8.97,23.46-13.45
			c0.04-2.73,0.08-5.47,0.11-8.2c7.85-6.59,15.7-13.19,23.55-19.78c-0.54-2.87-0.32-5.2,0.1-6.95c2.06-8.69,11.68-15.25,24.14-17.25
			c0.07-5.04,0.14-10.07,0.21-15.11c7.61-4.08,15.21-8.17,22.82-12.25c0.03-2.52,0.07-5.03,0.1-7.55
			c19.21-9.38,38.42-18.76,57.63-28.14C795.11,357.64,851.85,364.09,908.58,370.54z"/>
		<path class="st18" d="M910.54,365.53c-0.06,4.62-0.13,9.23-0.19,13.85c-59.04-6.27-118.09-12.55-177.13-18.82
			c-17.93,7.51-35.85,15.02-53.78,22.53c0.07-4.82,0.13-9.64,0.2-14.47c17.93-7.93,35.87-15.86,53.8-23.79
			C792.47,351.73,851.5,358.63,910.54,365.53z"/>
		<path class="st18" d="M935.36,389.78c-0.07,4.82-0.13,9.64-0.2,14.47c-70.78-7.06-141.55-14.12-212.33-21.19
			c-22.56,8.7-45.11,17.41-67.67,26.11c0.06-4.61,0.13-9.22,0.19-13.84c22.36-9.55,44.72-19.09,67.08-28.64
			C793.41,374.39,864.39,382.09,935.36,389.78z"/>
		<path class="st18" d="M961.44,414.67c-0.07,4.82-0.13,9.64-0.2,14.47c-83.14-7.86-166.27-15.72-249.41-23.59
			c-26.77,10.11-53.54,20.23-80.31,30.34c0.07-4.83,0.13-9.65,0.2-14.48c26.57-10.53,53.13-21.06,79.7-31.59
			C794.76,398.1,878.1,406.39,961.44,414.67z"/>
		<path class="st18" d="M986.88,440.19c-0.06,4.61-0.13,9.22-0.19,13.84c-29.53-2.3-59.07-4.59-88.6-6.89
			c-3.37,0.79-6.73,1.58-10.1,2.38c-29.74-2.51-59.48-5.02-89.22-7.53c0.02-1.26,0.03-2.52,0.05-3.77
			c-32.67-2.76-65.34-5.52-98.02-8.28c-30.97,10.47-61.94,20.95-92.91,31.42c0.07-4.82,0.13-9.64,0.2-14.47
			c30.77-11.32,61.54-22.63,92.31-33.95c33.51,2.98,67.02,5.96,100.52,8.94c-0.02,1.26-0.03,2.52-0.05,3.77
			c29.11,2.71,58.22,5.42,87.33,8.13c3.37-1,6.74-2,10.11-3.01C927.83,433.92,957.36,437.05,986.88,440.19z"/>
		<path class="st18" d="M1012.95,465.08c-0.07,4.83-0.13,9.65-0.2,14.48c-29.11-2.3-58.23-4.59-87.34-6.89
			c-3.79,0.79-7.57,1.57-11.36,2.36c-41.68-3.09-83.37-6.19-125.05-9.28c0.01-1.05,0.03-2.1,0.04-3.14
			c-33.51-2.77-67.02-5.54-100.53-8.31c-34.54,10.84-69.08,21.69-103.62,32.53c0.07-4.82,0.13-9.64,0.2-14.47
			c34.34-11.69,68.68-23.37,103.02-35.06c34.35,2.78,68.7,5.57,103.05,8.35c-0.02,1.47-0.04,2.93-0.06,4.4
			c42.1,3.1,84.21,6.2,126.31,9.3c2.52-0.59,5.05-1.19,7.57-1.78C954.31,460.08,983.63,462.58,1012.95,465.08z"/>
		<path class="st18" d="M1039.64,491.24c-0.07,4.82-0.13,9.64-0.2,14.47c-29.33-2.08-58.65-4.17-87.98-6.25
			c-3.36,0.58-6.73,1.16-10.09,1.75c-54.25-3.9-108.51-7.79-162.76-11.69c0.01-0.84,0.02-1.68,0.03-2.52
			c-34.15-2.36-68.29-4.72-102.44-7.08c-38.1,10.79-76.2,21.59-114.31,32.38c0.07-4.82,0.13-9.64,0.2-14.47
			c37.9-11.64,75.81-23.27,113.71-34.91c35.19,2.37,70.39,4.75,105.58,7.12c-0.02,1.47-0.04,2.94-0.06,4.4
			c53.42,3.89,106.83,7.77,160.25,11.66c3.58-0.79,7.15-1.58,10.73-2.37C981.42,486.24,1010.53,488.74,1039.64,491.24z"/>
		<path class="st18" d="M1066.95,517.41c-0.07,4.82-0.13,9.64-0.2,14.47c-29.54-1.67-59.08-3.34-88.63-5
			c-2.94,0.59-5.89,1.18-8.83,1.76c-66.62-4.28-133.24-8.56-199.86-12.83c0.01-1.05,0.03-2.1,0.04-3.14
			c-35.41-1.96-70.82-3.92-106.23-5.88c-41.24,10.12-82.48,20.24-123.71,30.37c0.07-4.82,0.13-9.64,0.2-14.47
			c41.25-11.17,82.51-22.34,123.76-33.51c35.83,2.17,71.65,4.35,107.48,6.52c-0.02,1.26-0.03,2.52-0.05,3.77
			c66.62,4.49,133.23,8.98,199.85,13.46c2.74-0.8,5.47-1.6,8.21-2.4C1008.31,512.83,1037.63,515.12,1066.95,517.41z"/>
		<path class="st18" d="M1096.78,544.25c-0.07,4.83-0.13,9.65-0.2,14.48c-35.62-1.76-71.24-3.51-106.87-5.27
			c-3.99,0.36-7.98,0.73-11.97,1.09c-66.84-3.86-133.67-7.72-200.51-11.59c0.01-0.63,0.02-1.26,0.03-1.89
			c-42.53-2.27-85.07-4.53-127.6-6.8c-44.37,9.24-88.74,18.48-133.11,27.72c0.07-4.82,0.13-9.64,0.2-14.47
			c44.39-10.29,88.77-20.58,133.16-30.87c43.16,2.28,86.33,4.55,129.49,6.83c-0.01,1.05-0.03,2.1-0.04,3.14
			c66.21,3.85,132.41,7.71,198.62,11.56c3.78-0.37,7.56-0.73,11.34-1.1C1025.13,539.48,1060.95,541.86,1096.78,544.25z"/>
		<path class="st18" d="M1017.24,564.53c35.62,1.96,71.24,3.92,106.86,5.88c-0.07,4.82-0.13,9.64-0.2,14.47
			c-35.63-1.33-71.26-2.67-106.88-4c-3.99,0.57-7.98,1.15-11.98,1.72c-79.62-4.04-159.25-8.08-238.87-12.12
			c0.01-0.63,0.02-1.26,0.03-1.89c-43.38-2.07-86.75-4.14-130.13-6.21c-47.08,8.15-94.16,16.31-141.25,24.46
			c0.07-4.82,0.13-9.64,0.2-14.47c47.1-9.2,94.19-18.4,141.29-27.61c44,2.08,88.01,4.16,132.01,6.23c-0.01,1.05-0.03,2.1-0.04,3.14
			c79.2,4.03,158.41,8.07,237.61,12.1C1009.67,565.68,1013.45,565.11,1017.24,564.53z"/>
		<path class="st18" d="M1045.15,592.6c35.42,1.33,70.84,2.66,106.25,3.99c-0.08,5.45-0.15,10.9-0.23,16.35
			c-35.21-1.33-70.42-2.65-105.63-3.98c-4.2,0.15-8.39,0.3-12.59,0.45c-92.63-3.38-185.27-6.76-277.9-10.14
			c0.01-0.63,0.02-1.26,0.03-1.89c-44.43-1.66-88.86-3.33-133.29-4.99c-49.78,6.23-99.56,12.46-149.34,18.69
			c0.06-4.61,0.13-9.22,0.19-13.84c49.8-7.7,99.6-15.39,149.41-23.09c45.27,1.89,90.53,3.77,135.8,5.66
			c-0.01,0.84-0.02,1.68-0.03,2.52c92.21,4,184.41,8.01,276.62,12.01C1038.01,593.76,1041.58,593.18,1045.15,592.6z"/>
		<path class="st18" d="M1074.06,640.18c35.31,0.53,70.31,1.45,105.01,2.71c0.08-5.87,0.16-11.74,0.24-17.61
			c-35.21-1.12-70.42-2.23-105.63-3.35c-3.99,0.36-7.98,0.73-11.97,1.09c-5.66-0.29-11.31-0.58-16.97-0.86
			c-4.62,0.57-9.24,1.13-13.86,1.7c-14.67-0.83-29.33-1.66-44-2.5c-0.08,6.08-0.17,12.16-0.25,18.24
			c14.47-0.22,28.94-0.44,43.41-0.66c4.41-0.15,8.81-0.3,13.22-0.45c6.07,0.5,12.15,1.01,18.22,1.51
			C1065.67,640.05,1069.86,640.11,1074.06,640.18z"/>
		<path class="st18" d="M450.11,635.3c0.06-4.63,0.13-9.26,0.19-13.89c52.08-5.55,104.16-11.1,156.24-16.65
			c46.32,1.48,92.64,2.96,138.96,4.44c-0.01,0.84-0.02,1.68-0.03,2.52c6.5,0.3,12.99,0.6,19.49,0.9c-0.01,0.66-0.02,1.33-0.03,1.99
			c6.5,0.09,13,0.18,19.5,0.27c-0.07,5.21-0.14,10.41-0.22,15.62c-6.71-0.09-13.42-0.19-20.13-0.28c0.01-0.66,0.02-1.33,0.03-1.99
			c-6.5-0.09-13-0.18-19.5-0.27c-0.01,0.66-0.02,1.33-0.03,1.99c-45.9-1.47-91.8-2.95-137.69-4.42
			C554.62,628.78,502.36,632.04,450.11,635.3z"/>
	</g>
	<g class="st4">
		<path class="st19" d="M354.62,470.9c-0.06-0.79-0.22-1.71-0.54-2.7c-1.03-3.14-3.17-5.06-4.32-5.93c-0.02-1-0.16-2.09-0.54-3.24
			c-1.79-5.44-7.42-7.65-8.63-8.09c-0.18-7.01-0.36-14.02-0.54-21.04c-1.08-0.72-2.16-1.44-3.24-2.16
			c-0.36-13.13-0.72-26.25-1.08-39.38c-0.14-0.55-0.43-1.38-1.08-2.16c-0.4-0.47-0.8-0.77-2.16-1.62c-0.7-0.43-1.61-0.99-2.7-1.62
			c-0.54-17.08-1.08-34.16-1.62-51.24c-2.7-1.62-5.39-3.24-8.09-4.85c-0.86,0.09-2.08,0.09-3.24-0.54c-1.07-0.58-1.5-1.37-2.16-2.16
			c-1.27-1.52-2.4-1.87-4.85-3.24c-1.58-0.89-3.83-2.26-6.47-4.32c-0.18-5.57-0.36-11.15-0.54-16.72c-0.36,0.18-0.72,0.36-1.08,0.54
			c-0.36,5.39-0.72,10.79-1.08,16.18c-1.35,1.03-2.5,1.74-3.24,2.16c-4.07,2.34-6.95,2.65-8.63,5.39c-0.28,0.46-0.45,0.86-0.54,1.08
			c-3.24,1.62-6.47,3.24-9.71,4.85c0,17.44,0,34.88,0,52.32c-0.52,0.02-1.32,0.12-2.16,0.54c-1.89,0.95-2.55,2.78-2.7,3.24
			c0,6.29,0,12.59,0,18.88c-0.18,7.19-0.36,14.38-0.54,21.58c-0.72,0.54-1.44,1.08-2.16,1.62c-0.18,5.21-0.36,10.43-0.54,15.64
			c-0.58,0.49-2.12,1.91-2.7,4.32c-0.4,1.65-0.18,3.03,0,3.78c-1.07,0.4-4.39,1.8-6.47,5.39c-1.25,2.16-1.53,4.22-1.6,5.41
			c-0.01,0.18-0.01,0.35-0.02,0.53c-0.82,0.54-2.59,1.88-3.78,4.32c-1.12,2.31-1.13,4.41-1.08,5.39"/>
		<path class="st19" d="M431.22,728.74c19.37,1.77,38.43,3.75,57.18,5.93c1.44,35.6,2.88,71.2,4.32,106.8
			c-76.06,5.21-152.11,10.43-228.17,15.64c-1.08-45.85-2.16-91.7-3.24-137.55C315.5,720.49,372.23,723.36,431.22,728.74z"/>
		<path class="st20" d="M354.62,474.68c0.15-1.12,0.23-2.93-0.54-4.85c-0.98-2.45-2.82-3.83-4.32-4.85
			c-7.26-5-11.87-6.47-11.87-6.47c-12.63-4.05-27.45-4.29-29.67-4.32c-11.96-0.13-19.54,1.27-30.21,3.24c0,0-8.34,1.54-16.18,6.47
			c-2.26,1.43-4.74,3.29-5.93,6.47c-0.25,0.67-1.02,2.78-0.54,5.39c0.89,4.84,5.27,7.21,5.93,7.55
			C292.41,480.43,323.51,477.55,354.62,474.68z"/>
		<path class="st19" d="M272.09,463.89c-2.29,0.69-6.19,1.91-10.25,4.85c-2.56,1.85-3.66,3.29-4.32,4.32
			c-1.74,2.74-2.09,5.48-2.16,7.01c33.62,0.36,67.25,0.72,100.87,1.08c-0.06-2.01-0.49-5.26-2.7-8.09
			c-1.37-1.76-2.88-2.65-4.85-3.78c-6.7-3.82-10.05-5.74-11.87-6.47c-6.58-2.66-12.26-3.11-21.58-3.78
			c-7.97-0.57-15.98-1.1-26.43,0.54C283.76,460.36,279.87,461.54,272.09,463.89z"/>
		<path class="st20" d="M255.37,479.53c1.49-1.46,3.65-3.4,6.47-5.39c1.82-1.28,8.82-6.04,19.96-8.63
			c5.41-1.26,10.26-1.38,19.96-1.62c7.71-0.19,13.35-0.33,21.04,0.54c9.83,1.11,16.72,1.98,23.19,7.01
			c3.17,2.47,5.24,5.15,6.47,7.01C320.1,478.81,287.73,479.17,255.37,479.53z"/>
		<path class="st20" d="M407.48,601.44c-0.12-0.87-0.38-2.25-1.08-3.78c-2.77-6.07-9.96-9.14-25.89-12.41
			c-13.49-2.77-23.75-3.73-24.27-3.78c-18.78-1.7-33.15-1.63-35.06-1.62c-8.72,0.06-49.89,0.55-89.54,9.71
			c-8.59,1.98-23.37,5.82-24.81,14.02c-0.19,1.1-0.11,2.05,0,2.7"/>
		<path class="st19" d="M406.94,600.36c1.26,28.05,2.52,56.1,3.78,84.15c-53.4,14.02-106.8,28.05-160.21,42.07
			c-39.92,3.96-79.83,7.91-119.75,11.87c-0.9,40.46-1.8,80.91-2.7,121.37c-26.43-1.98-52.86-3.96-79.29-5.93
			c-84.15,2.34-168.3,4.67-252.44,7.01c0.36-57.54,0.72-115.07,1.08-172.61c81.81-24.99,163.62-49.99,245.43-74.98
			c29.49,4.67,58.98,9.35,88.46,14.02c25.35-6.65,50.7-13.31,76.06-19.96c0-1.26,0-2.52,0-3.78c0.3-0.45,0.85-1.24,1.62-2.16
			c1.66-1.97,5.14-5.49,11.87-8.09c16.71-6.45,46.93-9.71,46.93-9.71c17.22-1.86,26.04-2.8,36.68-3.24
			c6.08-0.25,12.78-0.52,20.92-0.35c3.71,0.07,6.38,0.21,9.29,0.35c9.2,0.46,16.78,0.83,26.43,2.16c1.67,0.23,9.84,1.37,19.96,3.78
			c4.13,0.98,6.89,1.91,12.41,3.78c4.01,1.35,5.99,2.16,8.09,3.78C404.35,596.05,406.01,598.59,406.94,600.36z"/>
		<path class="st19" d="M388.06,590.11c-0.25-0.95-0.71-2.32-1.62-3.78c-2.17-3.47-5.47-5.17-10.25-7.55
			c-1.21-0.6-2.85-1.37-4.85-2.16c-0.72-22.3-1.44-44.59-2.16-66.89c0.15-0.11,0.35-0.29,0.54-0.54c0.25-0.33,0.87-1.27,0.54-3.78
			c-0.15-1.1-0.52-2.85-1.62-4.85c-0.18-3.78-0.36-7.55-0.54-11.33c-0.68-1.19-1.56-2.48-2.7-3.78c-3.7-4.21-8.11-6.13-10.79-7.01
			c-4.13-2.45-10.34-5.66-18.34-8.09c-9.3-2.83-16.79-3.33-24.27-3.78c-7.8-0.47-14.4-0.87-23.19,0.54
			c-7.15,1.14-13.58,3.64-26.43,8.63c0,0-7.95,3.09-12.95,7.01c-1.89,1.49-3.78,3.24-3.78,3.24c-1.34,1.24-2.43,2.36-3.24,3.24
			c-0.18,4.5-0.36,8.99-0.54,13.49c-0.34,0.45-0.8,1.18-1.08,2.16c-0.42,1.47-0.2,2.69,0,3.78c0.14,0.8,0.44,1.94,1.08,3.24
			c0,22.66,0,45.31,0,67.97c-1.07,0.35-2.57,0.87-4.32,1.62c-2.95,1.26-5.06,2.16-7.01,3.78c-1.27,1.05-3.4,3.17-4.85,7.01"/>
		<path class="st20" d="M281.53,446.9c-0.09-7.28-0.18-14.56-0.27-21.85c0.81,0.27,1.62,0.54,2.43,0.81c0-14.38,0-28.77,0-43.15
			c0.11-0.34,0.5-1.42,1.62-2.16c1.44-0.96,2.98-0.6,3.24-0.54c-0.18-17.98-0.36-35.96-0.54-53.94c3.78,1.98,7.55,3.96,11.33,5.93
			c0.54,28.41,1.08,56.82,1.62,85.23c-2.13-0.14-4.92-0.1-8.09,0.54c-2.1,0.42-3.9,1.02-5.39,1.62c0.18,5.57,0.36,11.15,0.54,16.72
			c-1.26,0.18-2.52,0.36-3.78,0.54c0,1.08,0,2.16,0,3.24c0.36,0,0.72,0,1.08,0c-0.18,2.16-0.36,4.32-0.54,6.47
			c-0.32-0.03-0.68-0.03-1.08,0C282.79,446.43,282.06,446.67,281.53,446.9z"/>
		<path class="st20" d="M331.96,447.17c-0.18-7.19-0.36-14.38-0.54-21.58c-0.9,0.36-1.8,0.72-2.7,1.08
			c-0.36-14.38-0.72-28.77-1.08-43.15c-0.22-0.5-0.55-1.08-1.08-1.62c-1.97-2-4.91-1.68-5.39-1.62c-0.36-17.8-0.72-35.6-1.08-53.4
			c2.7,1.62,5.39,3.24,8.09,4.85c0.54,17.08,1.08,34.16,1.62,51.24c1.47,0.56,3.9,1.78,5.39,4.32c0.21,0.36,0.39,0.72,0.54,1.08
			c0.36,13.13,0.72,26.25,1.08,39.38c1.08,0.72,2.16,1.44,3.24,2.16c0.18,7.01,0.36,14.02,0.54,21.04
			c-1.27-0.72-2.71-1.46-4.32-2.16C334.75,448.12,333.3,447.59,331.96,447.17z"/>
		<path class="st21" d="M309.31,337.13c2.52-1.26,5.03-2.52,7.55-3.78"/>
		<path class="st21" d="M313.36,335.24c0,3.6,0,7.2,0,10.8"/>
		<path class="st21" d="M313.89,351.42c0.31-0.06,1.66-0.29,2.7,0.54c1.07,0.85,1.07,2.24,1.08,3.24c0,0.3-0.03,3.06-2.16,4.85
			c-0.4,0.34-1.09,0.91-2.16,1.08c-0.31,0.05-1.66,0.27-2.7-0.54c-1.43-1.12-1.14-3.3-1.08-3.78c0.24-1.84,1.42-3.03,2.16-3.78
			C312.53,352.23,313.33,351.73,313.89,351.42z"/>
		<path class="st22" d="M460.61,758.14c2.27,0.27,4.12,0.44,5.39,0.54c4.03,0.32,6.31,0.32,9.17,1.62c0.46,0.21,0.83,0.41,1.08,0.54
			"/>
		<path class="st22" d="M461.15,761.91c2.27,0.27,4.12,0.44,5.39,0.54c4.03,0.32,6.31,0.32,9.17,1.62c0.46,0.21,0.83,0.41,1.08,0.54
			"/>
		<path class="st22" d="M461.15,765.69c2.27,0.27,4.12,0.44,5.39,0.54c4.03,0.32,6.31,0.32,9.17,1.62c0.46,0.21,0.83,0.41,1.08,0.54
			"/>
		<path class="st22" d="M461.69,769.47c2.27,0.27,4.12,0.44,5.39,0.54c4.03,0.32,6.31,0.32,9.17,1.62c0.46,0.21,0.83,0.41,1.08,0.54
			"/>
		<path class="st22" d="M307.96,370.3c1.08,2.88,2.16,5.75,3.24,8.63c0.9-3.6,1.8-7.19,2.7-10.79c1.08,2.7,2.16,5.39,3.24,8.09
			c0.72-3.6,1.44-7.19,2.16-10.79"/>
		<path class="st22" d="M317.13,383.25c-1.8,0.9-3.6,1.8-5.39,2.7c0,3.42,0,6.83,0,10.25c1.8-1.08,3.6-2.16,5.39-3.24"/>
		<path class="st22" d="M311.74,413.45c0-3.42,0-6.83,0-10.25c1.44-0.72,2.88-1.44,4.32-2.16c1.05-0.06,1.97,0.65,2.16,1.62
			c0.16,0.84-0.27,1.73-1.08,2.16c-1.8,1.08-3.6,2.16-5.39,3.24"/>
		<path class="st22" d="M314.97,406.44c1.08,1.44,2.16,2.88,3.24,4.32"/>
		<path class="st22" d="M311.74,390.26c1.62-0.72,3.24-1.44,4.85-2.16"/>
		<path class="st20" d="M369.72,510.28c-0.19,0.01-0.32-2.09-0.54-3.24c-1.14-5.96-9.15-9.59-11.87-10.79
			c-19.96-8.78-51.78-8.63-51.78-8.63c-8.4,0.04-25.41,0.46-43.69,5.93c-8.35,2.5-17.15,6.11-19.42,13.49
			c-0.53,1.72-0.58,3.26-0.54,4.32c-0.36,0-0.72,0-1.08,0c-0.24-1.15-0.43-2.88,0-4.85c0.86-3.91,3.63-6.23,5.93-8.09
			c4.14-3.36,8.57-4.75,14.02-6.47c1.84-0.58,3.78-1.08,3.78-1.08c1.62-0.36,3.24-0.72,4.85-1.08c1.4-0.31,4.83-1.07,4.85-1.08
			c2.97-0.66,10.46-2.04,17.26-2.7c7.69-0.74,13.44-0.44,22.12,0c2.32,0.12,17.2,0.93,32.9,4.32c0,0,4.68,1.01,13.49,4.85
			c2.27,0.99,4.85,2.22,7.01,4.85c2.03,2.48,2.58,4.86,2.7,5.39C370.25,507.88,369.92,510.27,369.72,510.28z"/>
		<path class="st20" d="M207.36,606.28c0-0.89,0-1.79,0-2.68c0.3-0.45,0.85-1.24,1.62-2.16c1.66-1.97,5.14-5.49,11.87-8.09
			c16.71-6.45,46.93-9.71,46.93-9.71c17.22-1.86,26.04-2.8,36.68-3.24c6.08-0.25,12.78-0.52,20.92-0.35
			c3.71,0.07,6.38,0.21,9.29,0.35c9.2,0.46,16.78,0.83,26.43,2.16c1.67,0.23,9.84,1.37,19.96,3.78c4.13,0.98,6.89,1.91,12.41,3.78
			c4.01,1.35,5.99,2.16,8.09,3.78c2.81,2.16,4.46,4.71,5.39,6.47c0.02,0.36,0.03,0.73,0.05,1.09l0.49-0.01
			c-0.12-0.87-0.38-2.25-1.08-3.78c-2.77-6.07-9.96-9.14-25.89-12.41c-13.49-2.77-23.75-3.73-24.27-3.78
			c-18.78-1.7-33.15-1.63-35.06-1.62c-8.72,0.06-49.89,0.55-89.54,9.71c-8.59,1.98-23.37,5.82-24.81,14.02
			c-0.19,1.1-0.11,2.05,0,2.7L207.36,606.28z"/>
		<path class="st23" d="M268.31,738.45c0-8.81,0-17.62,0-26.43c-0.54-0.18-1.08-0.36-1.62-0.54c0-5.75,0-11.51,0-17.26
			c-0.07,0.03-0.6,0.26-1.08,0c-0.5-0.27-0.76-0.95-0.54-1.62c0-2.52,0-5.03,0-7.55c2.34-0.72,4.67-1.44,7.01-2.16
			c27.06-0.45,54.12-0.9,81.18-1.35c0.15-0.56,0.44-1.38,1.08-2.16c1.25-1.52,3.14-2.07,9.17-2.7c1.72-0.18,3.91-0.38,6.47-0.54
			c-0.18-0.72-0.36-1.44-0.54-2.16c0.33-0.15,0.89-0.38,1.62-0.54c1.86-0.41,3.38-0.08,3.78,0c2.16,0.43,24.57,3.87,55.56,8.63
			c0.44,0.23,0.66,0.69,0.54,1.08c-0.11,0.37-0.49,0.52-0.54,0.54c-0.18,0-0.36,0-0.54,0c0,2.34,0,4.67,0,7.01c0,2.88,0,5.75,0,8.63
			c0.78,10.71,1.5,21.5,2.16,32.36c0.19,3.06,0.37,6.12,0.54,9.17c-19.06-1.62-38.12-3.24-57.18-4.85
			C339.7,736.83,304.01,737.64,268.31,738.45z"/>
		<path class="st22" d="M381.86,678.84c2.52,0.54,5.03,1.08,7.55,1.62"/>
		<path class="st22" d="M385.64,679.92c0.18,3.6,0.36,7.19,0.54,10.79"/>
		<path class="st20" d="M304.99,774.05c46.21-0.36,92.42-0.72,138.63-1.08c0.18,1.98,0.36,3.96,0.54,5.93
			c5.93-0.18,11.87-0.36,17.8-0.54c-0.54-8.81-1.08-17.62-1.62-26.43c0.06-0.31,0.66-3.45-1.62-5.93c-2.12-2.31-5.02-2.18-5.39-2.16
			c-16.18,1.98-32.36,3.96-48.55,5.93c-4.06,0.18-9.09,0.85-14.56,2.7c-1.96,0.66-3.76,1.4-5.39,2.16
			c-26.97,0.54-53.94,1.08-80.91,1.62C304.28,762.18,304.63,768.12,304.99,774.05z"/>
		<path class="st22" d="M394.27,681c1.88,0.05,3.55,3.25,3.24,5.93c-0.25,2.09-1.77,4.43-3.24,4.33c-0.99-0.07-1.64-1.24-2.16-2.17
			c-0.36-0.65-1.9-3.42-0.54-5.93C391.73,682.87,392.8,680.96,394.27,681z"/>
		<path class="st22" d="M399.66,682.08c0.9,3.24,1.8,6.47,2.7,9.71c0.36-3.06,0.72-6.11,1.08-9.17c0.9,3.24,1.8,6.47,2.7,9.71
			c0.36-3.06,0.72-6.11,1.08-9.17"/>
		<path class="st22" d="M414.76,684.24c-1.44-0.18-2.88-0.36-4.32-0.54c0.18,3.24,0.36,6.47,0.54,9.71
			c1.62,0.18,3.24,0.36,4.85,0.54"/>
		<path class="st22" d="M410.99,688.55c1.44,0.18,2.88,0.36,4.32,0.54"/>
		<path class="st22" d="M419.62,695.57c-0.18-3.42-0.36-6.83-0.54-10.25c1.65-0.65,3.54,0.07,4.32,1.62
			c0.75,1.47,0.3,3.32-1.08,4.32c-0.9,0-1.8,0-2.7,0"/>
		<path class="st22" d="M421.78,691.25c0.9,1.62,1.8,3.24,2.7,4.85"/>
		<path class="st19" d="M430.14,700.15c-18.34-2.34-36.68-4.67-55.02-7.01c-32.72,0.36-65.45,0.72-98.17,1.08
			c-0.18,11.51-0.36,23.01-0.54,34.52c33.08-0.54,66.17-1.08,99.25-1.62c18.52,1.8,37.04,3.6,55.56,5.39
			C430.86,721.73,430.5,710.94,430.14,700.15z"/>
		<path class="st20" d="M267.77,713.1c-20.32-1.98-40.64-3.96-60.95-5.93c-25.17,3.6-50.35,7.19-75.52,10.79
			c-1.08,47.29-2.16,94.58-3.24,141.87c24.99,2.7,49.99,5.39,74.98,8.09c21.04-3.42,42.07-6.83,63.11-10.25
			C266.7,809.47,267.24,761.28,267.77,713.1z"/>
		<path class="st22" d="M304.72,758.14c22.97-0.94,46.72-1.51,71.2-1.62c25.43-0.11,50.08,0.28,73.9,1.08"/>
		<path class="st22" d="M305.26,762.45c23.98-0.98,48.81-1.55,74.44-1.62c23.9-0.06,47.11,0.33,69.58,1.08"/>
		<path class="st22" d="M304.72,767.31c23.15-1.54,47.64-2.52,73.36-2.7c25.31-0.18,49.44,0.44,72.28,1.62"/>
		<path class="st22" d="M305.26,771.62c24.17-1.06,48.99-1.8,74.44-2.16c24.12-0.34,47.68-0.32,70.66,0"/>
		<path class="st22" d="M445.51,776.48c3.24-0.18,6.47-0.36,9.71-0.54c-0.54-8.09-1.08-16.18-1.62-24.27
			c-0.62-0.71-1.85-1.91-3.78-2.7c-2.64-1.08-4.99-0.73-5.93-0.54c-16.9,1.44-33.8,2.88-50.7,4.32"/>
	</g>
	<g class="st4">
		<path class="st24" d="M1288.58,269.32c-1.32,7.22,0.61,13.5,0.61,13.5c1.4,4.54,3.8,7.83,5.52,9.82
			c38,28.08,132.84,90.25,258.93,92.65c39.05,0.74,115.21,2.19,187.14-45.4c16.63-11,29.13-22.05,37.43-30.06
			c3.89-1.78,10.08-5.35,11.04-11.04c1.26-7.48-7.18-14.48-10.43-17.18c-74.2-61.58-251.56-59.52-251.56-59.52
			C1332.47,224.34,1289.93,261.93,1288.58,269.32z"/>
		<path class="st25" d="M1288.58,269.01c5.07-15.23,14.04-37.2,29.84-59.18c4.77-6.63,21.22-28.64,55.42-51.04
			c54.06-35.4,104.89-40.61,130.32-42.9c37.13-3.35,64.46,0.94,96.22,5.92c36.65,5.75,63.8,10.28,96.22,28.85
			c21.01,12.04,42.01,24.44,59.07,52.52c18.32,30.15,22.17,62.04,23.14,78.41c-59.38-19.76-136.35-38.28-226.85-42.54
			C1445.29,234.04,1355.09,250.52,1288.58,269.01z"/>
		<path class="st26" d="M1567.44,227.29c-2.25,122.3-4.5,244.61-6.75,366.91"/>
		<path class="st26" d="M1467.43,199.68c-2.25,122.3-4.5,244.61-6.75,366.91"/>
		<path class="st26" d="M1387.67,211.95c-2.25,122.3-4.5,244.61-6.75,366.91"/>
		<path class="st26" d="M1332.45,242.63c-2.25,122.3-4.5,244.61-6.75,366.91"/>
		<path class="st27" d="M1307.29,249.99c-2.25,122.3-4.5,244.61-6.75,366.91"/>
		<path class="st26" d="M1656.41,235.88c-2.25,122.3-4.5,244.61-6.75,366.91"/>
		<path class="st26" d="M1721.45,250.6c-2.25,122.3-4.5,244.61-6.75,366.91"/>
		<path class="st26" d="M1765.62,254.29c-2.25,122.3-4.5,244.61-6.75,366.91"/>
		<path class="st28" d="M1468.96,249.68c32.52,62.79,65.04,125.58,97.56,188.37"/>
		<path class="st28" d="M1567.14,255.82c-35.59,59.72-71.17,119.44-106.76,179.16"/>
		<path class="st28" d="M1567.14,260.12c28.43,56.04,56.86,112.08,85.29,168.12"/>
		<path class="st28" d="M1655.49,271.16c-29.66,51.34-59.31,102.67-88.97,154.01"/>
		<path class="st28" d="M1657.33,279.14c21.27,53.58,42.54,107.17,63.81,160.75"/>
		<path class="st28" d="M1717.46,284.04c-21.47,49.09-42.95,98.17-64.42,147.26"/>
		<path class="st28" d="M1761.02,309.2c-13.29,43.56-26.59,87.13-39.88,130.69"/>
		<path class="st28" d="M1724.82,290.18c13.09,42.95,26.18,85.9,39.27,128.85"/>
		<path class="st28" d="M1467.74,261.34c-28.63,54.2-57.27,108.4-85.9,162.6"/>
		<path class="st28" d="M1391.66,265.64c22.91,49.9,45.81,99.81,68.72,149.71"/>
		<path class="st28" d="M1333.98,272.39c16.57,47.24,33.13,94.49,49.7,141.73"/>
		<path class="st28" d="M1387.36,273.61c-17.59,47.24-35.18,94.49-52.77,141.73"/>
		<path class="st28" d="M1329.07,405.53c-7.36-39.68-14.73-79.35-22.09-119.03"/>
		<path class="st28" d="M1333.37,281.59c-9.2,33.75-18.41,67.49-27.61,101.24"/>
		<path class="st28" d="M1764.09,447.25c-79.22-7.73-166.98-12.28-261.99-11.04c-71.23,0.93-138.09,5-200.02,11.04"/>
		<path class="st28" d="M1465.9,419.64c32.52,62.79,65.04,125.58,97.56,188.37"/>
		<path class="st28" d="M1564.07,425.78c-35.59,59.72-71.17,119.44-106.76,179.16"/>
		<path class="st28" d="M1564.07,430.07c28.43,56.04,56.86,112.08,85.29,168.12"/>
		<path class="st28" d="M1652.42,441.12c-29.66,51.34-59.31,102.67-88.97,154.01"/>
		<path class="st28" d="M1654.26,449.09c21.27,53.58,42.54,107.17,63.81,160.75"/>
		<path class="st28" d="M1714.39,454c-21.47,49.09-42.95,98.17-64.42,147.26"/>
		<path class="st28" d="M1757.96,479.16c-13.29,43.56-26.59,87.13-39.88,130.69"/>
		<path class="st28" d="M1721.75,460.14c13.09,42.95,26.18,85.9,39.27,128.85"/>
		<path class="st28" d="M1464.67,431.3c-28.63,54.2-57.27,108.4-85.9,162.6"/>
		<path class="st28" d="M1388.59,435.6c22.91,49.9,45.81,99.81,68.72,149.71"/>
		<path class="st28" d="M1330.91,442.34c16.57,47.24,33.13,94.49,49.7,141.73"/>
		<path class="st28" d="M1384.29,443.57c-17.59,47.24-35.18,94.49-52.77,141.73"/>
		<path class="st28" d="M1326,575.49c-7.36-39.68-14.73-79.35-22.09-119.03"/>
		<path class="st28" d="M1330.3,451.55c-9.2,33.75-18.41,67.49-27.61,101.24"/>
		<g>
			<path class="st29" d="M1534.11,150.95c1.69-1.16,3.24-1.66,4.3-1.9c1.43-0.33,2.82-0.64,3.56,0.11c0.98,0.99,0.16,3.16,0.07,3.39
				c-0.65,1.67-1.66,1.74-3,3.81c-0.29,0.44-1.73,2.68-1.12,3.36c0.46,0.51,1.94,0,2.9-0.59c1.51-0.92,2.2-2.31,2.46-2.81
				c0.83-1.57,2.36-3.72,5.44-6.11"/>
			<path class="st29" d="M1553.05,149.92c0.06,0.82,0.05,2.01-0.27,3.38c-0.37,1.58-0.97,2.66-1.46,3.52c-1.24,2.16-2,3.5-3.33,3.63
				c-0.98,0.1-1.99-0.5-2.51-1.26c-0.79-1.17-0.33-2.61,0.12-4.07c0.35-1.12,1.11-2.95,2.86-4.83"/>
			<path class="st29" d="M1556.87,158.34c0.27-0.17,0.75-0.53,1.05-1.16c0.3-0.62,0.52-1.68,0.06-2.03
				c-0.46-0.35-1.36,0.16-1.88,0.45c-0.59,0.33-1.92,1.09-2.29,2.64c-0.08,0.32-0.4,1.72,0.43,2.56c0.84,0.84,2.25,0.52,2.7,0.42
				c0.41-0.09,1.13-0.32,2.94-1.95c2.16-1.94,1.86-2.26,3.32-3.29c1.13-0.79,1.75-0.91,2.26-1.8c0.5-0.87,0.68-2.08,0.24-2.37
				c-0.42-0.28-1.32,0.38-1.89,0.79c-0.59,0.43-1.62,1.19-2.29,2.64c-0.17,0.38-1.22,2.68-0.14,4.74c0.22,0.42,0.69,1.32,1.65,1.58
				c1.08,0.29,2.19-0.4,2.75-1.1c0.41-0.52,0.25-0.69,0.73-1.67c0.44-0.9,0.95-1.93,1.94-2.32c0.91-0.35,1.85-0.01,2.37,0.24"/>
			<path class="st29" d="M1566.34,159.31c0.49,0.76,0.96,1.34,1.3,1.74c0.62,0.71,0.83,0.82,0.99,0.88
				c0.24,0.09,0.74,0.19,2.05-0.45c0.68-0.33,1.59-0.78,2.6-1.79c1.13-1.12,1-1.54,1.93-2.15c0.45-0.3,1.39-0.91,2.39-0.61
				c1,0.3,1.46,1.32,1.64,1.75c0.17,0.38,0.46,1.05,0.28,1.87c-0.3,1.4-1.68,1.95-1.76,1.98c-0.15,0.06-1.46,0.54-2.54-0.25
				c-0.72-0.53-0.91-1.31-0.97-1.56c-0.4-1.64,0.79-3.02,0.95-3.19"/>
			<path class="st29" d="M1579.84,161.42c0.57-0.23,1.39-0.62,2.24-1.29c1.55-1.21,1.67-2.46,2.45-2.47
				c0.88-0.01,1.91,1.48,1.78,2.77c-0.14,1.39-1.6,2.33-1.6,2.33c0,0,1.09-0.69,2.11-2.31c1.32-2.11,1.75-3.22,1.96-3.16
				c0.46,0.13-0.84,5.61-0.34,5.76c0.23,0.07,0.59-1.12,1.78-2.66c1.18-1.52,2.58-2.63,2.79-2.46c0.15,0.12-0.46,0.76-0.74,2.01
				c-0.07,0.3-0.51,2.4,0.42,3.07c0.5,0.36,1.18,0.13,2.38-0.27c2.21-0.74,3.54-1.95,4.15-2.59c0.72-0.74,1.47-1.53,1.25-2
				c-0.26-0.53-1.73-0.55-2.72,0.09c-0.99,0.64-1.35,1.87-1.27,2.84c0.02,0.25,0.15,1.79,1.45,2.42c0.97,0.47,2.2,0.24,3.07-0.58"/>
			<path class="st29" d="M1611.89,156.12c-0.59,0.58-1.48,1.63-1.96,3.16c-0.46,1.46-0.79,4.11,0.36,4.76
				c1.07,0.6,2.91-0.79,3.08-0.92c1.53-1.18,1.28-2.34,2.81-3.31c0.4-0.25,1.4-0.88,2.56-0.6c1.06,0.26,1.91,1.19,2.14,2.27
				c0.27,1.3-0.35,2.9-1.63,3.34c-0.94,0.33-1.94-0.07-2.53-0.59c-1.08-0.94-1.34-2.75-0.54-4.43"/>
			<path class="st29" d="M1607.59,158.02c1.98,0,3.96,0.01,5.94,0.01"/>
			<path d="M1459.09,172.16c1.8,0.17,3.61,0.34,5.41,0.5c0.18-0.67,0.4-1.91,0.1-3.39c-0.12-0.61-0.43-2.13-1.6-3.27
				c-1.58-1.55-3.76-1.53-5.38-1.52c-2.58,0.02-4.45,0.93-5.64,1.52c-1.42,0.71-2.56,1.28-3.47,2.61c-1.18,1.72-1.15,3.5-1.14,3.87
				c0.02,0.52,0.08,2.42,1.41,3.77c0.99,1.02,1.63,0.65,4.18,1.82c1.66,0.77,3.01,1.41,3.98,2.84c0.39,0.57,1.04,1.56,0.93,2.91
				c-0.01,0.17-0.19,1.9-1.61,2.83c-1.37,0.9-2.91,0.44-4.24,0.04c-0.94-0.28-1.7-0.51-2.17-1.25c-0.7-1.12-0.18-2.49-0.09-2.72
				c-1.81-0.06-3.62-0.11-5.43-0.17c-0.18,0.54-0.41,1.45-0.24,2.54c0.22,1.5,1.05,2.46,1.77,3.28c0.5,0.57,1.85,2.07,4.15,2.84
				c3.07,1.03,5.75,0.09,7.31-0.46c0.97-0.34,2.11-0.75,3.28-1.77c1.58-1.37,2.22-2.95,2.49-3.66c0.42-1.1,0.89-2.33,0.63-3.88
				c-0.31-1.83-1.45-2.98-2.09-3.63c-0.88-0.89-2.24-1.42-4.84-2.52c-2.17-0.91-2.83-1.05-3.42-1.89c-0.56-0.79-1.04-2.17-0.41-3.24
				c0.87-1.47,3.18-1.15,3.59-1.08c0.28,0.05,2.3,0.39,2.66,1.78C1459.34,171.39,1459.21,171.85,1459.09,172.16z"/>
			<path d="M1467.51,190.74c4.1-8.53,8.21-17.05,12.31-25.58c2.26,0.01,4.52,0.02,6.78,0.04c1.63,8.73,3.26,17.46,4.89,26.18
				c-2.09-0.06-4.18-0.13-6.27-0.19c-0.23-1.87-0.45-3.75-0.68-5.62c-3.05-0.15-6.1-0.3-9.15-0.45c-0.74,2.01-1.48,4.03-2.22,6.04
				C1471.29,191.02,1469.4,190.88,1467.51,190.74z"/>
			<path class="st25" d="M1483.52,180.11c-0.42-2.78-0.85-5.57-1.27-8.35c-1.49,2.61-2.99,5.22-4.48,7.84
				C1479.69,179.77,1481.61,179.94,1483.52,180.11z"/>
			<path d="M1515.37,173.03c1.81,0.11,3.61,0.22,5.42,0.33c-0.13-0.7-0.4-1.73-1.02-2.83c-1.39-2.49-3.57-3.61-4.79-4.22
				c-1.13-0.56-4.09-1.98-7.93-1.26c-0.84,0.16-4.34,0.91-6.91,4.03c-1.71,2.08-2.21,4.23-2.55,5.69c-0.21,0.93-0.63,2.81-0.33,5.25
				c0.31,2.47,1.2,4.2,1.87,5.48c1.05,2.01,1.8,3.43,3.42,4.51c1.69,1.13,3.34,1.23,5.56,1.36c2.53,0.15,5.1,0.3,7.67-1.29
				c2.29-1.42,3.36-3.46,3.69-4.13c0.68-1.41,0.89-2.71,0.96-3.53c-2.04-0.01-4.07-0.01-6.11-0.02c0.02,0.36-0.02,0.96-0.39,1.51
				c-0.34,0.51-0.87,0.82-2.07,1.12c-2.07,0.52-3.44,0.87-4.92,0.19c-1.4-0.64-2.1-1.81-2.47-2.45c-1.31-2.23-1.04-4.54-0.83-6.3
				c0.22-1.84,0.38-3.23,1.49-4.53c1.34-1.57,3.13-1.96,3.8-2.09c0.83-0.17,3.11-0.62,4.89,0.83
				C1514.79,171.47,1515.2,172.47,1515.37,173.03z"/>
			<path d="M1525.82,192.17c0.32-8.75,0.65-17.51,0.97-26.26c5.62,0.14,11.24,0.29,16.86,0.43c3.15,1.39,4.91,4.6,4.35,7.6
				c-0.64,3.41-3.96,4.85-4.22,4.96c0.52,0.11,2.76,0.66,3.82,2.66c0.26,0.48,0.39,0.95,0.47,1.37c0.01,3.45,0.02,6.9,0.02,10.35
				c-2.49-0.08-4.98-0.15-7.46-0.23c0.1-3.22,0.2-6.44,0.3-9.66c-0.44-0.52-0.87-1.04-1.31-1.57c-2.2-0.07-4.41-0.13-6.61-0.2
				c-0.22,3.67-0.45,7.34-0.67,11C1530.16,192.47,1527.99,192.32,1525.82,192.17z"/>
			<path class="st25" d="M1533.35,170.43c-0.11,1.86-0.23,3.72-0.34,5.59c2.32-0.04,4.64-0.08,6.96-0.13
				c1.03-0.48,1.67-1.54,1.61-2.66c-0.06-1.09-0.77-2.04-1.79-2.43C1537.64,170.68,1535.49,170.56,1533.35,170.43z"/>
			<path d="M1553.27,192.84c2.64-8.63,5.27-17.25,7.91-25.88c2.31,0.18,4.63,0.37,6.94,0.55c3.18,8.69,6.37,17.38,9.55,26.07
				c-2.03-0.06-4.07-0.12-6.1-0.19c-0.43-1.68-0.86-3.36-1.29-5.04c-3.22-0.1-6.44-0.2-9.66-0.29c-0.56,1.68-1.12,3.36-1.68,5.04
				C1557.06,193.01,1555.17,192.92,1553.27,192.84z"/>
			<path class="st25" d="M1562.33,182.34c2.14,0.18,4.29,0.36,6.43,0.53c-1.21-2.98-2.42-5.95-3.63-8.93
				C1564.2,176.74,1563.26,179.54,1562.33,182.34z"/>
			<path d="M1583.6,193.93c-0.9-8.42-1.81-16.85-2.71-25.27c2.88,0.09,5.76,0.18,8.64,0.26c1.87,5.54,3.73,11.08,5.6,16.62
				c0.51,0.02,1.02,0.03,1.53,0.05c0.34-5.47,0.67-10.95,1.01-16.42c2.71,0.03,5.43,0.05,8.14,0.08c1.26,8.69,2.52,17.38,3.79,26.07
				c-1.7,0-3.39,0.01-5.09,0.01c-0.61-5.96-1.22-11.91-1.83-17.87c-0.68-0.02-1.36-0.04-2.03-0.06c-0.4,5.75-0.8,11.51-1.2,17.26
				c-1.81,0-3.62,0-5.43,0c-1.79-6.05-3.59-12.1-5.38-18.14c-0.56-0.02-1.13-0.03-1.69-0.05c0.72,5.96,1.45,11.92,2.17,17.88
				C1587.27,194.21,1585.44,194.07,1583.6,193.93z"/>
			<path d="M1613.23,170.66c1.49,5.06,2.82,10.83,3.72,17.24c0.44,3.15,0.73,6.16,0.91,9.02c5.42,0.11,10.85,0.22,16.27,0.33
				c0-1.81,0-3.62,0-5.43c-3.9-0.06-7.8-0.12-11.7-0.19c-0.33-2.16-0.66-4.32-0.99-6.48c3.68,0,7.35,0,11.03,0
				c-0.35-1.42-0.7-2.85-1.06-4.27c-3.67-0.22-7.34-0.45-11-0.67c-0.28-1.82-0.57-3.64-0.85-5.45c3.61,0.17,7.23,0.33,10.84,0.5
				c-0.35-1.54-0.7-3.07-1.05-4.61C1623.97,170.65,1618.6,170.66,1613.23,170.66z"/>
			<path d="M1641.32,198.06c-0.24-3.25-0.63-6.73-1.21-10.38c-0.93-5.88-2.2-11.19-3.59-15.88c1.67,0.02,3.33,0.04,5,0.07
				c3.52,5.08,7.04,10.17,10.56,15.25c0.45-0.04,0.91-0.09,1.36-0.13c-1.45-4.51-2.89-9.02-4.34-13.53
				c1.36-0.02,2.71-0.03,4.07-0.05c2.57,6.51,4.72,14.06,5.76,22.56c0.16,1.33,0.29,2.63,0.39,3.91c-1.47-0.04-2.94-0.09-4.41-0.13
				c-3.28-5.64-6.55-11.28-9.83-16.92c0.35,5.16,0.7,10.31,1.06,15.47C1644.53,198.22,1642.92,198.14,1641.32,198.06z"/>
			<path d="M1680.9,179.42c0.22-0.56,0.9-2.27,2.46-2.81c0.22-0.08,0.9-0.28,3.05,0.26c1.27,0.32,2.69,0.68,4.36,1.66
				c1.84,1.08,2.9,2.27,4.29,3.86c1.65,1.89,3.22,3.68,4.38,6.58c1.02,2.55,1.2,4.64,1.33,6.32c0.24,2.91,0.4,4.8-0.71,6.76
				c-0.32,0.57-1.29,2.26-3.31,2.95c-1.99,0.68-3.77-0.04-4.4-0.3c-1.95-0.82-3.05-2.32-4.44-4.55c-2.17-3.47-4.18-6.75-6.07-12.4
				C1680.23,182.96,1680.25,181.05,1680.9,179.42z"/>
			<path d="M1671.24,201.18c-0.26-2.2-0.61-4.51-1.06-6.9c-1.06-5.58-2.49-10.59-4.04-14.96c-2.09-0.18-4.17-0.35-6.26-0.53
				c-0.35-1.48-0.7-2.96-1.05-4.44c4.92,0.09,9.83,0.19,14.75,0.28c0.86,1.5,1.72,2.99,2.58,4.49c-1.56,0.04-3.11,0.07-4.67,0.11
				c1.15,3.81,2.24,7.98,3.18,12.48c0.73,3.52,1.3,6.88,1.73,10.06C1674.68,201.56,1672.96,201.37,1671.24,201.18z"/>
			<path class="st25" d="M1687.09,182.15c1.4-0.88,3.7,0.56,4.38,0.98c4.13,2.58,5.87,7.95,5.4,12.21
				c-0.12,1.06-0.35,3.16-1.64,3.68c-1.15,0.47-2.55-0.56-3.52-1.29c-4-3.01-5.99-8.08-5.72-12.56
				C1686.1,183.05,1686.65,182.43,1687.09,182.15z"/>
			<path class="st30" d="M1520.79,201.18c-0.14-0.27-1.31-2.34-3.73-2.74c-3.14-0.53-5.22,2.29-5.34,2.47
				c-1.44,2.02-1.04,4.28-0.91,5.06c0.11,0.63,0.51,2.75,2.41,4.31c0.53,0.44,1.87,1.54,3.69,1.47c2.05-0.08,3.95-1.64,4.87-3.92"/>
			<path class="st30" d="M1527.17,197.81c-0.09,4.92-0.19,9.83-0.28,14.75"/>
			<path class="st30" d="M1531.37,199.29c3.56,0.11,7.12,0.22,10.68,0.32"/>
			<path class="st30" d="M1536.96,199.46c-0.14,4.69-0.29,9.38-0.43,14.07"/>
			<path class="st30" d="M1544.6,199.02c1.79,2.49,3.58,4.97,5.37,7.46"/>
			<path class="st30" d="M1554.6,199.49c-1.54,2.33-3.08,4.66-4.62,6.98"/>
			<path class="st30" d="M1549.83,205.79c-0.09,2.82-0.17,5.65-0.26,8.47"/>
			<path class="st30" d="M1569.98,201.15c0.22-0.03,2.02-0.25,3.53,0.96c1.11,0.89,1.42,2.03,1.77,3.28
				c0.26,0.96,0.79,2.89,0.01,5.09c-0.33,0.92-1.01,2.85-2.82,3.48c-1.53,0.53-2.97-0.17-3.55-0.45c-1.77-0.86-2.56-2.37-2.96-3.14
				c-0.44-0.85-1.18-2.26-0.89-4.1c0.29-1.88,1.48-3.03,1.97-3.5C1567.63,202.2,1568.53,201.35,1569.98,201.15z"/>
			<path class="st30" d="M1581.26,215.23c0.19-4.4,0.38-8.81,0.57-13.21c1.86,0.06,3.73,0.11,5.59,0.17"/>
			<path class="st30" d="M1581.64,208.29c1.75,0.05,3.5,0.11,5.25,0.16"/>
			<path class="st30" d="M1595.55,202.6c3.33,0.04,6.67,0.09,10,0.13"/>
			<path class="st30" d="M1600.54,217c0.33-2.4,0.57-5.12,0.59-8.12c0.02-2.4-0.11-4.62-0.31-6.62"/>
			<path class="st30" d="M1609.52,217.45c0.08-4.63,0.17-9.27,0.25-13.9c1.98,0.06,3.95,0.12,5.93,0.18
				c1.51,1.12,2.19,2.92,1.73,4.46c-0.38,1.28-1.43,1.96-1.76,2.15c-2.04-0.01-4.07-0.01-6.11-0.02"/>
			<path class="st30" d="M1615.34,210.16c0.54,0.7,1.09,1.39,1.63,2.09c0.06,1.87,0.11,3.73,0.17,5.6"/>
			<path class="st30" d="M1630.03,217.73c-2.48-0.19-4.96-0.38-7.45-0.57c0.07-4.13,0.14-8.25,0.21-12.38
				c2.15,0.01,4.3,0.02,6.44,0.03"/>
			<path class="st30" d="M1622.96,210.39c2.15,0.07,4.29,0.13,6.44,0.2"/>
			<path class="st30" d="M1640.91,205.68c-2.2-0.01-4.41-0.02-6.61-0.03c0.04,4.24,0.08,8.48,0.12,12.72
				c2.26,0.01,4.52,0.02,6.78,0.04"/>
			<path class="st30" d="M1634.29,211.59c2.03,0.06,4.07,0.12,6.1,0.19"/>
			<path class="st30" d="M1645.69,216c-0.02,0.14-0.25,1.9,1.09,3.09c1.12,0.99,2.49,0.83,2.86,0.77c1.33-0.22,2.66-1.22,2.96-2.62
				c0.35-1.63-0.85-2.98-1.25-3.43c-0.9-1.01-1.4-0.78-3.33-2.14c-1.5-1.05-2.55-1.81-2.62-2.96c-0.07-1,0.64-1.75,0.73-1.84
				c0.84-0.86,2.01-0.8,2.4-0.78c1.82,0.1,2.86,1.58,3,1.79c0.4,0.59,0.56,1.17,0.63,1.55"/>
		</g>
	</g>
</g>
<g>
	<path class="st31" d="M1245.85,455.22c-3.88,0.48-7.77,0.95-11.65,1.43c-2.98-19.74-4.98-39.53-5.98-59.38
		c-1.72-34-0.52-68.16,3.58-102.45c1.53,0,3.07,0,4.6,0c-3.47,49.33-1.24,97.7,6.69,145.12
		C1243.94,445.05,1244.86,450.14,1245.85,455.22z"/>
	<path class="st32" d="M1235.88,291.09c-0.96-3.1-2.4-9.27-0.97-16.81c0.14-0.76,1.43-7.24,5.67-13.44
		c9.65-14.11,27.58-16.45,30.71-16.81c-1.73,6.11-4.87,14.5-10.78,23.3C1252.15,279.77,1242.16,287.17,1235.88,291.09z"/>
	<path class="st32" d="M1237.07,290.83c1.67-2.79,5.3-7.98,11.86-11.96c0.66-0.4,6.35-3.77,13.79-4.76
		c16.95-2.25,30.67,9.53,33.03,11.61c-5.7,2.79-14.04,6.07-24.54,7.55C1256.36,295.37,1244.18,292.88,1237.07,290.83z"/>
	<path class="st32" d="M1234.89,291.37c3.16-0.74,9.42-1.75,16.84,0.19c0.75,0.2,7.13,1.93,13.02,6.58
		c13.41,10.6,14.51,28.65,14.66,31.79c-5.97-2.15-14.13-5.85-22.5-12.36C1245.06,308.37,1238.37,297.9,1234.89,291.37z"/>
	<path class="st32" d="M1229.91,292.31c3.11,0.92,9.05,3.14,14.54,8.5c0.55,0.54,5.24,5.21,8.05,12.17
		c6.41,15.85-1.57,32.07-3.01,34.88c-4.13-4.82-9.38-12.08-13.43-21.88C1230.32,312.12,1229.7,299.7,1229.91,292.31z"/>
	<path class="st32" d="M1218.91,345.87c-1.66-2.79-4.52-8.45-4.91-16.11c-0.04-0.77-0.31-7.38,2.35-14.4
		c6.06-15.99,22.93-22.49,25.88-23.57c-0.24,6.34-1.31,15.24-4.99,25.19C1232.05,331.04,1224.08,340.58,1218.91,345.87z"/>
	<path class="st32" d="M1190.18,326.65c-0.08-3.25,0.21-9.58,3.62-16.44c0.34-0.69,3.35-6.58,9.1-11.4
		c13.12-10.97,31.01-8.36,34.12-7.85c-3.32,5.41-8.62,12.64-16.7,19.5C1208.9,320.17,1197.28,324.58,1190.18,326.65z"/>
	<path class="st32" d="M1176.55,291.8c1.98-2.58,6.18-7.32,13.15-10.52c0.7-0.32,6.74-3.02,14.24-3.15
		c17.1-0.29,29.38,12.97,31.48,15.32c-5.98,2.12-14.64,4.42-25.24,4.69C1195.2,298.52,1183.38,294.65,1176.55,291.8z"/>
	<path class="st32" d="M1236.96,293.3c-3.14-0.82-9.15-2.83-14.82-8c-0.57-0.52-5.41-5.03-8.46-11.89
		c-6.94-15.63,0.49-32.11,1.83-34.96c4.29,4.68,9.78,11.76,14.16,21.41C1235.87,273.51,1236.92,285.9,1236.96,293.3z"/>
	<ellipse class="st32" cx="1234.53" cy="293.67" rx="6.31" ry="5.44"/>
</g>
<g>
	<path class="st31" d="M1102.85,638.22c-3.88,0.48-7.77,0.95-11.65,1.43c-2.98-19.74-4.98-39.53-5.98-59.38
		c-1.72-34-0.52-68.16,3.58-102.45c1.53,0,3.07,0,4.6,0c-3.47,49.33-1.24,97.7,6.69,145.12
		C1100.94,628.05,1101.86,633.14,1102.85,638.22z"/>
	<path class="st32" d="M1092.88,474.09c-0.96-3.1-2.4-9.27-0.97-16.81c0.14-0.76,1.43-7.24,5.67-13.44
		c9.65-14.11,27.58-16.45,30.71-16.81c-1.73,6.11-4.87,14.5-10.78,23.3C1109.15,462.77,1099.16,470.17,1092.88,474.09z"/>
	<path class="st32" d="M1094.07,473.83c1.67-2.79,5.3-7.98,11.86-11.96c0.66-0.4,6.35-3.77,13.79-4.76
		c16.95-2.25,30.67,9.53,33.03,11.61c-5.7,2.79-14.04,6.07-24.54,7.55C1113.36,478.37,1101.18,475.88,1094.07,473.83z"/>
	<path class="st32" d="M1091.89,474.37c3.16-0.74,9.42-1.75,16.84,0.19c0.75,0.2,7.13,1.93,13.02,6.58
		c13.41,10.6,14.51,28.65,14.66,31.79c-5.97-2.15-14.13-5.85-22.5-12.36C1102.06,491.37,1095.37,480.9,1091.89,474.37z"/>
	<path class="st32" d="M1086.91,475.31c3.11,0.92,9.05,3.14,14.54,8.5c0.55,0.54,5.24,5.21,8.05,12.17
		c6.41,15.85-1.57,32.07-3.01,34.88c-4.13-4.82-9.38-12.08-13.43-21.88C1087.32,495.12,1086.7,482.7,1086.91,475.31z"/>
	<path class="st32" d="M1075.91,528.87c-1.66-2.79-4.52-8.45-4.91-16.11c-0.04-0.77-0.31-7.38,2.35-14.4
		c6.06-15.99,22.93-22.49,25.88-23.57c-0.24,6.34-1.31,15.24-4.99,25.19C1089.05,514.04,1081.08,523.58,1075.91,528.87z"/>
	<path class="st32" d="M1047.18,509.65c-0.08-3.25,0.21-9.58,3.62-16.44c0.34-0.69,3.35-6.58,9.1-11.4
		c13.12-10.97,31.01-8.36,34.12-7.85c-3.32,5.41-8.62,12.64-16.7,19.5C1065.9,503.17,1054.28,507.58,1047.18,509.65z"/>
	<path class="st32" d="M1033.55,474.8c1.98-2.58,6.18-7.32,13.15-10.52c0.7-0.32,6.74-3.02,14.24-3.15
		c17.1-0.29,29.38,12.97,31.48,15.32c-5.98,2.12-14.64,4.42-25.24,4.69C1052.2,481.52,1040.38,477.65,1033.55,474.8z"/>
	<path class="st32" d="M1093.96,476.3c-3.14-0.82-9.15-2.83-14.82-8c-0.57-0.52-5.41-5.03-8.46-11.89
		c-6.94-15.63,0.49-32.11,1.83-34.96c4.29,4.68,9.78,11.76,14.16,21.41C1092.87,456.51,1093.92,468.9,1093.96,476.3z"/>
	<ellipse class="st32" cx="1091.53" cy="476.67" rx="6.31" ry="5.44"/>
</g>
<g>
	<path class="st31" d="M462.74,824.72c-6.91,0.85-13.81,1.7-20.72,2.54c-5.31-35.1-8.85-70.3-10.63-105.58
		c-3.05-60.46-0.93-121.19,6.36-182.17c2.73,0,5.45,0,8.18,0c-6.17,87.71-2.2,173.72,11.9,258.04
		C459.35,806.63,460.98,815.68,462.74,824.72z"/>
	<path class="st32" d="M445.02,532.88c-1.7-5.52-4.26-16.49-1.73-29.89c0.26-1.35,2.55-12.88,10.09-23.9
		c17.17-25.09,49.04-29.25,54.61-29.89c-3.08,10.86-8.65,25.79-19.17,41.43C473.94,512.76,456.17,525.91,445.02,532.88z"/>
	<path class="st32" d="M447.13,532.41c2.97-4.95,9.42-14.19,21.09-21.26c1.18-0.71,11.29-6.71,24.52-8.46
		c30.14-4,54.53,16.94,58.73,20.65c-10.13,4.97-24.97,10.79-43.63,13.42C481.43,540.48,459.77,536.06,447.13,532.41z"/>
	<path class="st32" d="M443.25,533.38c5.62-1.32,16.75-3.12,29.94,0.33c1.33,0.35,12.68,3.43,23.15,11.71
		c23.85,18.85,25.81,50.93,26.07,56.53c-10.62-3.82-25.13-10.41-40.02-21.98C461.33,563.61,449.43,544.99,443.25,533.38z"/>
	<path class="st32" d="M434.39,535.04c5.54,1.64,16.09,5.58,25.85,15.12c0.98,0.96,9.31,9.26,14.31,21.63
		c11.39,28.19-2.8,57.03-5.35,62.02c-7.34-8.57-16.68-21.49-23.88-38.91C435.14,570.26,434.02,548.19,434.39,535.04z"/>
	<path class="st32" d="M414.84,630.29c-2.95-4.96-8.03-15.02-8.72-28.64c-0.07-1.37-0.56-13.12,4.17-25.6
		c10.77-28.43,40.77-39.98,46.03-41.92c-0.43,11.28-2.33,27.1-8.87,44.78C438.2,603.91,424.04,620.88,414.84,630.29z"/>
	<path class="st32" d="M363.75,596.11c-0.14-5.77,0.37-17.03,6.44-29.24c0.61-1.23,5.95-11.71,16.19-20.27
		c23.33-19.5,55.13-14.86,60.67-13.97c-5.9,9.62-15.32,22.48-29.69,34.68C397.04,584.59,376.37,592.43,363.75,596.11z"/>
	<path class="st32" d="M339.53,534.14c3.52-4.58,10.98-13.02,23.38-18.71c1.25-0.57,11.98-5.37,25.33-5.6
		c30.4-0.52,52.23,23.07,55.98,27.24c-10.64,3.78-26.04,7.86-44.88,8.34C372.67,546.08,351.67,539.21,339.53,534.14z"/>
	<path class="st32" d="M446.93,536.8c-5.59-1.45-16.27-5.03-26.34-14.23c-1.02-0.93-9.62-8.94-15.04-21.13
		c-12.34-27.79,0.87-57.09,3.25-62.17c7.62,8.32,17.4,20.91,25.19,38.08C445,501.62,446.86,523.65,446.93,536.8z"/>
	<ellipse class="st32" cx="442.61" cy="537.47" rx="11.22" ry="9.68"/>
</g>
<g>
	<path class="st31" d="M1820.98,541.67c5.12,0.63,10.24,1.26,15.35,1.89c3.93-26.02,6.56-52.1,7.88-78.25
		c2.26-44.81,0.69-89.81-4.71-135.01c-2.02,0-4.04,0-6.06,0c4.57,65,1.63,128.75-8.82,191.24
		C1823.49,528.26,1822.28,534.97,1820.98,541.67z"/>
	<path class="st32" d="M1834.11,325.38c1.26-4.09,3.16-12.22,1.28-22.15c-0.19-1-1.89-9.55-7.47-17.71
		c-12.72-18.6-36.34-21.68-40.47-22.15c2.28,8.05,6.41,19.11,14.21,30.71C1812.68,310.46,1825.84,320.21,1834.11,325.38z"/>
	<path class="st32" d="M1832.54,325.03c-2.2-3.67-6.98-10.52-15.63-15.76c-0.87-0.53-8.37-4.97-18.17-6.27
		c-22.34-2.96-40.41,12.55-43.52,15.3c7.51,3.68,18.5,8,32.34,9.95C1807.13,331.01,1823.18,327.73,1832.54,325.03z"/>
	<path class="st32" d="M1835.42,325.75c-4.17-0.98-12.41-2.31-22.19,0.25c-0.99,0.26-9.39,2.54-17.15,8.67
		c-17.68,13.97-19.13,37.75-19.32,41.9c7.87-2.83,18.63-7.71,29.66-16.29C1822.02,348.16,1830.84,334.35,1835.42,325.75z"/>
	<path class="st32" d="M1841.98,326.98c-4.1,1.22-11.93,4.14-19.16,11.2c-0.73,0.71-6.9,6.86-10.61,16.03
		c-8.44,20.89,2.08,42.27,3.96,45.97c5.44-6.35,12.36-15.92,17.7-28.83C1841.43,353.09,1842.26,336.72,1841.98,326.98z"/>
	<path class="st32" d="M1856.48,397.57c2.19-3.68,5.95-11.13,6.46-21.23c0.05-1.02,0.41-9.72-3.09-18.97
		c-7.98-21.07-30.21-29.63-34.11-31.07c0.32,8.36,1.73,20.09,6.57,33.19C1839.16,378.02,1849.66,390.6,1856.48,397.57z"/>
	<path class="st32" d="M1894.34,372.24c0.1-4.28-0.27-12.62-4.78-21.67c-0.45-0.91-4.41-8.68-12-15.02
		c-17.29-14.45-40.86-11.01-44.96-10.35c4.38,7.13,11.36,16.66,22,25.7C1869.67,363.7,1884.98,369.51,1894.34,372.24z"/>
	<path class="st32" d="M1912.29,326.32c-2.61-3.39-8.14-9.65-17.33-13.86c-0.93-0.42-8.88-3.98-18.77-4.15
		c-22.53-0.39-38.71,17.1-41.49,20.19c7.88,2.8,19.3,5.83,33.26,6.18C1887.73,335.17,1903.3,330.07,1912.29,326.32z"/>
	<path class="st32" d="M1832.69,328.29c4.14-1.08,12.06-3.73,19.52-10.55c0.75-0.69,7.13-6.62,11.14-15.66
		c9.14-20.59-0.64-42.31-2.41-46.07c-5.65,6.17-12.89,15.5-18.67,28.22C1834.13,302.21,1832.75,318.54,1832.69,328.29z"/>
	<ellipse class="st32" cx="1835.89" cy="328.78" rx="8.32" ry="7.17"/>
</g>
<g>
	<path class="st31" d="M184.51,762.01c6.91,0.85,13.81,1.7,20.72,2.54c5.31-35.1,8.85-70.3,10.63-105.58
		c3.05-60.46,0.93-121.19-6.36-182.17c-2.73,0-5.45,0-8.18,0c6.17,87.71,2.2,173.72-11.9,258.04
		C187.9,743.92,186.27,752.97,184.51,762.01z"/>
	<path class="st32" d="M202.23,470.17c1.7-5.52,4.26-16.49,1.73-29.89c-0.26-1.35-2.55-12.88-10.09-23.9
		c-17.17-25.09-49.04-29.25-54.61-29.89c3.08,10.86,8.65,25.79,19.17,41.43C173.31,450.04,191.08,463.2,202.23,470.17z"/>
	<path class="st32" d="M200.12,469.7c-2.97-4.95-9.42-14.19-21.09-21.26c-1.18-0.71-11.29-6.71-24.52-8.46
		c-30.14-4-54.53,16.94-58.73,20.65c10.13,4.97,24.97,10.79,43.63,13.42C165.82,477.77,187.48,473.34,200.12,469.7z"/>
	<path class="st32" d="M204.01,470.67c-5.62-1.32-16.75-3.12-29.94,0.33c-1.33,0.35-12.68,3.43-23.15,11.71
		c-23.85,18.85-25.81,50.93-26.07,56.53c10.62-3.82,25.13-10.41,40.02-21.98C185.92,500.9,197.82,482.27,204.01,470.67z"/>
	<path class="st32" d="M212.86,472.33c-5.54,1.64-16.09,5.58-25.85,15.12c-0.98,0.96-9.31,9.26-14.31,21.63
		c-11.39,28.19,2.8,57.03,5.35,62.02c7.34-8.57,16.68-21.49,23.88-38.91C212.12,507.55,213.23,485.48,212.86,472.33z"/>
	<path class="st32" d="M232.41,567.57c2.95-4.96,8.03-15.02,8.72-28.64c0.07-1.37,0.56-13.12-4.17-25.6
		c-10.77-28.43-40.77-39.98-46.03-41.92c0.43,11.28,2.33,27.1,8.87,44.78C209.05,541.2,223.22,558.17,232.41,567.57z"/>
	<path class="st32" d="M283.5,533.4c0.14-5.77-0.37-17.03-6.44-29.24c-0.61-1.23-5.95-11.71-16.19-20.27
		c-23.33-19.5-55.13-14.86-60.67-13.97c5.9,9.62,15.32,22.48,29.69,34.68C250.21,521.87,270.88,529.72,283.5,533.4z"/>
	<path class="st32" d="M307.73,471.43c-3.52-4.58-10.98-13.02-23.38-18.71c-1.25-0.57-11.98-5.37-25.32-5.6
		c-30.4-0.52-52.23,23.07-55.98,27.24c10.64,3.78,26.04,7.86,44.88,8.34C274.58,483.37,295.59,476.5,307.73,471.43z"/>
	<path class="st32" d="M200.32,474.09c5.59-1.45,16.27-5.03,26.34-14.23c1.02-0.93,9.62-8.94,15.04-21.13
		c12.34-27.79-0.87-57.09-3.25-62.17c-7.62,8.32-17.4,20.91-25.19,38.08C202.25,438.91,200.39,460.94,200.32,474.09z"/>
	<ellipse class="st32" cx="204.64" cy="474.76" rx="11.22" ry="9.68"/>
</g>
<g>
	<path class="st31" d="M57.51,816.01c6.91,0.85,13.81,1.7,20.72,2.54c5.31-35.1,8.85-70.3,10.63-105.58
		c3.05-60.46,0.93-121.19-6.36-182.17c-2.73,0-5.45,0-8.18,0c6.17,87.71,2.2,173.72-11.9,258.04
		C60.9,797.92,59.27,806.97,57.51,816.01z"/>
	<path class="st32" d="M75.23,524.17c1.7-5.52,4.26-16.49,1.73-29.89c-0.26-1.35-2.55-12.88-10.09-23.9
		c-17.17-25.09-49.04-29.25-54.61-29.89c3.08,10.86,8.65,25.79,19.17,41.43C46.31,504.04,64.08,517.2,75.23,524.17z"/>
	<path class="st32" d="M73.12,523.7c-2.97-4.95-9.42-14.19-21.09-21.26c-1.18-0.71-11.29-6.71-24.52-8.46
		c-30.14-4-54.53,16.94-58.73,20.65c10.13,4.97,24.97,10.79,43.63,13.42C38.82,531.77,60.48,527.34,73.12,523.7z"/>
	<path class="st32" d="M77.01,524.67c-5.62-1.32-16.75-3.12-29.94,0.33c-1.33,0.35-12.68,3.43-23.15,11.71
		C0.07,555.56-1.89,587.64-2.15,593.24c10.62-3.82,25.13-10.41,40.02-21.98C58.92,554.9,70.82,536.27,77.01,524.67z"/>
	<path class="st32" d="M85.86,526.33c-5.54,1.64-16.09,5.58-25.85,15.12c-0.98,0.96-9.31,9.26-14.31,21.63
		c-11.39,28.19,2.8,57.03,5.35,62.02c7.34-8.57,16.68-21.49,23.88-38.91C85.12,561.55,86.23,539.48,85.86,526.33z"/>
	<path class="st32" d="M105.41,621.57c2.95-4.96,8.03-15.02,8.72-28.64c0.07-1.37,0.56-13.12-4.17-25.6
		c-10.77-28.43-40.77-39.98-46.03-41.92c0.43,11.28,2.33,27.1,8.87,44.78C82.05,595.2,96.22,612.17,105.41,621.57z"/>
	<path class="st32" d="M156.5,587.4c0.14-5.77-0.37-17.03-6.44-29.24c-0.61-1.23-5.95-11.71-16.19-20.27
		c-23.33-19.5-55.13-14.86-60.67-13.97c5.9,9.62,15.32,22.48,29.69,34.68C123.21,575.87,143.88,583.72,156.5,587.4z"/>
	<path class="st32" d="M180.73,525.43c-3.52-4.58-10.98-13.02-23.38-18.71c-1.25-0.57-11.98-5.37-25.33-5.6
		c-30.4-0.52-52.23,23.07-55.98,27.24c10.64,3.78,26.04,7.86,44.88,8.34C147.58,537.37,168.59,530.5,180.73,525.43z"/>
	<path class="st32" d="M73.32,528.09c5.59-1.45,16.27-5.03,26.34-14.23c1.02-0.93,9.62-8.94,15.04-21.13
		c12.34-27.79-0.87-57.09-3.25-62.17c-7.62,8.32-17.4,20.91-25.19,38.08C75.25,492.91,73.39,514.94,73.32,528.09z"/>
	<ellipse class="st32" cx="77.64" cy="528.76" rx="11.22" ry="9.68"/>
</g>
<rect x="1213" y="35.87" class="st33" width="655.09" height="211.3"/>
<text transform="matrix(1 0 0 1 1213 69.2437)" class="st0 st34 st35">Bold, Believing, Baptising</text>
<g id="Front_Row_Trees" class="st0">
	<g class="st4">
		<path class="st36" d="M983.26,910.07c3.94,1.35,10.02,2.93,17.57,2.93c4.16,0,10.43-0.48,17.57-2.93
			c-4.37-19.66-9.4-54.75,0-96.61c7.03-31.31,19.59-55.06,29.28-70.26c-4.62,3.84-10.99,9.65-17.57,17.57
			c-14.41,17.35-17.17,29.62-20.49,29.28c-4.31-0.45-7.9-21.93-5.86-108.32c-7.15,27.46-10.22,49.86-11.71,64.41
			c-3.89,38.02-0.57,57.15-2.93,102.46C987.71,875.63,985.05,897.24,983.26,910.07z"/>
		<circle class="st37" cx="977.4" cy="614.39" r="105.39"/>
		
			<ellipse transform="matrix(0.5 -0.866 0.866 0.5 -82.4008 1279.2772)" class="st37" cx="1066.69" cy="711" rx="58.55" ry="80.51"/>
		
			<ellipse transform="matrix(0.5 -0.866 0.866 0.5 -82.4008 1279.2772)" class="st38" cx="1066.69" cy="711" rx="45.01" ry="61.89"/>
		<circle class="st38" cx="977.4" cy="614.39" r="87.83"/>
	</g>
	<g class="st4">
		<path class="st36" d="M781.26,883.07c3.94,1.35,10.02,2.93,17.57,2.93c4.16,0,10.43-0.48,17.57-2.93
			c-4.37-19.66-9.4-54.75,0-96.61c7.03-31.31,19.59-55.06,29.28-70.26c-4.62,3.84-10.99,9.65-17.57,17.57
			c-14.41,17.35-17.17,29.62-20.49,29.28c-4.31-0.45-7.9-21.93-5.86-108.32c-7.15,27.46-10.22,49.86-11.71,64.41
			c-3.89,38.02-0.57,57.15-2.93,102.46C785.71,848.63,783.05,870.24,781.26,883.07z"/>
		<circle class="st37" cx="775.4" cy="587.39" r="105.39"/>
		
			<ellipse transform="matrix(0.5 -0.866 0.866 0.5 -160.0176 1090.8405)" class="st37" cx="864.69" cy="684" rx="58.55" ry="80.51"/>
		
			<ellipse transform="matrix(0.5 -0.866 0.866 0.5 -160.0176 1090.8405)" class="st38" cx="864.69" cy="684" rx="45.01" ry="61.89"/>
		<circle class="st38" cx="775.4" cy="587.39" r="87.83"/>
	</g>
	<g class="st4">
		<path class="st37" d="M36.36,757.97c1.68-42.93,50.53-73.43,93.24-72.26c44.7,1.22,88.71,37.28,88.58,74.59
			c-0.16,46.27-68.18,88.18-121.21,72.26C66.71,823.48,34.96,793.65,36.36,757.97z"/>
		<path class="st39" d="M46.16,758.28c1.5-38.3,45.08-65.51,83.19-64.47c39.88,1.09,79.14,33.26,79.03,66.55
			c-0.14,41.28-60.83,78.68-108.14,64.47C73.24,816.72,44.91,790.11,46.16,758.28z"/>
		<path class="st31" d="M92.31,939.79c4.85,7.51,13.36,11.2,20.98,9.32c7.33-1.8,10.95-8.04,11.65-9.32
			c-3.67-38.47-6.82-78.11-9.32-118.88c-2.05-33.35-3.58-65.99-4.66-97.9c-3.11,0.78-6.22,1.55-9.32,2.33
			c-1.55,29.53-3.11,59.05-4.66,88.58c-3.08-2.88-6.2-5.99-9.32-9.32c-9.68-10.35-17.3-20.73-23.31-30.3
			c2.58,11.19,7.73,26.53,18.65,41.96c3.84,5.43,7.83,10.06,11.65,13.99C93.86,866.75,93.08,903.27,92.31,939.79z"/>
		<path class="st37" d="M82.98,760.3c9.05-32.14-18.42-66.87-48.95-67.6c-33.04-0.79-60.68,38.47-51.28,69.93
			c5.5,18.41,23.21,32.54,43.12,34.96C51.5,800.71,76.33,783.9,82.98,760.3z"/>
		<path class="st39" d="M75.96,758.21c7.79-27.64-15.85-57.51-42.1-58.14c-28.42-0.68-52.19,33.08-44.11,60.15
			c4.73,15.84,19.96,27.99,37.09,30.07C48.89,792.96,70.24,778.5,75.96,758.21z"/>
		
			<ellipse transform="matrix(0.3005 -0.9538 0.9538 0.3005 -563.3337 588.0463)" class="st37" cx="119.25" cy="678.09" rx="67.44" ry="94.06"/>
		
			<ellipse transform="matrix(0.3005 -0.9538 0.9538 0.3005 -563.3337 588.0463)" class="st39" cx="119.25" cy="678.09" rx="59.25" ry="82.64"/>
	</g>
	<g class="st4">
		<path class="st37" d="M456.36,806.97c1.68-42.93,50.53-73.43,93.24-72.26c44.7,1.22,88.71,37.28,88.58,74.59
			c-0.16,46.27-68.18,88.18-121.21,72.26C486.71,872.48,454.96,842.65,456.36,806.97z"/>
		<path class="st39" d="M466.16,807.28c1.5-38.3,45.08-65.51,83.19-64.47c39.88,1.09,79.14,33.26,79.03,66.55
			c-0.14,41.28-60.83,78.68-108.14,64.47C493.24,865.72,464.91,839.11,466.16,807.28z"/>
		<path class="st31" d="M512.31,988.79c4.85,7.51,13.36,11.2,20.98,9.32c7.33-1.8,10.95-8.04,11.65-9.32
			c-3.67-38.47-6.82-78.11-9.32-118.88c-2.05-33.35-3.58-65.99-4.66-97.9c-3.11,0.78-6.22,1.55-9.32,2.33
			c-1.55,29.53-3.11,59.05-4.66,88.58c-3.08-2.88-6.2-5.99-9.32-9.32c-9.68-10.35-17.3-20.73-23.31-30.3
			c2.58,11.19,7.73,26.53,18.65,41.96c3.84,5.43,7.83,10.06,11.65,13.99C513.86,915.75,513.08,952.27,512.31,988.79z"/>
		<path class="st37" d="M502.98,809.3c9.05-32.14-18.42-66.87-48.95-67.6c-33.04-0.79-60.68,38.47-51.28,69.93
			c5.5,18.41,23.21,32.54,43.12,34.96C471.5,849.71,496.33,832.9,502.98,809.3z"/>
		<path class="st39" d="M495.96,807.21c7.79-27.64-15.85-57.51-42.1-58.14c-28.42-0.68-52.19,33.08-44.11,60.15
			c4.73,15.84,19.96,27.99,37.09,30.07C468.89,841.96,490.24,827.5,495.96,807.21z"/>
		
			<ellipse transform="matrix(0.3005 -0.9538 0.9538 0.3005 -316.285 1022.9075)" class="st37" cx="539.25" cy="727.09" rx="67.44" ry="94.06"/>
		
			<ellipse transform="matrix(0.3005 -0.9538 0.9538 0.3005 -316.285 1022.9075)" class="st39" cx="539.25" cy="727.09" rx="59.25" ry="82.64"/>
	</g>
	<g class="st4">
		<path class="st37" d="M1261.36,739.97c1.68-42.93,50.53-73.43,93.24-72.26c44.7,1.22,88.71,37.28,88.58,74.59
			c-0.16,46.27-68.18,88.18-121.21,72.26C1291.71,805.48,1259.96,775.65,1261.36,739.97z"/>
		<path class="st39" d="M1271.16,740.28c1.5-38.3,45.08-65.51,83.19-64.47c39.88,1.09,79.14,33.26,79.03,66.55
			c-0.14,41.28-60.83,78.68-108.14,64.47C1298.24,798.72,1269.91,772.11,1271.16,740.28z"/>
		<path class="st31" d="M1317.31,921.79c4.85,7.51,13.36,11.2,20.98,9.32c7.33-1.8,10.95-8.04,11.66-9.32
			c-3.67-38.47-6.82-78.11-9.32-118.88c-2.05-33.35-3.58-65.99-4.66-97.9c-3.11,0.78-6.22,1.55-9.32,2.33
			c-1.55,29.53-3.11,59.05-4.66,88.58c-3.08-2.88-6.2-5.99-9.32-9.32c-9.68-10.35-17.3-20.73-23.31-30.3
			c2.58,11.19,7.73,26.53,18.65,41.96c3.84,5.43,7.83,10.06,11.66,13.99C1318.86,848.75,1318.08,885.27,1317.31,921.79z"/>
		<path class="st37" d="M1307.98,742.3c9.05-32.14-18.42-66.87-48.95-67.6c-33.04-0.79-60.68,38.47-51.28,69.93
			c5.5,18.41,23.21,32.54,43.12,34.96C1276.5,782.71,1301.33,765.9,1307.98,742.3z"/>
		<path class="st39" d="M1300.96,740.21c7.79-27.64-15.85-57.51-42.1-58.14c-28.42-0.68-52.19,33.08-44.11,60.15
			c4.73,15.84,19.96,27.99,37.09,30.07C1273.89,774.96,1295.24,760.5,1300.96,740.21z"/>
		
			<ellipse transform="matrix(0.3005 -0.9538 0.9538 0.3005 310.7035 1743.8325)" class="st37" cx="1344.25" cy="660.09" rx="67.44" ry="94.06"/>
		
			<ellipse transform="matrix(0.3005 -0.9538 0.9538 0.3005 310.7035 1743.8325)" class="st39" cx="1344.25" cy="660.09" rx="59.25" ry="82.64"/>
	</g>
	<g class="st4">
		<path class="st37" d="M749.4,731.7c-1.84-46.8-55.08-80.04-101.64-78.77c-48.73,1.33-96.7,40.64-96.56,81.32
			c0.18,50.44,74.33,96.13,132.14,78.77C716.32,803.11,750.93,770.6,749.4,731.7z"/>
		<path class="st39" d="M738.72,732.04c-1.64-41.75-49.14-71.41-90.68-70.28c-43.48,1.19-86.28,36.26-86.15,72.55
			c0.16,45,66.31,85.77,117.89,70.28C709.2,795.75,740.08,766.74,738.72,732.04z"/>
		<path class="st31" d="M688.42,929.9c-5.29,8.19-14.57,12.21-22.87,10.16c-7.99-1.97-11.93-8.77-12.71-10.16
			c4-41.94,7.43-85.16,10.16-129.6c2.24-36.35,3.91-71.94,5.08-106.73c3.39,0.85,6.78,1.69,10.16,2.54
			c1.69,32.19,3.39,64.37,5.08,96.56c3.36-3.14,6.76-6.53,10.16-10.16c10.55-11.28,18.86-22.6,25.41-33.03
			c-2.82,12.19-8.43,28.92-20.33,45.74c-4.19,5.92-8.53,10.97-12.71,15.25C686.72,850.28,687.57,890.09,688.42,929.9z"/>
		<path class="st37" d="M698.58,734.24c-9.87-35.03,20.08-72.89,53.36-73.69c36.02-0.86,66.15,41.93,55.9,76.23
			c-6,20.07-25.3,35.48-47.01,38.12C732.89,778.29,705.83,759.96,698.58,734.24z"/>
		<path class="st39" d="M706.23,731.96c-8.49-30.13,17.27-62.7,45.9-63.38c30.98-0.74,56.89,36.07,48.08,65.57
			c-5.16,17.27-21.76,30.51-40.43,32.78C735.75,769.85,712.47,754.08,706.23,731.96z"/>
		
			<ellipse transform="matrix(0.9538 -0.3005 0.3005 0.9538 -163.2536 227.8493)" class="st37" cx="659.05" cy="644.62" rx="102.54" ry="73.52"/>
		
			<ellipse transform="matrix(0.9538 -0.3005 0.3005 0.9538 -163.2536 227.8493)" class="st39" cx="659.05" cy="644.62" rx="90.08" ry="64.59"/>
	</g>
	<g class="st4">
		<path class="st31" d="M276.23,941c8.97,0,17.94,0,26.91,0c-4.03-9.41-16.91-41.7-9.61-69.19c2.48-9.33,5.9-17.3,7.69-21.14
			c9.44-20.27,22.01-34.09,30.75-42.28c-20.32,13.02-29.75,26.46-34.6,36.52c-2.39,4.95-4.01,9.77-5.77,9.61
			c-2.26-0.21-4.37-11.13-3.84-57.66c-1.92,16.02-3.84,32.03-5.77,48.05c-8.33-13.45-16.66-26.91-24.99-40.36
			c6.41,16.02,12.81,32.03,19.22,48.05c4.87,22.83,6.99,49.69,1.92,78.8C277.59,934.67,276.94,937.87,276.23,941z"/>
		<circle class="st37" cx="207.04" cy="785.32" r="65.35"/>
		<path class="st37" d="M205.12,735.35c0.49-33.28,38.28-65.34,77.84-65.35c39.28-0.01,76.9,31.59,77.84,65.35
			c0.72,26.15-20.8,44.81-42.28,63.43c-14.22,12.32-23.8,15.71-32.67,15.38c-10.21-0.38-17.78-5.63-23.06-9.61
			C226.31,777.05,204.75,760.79,205.12,735.35z"/>
		<ellipse class="st37" cx="360.8" cy="769.94" rx="61.5" ry="65.35"/>
		<path class="st39" d="M213.45,736.07c0.44-29.72,34.19-58.35,69.52-58.36c35.08-0.01,68.68,28.21,69.52,58.36
			c0.65,23.35-18.58,40.01-37.76,56.64c-12.7,11-21.26,14.03-29.18,13.73c-9.12-0.34-15.88-5.03-20.6-8.58
			C232.37,773.31,213.11,758.79,213.45,736.07z"/>
		<ellipse class="st39" cx="360.8" cy="769.94" rx="52.46" ry="55.74"/>
		<circle class="st39" cx="207.04" cy="785.32" r="57.66"/>
	</g>
	<g class="st4">
		<path class="st31" d="M911.98,933c12.48,0,24.96,0,37.43,0c-5.61-13.1-23.53-58.01-13.37-96.26c3.45-12.98,8.2-24.06,10.7-29.41
			c13.13-28.2,30.62-47.42,42.78-58.82c-28.26,18.11-41.38,36.81-48.13,50.8c-3.32,6.89-5.57,13.59-8.02,13.37
			c-3.14-0.29-6.08-15.49-5.35-80.21c-2.67,22.28-5.35,44.56-8.02,66.84c-11.59-18.72-23.17-37.43-34.76-56.15
			c8.91,22.28,17.82,44.56,26.74,66.84c6.77,31.76,9.72,69.13,2.67,109.62C913.86,924.19,912.96,928.65,911.98,933z"/>
		<circle class="st37" cx="815.72" cy="716.43" r="90.91"/>
		<path class="st37" d="M813.05,646.91c0.68-46.3,53.25-90.9,108.29-90.91c54.65-0.01,106.99,43.94,108.29,90.91
			c1.01,36.38-28.94,62.33-58.82,88.23c-19.78,17.14-33.11,21.85-45.45,21.39c-14.21-0.53-24.74-7.83-32.09-13.37
			C842.53,704.92,812.53,682.3,813.05,646.91z"/>
		<ellipse class="st37" cx="1029.62" cy="695.04" rx="85.56" ry="90.91"/>
		<path class="st39" d="M824.63,647.91c0.61-41.35,47.56-81.17,96.71-81.18c48.8-0.01,95.54,39.24,96.71,81.18
			c0.9,32.49-25.84,55.67-52.53,78.8c-17.66,15.31-29.57,19.51-40.59,19.1c-12.69-0.47-22.09-6.99-28.65-11.94
			C850.96,699.71,824.17,679.51,824.63,647.91z"/>
		<ellipse class="st39" cx="1029.62" cy="695.04" rx="72.98" ry="77.54"/>
		<circle class="st39" cx="815.72" cy="716.43" r="80.21"/>
	</g>
	<g class="st4">
		<path class="st36" d="M1201.08,900.07c-3.94,1.35-10.02,2.93-17.57,2.93c-4.16,0-10.43-0.48-17.57-2.93
			c4.37-19.66,9.4-54.75,0-96.61c-7.03-31.31-19.59-55.06-29.28-70.26c4.62,3.84,10.99,9.65,17.57,17.57
			c14.41,17.35,17.17,29.62,20.49,29.28c4.31-0.45,7.9-21.93,5.86-108.32c7.15,27.46,10.22,49.86,11.71,64.41
			c3.89,38.02,0.57,57.15,2.93,102.46C1196.63,865.63,1199.29,887.24,1201.08,900.07z"/>
		<circle class="st37" cx="1206.94" cy="604.39" r="105.39"/>
		
			<ellipse transform="matrix(0.866 -0.5 0.5 0.866 -200.7639 652.7435)" class="st37" cx="1117.65" cy="701" rx="80.51" ry="58.55"/>
		
			<ellipse transform="matrix(0.866 -0.5 0.5 0.866 -200.7639 652.7435)" class="st38" cx="1117.65" cy="701" rx="61.89" ry="45.01"/>
		<circle class="st38" cx="1206.94" cy="604.39" r="87.83"/>
	</g>
	<g class="st4">
		<path class="st36" d="M1732.56,904.85c3.94,1.35,10.02,2.93,17.57,2.93c4.16,0,10.43-0.48,17.57-2.93
			c-4.37-19.66-9.4-54.75,0-96.61c7.03-31.31,19.59-55.06,29.28-70.26c-4.62,3.84-10.99,9.65-17.57,17.57
			c-14.41,17.35-17.17,29.62-20.49,29.28c-4.31-0.45-7.9-21.93-5.86-108.32c-7.15,27.46-10.22,49.86-11.71,64.41
			c-3.89,38.02-0.57,57.15-2.93,102.46C1737.01,870.41,1734.36,892.02,1732.56,904.85z"/>
		<circle class="st37" cx="1726.71" cy="609.17" r="105.39"/>
		<ellipse transform="matrix(0.5 -0.866 0.866 0.5 296.7725 1925.585)" class="st37" cx="1816" cy="705.78" rx="58.55" ry="80.51"/>
		<ellipse transform="matrix(0.5 -0.866 0.866 0.5 296.7725 1925.585)" class="st38" cx="1816" cy="705.78" rx="45.01" ry="61.89"/>
		<circle class="st38" cx="1726.71" cy="609.17" r="87.83"/>
	</g>
	<g class="st4">
		<path class="st31" d="M1472.45,788c10.19,0,20.39,0,30.58,0c-4.58-10.7-19.22-47.39-10.92-78.64c2.82-10.6,6.7-19.66,8.74-24.03
			c10.72-23.04,25.02-38.75,34.95-48.06c-23.09,14.79-33.81,30.07-39.32,41.5c-2.71,5.63-4.55,11.11-6.55,10.92
			c-2.56-0.24-4.97-12.65-4.37-65.53c-2.18,18.2-4.37,36.41-6.55,54.61c-9.47-15.29-18.93-30.58-28.4-45.87
			c7.28,18.2,14.56,36.41,21.84,54.61c5.53,25.95,7.94,56.48,2.18,89.56C1473.98,780.8,1473.25,784.44,1472.45,788z"/>
		<circle class="st37" cx="1393.81" cy="611.06" r="74.27"/>
		<path class="st37" d="M1391.62,554.27c0.55-37.83,43.51-74.26,88.47-74.27c44.65-0.01,87.41,35.9,88.47,74.27
			c0.82,29.72-23.64,50.92-48.06,72.09c-16.16,14.01-27.05,17.85-37.13,17.48c-11.61-0.43-20.21-6.4-26.21-10.92
			C1415.71,601.66,1391.2,583.18,1391.62,554.27z"/>
		<ellipse class="st37" cx="1568.56" cy="593.59" rx="69.9" ry="74.27"/>
		<path class="st39" d="M1401.09,555.09c0.49-33.78,38.85-66.32,79.01-66.33c39.87-0.01,78.06,32.06,79.01,66.33
			c0.74,26.54-21.11,45.48-42.92,64.38c-14.43,12.51-24.16,15.94-33.16,15.61c-10.37-0.39-18.05-5.71-23.41-9.75
			C1422.6,597.41,1400.71,580.91,1401.09,555.09z"/>
		<ellipse class="st39" cx="1568.56" cy="593.59" rx="59.62" ry="63.35"/>
		<circle class="st39" cx="1393.81" cy="611.06" r="65.53"/>
	</g>
	<g class="st4">
		<path class="st37" d="M1668.4,747.7c-1.84-46.8-55.08-80.04-101.64-78.77c-48.73,1.33-96.7,40.64-96.56,81.32
			c0.18,50.44,74.33,96.13,132.14,78.77C1635.32,819.11,1669.93,786.6,1668.4,747.7z"/>
		<path class="st39" d="M1657.72,748.04c-1.64-41.75-49.14-71.41-90.68-70.28c-43.47,1.19-86.28,36.26-86.15,72.55
			c0.16,45,66.31,85.77,117.89,70.28C1628.2,811.75,1659.08,782.74,1657.72,748.04z"/>
		<path class="st31" d="M1607.42,945.9c-5.29,8.19-14.57,12.21-22.87,10.16c-7.99-1.97-11.93-8.77-12.71-10.16
			c4-41.94,7.43-85.16,10.16-129.6c2.24-36.35,3.91-71.94,5.08-106.73c3.39,0.85,6.78,1.69,10.16,2.54
			c1.69,32.19,3.39,64.37,5.08,96.56c3.36-3.14,6.76-6.53,10.16-10.16c10.55-11.28,18.86-22.6,25.41-33.03
			c-2.82,12.19-8.43,28.92-20.33,45.74c-4.19,5.92-8.53,10.97-12.71,15.25C1605.72,866.28,1606.57,906.09,1607.42,945.9z"/>
		<path class="st37" d="M1617.58,750.24c-9.87-35.03,20.08-72.89,53.36-73.69c36.02-0.86,66.15,41.93,55.9,76.23
			c-6,20.07-25.3,35.48-47.01,38.12C1651.89,794.29,1624.83,775.96,1617.58,750.24z"/>
		<path class="st39" d="M1625.23,747.96c-8.49-30.13,17.27-62.7,45.9-63.38c30.98-0.74,56.89,36.07,48.08,65.57
			c-5.16,17.27-21.76,30.51-40.43,32.78C1654.75,785.85,1631.47,770.08,1625.23,747.96z"/>
		
			<ellipse transform="matrix(0.9538 -0.3005 0.3005 0.9538 -125.583 504.7621)" class="st37" cx="1578.05" cy="660.62" rx="102.54" ry="73.52"/>
		
			<ellipse transform="matrix(0.9538 -0.3005 0.3005 0.9538 -125.583 504.7621)" class="st39" cx="1578.05" cy="660.62" rx="90.08" ry="64.59"/>
	</g>
</g>
</svg>
