<?xml version="1.0" encoding="utf-8"?>
<!-- Generator: Adobe Illustrator 23.0.3, SVG Export Plug-In . SVG Version: 6.00 Build 0)  -->
<svg version="1.1" id="Layer_1" xmlns="http://www.w3.org/2000/svg" xmlns:xlink="http://www.w3.org/1999/xlink" x="0px" y="0px"
	 viewBox="0 0 162.39 294.26" style="enable-background:new 0 0 162.39 294.26;" xml:space="preserve">
<style type="text/css">
	.st0{fill:#5C4428;}
	.st1{fill:#039848;}
</style>
<g>
	<path class="st0" d="M94.25,291.74c-5.2,0.64-10.39,1.28-15.59,1.91c-3.99-26.41-6.66-52.89-8-79.43
		c-2.3-45.49-0.7-91.18,4.79-137.06c2.05,0,4.1,0,6.15,0c-4.64,65.99-1.66,130.7,8.95,194.14C91.7,278.13,92.93,284.94,94.25,291.74
		z"/>
	<path class="st1" d="M80.92,72.17c-1.28-4.15-3.21-12.41-1.3-22.49c0.19-1.02,1.92-9.69,7.59-17.98
		C100.13,12.82,124.11,9.7,128.3,9.21c-2.31,8.17-6.51,19.4-14.42,31.17C102.68,57.03,89.31,66.93,80.92,72.17z"/>
	<path class="st1" d="M82.51,71.82c2.23-3.73,7.09-10.68,15.86-15.99c0.89-0.54,8.49-5.05,18.45-6.37
		c22.67-3.01,41.03,12.74,44.18,15.54c-7.62,3.74-18.78,8.12-32.83,10.1C108.32,77.89,92.02,74.56,82.51,71.82z"/>
	<path class="st1" d="M79.59,72.55c4.23-0.99,12.6-2.35,22.53,0.25c1,0.26,9.54,2.58,17.41,8.81
		c17.95,14.18,19.42,38.32,19.61,42.53c-7.99-2.87-18.91-7.83-30.11-16.53C93.2,95.29,84.24,81.28,79.59,72.55z"/>
	<path class="st1" d="M72.93,73.8c4.17,1.23,12.11,4.2,19.45,11.37c0.74,0.72,7.01,6.97,10.77,16.27
		c8.57,21.21-2.11,42.91-4.02,46.66c-5.52-6.45-12.55-16.17-17.97-29.27C73.49,100.3,72.65,83.69,72.93,73.8z"/>
	<path class="st1" d="M58.22,145.45c-2.22-3.73-6.04-11.3-6.56-21.55c-0.05-1.03-0.42-9.87,3.14-19.26
		c8.1-21.39,30.67-30.08,34.63-31.54c-0.32,8.48-1.76,20.39-6.67,33.69C75.79,125.61,65.14,138.38,58.22,145.45z"/>
	<path class="st1" d="M19.78,119.75c-0.11-4.34,0.28-12.81,4.85-22c0.46-0.93,4.48-8.81,12.18-15.25
		c17.55-14.67,41.48-11.18,45.64-10.51c-4.44,7.24-11.53,16.91-22.34,26.09C44.83,111.07,29.28,116.97,19.78,119.75z"/>
	<path class="st1" d="M1.55,73.12c2.65-3.45,8.26-9.8,17.59-14.07c0.94-0.43,9.02-4.04,19.05-4.21
		c22.87-0.39,39.3,17.36,42.12,20.49c-8,2.84-19.59,5.92-33.77,6.27C26.49,82.1,10.69,76.93,1.55,73.12z"/>
	<path class="st1" d="M82.36,75.12c-4.2-1.09-12.24-3.79-19.82-10.71c-0.76-0.7-7.24-6.72-11.31-15.9
		c-9.28-20.91,0.65-42.95,2.44-46.77C59.41,8,66.76,17.47,72.62,30.39C80.91,48.65,82.31,65.23,82.36,75.12z"/>
	<ellipse class="st1" cx="79.11" cy="75.62" rx="8.44" ry="7.28"/>
</g>
</svg>
