<?xml version="1.0" encoding="utf-8"?>
<!-- Generator: Adobe Illustrator 23.0.3, SVG Export Plug-In . SVG Version: 6.00 Build 0)  -->
<svg version="1.1" id="Layer_1" xmlns="http://www.w3.org/2000/svg" xmlns:xlink="http://www.w3.org/1999/xlink" x="0px" y="0px"
	 viewBox="0 0 167.48 294.26" style="enable-background:new 0 0 167.48 294.26;" xml:space="preserve">
<style type="text/css">
	.st0{fill:#5C4428;}
	.st1{fill:#039848;}
</style>
<g>
	<path class="st0" d="M71.59,286.45c5.12,0.63,10.24,1.26,15.35,1.89c3.93-26.02,6.56-52.1,7.88-78.25
		c2.26-44.81,0.69-89.81-4.71-135.01c-2.02,0-4.04,0-6.06,0c4.57,65,1.63,128.75-8.82,191.24C74.1,273.04,72.89,279.75,71.59,286.45
		z"/>
	<path class="st1" d="M84.72,70.16c1.26-4.09,3.16-12.22,1.28-22.15c-0.19-1-1.89-9.55-7.47-17.71C65.8,11.7,42.18,8.62,38.05,8.14
		c2.28,8.05,6.41,19.11,14.21,30.71C63.29,55.25,76.45,65,84.72,70.16z"/>
	<path class="st1" d="M83.15,69.82c-2.2-3.67-6.98-10.52-15.63-15.76c-0.87-0.53-8.37-4.97-18.17-6.27
		C27.02,44.83,8.94,60.34,5.83,63.09c7.51,3.68,18.5,8,32.34,9.95C57.73,75.8,73.78,72.51,83.15,69.82z"/>
	<path class="st1" d="M86.03,70.53c-4.17-0.98-12.41-2.31-22.19,0.25c-0.99,0.26-9.39,2.54-17.15,8.67
		c-17.68,13.97-19.13,37.75-19.32,41.9c7.87-2.83,18.63-7.71,29.66-16.29C72.63,92.94,81.45,79.13,86.03,70.53z"/>
	<path class="st1" d="M92.59,71.76c-4.1,1.22-11.93,4.14-19.16,11.2c-0.73,0.71-6.9,6.86-10.61,16.03
		c-8.44,20.89,2.08,42.27,3.96,45.97c5.44-6.35,12.36-15.92,17.7-28.83C92.04,97.87,92.87,81.51,92.59,71.76z"/>
	<path class="st1" d="M107.09,142.35c2.19-3.68,5.95-11.13,6.46-21.23c0.05-1.02,0.41-9.72-3.09-18.97
		c-7.98-21.07-30.21-29.63-34.11-31.07c0.32,8.36,1.73,20.09,6.57,33.19C89.77,122.81,100.27,135.38,107.09,142.35z"/>
	<path class="st1" d="M144.95,117.03c0.1-4.28-0.27-12.62-4.78-21.67c-0.45-0.91-4.41-8.68-12-15.02
		c-17.29-14.45-40.86-11.01-44.96-10.35c4.38,7.13,11.36,16.66,22,25.7C120.28,108.48,135.59,114.3,144.95,117.03z"/>
	<path class="st1" d="M162.9,71.1c-2.61-3.39-8.14-9.65-17.33-13.86c-0.93-0.43-8.88-3.98-18.77-4.15
		c-22.53-0.39-38.71,17.1-41.49,20.19c7.88,2.8,19.3,5.83,33.26,6.18C138.33,79.95,153.9,74.85,162.9,71.1z"/>
	<path class="st1" d="M83.3,73.07c4.14-1.08,12.06-3.73,19.52-10.55c0.75-0.69,7.13-6.62,11.14-15.66
		c9.14-20.59-0.64-42.31-2.41-46.07C105.91,6.95,98.67,16.28,92.9,29C84.73,47,83.35,63.32,83.3,73.07z"/>
	<ellipse class="st1" cx="86.5" cy="73.56" rx="8.32" ry="7.17"/>
</g>
</svg>
