<?xml version="1.0" encoding="utf-8"?>
<!-- Generator: Adobe Illustrator 23.0.3, SVG Export Plug-In . SVG Version: 6.00 Build 0)  -->
<svg version="1.1" id="Layer_1" xmlns="http://www.w3.org/2000/svg" xmlns:xlink="http://www.w3.org/1999/xlink" x="0px" y="0px"
	 viewBox="0 0 1892.17 938.12" style="enable-background:new 0 0 1892.17 938.12;" xml:space="preserve">
<style type="text/css">
	.st0{fill:#FFFFFF;}
	.st1{fill:#FFFFFF;stroke:#000000;stroke-width:5.1446;stroke-linecap:round;stroke-linejoin:round;stroke-miterlimit:10;}
	.st2{fill:none;stroke:#000000;stroke-width:5.8026;stroke-linecap:round;stroke-linejoin:round;stroke-miterlimit:10;}
	.st3{fill:none;stroke:#000000;stroke-width:5.7661;stroke-linecap:round;stroke-linejoin:round;stroke-miterlimit:10;}
</style>
<path class="st0" d="M943.59,928.27c-19.71,0.62-39.41,1.25-59.12,1.87c-69.31-228.48-138.63-456.96-207.94-685.45
	c44.28-47.32,88.55-94.64,132.83-141.96c7.86-17.83,15.73-35.66,23.6-53.49c6.2-0.68,12.4-1.36,18.6-2.04
	c19.88-4.6,45.78-8.65,76.13-8.42c35.63,0.26,65.39,6.32,87.05,12.48c3.54,7.18,7.07,14.35,10.61,21.53
	c4.26,10.19,8.53,20.38,12.79,30.58c47.73,46.38,95.47,92.77,143.2,139.15C1102.08,471.09,1022.84,699.68,943.59,928.27z"/>
<path class="st1" d="M1039.84,106.95c21.03,5.62,50.85,14.26,85.95,26.76c88.77,31.61,139.43,48.52,163.48,91.65
	c17.06,30.58,16.77,61.26,16.85,98.14c0.14,70.48,1.61,170.7,7.49,305.25c-48.81,0-97.63,0-146.44,0
	c-12.74-76.74-18.94-172.18-3.31-279.27c4.01-27.45,9.12-53.46,14.98-77.94"/>
<path class="st0" d="M1184.45,233.49c16.33,126.63,11.26,210.31,2.7,264.81c-3.65,23.24-15.88,91.79-12.53,183.32
	c0.17,4.51,0.33,8.15,0.52,11.44c0.87,15.8,1.75,27.48,2.03,31.04c5.05,63.27,7.57,94.9,1.98,123.67
	c-2.18,11.21-6.53,28.46-16.22,48.98c-9.05,10.82-18.09,21.63-27.14,32.45c-68.99-0.62-137.97-1.25-206.96-1.87
	c-0.28-231.5-0.55-463-0.83-694.49C1013.48,233.05,1098.96,233.27,1184.45,233.49z"/>
<path class="st1" d="M808.13,107.91c-20.21,5.38-51.56,14.31-89.18,27.67c-88.87,31.57-139.39,48.44-163.48,91.65
	c-17.06,30.58-16.77,61.26-16.85,98.14c-0.14,70.48-1.61,170.7-7.49,305.25c48.81,0,97.63,0,146.44,0
	c12.74-76.74,18.94-172.18,3.31-279.27c-4.01-27.45-9.12-53.46-14.98-77.94"/>
<path class="st0" d="M660.3,235.36c-16.33,126.63-11.26,210.31-2.7,264.81c3.65,23.24,15.88,91.79,12.53,183.32
	c-0.16,4.51-0.33,8.15-0.52,11.44c-0.95,17.02-1.9,29.33-2.03,31.04c-0.88,11.01-1.69,50.08-1.66,166.73
	c3.84,8.21,7.69,16.43,11.54,24.64c2.04,2.45,6.17,6.72,12.79,9.36c3.75,1.5,7.16,2.02,9.67,2.18c72,0.1,144,0.21,216.01,0.31
	c0.28-231.5,0.55-463,0.83-694.49C831.27,234.93,745.79,235.14,660.3,235.36z"/>
<path class="st2" d="M676.21,316.14c3.28,35.77,7.01,89.79,6.55,155.61c-0.63,91.45-10.24,135.98-15.18,243.89
	c-2.87,62.7-2.86,114.96-2.25,151.82c-0.94,5.29-4.72,29.69,10.89,48.64c4.22,5.12,8.92,8.71,13.1,11.23
	c75.54,1.04,151.08,2.08,226.61,3.12l6.56-0.08c2.61-0.27,5.23-0.55,7.84-0.82c70.67-0.43,141.33-0.86,212-1.29
	c4.9-5.87,11.53-14.65,17.78-26.21c15.89-29.35,18.58-56.7,19.78-74.88c4.33-65.42-2.72-113.42-2.72-113.42
	c-5.03-96.96-14.5-145.67-15.18-243.89c-0.46-65.82,3.27-119.84,6.55-155.61"/>
<path class="st3" d="M832.52,255.3c17.34-14.43,35.86-31.49,54.58-51.5c12.63-13.5,23.87-26.77,33.84-39.49
	c-19.9-11.71-55.33-36.75-76.34-81.6c-5.53-11.81-9.21-23.16-11.66-33.47c-6.73,12.07-13.38,25.98-19.18,41.74
	c-2.13,5.8-4,11.45-5.64,16.92c0.72,30.4,4.12,65.57,12.69,103.87C824.28,227.25,828.26,241.77,832.52,255.3z"/>
<path class="st3" d="M832.95,49.24c23.55-5.43,54.4-10.28,90.63-10.15c36.5,0.12,67.51,5.26,91.13,10.91"/>
<path class="st3" d="M1014.57,263.26c-17.81-18.55-35.86-38.11-54.01-58.7c-11.71-13.28-22.98-26.45-33.84-39.49
	c19.9-11.71,55.33-36.75,76.34-81.6c5.53-11.81,9.21-23.16,11.66-33.47c6.73,12.07,13.38,25.98,19.18,41.74
	c2.13,5.8,4,11.45,5.64,16.92c0.94,29.85-1.06,66.99-10.92,108.27C1024.57,233.84,1019.72,249.31,1014.57,263.26z"/>
<path class="st0" d="M926.94,928.38"/>
<path class="st2" d="M1014.1,352.88c37.96-0.08,75.93-0.16,113.89-0.24c0,37.1,0,74.21,0,111.31c-3.61,2.82-26.42,20.08-61.47,18.71
	c-30.06-1.17-48.97-15.25-53.38-18.71C1013.46,426.93,1013.78,389.91,1014.1,352.88z"/>
<path d="M872.46,219.42c9.46,15.18,18.93,30.37,28.39,45.55c13.41-0.1,26.83-0.21,40.25-0.31c11.44-14.66,22.88-29.33,34.32-43.99
	c-15.5-17.58-30.99-35.15-46.49-52.73c-4.06-0.1-8.11-0.21-12.17-0.31C901.99,184.89,887.22,202.16,872.46,219.42z"/>
<path d="M900.62,265.07c-5.49,9.9-11.46,22.86-15.9,38.64c-6.32,22.5-7.13,42.26-6.56,56.27c-4.69,170.24-9.37,340.48-14.06,510.72
	c16.54,16,33.07,32,49.61,48c14.73-15.22,29.45-30.44,44.18-45.66c-0.94-171.24-1.89-342.47-2.83-513.71
	c0.66-15.26,0.11-34.25-3.72-55.64c-2.71-15.13-6.52-28.41-10.48-39.61"/>
</svg>
