<?xml version="1.0" encoding="utf-8"?>
<!-- Generator: Adobe Illustrator 23.0.3, SVG Export Plug-In . SVG Version: 6.00 Build 0)  -->
<svg version="1.1" id="Layer_1" xmlns="http://www.w3.org/2000/svg" xmlns:xlink="http://www.w3.org/1999/xlink" x="0px" y="0px"
	 viewBox="0 0 730.78 837.16" style="enable-background:new 0 0 730.78 837.16;" xml:space="preserve">
<style type="text/css">
	.st0{fill:#E8D7B9;}
	.st1{fill:#C1B29A;}
	.st2{fill:none;stroke:#AA2E24;stroke-width:2.3367;stroke-linecap:round;stroke-miterlimit:10;}
	.st3{fill:none;stroke:#AA2E24;stroke-width:2.3367;stroke-linecap:round;stroke-linejoin:round;stroke-miterlimit:10;}
	.st4{fill:#7F9193;}
</style>
<g>
	<path class="st0" d="M522.75,255.16c-0.09-1.14-0.31-2.47-0.78-3.89c-1.49-4.54-4.58-7.3-6.23-8.57c-0.02-1.44-0.24-3.02-0.78-4.67
		c-2.59-7.85-10.72-11.04-12.46-11.68c-0.26-10.13-0.52-20.25-0.78-30.38c-1.56-1.04-3.12-2.08-4.67-3.12
		c-0.52-18.95-1.04-37.91-1.56-56.86c-0.2-0.8-0.61-1.99-1.56-3.12c-0.57-0.68-1.15-1.11-3.12-2.34c-1.01-0.63-2.32-1.43-3.89-2.34
		c-0.78-24.67-1.56-49.33-2.34-74c-3.89-2.34-7.79-4.67-11.68-7.01c-1.24,0.14-3,0.13-4.67-0.78c-1.54-0.84-2.17-1.98-3.12-3.12
		c-1.83-2.2-3.47-2.69-7.01-4.67c-2.29-1.28-5.52-3.26-9.35-6.23c-0.26-8.05-0.52-16.1-0.78-24.15c-0.52,0.26-1.04,0.52-1.56,0.78
		c-0.52,7.79-1.04,15.58-1.56,23.37c-1.95,1.49-3.62,2.51-4.67,3.12c-5.88,3.37-10.03,3.83-12.46,7.79
		c-0.41,0.66-0.65,1.24-0.78,1.56c-4.67,2.34-9.35,4.67-14.02,7.01c0,25.18,0,50.37,0,75.55c-0.75,0.02-1.9,0.17-3.12,0.78
		c-2.73,1.37-3.68,4.02-3.89,4.67c0,9.09,0,18.17,0,27.26c-0.26,10.39-0.52,20.77-0.78,31.16c-1.04,0.78-2.08,1.56-3.12,2.34
		c-0.26,7.53-0.52,15.06-0.78,22.59c-0.84,0.71-3.05,2.76-3.89,6.23c-0.58,2.38-0.26,4.38,0,5.45c-1.55,0.58-6.34,2.59-9.35,7.79
		c-1.8,3.12-2.21,6.1-2.31,7.81c-0.01,0.25-0.02,0.51-0.03,0.76c-1.18,0.79-3.74,2.72-5.45,6.23c-1.62,3.33-1.64,6.37-1.56,7.79"/>
	<path class="st0" d="M633.36,627.48c27.97,2.55,55.5,5.42,82.56,8.57c2.08,51.41,4.15,102.82,6.23,154.22
		c-109.83,7.53-219.65,15.06-329.48,22.59c-1.56-66.21-3.12-132.41-4.67-198.62C466.27,615.56,548.18,619.71,633.36,627.48z"/>
	<path class="st1" d="M522.75,260.61c0.22-1.62,0.33-4.23-0.78-7.01c-1.41-3.54-4.08-5.53-6.23-7.01
		c-10.48-7.21-17.14-9.35-17.14-9.35c-18.24-5.85-39.63-6.2-42.84-6.23c-17.27-0.19-28.21,1.83-43.62,4.67
		c0,0-12.05,2.22-23.37,9.35c-3.27,2.06-6.84,4.75-8.57,9.35c-0.37,0.97-1.47,4.02-0.78,7.79c1.28,6.98,7.61,10.41,8.57,10.9
		C432.92,268.92,477.84,264.77,522.75,260.61z"/>
	<path class="st0" d="M403.58,245.03c-3.31,1-8.93,2.76-14.8,7.01c-3.69,2.67-5.29,4.74-6.23,6.23c-2.51,3.95-3.01,7.91-3.12,10.13
		c48.55,0.52,97.1,1.04,145.66,1.56c-0.09-2.9-0.71-7.6-3.89-11.68c-1.98-2.54-4.16-3.83-7.01-5.45
		c-9.67-5.52-14.51-8.28-17.14-9.35c-9.51-3.84-17.7-4.49-31.16-5.45c-11.51-0.82-23.08-1.58-38.17,0.78
		C420.43,239.94,414.82,241.64,403.58,245.03z"/>
	<path class="st1" d="M379.43,267.62c2.15-2.11,5.27-4.92,9.35-7.79c2.63-1.85,12.74-8.72,28.82-12.46
		c7.81-1.82,14.81-1.99,28.82-2.34c11.14-0.27,19.28-0.48,30.38,0.78c14.19,1.61,24.15,2.86,33.49,10.13
		c4.58,3.56,7.56,7.44,9.35,10.13C472.9,266.58,426.17,267.1,379.43,267.62z"/>
	<path class="st1" d="M599.09,443.66c-0.17-1.26-0.55-3.25-1.56-5.45c-4.01-8.76-14.38-13.19-37.39-17.91
		c-19.48-4-34.3-5.38-35.05-5.45c-27.12-2.46-47.87-2.36-50.63-2.34c-12.59,0.09-72.05,0.8-129.3,14.02
		c-12.4,2.86-33.74,8.4-35.83,20.25c-0.28,1.59-0.16,2.96,0,3.89"/>
	<path class="st0" d="M598.31,442.1c1.82,40.5,3.64,81.01,5.45,121.51c-77.11,20.25-154.22,40.5-231.33,60.75
		c-57.64,5.71-115.28,11.42-172.92,17.14c-1.3,58.42-2.6,116.84-3.89,175.25c-38.17-2.86-76.33-5.71-114.5-8.57
		c-121.51,3.38-243.02,6.75-364.53,10.13c0.52-83.08,1.04-166.17,1.56-249.25c118.13-36.09,236.27-72.18,354.4-108.27
		c42.58,6.75,85.16,13.5,127.74,20.25c36.61-9.61,73.22-19.21,109.83-28.82c0-1.82,0-3.63,0-5.45c0.44-0.66,1.23-1.8,2.34-3.12
		c2.39-2.85,7.42-7.93,17.14-11.68c24.12-9.31,67.76-14.02,67.76-14.02c24.86-2.68,37.6-4.04,52.97-4.67
		c8.77-0.36,18.45-0.75,30.21-0.51c5.36,0.11,9.21,0.3,13.41,0.51c13.28,0.66,24.23,1.2,38.17,3.12c2.41,0.33,14.2,1.98,28.82,5.45
		c5.96,1.42,9.95,2.76,17.91,5.45c5.79,1.96,8.64,3.11,11.68,5.45C594.57,435.87,596.95,439.54,598.31,442.1z"/>
	<path class="st0" d="M571.05,427.3c-0.36-1.37-1.03-3.35-2.34-5.45c-3.13-5.02-7.9-7.47-14.8-10.9c-1.75-0.87-4.12-1.98-7.01-3.12
		c-1.04-32.19-2.08-64.39-3.12-96.58c0.21-0.16,0.5-0.42,0.78-0.78c0.36-0.47,1.26-1.83,0.78-5.45c-0.21-1.59-0.76-4.12-2.34-7.01
		c-0.26-5.45-0.52-10.9-0.78-16.36c-0.99-1.72-2.26-3.59-3.89-5.45c-5.34-6.08-11.72-8.85-15.58-10.13
		c-5.97-3.54-14.93-8.17-26.48-11.68c-13.43-4.09-24.24-4.8-35.05-5.45c-11.27-0.68-20.8-1.25-33.49,0.78
		c-10.33,1.65-19.61,5.25-38.17,12.46c0,0-11.48,4.46-18.69,10.13c-2.73,2.15-5.45,4.67-5.45,4.67c-1.93,1.8-3.5,3.41-4.67,4.67
		c-0.26,6.49-0.52,12.98-0.78,19.47c-0.49,0.65-1.15,1.7-1.56,3.12c-0.6,2.12-0.28,3.89,0,5.45c0.21,1.15,0.63,2.81,1.56,4.67
		c0,32.71,0,65.43,0,98.14c-1.54,0.5-3.71,1.26-6.23,2.34c-4.26,1.82-7.31,3.12-10.13,5.45c-1.83,1.51-4.9,4.58-7.01,10.13"/>
	<path class="st1" d="M417.21,220.5c-0.13-10.52-0.26-21.03-0.39-31.55c1.17,0.39,2.34,0.78,3.51,1.17c0-20.77,0-41.54,0-62.31
		c0.16-0.49,0.72-2.05,2.34-3.12c2.09-1.38,4.3-0.87,4.67-0.78c-0.26-25.96-0.52-51.93-0.78-77.89c5.45,2.86,10.9,5.71,16.36,8.57
		c0.78,41.02,1.56,82.04,2.34,123.07c-3.08-0.2-7.1-0.15-11.68,0.78c-3.03,0.61-5.64,1.47-7.79,2.34c0.26,8.05,0.52,16.1,0.78,24.15
		c-1.82,0.26-3.63,0.52-5.45,0.78c0,1.56,0,3.12,0,4.67c0.52,0,1.04,0,1.56,0c-0.26,3.12-0.52,6.23-0.78,9.35
		c-0.46-0.04-0.99-0.05-1.56,0C419.03,219.82,417.97,220.17,417.21,220.5z"/>
	<path class="st1" d="M490.04,220.89c-0.26-10.39-0.52-20.77-0.78-31.16c-1.3,0.52-2.6,1.04-3.89,1.56
		c-0.52-20.77-1.04-41.54-1.56-62.31c-0.32-0.73-0.8-1.56-1.56-2.34c-2.84-2.89-7.09-2.43-7.79-2.34
		c-0.52-25.7-1.04-51.41-1.56-77.11c3.89,2.34,7.79,4.67,11.68,7.01c0.78,24.67,1.56,49.33,2.34,74c2.13,0.81,5.63,2.57,7.79,6.23
		c0.31,0.52,0.57,1.05,0.78,1.56c0.52,18.95,1.04,37.91,1.56,56.86c1.56,1.04,3.12,2.08,4.67,3.12c0.26,10.13,0.52,20.25,0.78,30.38
		c-1.83-1.04-3.91-2.11-6.23-3.12C494.06,222.26,491.97,221.5,490.04,220.89z"/>
	<path class="st2" d="M457.33,61.99c3.63-1.82,7.27-3.63,10.9-5.45"/>
	<path class="st2" d="M463.17,59.27c0,5.2,0,10.4,0,15.6"/>
	<path class="st2" d="M463.95,82.63c0.45-0.09,2.4-0.42,3.89,0.78c1.54,1.23,1.55,3.24,1.56,4.67c0,0.43-0.04,4.42-3.12,7.01
		c-0.58,0.49-1.58,1.31-3.12,1.56c-0.45,0.07-2.39,0.39-3.89-0.78c-2.07-1.61-1.65-4.76-1.56-5.45c0.35-2.65,2.05-4.37,3.12-5.45
		C461.98,83.81,463.13,83.07,463.95,82.63z"/>
	<path class="st3" d="M675.81,669.93c3.28,0.39,5.95,0.63,7.79,0.78c5.82,0.46,9.11,0.46,13.24,2.34c0.67,0.3,1.2,0.58,1.56,0.78"/>
	<path class="st3" d="M676.59,675.38c3.28,0.39,5.95,0.63,7.79,0.78c5.82,0.46,9.11,0.46,13.24,2.34c0.67,0.3,1.2,0.58,1.56,0.78"/>
	<path class="st3" d="M676.59,680.83c3.28,0.39,5.95,0.63,7.79,0.78c5.82,0.46,9.11,0.46,13.24,2.34c0.67,0.3,1.2,0.58,1.56,0.78"/>
	<path class="st3" d="M677.37,686.28c3.28,0.39,5.95,0.63,7.79,0.78c5.82,0.46,9.11,0.46,13.24,2.34c0.67,0.3,1.2,0.58,1.56,0.78"/>
	<path class="st3" d="M455.38,109.89c1.56,4.15,3.12,8.31,4.67,12.46c1.3-5.19,2.6-10.39,3.89-15.58c1.56,3.89,3.12,7.79,4.67,11.68
		c1.04-5.19,2.08-10.39,3.12-15.58"/>
	<path class="st3" d="M468.62,128.59c-2.6,1.3-5.19,2.6-7.79,3.89c0,4.93,0,9.87,0,14.8c2.6-1.56,5.19-3.12,7.79-4.67"/>
	<path class="st3" d="M460.83,172.21c0-4.93,0-9.87,0-14.8c2.08-1.04,4.15-2.08,6.23-3.12c1.52-0.09,2.85,0.94,3.12,2.34
		c0.23,1.22-0.39,2.5-1.56,3.12c-2.6,1.56-5.19,3.12-7.79,4.67"/>
	<path class="st3" d="M465.5,162.08c1.56,2.08,3.12,4.15,4.67,6.23"/>
	<path class="st3" d="M460.83,138.71c2.34-1.04,4.67-2.08,7.01-3.12"/>
	<path class="st1" d="M544.56,312.02c-0.27,0.01-0.46-3.02-0.78-4.67c-1.65-8.61-13.21-13.85-17.14-15.58
		c-28.82-12.67-74.77-12.46-74.77-12.46c-12.13,0.06-36.69,0.66-63.09,8.57c-12.06,3.61-24.77,8.83-28.04,19.47
		c-0.76,2.49-0.84,4.71-0.78,6.23c-0.52,0-1.04,0-1.56,0c-0.34-1.66-0.63-4.16,0-7.01c1.24-5.65,5.25-8.99,8.57-11.68
		c5.98-4.85,12.37-6.86,20.25-9.35c2.66-0.84,5.45-1.56,5.45-1.56c2.34-0.52,4.67-1.04,7.01-1.56c2.01-0.45,6.98-1.55,7.01-1.56
		c4.29-0.95,15.11-2.95,24.92-3.89c11.1-1.07,19.41-0.64,31.94,0c3.36,0.17,24.84,1.35,47.51,6.23c0,0,6.76,1.45,19.47,7.01
		c3.28,1.43,7.01,3.2,10.13,7.01c2.94,3.59,3.73,7.02,3.89,7.79C545.32,308.56,544.85,312.01,544.56,312.02z"/>
	<path class="st1" d="M310.11,450.65c0-1.29,0-2.58,0-3.88c0.44-0.66,1.23-1.8,2.34-3.12c2.39-2.85,7.42-7.93,17.14-11.68
		c24.12-9.31,67.76-14.02,67.76-14.02c24.86-2.68,37.6-4.04,52.97-4.67c8.77-0.36,18.45-0.75,30.21-0.51
		c5.36,0.11,9.21,0.3,13.41,0.51c13.28,0.66,24.23,1.2,38.17,3.12c2.41,0.33,14.2,1.98,28.82,5.45c5.96,1.42,9.95,2.76,17.91,5.45
		c5.79,1.96,8.64,3.11,11.68,5.45c4.05,3.12,6.44,6.79,7.79,9.35c0.02,0.52,0.05,1.05,0.07,1.57l0.71-0.02
		c-0.17-1.26-0.55-3.25-1.56-5.45c-4.01-8.76-14.38-13.19-37.39-17.91c-19.48-4-34.3-5.38-35.05-5.45
		c-27.12-2.46-47.87-2.36-50.63-2.34c-12.59,0.09-72.05,0.8-129.3,14.02c-12.4,2.86-33.74,8.4-35.83,20.25
		c-0.28,1.59-0.16,2.96,0,3.89L310.11,450.65z"/>
	<path class="st4" d="M398.13,641.5c0-12.72,0-25.44,0-38.17c-0.78-0.26-1.56-0.52-2.34-0.78c0-8.31,0-16.62,0-24.92
		c-0.11,0.05-0.86,0.37-1.56,0c-0.72-0.39-1.09-1.37-0.78-2.34c0-3.63,0-7.27,0-10.9c3.38-1.04,6.75-2.08,10.13-3.12
		c39.08-0.65,78.15-1.3,117.23-1.95c0.21-0.81,0.64-1.99,1.56-3.12c1.8-2.2,4.53-2.99,13.24-3.89c2.48-0.26,5.65-0.55,9.35-0.78
		c-0.26-1.04-0.52-2.08-0.78-3.12c0.48-0.22,1.29-0.55,2.34-0.78c2.68-0.6,4.88-0.11,5.45,0c3.12,0.62,35.48,5.58,80.23,12.46
		c0.64,0.33,0.95,1,0.78,1.56c-0.16,0.53-0.7,0.75-0.78,0.78c-0.26,0-0.52,0-0.78,0c0,3.38,0,6.75,0,10.13c0,4.15,0,8.31,0,12.46
		c1.13,15.46,2.17,31.04,3.12,46.73c0.27,4.42,0.53,8.84,0.78,13.24c-27.52-2.34-55.04-4.67-82.56-7.01
		C501.2,639.16,449.67,640.33,398.13,641.5z"/>
	<path class="st3" d="M562.09,555.43c3.64,0.78,7.27,1.56,10.9,2.34"/>
	<path class="st3" d="M567.54,556.99c0.26,5.19,0.52,10.39,0.78,15.58"/>
	<path class="st1" d="M451.09,692.91c66.73-0.52,133.45-1.04,200.18-1.56c0.26,2.86,0.52,5.71,0.78,8.57
		c8.57-0.26,17.14-0.52,25.7-0.78c-0.78-12.72-1.56-25.44-2.34-38.17c0.09-0.45,0.95-4.98-2.34-8.57c-3.06-3.34-7.24-3.15-7.79-3.12
		c-23.37,2.86-46.73,5.71-70.1,8.57c-5.87,0.26-13.12,1.23-21.03,3.89c-2.83,0.95-5.43,2.02-7.79,3.12
		c-38.95,0.78-77.89,1.56-116.84,2.34C450.06,675.77,450.57,684.34,451.09,692.91z"/>
	<path class="st3" d="M580,558.54c2.72,0.07,5.13,4.7,4.67,8.57c-0.36,3.02-2.56,6.4-4.67,6.25c-1.43-0.1-2.37-1.79-3.12-3.14
		c-0.52-0.93-2.74-4.94-0.78-8.57C576.34,561.24,577.88,558.49,580,558.54z"/>
	<path class="st3" d="M587.79,560.1c1.3,4.67,2.6,9.35,3.89,14.02c0.52-4.41,1.04-8.83,1.56-13.24c1.3,4.67,2.6,9.35,3.89,14.02
		c0.52-4.41,1.04-8.83,1.56-13.24"/>
	<path class="st3" d="M609.6,563.22c-2.08-0.26-4.15-0.52-6.23-0.78c0.26,4.67,0.52,9.35,0.78,14.02c2.34,0.26,4.67,0.52,7.01,0.78"
		/>
	<path class="st3" d="M604.15,569.45c2.08,0.26,4.15,0.52,6.23,0.78"/>
	<path class="st3" d="M616.61,579.57c-0.26-4.93-0.52-9.87-0.78-14.8c2.39-0.93,5.1,0.11,6.23,2.34c1.08,2.13,0.43,4.8-1.56,6.23
		c-1.3,0-2.6,0-3.89,0"/>
	<path class="st3" d="M619.73,573.34c1.3,2.34,2.6,4.67,3.89,7.01"/>
	<path class="st0" d="M631.8,586.2c-26.48-3.38-52.97-6.75-79.45-10.13c-47.25,0.52-94.51,1.04-141.76,1.56
		c-0.26,16.62-0.52,33.23-0.78,49.85c47.77-0.78,95.55-1.56,143.32-2.34c26.74,2.6,53.48,5.19,80.23,7.79
		C632.84,617.35,632.32,601.77,631.8,586.2z"/>
	<path class="st1" d="M397.35,604.89c-29.34-2.86-58.68-5.71-88.02-8.57c-36.35,5.19-72.7,10.39-109.05,15.58
		c-1.56,68.28-3.12,136.57-4.67,204.85c36.09,3.89,72.18,7.79,108.27,11.68c30.38-4.93,60.75-9.87,91.13-14.8
		C395.79,744.05,396.57,674.47,397.35,604.89z"/>
	<path class="st3" d="M450.7,669.93c33.17-1.36,67.46-2.18,102.82-2.34c36.73-0.16,72.32,0.4,106.71,1.56"/>
	<path class="st3" d="M451.48,676.16c34.63-1.42,70.48-2.24,107.49-2.34c34.52-0.09,68.03,0.47,100.48,1.56"/>
	<path class="st3" d="M450.7,683.17c33.43-2.23,68.8-3.64,105.93-3.89c36.55-0.25,71.39,0.63,104.37,2.34"/>
	<path class="st3" d="M451.48,689.4c34.9-1.53,70.74-2.6,107.49-3.12c34.83-0.49,68.85-0.47,102.04,0"/>
	<path class="st3" d="M654,696.41c4.67-0.26,9.35-0.52,14.02-0.78c-0.78-11.68-1.56-23.37-2.34-35.05c-0.9-1.02-2.68-2.76-5.45-3.89
		c-3.81-1.56-7.21-1.06-8.57-0.78c-24.41,2.08-48.81,4.15-73.22,6.23"/>
</g>
</svg>
