<?xml version="1.0" encoding="utf-8"?>
<!-- Generator: Adobe Illustrator 23.0.3, SVG Export Plug-In . SVG Version: 6.00 Build 0)  -->
<svg version="1.1" id="Layer_1" xmlns="http://www.w3.org/2000/svg" xmlns:xlink="http://www.w3.org/1999/xlink" x="0px" y="0px"
	 viewBox="0 0 815.3 808.99" style="enable-background:new 0 0 815.3 808.99;" xml:space="preserve">
<style type="text/css">
	.st0{fill:#A3A3A3;}
	.st1{fill:#D1D1D1;}
	.st2{fill:none;stroke:#D1D1D1;stroke-width:27.1467;stroke-miterlimit:10;}
	.st3{fill:none;stroke:#D1D1D1;stroke-width:21.3296;stroke-miterlimit:10;}
	.st4{fill:none;stroke:#D1D1D1;stroke-width:15.5124;stroke-miterlimit:10;}
	.st5{fill:none;stroke:#000000;stroke-width:2.679;stroke-linecap:round;stroke-miterlimit:10;}
	.st6{fill:none;stroke:#265531;stroke-width:3.7505;stroke-miterlimit:10;}
</style>
<g>
	<path class="st0" d="M16.09,249.83c-2.08,11.41,0.97,21.33,0.97,21.33c2.21,7.18,6,12.37,8.73,15.51
		c60.05,44.37,209.9,142.61,409.14,146.4c61.7,1.17,182.05,3.46,295.71-71.74c26.27-17.38,46.03-34.84,59.14-47.51
		c6.14-2.81,15.93-8.45,17.45-17.45c2-11.81-11.35-22.89-16.48-27.15c-117.25-97.3-397.51-94.04-397.51-94.04
		C85.46,178.76,18.23,238.15,16.09,249.83z"/>
	<path class="st1" d="M16.09,249.35c8.01-24.07,22.18-58.78,47.15-93.51c7.53-10.47,33.53-45.26,87.57-80.65
		c85.42-55.94,165.75-64.17,205.93-67.8c58.67-5.29,101.86,1.48,152.04,9.35c57.91,9.08,100.82,16.25,152.04,45.59
		c33.21,19.02,66.38,38.61,93.34,82.99c28.95,47.65,35.03,98.03,36.57,123.9c-93.83-31.23-215.45-60.49-358.46-67.21
		C263.72,194.09,121.2,220.12,16.09,249.35z"/>
	<path class="st2" d="M456.74,183.42c-3.55,193.26-7.11,386.52-10.66,579.78"/>
	<path class="st2" d="M298.71,139.79c-3.55,193.26-7.11,386.52-10.66,579.78"/>
	<path class="st2" d="M172.67,159.18c-3.55,193.26-7.11,386.52-10.66,579.78"/>
	<path class="st2" d="M85.41,207.65c-3.55,193.26-7.11,386.52-10.66,579.78"/>
	<path class="st3" d="M45.66,219.29C42.11,412.55,38.55,605.81,35,799.07"/>
	<path class="st2" d="M597.32,196.99c-3.55,193.26-7.11,386.52-10.66,579.78"/>
	<path class="st2" d="M700.09,220.26c-3.55,193.26-7.11,386.52-10.66,579.78"/>
	<path class="st2" d="M769.9,226.08c-3.55,193.26-7.11,386.52-10.66,579.78"/>
	<path class="st4" d="M301.13,218.8c51.38,99.21,102.77,198.43,154.15,297.64"/>
	<path class="st4" d="M456.26,228.5c-56.23,94.37-112.47,188.73-168.7,283.1"/>
	<path class="st4" d="M456.26,235.29c44.92,88.55,89.84,177.1,134.76,265.65"/>
	<path class="st4" d="M595.87,252.74c-46.86,81.12-93.72,162.23-140.58,243.35"/>
	<path class="st4" d="M598.78,265.34c33.61,84.67,67.22,169.34,100.83,254.02"/>
	<path class="st4" d="M693.79,273.1c-33.93,77.56-67.87,155.12-101.8,232.69"/>
	<path class="st4" d="M762.63,312.85c-21.01,68.84-42.01,137.67-63.02,206.51"/>
	<path class="st4" d="M705.43,282.79c20.68,67.87,41.37,135.73,62.05,203.6"/>
	<path class="st4" d="M299.2,237.22c-45.24,85.64-90.49,171.28-135.73,256.92"/>
	<path class="st4" d="M178.97,244.01c36.2,78.85,72.39,157.71,108.59,236.56"/>
	<path class="st4" d="M87.84,254.68c26.18,74.65,52.35,149.31,78.53,223.96"/>
	<path class="st4" d="M172.19,256.62c-27.79,74.65-55.59,149.31-83.38,223.96"/>
	<path class="st4" d="M80.08,465.06c-11.63-62.7-23.27-125.39-34.9-188.09"/>
	<path class="st4" d="M86.87,269.22c-14.54,53.32-29.09,106.65-43.63,159.97"/>
	<path class="st4" d="M767.48,530.99c-125.19-12.21-263.86-19.41-413.99-17.45c-112.56,1.47-218.2,7.9-316.07,17.45"/>
	<path class="st4" d="M296.29,487.36c51.38,99.21,102.77,198.43,154.15,297.64"/>
	<path class="st4" d="M451.41,497.06c-56.23,94.37-112.47,188.73-168.7,283.1"/>
	<path class="st4" d="M451.41,503.84c44.92,88.55,89.84,177.1,134.76,265.65"/>
	<path class="st4" d="M591.02,521.3c-46.86,81.12-93.72,162.23-140.58,243.35"/>
	<path class="st4" d="M593.93,533.9c33.61,84.67,67.22,169.34,100.83,254.02"/>
	<path class="st4" d="M688.94,541.66c-33.93,77.56-67.87,155.12-101.8,232.69"/>
	<path class="st4" d="M757.78,581.41c-21.01,68.84-42.01,137.67-63.02,206.51"/>
	<path class="st4" d="M700.58,551.35c20.68,67.87,41.37,135.73,62.05,203.6"/>
	<path class="st4" d="M294.35,505.78c-45.24,85.64-90.49,171.28-135.73,256.92"/>
	<path class="st4" d="M174.13,512.57c36.2,78.85,72.39,157.71,108.59,236.56"/>
	<path class="st4" d="M82.99,523.23c26.18,74.65,52.35,149.31,78.53,223.96"/>
	<path class="st4" d="M167.34,525.17c-27.79,74.65-55.59,149.31-83.38,223.96"/>
	<path class="st4" d="M75.23,733.62c-11.63-62.7-23.27-125.39-34.9-188.09"/>
	<path class="st4" d="M82.02,537.78C67.48,591.1,52.94,644.43,38.39,697.75"/>
	<g>
		<path class="st5" d="M404.07,62.79c2.67-1.83,5.12-2.63,6.79-3.01c2.26-0.51,4.45-1.01,5.62,0.17c1.54,1.56,0.25,4.99,0.1,5.36
			c-1.03,2.63-2.62,2.75-4.74,6.02c-0.45,0.7-2.74,4.23-1.77,5.31c0.73,0.81,3.07-0.01,4.58-0.93c2.38-1.45,3.47-3.65,3.89-4.44
			c1.31-2.48,3.72-5.89,8.6-9.65"/>
		<path class="st5" d="M434.01,61.16c0.09,1.3,0.07,3.17-0.43,5.35c-0.58,2.5-1.54,4.2-2.31,5.56c-1.96,3.42-3.17,5.53-5.27,5.74
			c-1.55,0.15-3.15-0.79-3.96-2c-1.25-1.85-0.53-4.13,0.2-6.43c0.56-1.77,1.76-4.66,4.52-7.63"/>
		<path class="st5" d="M440.03,74.47c0.42-0.27,1.18-0.83,1.66-1.83c0.47-0.97,0.83-2.65,0.1-3.21c-0.72-0.56-2.15,0.25-2.97,0.71
			c-0.93,0.53-3.03,1.71-3.61,4.18c-0.12,0.51-0.64,2.71,0.68,4.04c1.33,1.33,3.56,0.83,4.27,0.67c0.65-0.15,1.79-0.51,4.65-3.07
			c3.42-3.07,2.94-3.58,5.25-5.2c1.78-1.25,2.76-1.43,3.57-2.84c0.79-1.37,1.07-3.28,0.38-3.74c-0.67-0.45-2.09,0.59-2.99,1.25
			c-0.93,0.68-2.56,1.88-3.61,4.18c-0.28,0.6-1.94,4.24-0.23,7.5c0.35,0.67,1.1,2.09,2.6,2.49c1.7,0.45,3.46-0.63,4.34-1.74
			c0.65-0.82,0.39-1.09,1.15-2.65c0.7-1.43,1.5-3.06,3.06-3.66c1.43-0.56,2.92-0.02,3.74,0.38"/>
		<path class="st5" d="M455,76c0.78,1.2,1.51,2.11,2.06,2.74c0.97,1.12,1.31,1.3,1.57,1.39c0.38,0.14,1.17,0.3,3.24-0.71
			c1.08-0.53,2.51-1.24,4.11-2.82c1.78-1.76,1.58-2.43,3.05-3.39c0.72-0.47,2.19-1.43,3.78-0.96c1.59,0.47,2.3,2.09,2.6,2.76
			c0.26,0.6,0.73,1.65,0.45,2.96c-0.48,2.21-2.66,3.09-2.78,3.13c-0.24,0.09-2.31,0.85-4.01-0.39c-1.14-0.83-1.44-2.07-1.53-2.46
			c-0.63-2.6,1.25-4.77,1.49-5.05"/>
		<path class="st5" d="M476.34,79.33c0.91-0.37,2.2-0.99,3.55-2.04c2.45-1.91,2.63-3.89,3.87-3.9c1.39-0.02,3.01,2.34,2.82,4.37
			c-0.21,2.2-2.53,3.67-2.52,3.68c0,0,1.72-1.08,3.33-3.65c2.09-3.34,2.77-5.09,3.1-5c0.73,0.21-1.33,8.87-0.54,9.1
			c0.37,0.11,0.93-1.77,2.81-4.2c1.86-2.41,4.08-4.16,4.41-3.89c0.23,0.19-0.73,1.2-1.17,3.18c-0.11,0.48-0.81,3.8,0.66,4.84
			c0.79,0.57,1.86,0.21,3.77-0.42c3.49-1.16,5.59-3.08,6.56-4.09c1.13-1.18,2.33-2.42,1.97-3.16c-0.41-0.83-2.73-0.87-4.29,0.14
			c-1.57,1.02-2.14,2.95-2.01,4.5c0.03,0.39,0.23,2.83,2.3,3.82c1.53,0.74,3.48,0.37,4.85-0.92"/>
		<path class="st5" d="M526.98,70.96c-0.93,0.92-2.33,2.57-3.1,5c-0.73,2.31-1.26,6.5,0.58,7.52c1.69,0.95,4.59-1.25,4.87-1.46
			c2.41-1.86,2.02-3.69,4.45-5.23c0.64-0.4,2.21-1.4,4.05-0.95c1.68,0.41,3.02,1.89,3.38,3.59c0.43,2.06-0.55,4.58-2.57,5.28
			c-1.49,0.51-3.06-0.12-3.99-0.93c-1.7-1.48-2.12-4.34-0.86-6.99"/>
		<path class="st5" d="M520.19,73.97c3.13,0.01,6.25,0.01,9.38,0.02"/>
		<path d="M285.53,96.3c2.85,0.27,5.7,0.53,8.55,0.8c0.28-1.06,0.64-3.01,0.16-5.36c-0.19-0.96-0.68-3.36-2.52-5.17
			c-2.49-2.45-5.94-2.42-8.5-2.4c-4.07,0.03-7.03,1.47-8.92,2.41c-2.24,1.12-4.04,2.02-5.49,4.12c-1.86,2.72-1.81,5.54-1.79,6.11
			c0.03,0.83,0.13,3.82,2.23,5.96c1.57,1.61,2.57,1.02,6.61,2.88c2.63,1.21,4.76,2.22,6.3,4.48c0.61,0.9,1.65,2.47,1.47,4.6
			c-0.02,0.27-0.3,2.99-2.55,4.48c-2.16,1.42-4.6,0.69-6.7,0.06c-1.49-0.45-2.68-0.8-3.42-1.98c-1.11-1.77-0.28-3.94-0.14-4.29
			c-2.86-0.09-5.72-0.17-8.57-0.26c-0.29,0.85-0.64,2.29-0.39,4.01c0.35,2.37,1.66,3.89,2.79,5.18c0.79,0.9,2.92,3.26,6.56,4.49
			c4.85,1.63,9.09,0.14,11.55-0.72c1.53-0.54,3.33-1.19,5.18-2.79c2.49-2.16,3.5-4.66,3.93-5.78c0.67-1.74,1.41-3.68,0.99-6.13
			c-0.49-2.89-2.29-4.71-3.31-5.73c-1.4-1.41-3.54-2.25-7.65-3.99c-3.42-1.44-4.47-1.66-5.4-2.98c-0.88-1.24-1.64-3.43-0.65-5.11
			c1.38-2.32,5.02-1.81,5.68-1.7c0.43,0.07,3.63,0.61,4.2,2.81C285.92,95.08,285.73,95.82,285.53,96.3z"/>
		<path d="M298.84,125.66c6.49-13.47,12.97-26.94,19.46-40.41c3.57,0.02,7.15,0.04,10.72,0.06c2.57,13.79,5.15,27.58,7.72,41.38
			c-3.3-0.1-6.61-0.2-9.91-0.3c-0.36-2.96-0.71-5.92-1.07-8.88c-4.82-0.24-9.63-0.47-14.45-0.71c-1.17,3.18-2.34,6.36-3.51,9.54
			C304.81,126.11,301.82,125.88,298.84,125.66z"/>
		<path class="st1" d="M324.14,108.87c-0.67-4.4-1.34-8.8-2.01-13.19c-2.36,4.13-4.72,8.25-7.08,12.38
			C318.08,108.33,321.11,108.6,324.14,108.87z"/>
		<path d="M374.47,97.67c2.85,0.18,5.71,0.35,8.56,0.53c-0.21-1.1-0.63-2.73-1.61-4.47c-2.2-3.93-5.64-5.7-7.57-6.66
			c-1.79-0.89-6.46-3.13-12.54-1.99c-1.33,0.25-6.85,1.44-10.91,6.37c-2.71,3.28-3.49,6.69-4.03,8.99c-0.34,1.47-1,4.44-0.52,8.29
			c0.49,3.91,1.89,6.64,2.95,8.67c1.67,3.17,2.85,5.42,5.41,7.13c2.67,1.78,5.28,1.94,8.78,2.14c4,0.24,8.05,0.48,12.12-2.04
			c3.62-2.24,5.32-5.46,5.83-6.52c1.08-2.23,1.4-4.27,1.51-5.58c-3.22-0.01-6.43-0.02-9.65-0.03c0.02,0.57-0.02,1.52-0.61,2.39
			c-0.54,0.8-1.38,1.3-3.27,1.78c-3.28,0.83-5.43,1.37-7.78,0.3c-2.22-1.01-3.31-2.87-3.9-3.87c-2.07-3.52-1.64-7.17-1.31-9.96
			c0.35-2.91,0.61-5.1,2.36-7.16c2.11-2.48,4.95-3.09,6-3.3c1.31-0.26,4.92-0.99,7.73,1.31C373.55,95.21,374.19,96.79,374.47,97.67z
			"/>
		<path d="M390.97,127.92c0.51-13.83,1.02-27.66,1.53-41.5c8.88,0.23,17.76,0.45,26.65,0.68c4.98,2.2,7.75,7.28,6.87,12
			c-1,5.39-6.26,7.67-6.67,7.84c0.82,0.18,4.36,1.04,6.04,4.2c0.4,0.76,0.62,1.51,0.74,2.17c0.01,5.45,0.03,10.9,0.04,16.35
			c-3.93-0.12-7.86-0.24-11.79-0.36c0.16-5.09,0.32-10.18,0.48-15.26c-0.69-0.83-1.38-1.65-2.07-2.48
			c-3.48-0.11-6.96-0.21-10.44-0.32c-0.36,5.8-0.71,11.59-1.07,17.39C397.83,128.4,394.4,128.16,390.97,127.92z"/>
		<path class="st1" d="M402.87,93.58c-0.18,2.94-0.36,5.89-0.54,8.83c3.67-0.07,7.33-0.13,10.99-0.2c1.63-0.76,2.64-2.43,2.54-4.21
			c-0.1-1.72-1.21-3.23-2.83-3.84C409.65,93.96,406.26,93.77,402.87,93.58z"/>
		<path d="M434.35,128.98c4.17-13.63,8.33-27.26,12.5-40.89c3.65,0.29,7.31,0.58,10.96,0.87c5.03,13.73,10.06,27.47,15.1,41.2
			c-3.21-0.1-6.43-0.2-9.64-0.29c-0.68-2.66-1.36-5.31-2.04-7.97c-5.09-0.15-10.18-0.31-15.26-0.46c-0.88,2.65-1.77,5.31-2.65,7.96
			C440.33,129.25,437.34,129.11,434.35,128.98z"/>
		<path class="st1" d="M448.66,112.39c3.39,0.28,6.77,0.56,10.16,0.85c-1.91-4.7-3.82-9.41-5.73-14.11
			C451.61,103.55,450.14,107.97,448.66,112.39z"/>
		<path d="M482.28,130.7c-1.43-13.31-2.85-26.62-4.28-39.93c4.55,0.14,9.1,0.28,13.66,0.42c2.95,8.76,5.9,17.51,8.85,26.27
			c0.8,0.02,1.61,0.05,2.41,0.07c0.53-8.65,1.06-17.3,1.59-25.95c4.29,0.04,8.57,0.08,12.86,0.12c1.99,13.73,3.99,27.46,5.98,41.19
			c-2.68,0.01-5.36,0.02-8.04,0.02c-0.96-9.41-1.93-18.82-2.89-28.23c-1.07-0.03-2.14-0.07-3.21-0.1
			c-0.63,9.09-1.27,18.19-1.9,27.28c-2.86,0-5.72,0-8.58,0.01c-2.84-9.56-5.67-19.11-8.51-28.67c-0.89-0.03-1.79-0.05-2.68-0.08
			c1.14,9.42,2.29,18.83,3.43,28.25C488.07,131.15,485.17,130.93,482.28,130.7z"/>
		<path d="M529.09,93.94c2.35,7.99,4.46,17.12,5.87,27.25c0.69,4.98,1.16,9.74,1.44,14.25c8.57,0.17,17.14,0.34,25.71,0.51
			c0-2.86,0-5.72-0.01-8.58c-6.16-0.1-12.32-0.2-18.48-0.29c-0.52-3.41-1.04-6.82-1.56-10.23c5.81,0,11.61,0,17.42-0.01
			c-0.56-2.25-1.11-4.5-1.67-6.75c-5.8-0.36-11.59-0.71-17.39-1.07c-0.45-2.87-0.9-5.75-1.35-8.62c5.71,0.26,11.42,0.53,17.13,0.79
			c-0.55-2.43-1.1-4.86-1.65-7.29C546.07,93.92,537.58,93.93,529.09,93.94z"/>
		<path d="M573.47,137.23c-0.38-5.14-1-10.63-1.91-16.41c-1.47-9.29-3.48-17.68-5.67-25.1c2.63,0.04,5.27,0.07,7.9,0.11
			c5.56,8.03,11.13,16.06,16.69,24.09c0.72-0.07,1.43-0.14,2.15-0.2c-2.28-7.13-4.57-14.25-6.85-21.38
			c2.14-0.02,4.29-0.05,6.43-0.07c4.05,10.28,7.46,22.22,9.1,35.66c0.26,2.1,0.46,4.16,0.62,6.18c-2.32-0.07-4.64-0.14-6.96-0.21
			c-5.18-8.91-10.36-17.83-15.54-26.74c0.56,8.15,1.11,16.29,1.67,24.44C578.56,137.48,576.02,137.35,573.47,137.23z"/>
		<path d="M636.02,107.78c0.35-0.88,1.43-3.59,3.89-4.44c0.35-0.12,1.42-0.45,4.81,0.41c2,0.51,4.25,1.08,6.89,2.62
			c2.9,1.7,4.58,3.58,6.78,6.1c2.61,2.99,5.09,5.82,6.92,10.4c1.61,4.04,1.89,7.34,2.11,9.98c0.38,4.6,0.63,7.59-1.13,10.69
			c-0.51,0.89-2.03,3.57-5.23,4.67c-3.15,1.07-5.95-0.06-6.95-0.48c-3.09-1.3-4.82-3.67-7.02-7.18c-3.42-5.48-6.6-10.66-9.59-19.59
			C634.96,113.37,634.99,110.35,636.02,107.78z"/>
		<path d="M620.76,142.16c-0.41-3.48-0.96-7.13-1.68-10.91c-1.67-8.82-3.94-16.73-6.38-23.65c-3.3-0.28-6.59-0.56-9.89-0.84
			c-0.55-2.34-1.11-4.68-1.66-7.02c7.77,0.15,15.54,0.29,23.3,0.44c1.36,2.36,2.71,4.73,4.07,7.09c-2.46,0.06-4.92,0.12-7.38,0.18
			c1.82,6.02,3.55,12.61,5.03,19.72c1.16,5.56,2.05,10.87,2.73,15.9C626.19,142.77,623.48,142.46,620.76,142.16z"/>
		<path class="st1" d="M645.8,112.1c2.21-1.39,5.85,0.88,6.92,1.55c6.53,4.08,9.27,12.56,8.53,19.29c-0.19,1.68-0.55,4.99-2.59,5.82
			c-1.82,0.74-4.03-0.88-5.57-2.05c-6.32-4.76-9.46-12.76-9.04-19.84C644.24,113.52,645.11,112.53,645.8,112.1z"/>
		<path class="st6" d="M383.03,142.16c-0.23-0.42-2.07-3.69-5.9-4.33c-4.95-0.83-8.25,3.62-8.44,3.9c-2.27,3.19-1.65,6.76-1.43,8
			c0.17,0.99,0.81,4.35,3.81,6.82c0.84,0.69,2.96,2.44,5.83,2.32c3.25-0.13,6.24-2.6,7.69-6.2"/>
		<path class="st6" d="M393.11,136.83c-0.15,7.77-0.29,15.54-0.44,23.3"/>
		<path class="st6" d="M399.74,139.18c5.62,0.17,11.25,0.34,16.87,0.51"/>
		<path class="st6" d="M408.57,139.45c-0.23,7.41-0.45,14.82-0.68,22.23"/>
		<path class="st6" d="M420.66,138.74c2.83,3.93,5.66,7.86,8.49,11.78"/>
		<path class="st6" d="M436.45,139.49c-2.43,3.68-4.87,7.36-7.3,11.03"/>
		<path class="st6" d="M428.91,149.45c-0.14,4.46-0.27,8.93-0.41,13.39"/>
		<path class="st6" d="M460.76,142.11c0.35-0.05,3.19-0.4,5.58,1.51c1.75,1.4,2.25,3.2,2.79,5.18c0.42,1.52,1.26,4.56,0.02,8.04
			c-0.52,1.46-1.59,4.5-4.46,5.49c-2.42,0.84-4.69-0.26-5.61-0.71c-2.79-1.35-4.04-3.75-4.67-4.97c-0.7-1.35-1.86-3.58-1.41-6.48
			c0.46-2.97,2.33-4.79,3.12-5.53C457.04,143.78,458.46,142.43,460.76,142.11z"/>
		<path class="st6" d="M478.57,164.36c0.3-6.96,0.6-13.92,0.9-20.88c2.95,0.09,5.89,0.18,8.84,0.27"/>
		<path class="st6" d="M479.18,153.39c2.77,0.08,5.53,0.17,8.3,0.25"/>
		<path class="st6" d="M501.16,144.41c5.27,0.07,10.54,0.14,15.81,0.21"/>
		<path class="st6" d="M509.04,167.16c0.52-3.79,0.89-8.1,0.93-12.84c0.03-3.79-0.17-7.3-0.49-10.47"/>
		<path class="st6" d="M523.23,167.86c0.13-7.32,0.27-14.64,0.4-21.97c3.12,0.1,6.25,0.19,9.37,0.29c2.39,1.77,3.46,4.61,2.73,7.05
			c-0.61,2.03-2.26,3.09-2.78,3.4c-3.22-0.01-6.43-0.02-9.65-0.03"/>
		<path class="st6" d="M532.42,156.35c0.86,1.1,1.72,2.2,2.58,3.29c0.09,2.95,0.18,5.9,0.27,8.85"/>
		<path class="st6" d="M555.64,168.32c-3.92-0.3-7.84-0.6-11.77-0.89c0.11-6.52,0.22-13.04,0.33-19.56
			c3.39,0.01,6.79,0.03,10.18,0.04"/>
		<path class="st6" d="M544.47,156.72c3.39,0.1,6.78,0.21,10.18,0.31"/>
		<path class="st6" d="M572.84,149.27c-3.48-0.02-6.97-0.03-10.45-0.05c0.06,6.7,0.13,13.4,0.19,20.11
			c3.57,0.02,7.15,0.04,10.72,0.06"/>
		<path class="st6" d="M562.37,158.6c3.21,0.1,6.43,0.2,9.64,0.29"/>
		<path class="st6" d="M580.38,165.58c-0.03,0.22-0.39,3.01,1.73,4.88c1.77,1.56,3.93,1.31,4.52,1.21c2.11-0.34,4.2-1.92,4.68-4.15
			c0.56-2.58-1.35-4.71-1.98-5.42c-1.42-1.59-2.21-1.23-5.26-3.38c-2.37-1.66-4.03-2.86-4.15-4.68c-0.1-1.58,1.02-2.76,1.16-2.91
			c1.33-1.37,3.17-1.26,3.79-1.22c2.88,0.16,4.52,2.5,4.74,2.82c0.63,0.94,0.89,1.86,1,2.44"/>
	</g>
</g>
</svg>
