<?xml version="1.0" encoding="utf-8"?>
<!-- Generator: Adobe Illustrator 23.0.3, SVG Export Plug-In . SVG Version: 6.00 Build 0)  -->
<svg version="1.1" id="Layer_1" xmlns="http://www.w3.org/2000/svg" xmlns:xlink="http://www.w3.org/1999/xlink" x="0px" y="0px"
	 viewBox="0 0 1670.7 723.68" style="enable-background:new 0 0 1670.7 723.68;" xml:space="preserve">
<style type="text/css">
	.st0{fill:#43617B;}
	.st1{fill:#D5C2B4;}
</style>
<g>
	<path class="st0" d="M1037.7,63.62c0,17.2,0,34.39,0,51.59c19.58,0,39.17,0,58.75,0c0,22.93,0,45.86,0,68.78
		c19.59,0,39.18,0,58.77,0c0,17.2,0,34.39,0,51.59c20.06,0,40.11,0,60.17,0c0,15.76,0,31.53,0,47.29c19.58,0,39.17,0,58.75,0
		c0,20.54,0,41.08,0,61.62c21.02,0,42.04,0,63.05,0c0,20.55,0,41.09,0,61.64c20.54-0.01,41.08-0.01,61.62-0.02
		c0,20.54,0,41.08,0,61.62c22.46,0,44.91,0,67.37,0c0,18.63,0,37.26,0,55.89c20.06,0,40.11,0,60.17,0c0,19.59,0,39.18,0,58.77
		c21.02,0,42.04,0,63.05,0c0,24.36,0,48.72,0,73.08c20.09,0,40.17,0,60.26,0c0,17.2,0,34.4,0,51.6
		c-430.88-4.78-861.77-9.57-1292.65-14.35c-115.6,8.6-231.19,17.2-346.79,25.79c0-15.77,0-31.54,0-47.31
		c15.76-0.47,31.53-0.94,47.29-1.41c0-18.63,0-37.26,0-55.89c15.76-4.3,31.53-8.6,47.29-12.9c0-15.76,0-31.53,0-47.29
		c16.72-9.55,33.44-19.11,50.16-28.66c0-8.6,0-17.2,0-25.79c16.72-10.03,33.44-20.06,50.16-30.09c0-9.08,0-18.15,0-27.23
		c17.2-10.99,34.39-21.97,51.59-32.96c0-5.25,0-10.51,0-15.76c16.72-13.37,33.44-26.75,50.16-40.12c0-10.08,0-20.15,0-30.23
		c17.67-10.46,35.35-20.93,53.02-31.39c0-6.23,0-12.46,0-18.68c17.67-15.27,35.35-30.53,53.02-45.8c-1.33-6.52-0.89-11.83,0-15.83
		c4.42-19.86,26.12-35.11,54.45-40.06c0-11.47,0-22.95,0-34.42c17.2-9.54,34.39-19.09,51.59-28.63c0-5.73,0-11.46,0-17.2
		c43.47-21.97,86.94-43.95,130.4-65.92C778.8,37.82,908.25,50.72,1037.7,63.62z"/>
	<path class="st1" d="M1042,52.15c0,10.52,0,21.04,0,31.56C907.3,71.28,772.6,58.85,637.89,46.42
		c-40.6,17.67-81.2,35.35-121.81,53.02c0-10.99,0-21.97,0-32.96c40.6-18.63,81.2-37.26,121.81-55.89
		C772.6,24.45,907.3,38.3,1042,52.15z"/>
	<path class="st1" d="M1099.32,106.61c0,10.99,0,21.97,0,32.96c-161.45-13.85-322.91-27.71-484.36-41.56
		c-51.11,20.54-102.22,41.08-153.33,61.62c0-10.51,0-21.02,0-31.53c50.63-22.45,101.27-44.9,151.9-67.35
		C775.46,76.04,937.39,91.32,1099.32,106.61z"/>
	<path class="st1" d="M1159.51,162.49c0,10.99,0,21.97,0,32.96c-189.64-15.29-379.27-30.57-568.91-45.86
		c-60.66,23.88-121.33,47.77-181.99,71.65c0-11,0-21.99,0-32.99c60.19-24.83,120.37-49.66,180.56-74.49
		C779.28,130.01,969.4,146.25,1159.51,162.49z"/>
	<path class="st1" d="M1218.26,219.82c0,10.51,0,21.02,0,31.53c-67.35-4.3-134.7-8.6-202.05-12.9c-7.64,1.91-15.29,3.82-22.93,5.73
		c-67.83-4.78-135.66-9.55-203.49-14.33c0-2.87,0-5.73,0-8.6c-74.52-5.25-149.03-10.51-223.55-15.76
		c-70.22,24.84-140.44,49.68-210.65,74.52c0-10.99,0-21.97,0-32.96c69.74-26.75,139.48-53.5,209.22-80.25
		c76.43,5.73,152.85,11.46,229.28,17.2c0,2.87,0,5.73,0,8.6c66.4,5.25,132.79,10.51,199.19,15.76c7.64-2.39,15.29-4.78,22.93-7.17
		C1083.56,207.4,1150.91,213.61,1218.26,219.82z"/>
	<path class="st1" d="M1278.45,275.7c0,11,0,21.99,0,32.99c-66.4-4.31-132.79-8.62-199.19-12.93c-8.6,1.91-17.2,3.82-25.79,5.73
		c-95.06-5.73-190.11-11.46-285.17-17.2c0-2.39,0-4.78,0-7.17c-76.43-5.25-152.85-10.51-229.28-15.76
		c-78.34,25.79-156.68,51.59-235.01,77.38c0-10.99,0-21.97,0-32.96c77.86-27.7,155.72-55.41,233.58-83.11
		c78.34,5.25,156.68,10.51,235.01,15.76c0,3.34,0,6.69,0,10.03c96.01,5.73,192.02,11.46,288.04,17.2c5.73-1.43,11.46-2.87,17.2-4.3
		C1144.7,266.15,1211.58,270.93,1278.45,275.7z"/>
	<path class="st1" d="M1340.07,334.46c0,10.99,0,21.97,0,32.96c-66.87-3.82-133.75-7.64-200.62-11.46
		c-7.64,1.43-15.29,2.87-22.93,4.3c-123.72-7.17-247.43-14.33-371.15-21.5c0-1.91,0-3.82,0-5.73c-77.86-4.3-155.72-8.6-233.58-12.9
		c-86.46,25.79-172.92,51.59-259.38,77.38c0-10.99,0-21.97,0-32.96c85.98-27.7,171.96-55.41,257.94-83.11
		c80.25,4.3,160.5,8.6,240.75,12.9c0,3.34,0,6.69,0,10.03c121.81,7.17,243.61,14.33,365.42,21.5c8.12-1.91,16.24-3.82,24.36-5.73
		C1207.28,324.9,1273.67,329.68,1340.07,334.46z"/>
	<path class="st1" d="M1403.12,393.21c0,10.99,0,21.97,0,32.96c-67.35-2.87-134.7-5.73-202.06-8.6c-6.69,1.43-13.37,2.87-20.06,4.3
		c-151.9-7.64-303.8-15.29-455.7-22.93c0-2.39,0-4.78,0-7.17c-80.73-3.34-161.45-6.69-242.18-10.03
		c-93.62,24.36-187.25,48.72-280.87,73.08c0-10.99,0-21.97,0-32.96c93.62-26.75,187.25-53.5,280.87-80.25
		c81.68,3.82,163.36,7.64,245.05,11.46c0,2.87,0,5.73,0,8.6c151.9,8.12,303.8,16.24,455.7,24.36c6.21-1.91,12.42-3.82,18.63-5.73
		C1269.37,384.61,1336.25,388.91,1403.12,393.21z"/>
	<path class="st1" d="M1471.91,453.4c0,11,0,21.99,0,32.99c-81.2-2.88-162.41-5.75-243.61-8.63c-9.08,0.96-18.15,1.91-27.23,2.87
		c-152.38-6.69-304.75-13.37-457.13-20.06c0-1.43,0-2.87,0-4.3c-96.97-3.82-193.93-7.64-290.9-11.46
		c-100.79,22.45-201.58,44.9-302.37,67.35c0-10.99,0-21.97,0-32.96c100.79-24.84,201.58-49.68,302.37-74.52
		c98.4,3.82,196.8,7.64,295.2,11.46c0,2.39,0,4.78,0,7.17c150.94,6.69,301.89,13.37,452.83,20.06c8.6-0.96,17.2-1.91,25.79-2.87
		C1308.54,444.8,1390.22,449.1,1471.91,453.4z"/>
	<path class="st1" d="M1291.35,502.12c81.2,3.34,162.41,6.69,243.61,10.03c0,10.99,0,21.97,0,32.96
		c-81.2-1.91-162.41-3.82-243.61-5.73c-9.08,1.43-18.15,2.87-27.23,4.3c-181.52-6.69-363.03-13.37-544.55-20.06c0-1.43,0-2.87,0-4.3
		c-98.88-3.34-197.76-6.69-296.63-10.03c-107,20.06-214,40.12-321,60.19c0-10.99,0-21.97,0-32.96c107-22.45,214-44.9,321-67.35
		c100.31,3.34,200.62,6.69,300.93,10.03c0,2.39,0,4.78,0,7.17c180.56,6.69,361.12,13.37,541.68,20.06
		C1274.15,504.98,1282.75,503.55,1291.35,502.12z"/>
	<path class="st1" d="M1355.83,565.17c80.73,1.91,161.45,3.82,242.18,5.73c0,12.42,0,24.84,0,37.26
		c-80.25-1.91-160.5-3.82-240.75-5.73c-9.55,0.48-19.11,0.96-28.66,1.43c-211.13-4.78-422.26-9.55-633.39-14.33c0-1.43,0-2.87,0-4.3
		c-101.27-2.39-202.53-4.78-303.8-7.17C278.21,593.83,165,609.59,51.79,625.36c0-10.51,0-21.02,0-31.53
		c113.21-19.11,226.42-38.21,339.62-57.32c103.18,2.87,206.35,5.73,309.53,8.6c0,1.91,0,3.82,0,5.73
		c210.18,6.21,420.35,12.42,630.53,18.63C1339.59,568.04,1347.71,566.6,1355.83,565.17z"/>
	<path class="st1" d="M1423.18,672.65c80.45,0.1,160.22,1.07,239.31,2.87c0-13.37,0-26.75,0-40.12
		c-80.25-1.43-160.5-2.87-240.75-4.3c-9.08,0.96-18.15,1.91-27.23,2.87c-12.9-0.48-25.79-0.96-38.69-1.43
		c-10.51,1.43-21.02,2.87-31.53,4.3c-33.44-1.43-66.87-2.87-100.31-4.3c0,13.85,0,27.7,0,41.56c32.96-0.96,65.92-1.91,98.88-2.87
		c10.03-0.48,20.06-0.96,30.09-1.43c13.85,0.96,27.7,1.91,41.56,2.87C1404.07,672.64,1413.62,672.64,1423.18,672.65z"/>
	<path class="st1" d="M1.63,681.25c0-10.55,0-21.1,0-31.66c118.46-14.29,236.92-28.57,355.39-42.86
		c105.57,1.91,211.13,3.82,316.7,5.73c0,1.91,0,3.82,0,5.73c14.81,0.48,29.62,0.96,44.42,1.43c0,1.51,0,3.02,0,4.53
		c14.81,0,29.62,0,44.42,0c0,11.86,0,23.73,0,35.59c-15.29,0-30.57,0-45.86,0c0-1.51,0-3.02,0-4.53c-14.81,0-29.63,0-44.44,0
		c0,1.51,0,3.02,0,4.53c-104.6-1.91-209.21-3.82-313.81-5.73C239.51,663.09,120.57,672.17,1.63,681.25z"/>
</g>
</svg>
